G04 DipTrace 3.2.0.1*
G04 BottomSilk.gbr*
%MOIN*%
G04 #@! TF.FileFunction,Legend,Bot*
G04 #@! TF.Part,Single*
%ADD10C,0.009843*%
%ADD14C,0.001969*%
%ADD62C,0.003088*%
%FSLAX26Y26*%
G04*
G70*
G90*
G75*
G01*
G04 BotSilk*
%LPD*%
X-400375Y-480405D2*
D10*
X-141951Y-631222D1*
X-309094Y-323995D2*
X-50670Y-474813D1*
X-322179Y-526028D2*
X-230898Y-369619D1*
X241188Y-334200D2*
X263109Y-322639D1*
X263722Y-322534D2*
X275264Y-344470D1*
X119291Y479528D2*
X50787D1*
Y616929D1*
X119291D1*
Y479528D1*
X-52362D2*
X-120866D1*
Y616929D1*
X-52362D1*
Y479528D1*
X-27165Y393701D2*
X-164567D1*
Y325197D1*
X-27165D1*
Y393701D1*
X166535D2*
X29134D1*
Y325197D1*
X166535D1*
Y393701D1*
X25594Y539367D2*
X-25591D1*
Y562995D1*
X25594D1*
Y539367D1*
X-39370Y511809D2*
X-403551Y-1728D2*
G02X-403551Y-1728I439011J0D01*
G01*
X344525Y307311D2*
X-273606D1*
X344525Y-310768D2*
X-273606D1*
X-417276Y254195D2*
Y77024D1*
Y-80481D2*
Y-257652D1*
Y254195D2*
X-318929D1*
X-417276Y-257652D2*
X-318929D1*
X-112448Y-507400D2*
D14*
X-96699D1*
X-83904D2*
X-77999D1*
X-112444Y-508384D2*
X-96699D1*
X-85642D2*
X-76110D1*
X-112409Y-509368D2*
X-96699D1*
X-87076D2*
X-74595D1*
X-112284Y-510352D2*
X-96699D1*
X-88150D2*
X-73454D1*
X-112044Y-511337D2*
X-108358D1*
X-99652D2*
X-96699D1*
X-89003D2*
X-82723D1*
X-79180D2*
X-72617D1*
X-111757Y-512321D2*
X-108111D1*
X-99652D2*
X-96699D1*
X-89721D2*
X-84245D1*
X-77655D2*
X-71997D1*
X-111460Y-513305D2*
X-107821D1*
X-99652D2*
X-96699D1*
X-90245D2*
X-85408D1*
X-76470D2*
X-71561D1*
X-111133Y-514289D2*
X-107523D1*
X-99652D2*
X-96699D1*
X-90567D2*
X-86223D1*
X-75600D2*
X-71278D1*
X-110835Y-515274D2*
X-107192D1*
X-99652D2*
X-96699D1*
X-90794D2*
X-86857D1*
X-74963D2*
X-71032D1*
X-110612Y-516258D2*
X-106863D1*
X-74523D2*
X-70743D1*
X-110388Y-517242D2*
X-106549D1*
X-74271D2*
X-70469D1*
X-110104Y-518226D2*
X-106215D1*
X-74149D2*
X-70290D1*
X-109799Y-519211D2*
X-105915D1*
X-74095D2*
X-70196D1*
X-109495Y-520195D2*
X-105691D1*
X-74074D2*
X-70153D1*
X-109162Y-521179D2*
X-105467D1*
X-74066D2*
X-70135D1*
X-108832Y-522163D2*
X-105183D1*
X-74063D2*
X-70128D1*
X-108518Y-523148D2*
X-104878D1*
X-74062D2*
X-70126D1*
X-108184Y-524132D2*
X-104574D1*
X-74062D2*
X-70129D1*
X-107884Y-525116D2*
X-104241D1*
X-74066D2*
X-70163D1*
X-107659Y-526100D2*
X-103911D1*
X-74100D2*
X-70289D1*
X-107436Y-527085D2*
X-103596D1*
X-74229D2*
X-70524D1*
X-107152Y-528069D2*
X-103263D1*
X-74504D2*
X-70780D1*
X-106847Y-529053D2*
X-102962D1*
X-90794D2*
X-86857D1*
X-74924D2*
X-70987D1*
X-106543Y-530037D2*
X-102738D1*
X-90604D2*
X-86274D1*
X-75545D2*
X-71207D1*
X-106209Y-531022D2*
X-102514D1*
X-90230D2*
X-85499D1*
X-76367D2*
X-71523D1*
X-105880Y-532006D2*
X-102230D1*
X-89697D2*
X-83653D1*
X-78233D2*
X-71957D1*
X-105565Y-532990D2*
X-101925D1*
X-89070D2*
X-81058D1*
X-80839D2*
X-72542D1*
X-105231Y-533974D2*
X-101621D1*
X-88244D2*
X-73363D1*
X-104932Y-534959D2*
X-101283D1*
X-87063D2*
X-74533D1*
X-104727Y-535943D2*
X-100945D1*
X-85557D2*
X-76137D1*
X-104573Y-536927D2*
X-100636D1*
X-83904D2*
X-77999D1*
X324867Y-411634D2*
X338647D1*
X343568D2*
X347505D1*
X359316D2*
X362269D1*
X374080D2*
X378017D1*
X387860D2*
X395734D1*
X323130Y-412618D2*
X338647D1*
X343905D2*
X347543D1*
X359279D2*
X362421D1*
X374043D2*
X377681D1*
X386130D2*
X397471D1*
X321700Y-413602D2*
X338647D1*
X344202D2*
X347669D1*
X359153D2*
X362665D1*
X373916D2*
X377388D1*
X384585D2*
X398901D1*
X320657Y-414587D2*
X338647D1*
X344423D2*
X347905D1*
X358913D2*
X362924D1*
X373681D2*
X377197D1*
X383787D2*
X399941D1*
X319894Y-415571D2*
X326049D1*
X334710D2*
X338647D1*
X344645D2*
X348161D1*
X358626D2*
X363131D1*
X373424D2*
X377066D1*
X383675D2*
X388844D1*
X394552D2*
X400668D1*
X319287Y-416555D2*
X324528D1*
X334710D2*
X338647D1*
X344924D2*
X348367D1*
X358329D2*
X363348D1*
X373218D2*
X376897D1*
X383923D2*
X385891D1*
X396073D2*
X401151D1*
X318782Y-417539D2*
X323378D1*
X334710D2*
X338647D1*
X345198D2*
X348584D1*
X358002D2*
X363625D1*
X373001D2*
X376644D1*
X397220D2*
X401419D1*
X318401Y-418524D2*
X322504D1*
X334710D2*
X338647D1*
X345411D2*
X348862D1*
X357704D2*
X363899D1*
X372724D2*
X376381D1*
X398082D2*
X401548D1*
X318173Y-419508D2*
X322199D1*
X334710D2*
X338647D1*
X345630D2*
X349135D1*
X357480D2*
X364112D1*
X372454D2*
X376172D1*
X398335D2*
X401604D1*
X318060Y-420492D2*
X322035D1*
X334710D2*
X338647D1*
X345908D2*
X349348D1*
X357257D2*
X364331D1*
X372272D2*
X375954D1*
X398192D2*
X401622D1*
X318010Y-421476D2*
X321962D1*
X334710D2*
X338647D1*
X346182D2*
X349567D1*
X356977D2*
X364609D1*
X372144D2*
X375677D1*
X397680D2*
X401592D1*
X317990Y-422461D2*
X321932D1*
X334710D2*
X338647D1*
X346395D2*
X349845D1*
X356703D2*
X359312D1*
X361095D2*
X364883D1*
X371976D2*
X375403D1*
X396239D2*
X401431D1*
X317982Y-423445D2*
X321921D1*
X334710D2*
X338647D1*
X346614D2*
X350115D1*
X356490D2*
X359278D1*
X361705D2*
X365096D1*
X371722D2*
X375190D1*
X393975D2*
X401029D1*
X317979Y-424429D2*
X321917D1*
X334710D2*
X338647D1*
X346893D2*
X350297D1*
X356270D2*
X359152D1*
X362160D2*
X365315D1*
X371459D2*
X374971D1*
X391107D2*
X400327D1*
X317978Y-425413D2*
X321915D1*
X334710D2*
X338647D1*
X347166D2*
X350426D1*
X355992D2*
X358917D1*
X362556D2*
X365593D1*
X371251D2*
X374693D1*
X388327D2*
X399228D1*
X317978Y-426398D2*
X321915D1*
X334710D2*
X338647D1*
X347379D2*
X350594D1*
X355718D2*
X358660D1*
X362881D2*
X365867D1*
X371033D2*
X374419D1*
X386143D2*
X397468D1*
X317978Y-427382D2*
X321915D1*
X334710D2*
X338647D1*
X347598D2*
X350847D1*
X355505D2*
X358454D1*
X363115D2*
X366080D1*
X370755D2*
X374206D1*
X384617D2*
X394910D1*
X317978Y-428366D2*
X321915D1*
X334710D2*
X338647D1*
X347877D2*
X351110D1*
X355286D2*
X358237D1*
X363342D2*
X366299D1*
X370486D2*
X373987D1*
X383593D2*
X391956D1*
X317978Y-429350D2*
X321915D1*
X334710D2*
X338647D1*
X348151D2*
X351319D1*
X355008D2*
X357956D1*
X363623D2*
X366585D1*
X370300D2*
X373708D1*
X382893D2*
X389334D1*
X317978Y-430335D2*
X321915D1*
X334710D2*
X338647D1*
X348364D2*
X351540D1*
X354734D2*
X357652D1*
X363898D2*
X366930D1*
X370131D2*
X373435D1*
X382428D2*
X387455D1*
X317982Y-431319D2*
X321919D1*
X334710D2*
X338647D1*
X348583D2*
X351856D1*
X354518D2*
X357348D1*
X364111D2*
X367414D1*
X369899D2*
X373222D1*
X382168D2*
X386089D1*
X318016Y-432303D2*
X321957D1*
X334710D2*
X338647D1*
X348861D2*
X352280D1*
X354272D2*
X357019D1*
X364331D2*
X368185D1*
X369122D2*
X373003D1*
X382043D2*
X385537D1*
X318145Y-433287D2*
X322125D1*
X334710D2*
X338647D1*
X349131D2*
X352810D1*
X353891D2*
X356720D1*
X364613D2*
X372724D1*
X381992D2*
X385501D1*
X318416Y-434272D2*
X322443D1*
X334710D2*
X338647D1*
X349313D2*
X356496D1*
X364917D2*
X372450D1*
X382009D2*
X385822D1*
X318797Y-435256D2*
X323363D1*
X334710D2*
X338647D1*
X349442D2*
X356273D1*
X365221D2*
X372237D1*
X382165D2*
X386645D1*
X400655D2*
X401639D1*
X319247Y-436240D2*
X326059D1*
X334710D2*
X338647D1*
X349610D2*
X355993D1*
X365551D2*
X372018D1*
X382561D2*
X389177D1*
X397255D2*
X402165D1*
X319793Y-437224D2*
X330357D1*
X334710D2*
X338647D1*
X349863D2*
X355718D1*
X365850D2*
X371740D1*
X383220D2*
X393034D1*
X392880D2*
X402845D1*
X320570Y-438209D2*
X338647D1*
X350122D2*
X355502D1*
X366076D2*
X371470D1*
X384118D2*
X403608D1*
X321725Y-439193D2*
X338647D1*
X350297D2*
X355256D1*
X366327D2*
X371291D1*
X385337D2*
X401458D1*
X323221Y-440177D2*
X338647D1*
X350394D2*
X354875D1*
X366709D2*
X371192D1*
X386966D2*
X399144D1*
X324867Y-441161D2*
X338647D1*
X350458D2*
X354395D1*
X367190D2*
X371127D1*
X388844D2*
X396718D1*
X130110Y562354D2*
X134047D1*
X156685D2*
X171449D1*
X130484Y561370D2*
X134421D1*
X155250D2*
X171449D1*
X130907Y560386D2*
X134844D1*
X154022D2*
X171449D1*
X131364Y559402D2*
X135301D1*
X153055D2*
X171449D1*
X131842Y558417D2*
X135775D1*
X152372D2*
X158019D1*
X167512D2*
X171449D1*
X132328Y557433D2*
X136230D1*
X151888D2*
X156741D1*
X167512D2*
X171449D1*
X132819Y556449D2*
X136626D1*
X151482D2*
X155846D1*
X167512D2*
X171449D1*
X133309Y555465D2*
X136976D1*
X151161D2*
X155175D1*
X167512D2*
X171449D1*
X133802Y554480D2*
X137357D1*
X150995D2*
X154977D1*
X167512D2*
X171449D1*
X134293Y553496D2*
X137788D1*
X151019D2*
X154903D1*
X167512D2*
X171449D1*
X134786Y552512D2*
X138250D1*
X151213D2*
X155149D1*
X167512D2*
X171449D1*
X135277Y551528D2*
X138730D1*
X151485D2*
X155809D1*
X167512D2*
X171449D1*
X127157Y550543D2*
X130110D1*
X135766D2*
X139217D1*
X151813D2*
X158402D1*
X167512D2*
X171449D1*
X127157Y549559D2*
X130110D1*
X136227D2*
X139708D1*
X152305D2*
X162849D1*
X167512D2*
X171449D1*
X127157Y548575D2*
X130110D1*
X136625D2*
X140199D1*
X153029D2*
X171449D1*
X127157Y547591D2*
X130110D1*
X136975D2*
X140691D1*
X153953D2*
X171449D1*
X127157Y546606D2*
X130110D1*
X137357D2*
X141183D1*
X154911D2*
X171449D1*
X127157Y545622D2*
X130110D1*
X137788D2*
X141676D1*
X155754D2*
X171449D1*
X127150Y544638D2*
X130110D1*
X138253D2*
X142167D1*
X155957D2*
X160778D1*
X167512D2*
X171449D1*
X127081Y543654D2*
X130110D1*
X138759D2*
X142656D1*
X155686D2*
X160072D1*
X167512D2*
X171449D1*
X126919Y542669D2*
X130110D1*
X139328D2*
X143113D1*
X155232D2*
X159472D1*
X167512D2*
X171449D1*
X126381Y541685D2*
X130110D1*
X139953D2*
X143476D1*
X154656D2*
X158931D1*
X167512D2*
X171449D1*
X125859Y540701D2*
X143697D1*
X154076D2*
X158420D1*
X167512D2*
X171449D1*
X125512Y539717D2*
X143809D1*
X153532D2*
X157919D1*
X167512D2*
X171449D1*
X125328Y538732D2*
X143860D1*
X153012D2*
X157425D1*
X167512D2*
X171449D1*
X125240Y537748D2*
X143890D1*
X152509D2*
X156931D1*
X167512D2*
X171449D1*
X127157Y536764D2*
X130110D1*
X152012D2*
X156440D1*
X167512D2*
X171449D1*
X127157Y535780D2*
X130110D1*
X151516D2*
X155950D1*
X167512D2*
X171449D1*
X127157Y534795D2*
X130110D1*
X150997D2*
X155484D1*
X167512D2*
X171449D1*
X127157Y533811D2*
X130110D1*
X150422D2*
X155074D1*
X167512D2*
X171449D1*
X127157Y532827D2*
X130110D1*
X149795D2*
X154717D1*
X167512D2*
X171449D1*
X-174349Y557034D2*
X-159585D1*
X-145806D2*
X-131042D1*
X-174349Y556050D2*
X-159585D1*
X-147241D2*
X-131042D1*
X-174349Y555066D2*
X-159585D1*
X-148469D2*
X-131042D1*
X-174349Y554081D2*
X-159585D1*
X-149436D2*
X-131042D1*
X-163522Y553097D2*
X-159585D1*
X-150119D2*
X-144472D1*
X-134979D2*
X-131042D1*
X-163522Y552113D2*
X-159585D1*
X-150602D2*
X-145750D1*
X-134979D2*
X-131042D1*
X-163522Y551129D2*
X-159585D1*
X-151008D2*
X-146645D1*
X-134979D2*
X-131042D1*
X-163526Y550144D2*
X-159585D1*
X-151330D2*
X-147316D1*
X-134979D2*
X-131042D1*
X-163564Y549160D2*
X-159585D1*
X-151496D2*
X-147514D1*
X-134979D2*
X-131042D1*
X-163716Y548176D2*
X-159585D1*
X-151472D2*
X-147588D1*
X-134979D2*
X-131042D1*
X-170412Y547192D2*
X-165491D1*
X-164052D2*
X-159585D1*
X-151278D2*
X-147342D1*
X-134979D2*
X-131042D1*
X-171813Y546207D2*
X-159585D1*
X-151006D2*
X-146682D1*
X-134979D2*
X-131042D1*
X-172950Y545223D2*
X-159585D1*
X-150678D2*
X-144089D1*
X-134979D2*
X-131042D1*
X-173803Y544239D2*
X-159585D1*
X-150185D2*
X-139642D1*
X-134979D2*
X-131042D1*
X-174434Y543255D2*
X-169390D1*
X-165672D2*
X-159585D1*
X-149462D2*
X-131042D1*
X-174873Y542270D2*
X-170245D1*
X-164049D2*
X-159585D1*
X-148538D2*
X-131042D1*
X-175124Y541286D2*
X-170954D1*
X-162538D2*
X-159585D1*
X-147579D2*
X-131042D1*
X-175246Y540302D2*
X-171522D1*
X-146737D2*
X-131042D1*
X-175300Y539318D2*
X-171935D1*
X-146534D2*
X-141713D1*
X-134979D2*
X-131042D1*
X-175321Y538333D2*
X-172173D1*
X-146805D2*
X-142418D1*
X-134979D2*
X-131042D1*
X-175329Y537349D2*
X-172257D1*
X-147258D2*
X-143019D1*
X-134979D2*
X-131042D1*
X-175332Y536365D2*
X-172180D1*
X-147835D2*
X-143560D1*
X-134979D2*
X-131042D1*
X-175329Y535381D2*
X-171926D1*
X-148414D2*
X-144071D1*
X-134979D2*
X-131042D1*
X-175295Y534396D2*
X-171507D1*
X-162538D2*
X-159585D1*
X-148959D2*
X-144572D1*
X-134979D2*
X-131042D1*
X-175166Y533412D2*
X-170967D1*
X-163186D2*
X-159741D1*
X-149479D2*
X-145066D1*
X-134979D2*
X-131042D1*
X-174891Y532428D2*
X-169663D1*
X-164897D2*
X-160024D1*
X-149981D2*
X-145560D1*
X-134979D2*
X-131042D1*
X-174471Y531444D2*
X-167768D1*
X-167410D2*
X-160446D1*
X-150479D2*
X-146051D1*
X-134979D2*
X-131042D1*
X-173863Y530459D2*
X-161056D1*
X-150975D2*
X-146541D1*
X-134979D2*
X-131042D1*
X-172968Y529475D2*
X-161950D1*
X-151494D2*
X-147007D1*
X-134979D2*
X-131042D1*
X-171772Y528491D2*
X-163146D1*
X-152068D2*
X-147417D1*
X-134979D2*
X-131042D1*
X-170412Y527507D2*
X-164507D1*
X-152696D2*
X-147774D1*
X-134979D2*
X-131042D1*
X-222526Y366853D2*
X-206778D1*
X-193983D2*
X-179219D1*
X-222522Y365869D2*
X-206778D1*
X-195418D2*
X-179219D1*
X-222488Y364885D2*
X-206778D1*
X-196646D2*
X-179219D1*
X-222362Y363900D2*
X-206778D1*
X-197613D2*
X-179219D1*
X-222123Y362916D2*
X-218437D1*
X-209731D2*
X-206778D1*
X-198296D2*
X-192649D1*
X-183156D2*
X-179219D1*
X-221836Y361932D2*
X-218189D1*
X-209731D2*
X-206778D1*
X-198780D2*
X-193927D1*
X-183156D2*
X-179219D1*
X-221539Y360948D2*
X-217900D1*
X-209731D2*
X-206778D1*
X-199186D2*
X-194822D1*
X-183156D2*
X-179219D1*
X-221212Y359963D2*
X-217602D1*
X-209731D2*
X-206778D1*
X-199507D2*
X-195493D1*
X-183156D2*
X-179219D1*
X-220914Y358979D2*
X-217271D1*
X-209731D2*
X-206778D1*
X-199673D2*
X-195691D1*
X-183156D2*
X-179219D1*
X-220690Y357995D2*
X-216942D1*
X-199649D2*
X-195765D1*
X-183156D2*
X-179219D1*
X-220467Y357010D2*
X-216628D1*
X-199455D2*
X-195519D1*
X-183156D2*
X-179219D1*
X-220183Y356026D2*
X-216294D1*
X-199183D2*
X-194859D1*
X-183156D2*
X-179219D1*
X-219878Y355042D2*
X-215994D1*
X-198855D2*
X-192266D1*
X-183156D2*
X-179219D1*
X-219574Y354058D2*
X-215769D1*
X-198363D2*
X-187819D1*
X-183156D2*
X-179219D1*
X-219241Y353073D2*
X-215546D1*
X-197639D2*
X-179219D1*
X-218911Y352089D2*
X-215262D1*
X-196715D2*
X-179219D1*
X-218596Y351105D2*
X-214957D1*
X-195757D2*
X-179219D1*
X-218263Y350121D2*
X-214653D1*
X-194914D2*
X-179219D1*
X-217962Y349136D2*
X-214319D1*
X-194711D2*
X-189890D1*
X-183156D2*
X-179219D1*
X-217738Y348152D2*
X-213990D1*
X-194982D2*
X-190596D1*
X-183156D2*
X-179219D1*
X-217514Y347168D2*
X-213675D1*
X-195436D2*
X-191196D1*
X-183156D2*
X-179219D1*
X-217230Y346184D2*
X-213341D1*
X-196012D2*
X-191737D1*
X-183156D2*
X-179219D1*
X-216925Y345199D2*
X-213041D1*
X-196592D2*
X-192248D1*
X-183156D2*
X-179219D1*
X-216621Y344215D2*
X-212817D1*
X-197136D2*
X-192749D1*
X-183156D2*
X-179219D1*
X-216288Y343231D2*
X-212593D1*
X-197656D2*
X-193243D1*
X-183156D2*
X-179219D1*
X-215958Y342247D2*
X-212309D1*
X-198159D2*
X-193737D1*
X-183156D2*
X-179219D1*
X-215644Y341262D2*
X-212004D1*
X-198656D2*
X-194228D1*
X-183156D2*
X-179219D1*
X-215310Y340278D2*
X-211699D1*
X-199152D2*
X-194718D1*
X-183156D2*
X-179219D1*
X-215011Y339294D2*
X-211361D1*
X-199671D2*
X-195184D1*
X-183156D2*
X-179219D1*
X-214805Y338310D2*
X-211024D1*
X-200246D2*
X-195594D1*
X-183156D2*
X-179219D1*
X-214652Y337325D2*
X-210715D1*
X-200873D2*
X-195951D1*
X-183156D2*
X-179219D1*
X189209Y371966D2*
X192161D1*
X213815D2*
X228579D1*
X189583Y370982D2*
X192990D1*
X212380D2*
X228579D1*
X190006Y369997D2*
X193695D1*
X211152D2*
X228579D1*
X190463Y369013D2*
X194295D1*
X210184D2*
X228579D1*
X190941Y368029D2*
X194837D1*
X209502D2*
X215149D1*
X224642D2*
X228579D1*
X191426Y367045D2*
X195348D1*
X209018D2*
X213871D1*
X224642D2*
X228579D1*
X191917Y366060D2*
X195849D1*
X208612D2*
X212976D1*
X224642D2*
X228579D1*
X192407Y365076D2*
X196343D1*
X208291D2*
X212305D1*
X224642D2*
X228579D1*
X192897Y364092D2*
X196837D1*
X208125D2*
X212107D1*
X224642D2*
X228579D1*
X193363Y363108D2*
X197328D1*
X208148D2*
X212033D1*
X224642D2*
X228579D1*
X193773Y362123D2*
X197821D1*
X208342D2*
X212279D1*
X224642D2*
X228579D1*
X194130Y361139D2*
X198313D1*
X208615D2*
X212939D1*
X224642D2*
X228579D1*
X191328Y360155D2*
X198802D1*
X208943D2*
X215531D1*
X224642D2*
X228579D1*
X189217Y359171D2*
X199262D1*
X209435D2*
X219979D1*
X224642D2*
X228579D1*
X187699Y358186D2*
X199660D1*
X210159D2*
X228579D1*
X186625Y357202D2*
X200007D1*
X211083D2*
X228579D1*
X185819Y356218D2*
X191527D1*
X195077D2*
X200354D1*
X212041D2*
X228579D1*
X185537Y355234D2*
X190249D1*
X195931D2*
X200656D1*
X212884D2*
X228579D1*
X185384Y354249D2*
X189354D1*
X196641D2*
X200847D1*
X213087D2*
X217908D1*
X224642D2*
X228579D1*
X185316Y353265D2*
X188683D1*
X197205D2*
X200946D1*
X212816D2*
X217202D1*
X224642D2*
X228579D1*
X185288Y352281D2*
X188451D1*
X197583D2*
X200991D1*
X212362D2*
X216602D1*
X224642D2*
X228579D1*
X185277Y351297D2*
X188358D1*
X197791D2*
X201009D1*
X211786D2*
X216061D1*
X224642D2*
X228579D1*
X185277Y350312D2*
X188433D1*
X197564D2*
X201012D1*
X211206D2*
X215549D1*
X224642D2*
X228579D1*
X185311Y349328D2*
X188642D1*
X197170D2*
X200980D1*
X210661D2*
X215049D1*
X224642D2*
X228579D1*
X185440Y348344D2*
X189219D1*
X196647D2*
X200852D1*
X210142D2*
X214555D1*
X224642D2*
X228579D1*
X185714Y347360D2*
X190785D1*
X195347D2*
X200578D1*
X209639D2*
X214061D1*
X224642D2*
X228579D1*
X186134Y346375D2*
X193186D1*
X193454D2*
X200158D1*
X209142D2*
X213569D1*
X224642D2*
X228579D1*
X186742Y345391D2*
X199549D1*
X208646D2*
X213080D1*
X224642D2*
X228579D1*
X187637Y344407D2*
X198654D1*
X208127D2*
X212614D1*
X224642D2*
X228579D1*
X188833Y343423D2*
X197459D1*
X207552D2*
X212204D1*
X224642D2*
X228579D1*
X190193Y342438D2*
X196098D1*
X206925D2*
X211846D1*
X224642D2*
X228579D1*
X-34430Y478643D2*
X-19667D1*
X-4903D2*
X1003D1*
X21672D2*
X36436D1*
X-36167Y477659D2*
X-19667D1*
X-6640D2*
X2774D1*
X20237D2*
X36436D1*
X-37438Y476675D2*
X-19667D1*
X-8074D2*
X4299D1*
X19009D2*
X36436D1*
X-38325Y475690D2*
X-19667D1*
X-9148D2*
X5484D1*
X18041D2*
X36436D1*
X-38989Y474706D2*
X-34389D1*
X-23604D2*
X-19667D1*
X-10002D2*
X-3721D1*
X-179D2*
X6354D1*
X17359D2*
X23006D1*
X32499D2*
X36436D1*
X-39517Y473722D2*
X-35209D1*
X-23604D2*
X-19667D1*
X-10720D2*
X-5244D1*
X1346D2*
X6991D1*
X16875D2*
X21728D1*
X32499D2*
X36436D1*
X-39904Y472738D2*
X-35793D1*
X-23604D2*
X-19667D1*
X-11244D2*
X-6407D1*
X2531D2*
X7435D1*
X16469D2*
X20833D1*
X32499D2*
X36436D1*
X-40100Y471753D2*
X-36122D1*
X-23604D2*
X-19667D1*
X-11566D2*
X-7222D1*
X3401D2*
X7721D1*
X16148D2*
X20162D1*
X32499D2*
X36436D1*
X-40085Y470769D2*
X-36244D1*
X-23604D2*
X-19667D1*
X-11793D2*
X-7856D1*
X4038D2*
X7969D1*
X15982D2*
X19964D1*
X32499D2*
X36436D1*
X-39862Y469785D2*
X-36238D1*
X-23604D2*
X-19667D1*
X4479D2*
X8258D1*
X16005D2*
X19890D1*
X32499D2*
X36436D1*
X-39466Y468801D2*
X-35723D1*
X-23604D2*
X-19667D1*
X4730D2*
X8532D1*
X16199D2*
X20136D1*
X32499D2*
X36436D1*
X-38906Y467816D2*
X-33292D1*
X-23604D2*
X-19667D1*
X4852D2*
X8712D1*
X16472D2*
X20796D1*
X32499D2*
X36436D1*
X-38208Y466832D2*
X-29048D1*
X-23604D2*
X-19667D1*
X4906D2*
X8806D1*
X16800D2*
X23388D1*
X32499D2*
X36436D1*
X-37546Y465848D2*
X-19667D1*
X4927D2*
X8849D1*
X17292D2*
X27836D1*
X32499D2*
X36436D1*
X-37026Y464864D2*
X-19667D1*
X-12777D2*
X-2934D1*
X4935D2*
X8866D1*
X18016D2*
X36436D1*
X-37112Y463879D2*
X-19667D1*
X-12777D2*
X-2934D1*
X4938D2*
X8873D1*
X18940D2*
X36436D1*
X-37723Y462895D2*
X-19667D1*
X-12777D2*
X-2934D1*
X4939D2*
X8875D1*
X19898D2*
X36436D1*
X-38470Y461911D2*
X-34393D1*
X-23604D2*
X-19667D1*
X-12773D2*
X-2934D1*
X4939D2*
X8872D1*
X20740D2*
X36436D1*
X-39202Y460927D2*
X-35247D1*
X-23604D2*
X-19667D1*
X-12738D2*
X-8840D1*
X4940D2*
X8838D1*
X20944D2*
X25765D1*
X32499D2*
X36436D1*
X-39751Y459942D2*
X-35953D1*
X-23604D2*
X-19667D1*
X-12613D2*
X-8836D1*
X4936D2*
X8713D1*
X20673D2*
X25059D1*
X32499D2*
X36436D1*
X-40070Y458958D2*
X-36487D1*
X-23604D2*
X-19667D1*
X-12377D2*
X-8798D1*
X4901D2*
X8477D1*
X20219D2*
X24459D1*
X32499D2*
X36436D1*
X-40226Y457974D2*
X-36881D1*
X-23604D2*
X-19667D1*
X-12121D2*
X-8638D1*
X4772D2*
X8221D1*
X19643D2*
X23918D1*
X32499D2*
X36436D1*
X-40289Y456990D2*
X-36761D1*
X-23604D2*
X-19667D1*
X-11915D2*
X-8265D1*
X4490D2*
X8015D1*
X19063D2*
X23406D1*
X32499D2*
X36436D1*
X-40282Y456005D2*
X-36498D1*
X-23604D2*
X-19667D1*
X-11694D2*
X-7650D1*
X4097D2*
X7794D1*
X18518D2*
X22906D1*
X32499D2*
X36436D1*
X-40163Y455021D2*
X-35723D1*
X-23604D2*
X-19667D1*
X-11378D2*
X-6859D1*
X3257D2*
X7478D1*
X17999D2*
X22412D1*
X32499D2*
X36436D1*
X-39892Y454037D2*
X-32951D1*
X-23604D2*
X-19667D1*
X-10945D2*
X-4773D1*
X1054D2*
X7045D1*
X17496D2*
X21918D1*
X32499D2*
X36436D1*
X-39473Y453052D2*
X-28371D1*
X-23604D2*
X-19667D1*
X-10359D2*
X-1691D1*
X-2127D2*
X6459D1*
X16999D2*
X21426D1*
X32499D2*
X36436D1*
X-38865Y452068D2*
X-19667D1*
X-9539D2*
X5638D1*
X16503D2*
X20936D1*
X32499D2*
X36436D1*
X-37971Y451084D2*
X-19667D1*
X-8368D2*
X4468D1*
X15984D2*
X20471D1*
X32499D2*
X36436D1*
X-36775Y450100D2*
X-19667D1*
X-6765D2*
X2865D1*
X15409D2*
X20061D1*
X32499D2*
X36436D1*
X-35415Y449115D2*
X-19667D1*
X-4903D2*
X1003D1*
X14782D2*
X19703D1*
X32499D2*
X36436D1*
X-95248Y10054D2*
X-88358D1*
X-71626D2*
X-65720D1*
X-48988D2*
X-43083D1*
X-26350D2*
X-19461D1*
X-1744D2*
X13020D1*
X26799D2*
X32705D1*
X-96531Y9070D2*
X-86957D1*
X-73061D2*
X-64319D1*
X-50423D2*
X-41648D1*
X-27633D2*
X-18060D1*
X-3179D2*
X13020D1*
X25062D2*
X34594D1*
X-97519Y8085D2*
X-85820D1*
X-74289D2*
X-63182D1*
X-51651D2*
X-40419D1*
X-28621D2*
X-16923D1*
X-4407D2*
X13020D1*
X23628D2*
X36109D1*
X-98262Y7101D2*
X-84967D1*
X-75253D2*
X-62329D1*
X-52615D2*
X-39456D1*
X-29365D2*
X-16070D1*
X-5375D2*
X13020D1*
X22554D2*
X37250D1*
X-98863Y6117D2*
X-93045D1*
X-89689D2*
X-84336D1*
X-76009D2*
X-70292D1*
X-66705D2*
X-61698D1*
X-53371D2*
X-47769D1*
X-44302D2*
X-38700D1*
X-29966D2*
X-24147D1*
X-20791D2*
X-15438D1*
X-6057D2*
X-410D1*
X9083D2*
X13020D1*
X21701D2*
X27981D1*
X31523D2*
X38087D1*
X-99362Y5133D2*
X-94440D1*
X-88377D2*
X-83894D1*
X-76286D2*
X-71570D1*
X-65720D2*
X-61256D1*
X-53648D2*
X-49164D1*
X-42906D2*
X-38385D1*
X-30464D2*
X-25542D1*
X-19480D2*
X-14997D1*
X-6541D2*
X-1688D1*
X9083D2*
X13020D1*
X20982D2*
X26458D1*
X33048D2*
X38706D1*
X-99708Y4148D2*
X-95513D1*
X-87337D2*
X-83626D1*
X-76436D2*
X-72461D1*
X-64736D2*
X-60988D1*
X-53798D2*
X-50237D1*
X-41833D2*
X-38109D1*
X-30810D2*
X-26615D1*
X-18439D2*
X-14728D1*
X-6947D2*
X-2583D1*
X9083D2*
X13020D1*
X20458D2*
X25296D1*
X34233D2*
X39143D1*
X-99899Y3164D2*
X-95935D1*
X-86390D2*
X-83437D1*
X-76500D2*
X-73120D1*
X-63752D2*
X-60799D1*
X-53866D2*
X-50610D1*
X-41460D2*
X-37806D1*
X-31001D2*
X-27037D1*
X-17492D2*
X-14539D1*
X-7268D2*
X-3254D1*
X9083D2*
X13020D1*
X20136D2*
X24480D1*
X35103D2*
X39425D1*
X-99706Y2180D2*
X-95940D1*
X-76493D2*
X-73292D1*
X-53893D2*
X-50810D1*
X-41261D2*
X-37526D1*
X-30808D2*
X-27042D1*
X-7434D2*
X-3452D1*
X9083D2*
X13020D1*
X19909D2*
X23846D1*
X35740D2*
X39672D1*
X-99452Y1196D2*
X-95743D1*
X-76374D2*
X-73035D1*
X-53904D2*
X-50900D1*
X-41171D2*
X-37343D1*
X-30555D2*
X-26845D1*
X-7411D2*
X-3526D1*
X9083D2*
X13020D1*
X36181D2*
X39961D1*
X-99167Y211D2*
X-95393D1*
X-76100D2*
X-72610D1*
X-53908D2*
X-50936D1*
X-41135D2*
X-37248D1*
X-30270D2*
X-26495D1*
X-7217D2*
X-3280D1*
X9083D2*
X13020D1*
X36432D2*
X40234D1*
X-98809Y-773D2*
X-94960D1*
X-75647D2*
X-71503D1*
X-53909D2*
X-50949D1*
X-41122D2*
X-37205D1*
X-29911D2*
X-26062D1*
X-6944D2*
X-2620D1*
X9083D2*
X13020D1*
X36555D2*
X40414D1*
X-98357Y-1757D2*
X-94457D1*
X-74927D2*
X-70181D1*
X-53909D2*
X-50954D1*
X-41117D2*
X-37188D1*
X-29459D2*
X-25559D1*
X-6616D2*
X-28D1*
X9083D2*
X13020D1*
X36608D2*
X40508D1*
X-97804Y-2741D2*
X-93849D1*
X-73865D2*
X-68888D1*
X-53909D2*
X-50956D1*
X-41115D2*
X-37181D1*
X-28906D2*
X-24952D1*
X-6124D2*
X4420D1*
X9083D2*
X13020D1*
X36629D2*
X40551D1*
X-97180Y-3726D2*
X-93124D1*
X-72610D2*
X-68246D1*
X-53909D2*
X-50956D1*
X-41114D2*
X-37178D1*
X-28282D2*
X-24226D1*
X-5400D2*
X13020D1*
X36637D2*
X40568D1*
X-96548Y-4710D2*
X-92377D1*
X-73775D2*
X-68042D1*
X-53909D2*
X-50957D1*
X-41114D2*
X-37178D1*
X-27650D2*
X-23480D1*
X-4476D2*
X13020D1*
X36640D2*
X40575D1*
X-95871Y-5694D2*
X-91679D1*
X-74774D2*
X-69396D1*
X-53909D2*
X-50957D1*
X-41114D2*
X-37177D1*
X-26973D2*
X-22781D1*
X-3518D2*
X13020D1*
X36641D2*
X40577D1*
X-95114Y-6678D2*
X-90967D1*
X-75560D2*
X-70838D1*
X-53909D2*
X-50957D1*
X-41114D2*
X-37177D1*
X-26216D2*
X-22069D1*
X-2676D2*
X13020D1*
X36642D2*
X40574D1*
X-94354Y-7663D2*
X-90166D1*
X-76194D2*
X-72031D1*
X-53909D2*
X-50957D1*
X-41114D2*
X-37177D1*
X-25456D2*
X-21268D1*
X-2472D2*
X2349D1*
X9083D2*
X13020D1*
X36638D2*
X40540D1*
X-93650Y-8647D2*
X-89310D1*
X-76714D2*
X-72960D1*
X-53909D2*
X-50957D1*
X-41114D2*
X-37181D1*
X-24752D2*
X-20413D1*
X-2743D2*
X1643D1*
X9083D2*
X13020D1*
X36603D2*
X40415D1*
X-92940Y-9631D2*
X-88494D1*
X-77103D2*
X-73288D1*
X-53909D2*
X-50957D1*
X-41114D2*
X-37216D1*
X-24043D2*
X-19596D1*
X-3197D2*
X1043D1*
X9083D2*
X13020D1*
X36474D2*
X40179D1*
X-92169Y-10615D2*
X-87763D1*
X-77330D2*
X-73461D1*
X-53909D2*
X-50953D1*
X-41118D2*
X-37341D1*
X-23272D2*
X-18866D1*
X-3773D2*
X502D1*
X9083D2*
X13020D1*
X36200D2*
X39923D1*
X-91404Y-11600D2*
X-87042D1*
X-77410D2*
X-73498D1*
X-53909D2*
X-50911D1*
X-41160D2*
X-37577D1*
X-22507D2*
X-18144D1*
X-4353D2*
X-10D1*
X9083D2*
X13020D1*
X19909D2*
X23846D1*
X35780D2*
X39717D1*
X-90698Y-12584D2*
X-86266D1*
X-77331D2*
X-73434D1*
X-63752D2*
X-59815D1*
X-53906D2*
X-50807D1*
X-41264D2*
X-37833D1*
X-21801D2*
X-17369D1*
X-4898D2*
X-510D1*
X9083D2*
X13020D1*
X20099D2*
X24429D1*
X35158D2*
X39496D1*
X-89984Y-13568D2*
X-85503D1*
X-77081D2*
X-72897D1*
X-64400D2*
X-60193D1*
X-53867D2*
X-50263D1*
X-41808D2*
X-38043D1*
X-21086D2*
X-16606D1*
X-5417D2*
X-1004D1*
X9083D2*
X13020D1*
X20473D2*
X25205D1*
X34336D2*
X39180D1*
X-89179Y-14552D2*
X-84835D1*
X-76704D2*
X-71214D1*
X-66111D2*
X-60650D1*
X-53703D2*
X-48578D1*
X-43493D2*
X-38298D1*
X-20281D2*
X-15938D1*
X-5920D2*
X-1498D1*
X9083D2*
X13020D1*
X21006D2*
X27050D1*
X32471D2*
X38747D1*
X-88294Y-15537D2*
X-84285D1*
X-76222D2*
X-68715D1*
X-68624D2*
X-61241D1*
X-53300D2*
X-46078D1*
X-45993D2*
X-38743D1*
X-19396D2*
X-15387D1*
X-6417D2*
X-1990D1*
X9083D2*
X13020D1*
X21633D2*
X29646D1*
X29865D2*
X38161D1*
X-100169Y-16521D2*
X-83878D1*
X-75552D2*
X-62026D1*
X-52610D2*
X-39450D1*
X-31272D2*
X-14981D1*
X-6913D2*
X-2480D1*
X9083D2*
X13020D1*
X22460D2*
X37340D1*
X-100169Y-17505D2*
X-83639D1*
X-74546D2*
X-63045D1*
X-51635D2*
X-40432D1*
X-31272D2*
X-14741D1*
X-7432D2*
X-2945D1*
X9083D2*
X13020D1*
X23640D2*
X36170D1*
X-100169Y-18490D2*
X-83515D1*
X-73173D2*
X-64313D1*
X-50386D2*
X-41684D1*
X-31272D2*
X-14617D1*
X-8007D2*
X-3355D1*
X9083D2*
X13020D1*
X25147D2*
X34567D1*
X-100169Y-19474D2*
X-83437D1*
X-71626D2*
X-65720D1*
X-48988D2*
X-43083D1*
X-31272D2*
X-14539D1*
X-8634D2*
X-3713D1*
X9083D2*
X13020D1*
X26799D2*
X32705D1*
X-87618Y-341445D2*
X-80728D1*
X-50217D2*
X-43327D1*
X-8878D2*
X-1988D1*
X13760D2*
X20650D1*
X49193D2*
X52146D1*
X-87618Y-342429D2*
X-80728D1*
X-50217D2*
X-43327D1*
X-8878D2*
X-1988D1*
X13760D2*
X20650D1*
X49193D2*
X53699D1*
X-87618Y-343413D2*
X-80728D1*
X-50217D2*
X-43327D1*
X-8878D2*
X-1988D1*
X13760D2*
X20650D1*
X49193D2*
X55084D1*
X-87618Y-344398D2*
X-80728D1*
X-50217D2*
X-43327D1*
X-8878D2*
X-1988D1*
X13760D2*
X20650D1*
X49193D2*
X56226D1*
X-87618Y-345382D2*
X-80728D1*
X-50217D2*
X-43327D1*
X-8878D2*
X-1988D1*
X13760D2*
X20650D1*
X49201D2*
X57155D1*
X-87618Y-346366D2*
X-80728D1*
X-50217D2*
X-43327D1*
X-8878D2*
X-1988D1*
X13760D2*
X20650D1*
X49274D2*
X57921D1*
X-87618Y-347350D2*
X-80728D1*
X-50217D2*
X-43327D1*
X-8878D2*
X-1988D1*
X13760D2*
X20650D1*
X49447D2*
X58466D1*
X-87618Y-348335D2*
X-80728D1*
X-50217D2*
X-43327D1*
X-8878D2*
X-1988D1*
X13760D2*
X20650D1*
X50128D2*
X58777D1*
X-194902Y-349319D2*
X-189980D1*
X-182106D2*
X-177185D1*
X-160453D2*
X-153563D1*
X-134862D2*
X-128957D1*
X-94508D2*
X-89587D1*
X-87618D2*
X-80728D1*
X-68917D2*
X-62028D1*
X-50217D2*
X-43327D1*
X-30531D2*
X-23642D1*
X-12815D2*
X-1988D1*
X1949D2*
X9823D1*
X13760D2*
X20650D1*
X31476D2*
X38366D1*
X50889D2*
X58929D1*
X69862D2*
X76752D1*
X105295D2*
X112185D1*
X116122D2*
X123012D1*
X125965D2*
X132854D1*
X138760D2*
X145650D1*
X149587D2*
X156476D1*
X159429D2*
X166319D1*
X172224D2*
X179114D1*
X183051D2*
X189941D1*
X192894D2*
X199783D1*
X-196303Y-350303D2*
X-186628D1*
X-185459D2*
X-175750D1*
X-161891D2*
X-151792D1*
X-136755D2*
X-127185D1*
X-96245D2*
X-89587D1*
X-87618D2*
X-80728D1*
X-70655D2*
X-60256D1*
X-50217D2*
X-43327D1*
X-32269D2*
X-21871D1*
X-12815D2*
X-1988D1*
X2559D2*
X10197D1*
X13760D2*
X20650D1*
X30038D2*
X40137D1*
X51490D2*
X58994D1*
X68424D2*
X78523D1*
X105295D2*
X112185D1*
X116122D2*
X123012D1*
X125965D2*
X132854D1*
X138760D2*
X145650D1*
X149587D2*
X156476D1*
X159429D2*
X166319D1*
X172224D2*
X179114D1*
X183051D2*
X189941D1*
X192894D2*
X199783D1*
X-197440Y-351287D2*
X-174522D1*
X-163154D2*
X-150266D1*
X-138301D2*
X-125660D1*
X-97679D2*
X-89587D1*
X-87618D2*
X-80728D1*
X-72085D2*
X-58731D1*
X-50217D2*
X-43327D1*
X-33699D2*
X-20345D1*
X-12815D2*
X-1988D1*
X3120D2*
X10620D1*
X13756D2*
X20650D1*
X28775D2*
X41663D1*
X51846D2*
X59020D1*
X67161D2*
X80048D1*
X105295D2*
X112185D1*
X116122D2*
X123012D1*
X125965D2*
X132854D1*
X138760D2*
X145650D1*
X149587D2*
X156476D1*
X159429D2*
X166319D1*
X172224D2*
X179114D1*
X183051D2*
X189941D1*
X192894D2*
X199783D1*
X-198293Y-352272D2*
X-173558D1*
X-164247D2*
X-149082D1*
X-139533D2*
X-124476D1*
X-98753D2*
X-89587D1*
X-87618D2*
X-80728D1*
X-73128D2*
X-57546D1*
X-50217D2*
X-43327D1*
X-34742D2*
X-19161D1*
X-12815D2*
X-1988D1*
X3648D2*
X11080D1*
X13719D2*
X20650D1*
X27686D2*
X42847D1*
X52021D2*
X59030D1*
X66072D2*
X81233D1*
X105295D2*
X112185D1*
X116122D2*
X123012D1*
X125965D2*
X132854D1*
X138760D2*
X145650D1*
X149587D2*
X156476D1*
X159429D2*
X166319D1*
X172224D2*
X179114D1*
X183051D2*
X189941D1*
X192894D2*
X199783D1*
X-198924Y-353256D2*
X-172802D1*
X-165166D2*
X-148212D1*
X-140472D2*
X-123606D1*
X-99607D2*
X-89602D1*
X-87618D2*
X-80728D1*
X-73891D2*
X-56677D1*
X-50217D2*
X-43327D1*
X-35505D2*
X-18291D1*
X-12815D2*
X-1988D1*
X4157D2*
X11584D1*
X13566D2*
X20650D1*
X26798D2*
X43717D1*
X52100D2*
X59034D1*
X65184D2*
X82103D1*
X105295D2*
X112185D1*
X116122D2*
X123012D1*
X125965D2*
X132854D1*
X138760D2*
X145650D1*
X149587D2*
X156476D1*
X159429D2*
X166319D1*
X172224D2*
X179114D1*
X183051D2*
X189941D1*
X192894D2*
X199783D1*
X-199363Y-354240D2*
X-172525D1*
X-165901D2*
X-147571D1*
X-141191D2*
X-122969D1*
X-100324D2*
X-89648D1*
X-87618D2*
X-80728D1*
X-74498D2*
X-56039D1*
X-50217D2*
X-43327D1*
X-36112D2*
X-17654D1*
X-12815D2*
X-1988D1*
X4681D2*
X12152D1*
X13230D2*
X20650D1*
X26153D2*
X44358D1*
X49193D2*
X59035D1*
X64539D2*
X82744D1*
X105295D2*
X112185D1*
X116122D2*
X123012D1*
X125965D2*
X132854D1*
X138760D2*
X145650D1*
X149587D2*
X156476D1*
X159429D2*
X166319D1*
X172224D2*
X179114D1*
X183051D2*
X189941D1*
X192894D2*
X199783D1*
X-199613Y-355224D2*
X-172375D1*
X-166479D2*
X-147096D1*
X-141492D2*
X-122528D1*
X-100845D2*
X-90079D1*
X-87618D2*
X-80728D1*
X-75002D2*
X-55595D1*
X-50217D2*
X-43327D1*
X-36617D2*
X-17209D1*
X-12815D2*
X-1988D1*
X5258D2*
X20650D1*
X25686D2*
X32461D1*
X37188D2*
X44833D1*
X49193D2*
X59035D1*
X64072D2*
X70846D1*
X75574D2*
X83219D1*
X105295D2*
X112185D1*
X116122D2*
X123012D1*
X125965D2*
X132854D1*
X138760D2*
X145650D1*
X149587D2*
X156476D1*
X159429D2*
X166319D1*
X172224D2*
X179114D1*
X183051D2*
X189941D1*
X192894D2*
X199783D1*
X-199736Y-356209D2*
X-172307D1*
X-166896D2*
X-146719D1*
X-140714D2*
X-122277D1*
X-101146D2*
X-91298D1*
X-87622D2*
X-80728D1*
X-75384D2*
X-55306D1*
X-50217D2*
X-43327D1*
X-36998D2*
X-16920D1*
X-12815D2*
X-1988D1*
X5886D2*
X20650D1*
X25286D2*
X31476D1*
X37764D2*
X45210D1*
X49193D2*
X59035D1*
X63672D2*
X69862D1*
X76150D2*
X83596D1*
X105295D2*
X112185D1*
X116122D2*
X123012D1*
X125965D2*
X132854D1*
X138760D2*
X145650D1*
X149587D2*
X156476D1*
X159429D2*
X166319D1*
X172224D2*
X179114D1*
X183051D2*
X189941D1*
X192894D2*
X199783D1*
X-199789Y-357193D2*
X-192933D1*
X-190174D2*
X-182106D1*
X-179154D2*
X-172280D1*
X-167138D2*
X-159271D1*
X-154745D2*
X-146365D1*
X-139783D2*
X-134862D1*
X-130138D2*
X-122154D1*
X-101293D2*
X-92578D1*
X-87657D2*
X-80728D1*
X-75611D2*
X-67740D1*
X-63209D2*
X-55031D1*
X-50217D2*
X-43327D1*
X-37226D2*
X-29354D1*
X-24823D2*
X-16645D1*
X-8878D2*
X-1988D1*
X5394D2*
X20650D1*
X24963D2*
X36398D1*
X38094D2*
X45565D1*
X49193D2*
X59035D1*
X63349D2*
X74783D1*
X76480D2*
X83950D1*
X105295D2*
X112185D1*
X116118D2*
X123012D1*
X125965D2*
X132854D1*
X138760D2*
X145650D1*
X149583D2*
X156476D1*
X159429D2*
X166319D1*
X172224D2*
X179114D1*
X183047D2*
X189941D1*
X192894D2*
X199783D1*
X-199810Y-358177D2*
X-192933D1*
X-189598D2*
X-182106D1*
X-179154D2*
X-172269D1*
X-167257D2*
X-159925D1*
X-154091D2*
X-146094D1*
X-129484D2*
X-122101D1*
X-101357D2*
X-93535D1*
X-87797D2*
X-80732D1*
X-75725D2*
X-68315D1*
X-62555D2*
X-54639D1*
X-50217D2*
X-43327D1*
X-37339D2*
X-29929D1*
X-24169D2*
X-16254D1*
X-9109D2*
X-1988D1*
X4981D2*
X11754D1*
X13760D2*
X20650D1*
X24763D2*
X36398D1*
X38250D2*
X45836D1*
X49193D2*
X59035D1*
X63148D2*
X74783D1*
X76636D2*
X84221D1*
X105295D2*
X112193D1*
X116072D2*
X123020D1*
X125957D2*
X132854D1*
X138760D2*
X145657D1*
X149537D2*
X156484D1*
X159421D2*
X166319D1*
X172224D2*
X179122D1*
X183001D2*
X189949D1*
X192886D2*
X199783D1*
X-199818Y-359161D2*
X-192933D1*
X-189268D2*
X-182106D1*
X-179154D2*
X-172266D1*
X-167305D2*
X-160051D1*
X-153965D2*
X-145945D1*
X-129359D2*
X-122079D1*
X-101383D2*
X-94236D1*
X-88058D2*
X-80767D1*
X-75775D2*
X-68645D1*
X-62414D2*
X-54154D1*
X-50217D2*
X-43327D1*
X-37389D2*
X-30259D1*
X-24028D2*
X-15768D1*
X-9509D2*
X-1992D1*
X4568D2*
X11624D1*
X13760D2*
X20650D1*
X24655D2*
X36398D1*
X38265D2*
X45984D1*
X49193D2*
X59035D1*
X63041D2*
X74783D1*
X76651D2*
X84370D1*
X105295D2*
X112268D1*
X115957D2*
X123094D1*
X125882D2*
X132854D1*
X138760D2*
X145732D1*
X149421D2*
X156559D1*
X159346D2*
X166319D1*
X172224D2*
X179197D1*
X182886D2*
X190024D1*
X192811D2*
X199783D1*
X-199821Y-360146D2*
X-192933D1*
X-189109D2*
X-182106D1*
X-179154D2*
X-172264D1*
X-167292D2*
X-159765D1*
X-154251D2*
X-146146D1*
X-142736D2*
X-135846D1*
X-129645D2*
X-122075D1*
X-113209D2*
X-109272D1*
X-101389D2*
X-93416D1*
X-88819D2*
X-80892D1*
X-75795D2*
X-68805D1*
X-62959D2*
X-54612D1*
X-50217D2*
X-43327D1*
X-37409D2*
X-30419D1*
X-24573D2*
X-16226D1*
X-10459D2*
X-2027D1*
X4123D2*
X11353D1*
X13760D2*
X20650D1*
X24587D2*
X36398D1*
X38161D2*
X45783D1*
X49193D2*
X59035D1*
X62972D2*
X74783D1*
X76547D2*
X84169D1*
X92500D2*
X96437D1*
X105295D2*
X112446D1*
X115348D2*
X123273D1*
X125703D2*
X132854D1*
X138760D2*
X145911D1*
X148813D2*
X156738D1*
X159168D2*
X166319D1*
X172224D2*
X179376D1*
X182277D2*
X190202D1*
X192632D2*
X199783D1*
X-199822Y-361130D2*
X-192933D1*
X-189040D2*
X-182106D1*
X-179154D2*
X-172264D1*
X-167170D2*
X-157314D1*
X-156702D2*
X-146403D1*
X-142396D2*
X-133017D1*
X-132096D2*
X-122111D1*
X-114269D2*
X-108481D1*
X-101354D2*
X-91216D1*
X-90522D2*
X-81132D1*
X-75803D2*
X-68874D1*
X-64262D2*
X-54929D1*
X-50217D2*
X-43327D1*
X-37417D2*
X-30488D1*
X-25876D2*
X-16543D1*
X-11397D2*
X-2156D1*
X3655D2*
X10976D1*
X13760D2*
X20650D1*
X37373D2*
X45526D1*
X49193D2*
X59035D1*
X75759D2*
X83912D1*
X91439D2*
X97228D1*
X105299D2*
X113214D1*
X113885D2*
X124040D1*
X124936D2*
X132854D1*
X138764D2*
X146678D1*
X147349D2*
X157505D1*
X158401D2*
X166319D1*
X172228D2*
X180143D1*
X180814D2*
X190969D1*
X191865D2*
X199783D1*
X-199823Y-362114D2*
X-192933D1*
X-189012D2*
X-182106D1*
X-179154D2*
X-172264D1*
X-166899D2*
X-146690D1*
X-142065D2*
X-122270D1*
X-115079D2*
X-107905D1*
X-101195D2*
X-81423D1*
X-75806D2*
X-68901D1*
X-65460D2*
X-55201D1*
X-50217D2*
X-43327D1*
X-37420D2*
X-30516D1*
X-27074D2*
X-16816D1*
X-12198D2*
X-2430D1*
X3176D2*
X10564D1*
X13760D2*
X20650D1*
X35577D2*
X45239D1*
X52146D2*
X59035D1*
X73962D2*
X83625D1*
X90630D2*
X97803D1*
X105334D2*
X132850D1*
X138798D2*
X166315D1*
X172263D2*
X199780D1*
X-199823Y-363098D2*
X-192933D1*
X-189002D2*
X-182106D1*
X-179154D2*
X-172264D1*
X-166484D2*
X-147049D1*
X-141714D2*
X-122634D1*
X-115616D2*
X-107576D1*
X-100826D2*
X-81758D1*
X-75807D2*
X-68912D1*
X-66381D2*
X-55539D1*
X-50217D2*
X-43327D1*
X-37421D2*
X-30526D1*
X-27995D2*
X-17153D1*
X-12514D2*
X-2846D1*
X2720D2*
X10186D1*
X13760D2*
X20650D1*
X33697D2*
X44880D1*
X52146D2*
X59035D1*
X72083D2*
X83266D1*
X90093D2*
X98133D1*
X105463D2*
X132812D1*
X138928D2*
X166277D1*
X172392D2*
X199741D1*
X-199823Y-364083D2*
X-192933D1*
X-188998D2*
X-182106D1*
X-179154D2*
X-172264D1*
X-165913D2*
X-147509D1*
X-141218D2*
X-123165D1*
X-115965D2*
X-107420D1*
X-100265D2*
X-82249D1*
X-75807D2*
X-68915D1*
X-66680D2*
X-55985D1*
X-50217D2*
X-43327D1*
X-37421D2*
X-30530D1*
X-28294D2*
X-17599D1*
X-12687D2*
X-3418D1*
X2323D2*
X9847D1*
X13760D2*
X20650D1*
X32122D2*
X44420D1*
X52146D2*
X59035D1*
X70508D2*
X82806D1*
X89743D2*
X98289D1*
X105737D2*
X132648D1*
X139202D2*
X166113D1*
X172666D2*
X199577D1*
X-199823Y-365067D2*
X-192933D1*
X-188997D2*
X-182106D1*
X-179154D2*
X-172264D1*
X-165166D2*
X-148135D1*
X-140515D2*
X-123791D1*
X-115911D2*
X-107389D1*
X-99548D2*
X-82950D1*
X-75807D2*
X-68917D1*
X-66837D2*
X-56604D1*
X-50217D2*
X-43327D1*
X-37421D2*
X-30531D1*
X-28452D2*
X-18218D1*
X-12765D2*
X-4165D1*
X1973D2*
X9499D1*
X13760D2*
X20650D1*
X30968D2*
X43794D1*
X52146D2*
X59035D1*
X69354D2*
X82180D1*
X89797D2*
X98320D1*
X106157D2*
X132245D1*
X139622D2*
X165709D1*
X173086D2*
X199174D1*
X-199823Y-366051D2*
X-192933D1*
X-188996D2*
X-182106D1*
X-179154D2*
X-172264D1*
X-164263D2*
X-149048D1*
X-139599D2*
X-124617D1*
X-115646D2*
X-107525D1*
X-98612D2*
X-83866D1*
X-75807D2*
X-68917D1*
X-66906D2*
X-57515D1*
X-50217D2*
X-43327D1*
X-37421D2*
X-30531D1*
X-28520D2*
X-19129D1*
X-12796D2*
X-5068D1*
X1589D2*
X9161D1*
X13760D2*
X20650D1*
X30119D2*
X42881D1*
X52146D2*
X59035D1*
X68505D2*
X81267D1*
X90063D2*
X98184D1*
X106766D2*
X131555D1*
X140231D2*
X165020D1*
X173695D2*
X198484D1*
X-199823Y-367035D2*
X-192933D1*
X-188996D2*
X-182106D1*
X-179154D2*
X-172264D1*
X-163179D2*
X-150312D1*
X-138373D2*
X-125798D1*
X-115107D2*
X-107911D1*
X-97421D2*
X-85092D1*
X-75807D2*
X-68917D1*
X-66933D2*
X-58777D1*
X-50217D2*
X-43327D1*
X-37421D2*
X-30531D1*
X-28548D2*
X-20391D1*
X-12808D2*
X-6152D1*
X1132D2*
X8817D1*
X13760D2*
X20650D1*
X29776D2*
X41617D1*
X52146D2*
X59035D1*
X68162D2*
X80003D1*
X90601D2*
X97798D1*
X107661D2*
X130580D1*
X141125D2*
X164044D1*
X174590D2*
X197509D1*
X-199823Y-368020D2*
X-192933D1*
X-188996D2*
X-182106D1*
X-179154D2*
X-172264D1*
X-161880D2*
X-151872D1*
X-136741D2*
X-127304D1*
X-114256D2*
X-108536D1*
X-96021D2*
X-86723D1*
X-75807D2*
X-68917D1*
X-66944D2*
X-60337D1*
X-50217D2*
X-43327D1*
X-37421D2*
X-30531D1*
X-28558D2*
X-21951D1*
X-12813D2*
X-7451D1*
X589D2*
X8376D1*
X13760D2*
X20650D1*
X30550D2*
X40057D1*
X52146D2*
X59035D1*
X68936D2*
X78443D1*
X91453D2*
X97172D1*
X108856D2*
X118091D1*
X121043D2*
X129331D1*
X142321D2*
X151555D1*
X154508D2*
X162795D1*
X175786D2*
X185020D1*
X187972D2*
X196260D1*
X-199823Y-369004D2*
X-192933D1*
X-188996D2*
X-182106D1*
X-179154D2*
X-172264D1*
X-160453D2*
X-153563D1*
X-134862D2*
X-128957D1*
X-113209D2*
X-109272D1*
X-94508D2*
X-88602D1*
X-75807D2*
X-68917D1*
X-66949D2*
X-62028D1*
X-50217D2*
X-43327D1*
X-37421D2*
X-30531D1*
X-28563D2*
X-23642D1*
X-12815D2*
X-8878D1*
X-20D2*
X7854D1*
X13760D2*
X20650D1*
X31476D2*
X38366D1*
X52146D2*
X59035D1*
X69862D2*
X76752D1*
X92500D2*
X96437D1*
X110217D2*
X116122D1*
X123012D2*
X127933D1*
X143681D2*
X149587D1*
X156476D2*
X161398D1*
X177146D2*
X183051D1*
X189941D2*
X194862D1*
X-304409Y187866D2*
X-298504D1*
X-281772D2*
X-280787D1*
X-260118D2*
X-254213D1*
X-235512D2*
X-228622D1*
X-198110D2*
X-197126D1*
X-175472D2*
X-174488D1*
X-103622D2*
X-97716D1*
X-66220D2*
X-65236D1*
X-51457D2*
X-47520D1*
X-31772D2*
X-27835D1*
X5630D2*
X16457D1*
X27284D2*
X28268D1*
X43032D2*
X45000D1*
X62717D2*
X63701D1*
X113898D2*
X117835D1*
X122756D2*
X140473D1*
X146378D2*
X149331D1*
X164095D2*
X167047D1*
X180827D2*
X181811D1*
X229055D2*
X230039D1*
X243819D2*
X267441D1*
X270394D2*
X274331D1*
X286142D2*
X290079D1*
X295000D2*
X312717D1*
X317638D2*
X336339D1*
X341260D2*
X358976D1*
X-305844Y186882D2*
X-297069D1*
X-281772D2*
X-279799D1*
X-261519D2*
X-252778D1*
X-236946D2*
X-227229D1*
X-198110D2*
X-196138D1*
X-175472D2*
X-173500D1*
X-138071D2*
X-136102D1*
X-105241D2*
X-96471D1*
X-66220D2*
X-64248D1*
X-50965D2*
X-47179D1*
X-31924D2*
X-28175D1*
X3775D2*
X16457D1*
X27131D2*
X28760D1*
X42879D2*
X45004D1*
X62561D2*
X64075D1*
X113898D2*
X117835D1*
X122756D2*
X140473D1*
X146870D2*
X150163D1*
X163451D2*
X166555D1*
X180671D2*
X182185D1*
X228899D2*
X230413D1*
X243819D2*
X267441D1*
X271226D2*
X275163D1*
X286142D2*
X290079D1*
X295000D2*
X312717D1*
X317638D2*
X336339D1*
X341260D2*
X358976D1*
X-307073Y185898D2*
X-295837D1*
X-281772D2*
X-278777D1*
X-262656D2*
X-251545D1*
X-238175D2*
X-226013D1*
X-198110D2*
X-195115D1*
X-175472D2*
X-172477D1*
X-138071D2*
X-136102D1*
X-106518D2*
X-95468D1*
X-66220D2*
X-63225D1*
X-50556D2*
X-46852D1*
X-32172D2*
X-28502D1*
X2355D2*
X16457D1*
X26887D2*
X29168D1*
X42632D2*
X45039D1*
X62282D2*
X64498D1*
X113898D2*
X117835D1*
X122756D2*
X140473D1*
X147446D2*
X150899D1*
X162794D2*
X165983D1*
X180392D2*
X182608D1*
X228621D2*
X230836D1*
X243819D2*
X267441D1*
X271962D2*
X275899D1*
X286142D2*
X290079D1*
X295000D2*
X312717D1*
X317638D2*
X336339D1*
X341260D2*
X358976D1*
X-308040Y184913D2*
X-294839D1*
X-281772D2*
X-277632D1*
X-263509D2*
X-250547D1*
X-239138D2*
X-225400D1*
X-198110D2*
X-193971D1*
X-175472D2*
X-171333D1*
X-138071D2*
X-136102D1*
X-107414D2*
X-95071D1*
X-66220D2*
X-62081D1*
X-50173D2*
X-46540D1*
X-32461D2*
X-28814D1*
X1359D2*
X16457D1*
X26633D2*
X29547D1*
X42342D2*
X45164D1*
X61902D2*
X64955D1*
X113898D2*
X117835D1*
X122756D2*
X140473D1*
X148047D2*
X151594D1*
X162122D2*
X165413D1*
X180012D2*
X183065D1*
X228240D2*
X231293D1*
X243819D2*
X267441D1*
X272657D2*
X276594D1*
X286142D2*
X290079D1*
X295000D2*
X312717D1*
X317638D2*
X336339D1*
X341260D2*
X358976D1*
X-308723Y183929D2*
X-304372D1*
X-298541D2*
X-294065D1*
X-281772D2*
X-276291D1*
X-264144D2*
X-258784D1*
X-254562D2*
X-249770D1*
X-239895D2*
X-235356D1*
X-229606D2*
X-225374D1*
X-198110D2*
X-192629D1*
X-175472D2*
X-169991D1*
X-138071D2*
X-136102D1*
X-108084D2*
X-103581D1*
X-96732D2*
X-94764D1*
X-66220D2*
X-60739D1*
X-49823D2*
X-46204D1*
X-32763D2*
X-29150D1*
X668D2*
X4839D1*
X13504D2*
X16457D1*
X26456D2*
X29867D1*
X42044D2*
X45400D1*
X61490D2*
X65429D1*
X113898D2*
X117835D1*
X137520D2*
X140473D1*
X148681D2*
X152277D1*
X161473D2*
X164870D1*
X179600D2*
X183539D1*
X227828D2*
X231768D1*
X254646D2*
X257599D1*
X273344D2*
X277281D1*
X286142D2*
X290079D1*
X309764D2*
X312717D1*
X332402D2*
X336339D1*
X356024D2*
X358976D1*
X-309206Y182945D2*
X-305226D1*
X-297687D2*
X-293472D1*
X-281772D2*
X-274857D1*
X-264618D2*
X-260062D1*
X-253284D2*
X-249142D1*
X-240171D2*
X-236054D1*
X-227638D2*
X-225669D1*
X-198110D2*
X-191195D1*
X-175472D2*
X-168558D1*
X-138071D2*
X-136102D1*
X-108320D2*
X-104400D1*
X-66220D2*
X-59306D1*
X-49500D2*
X-45873D1*
X-33124D2*
X-29481D1*
X140D2*
X4267D1*
X13504D2*
X16457D1*
X26330D2*
X30099D1*
X41713D2*
X45652D1*
X61111D2*
X65884D1*
X113898D2*
X117835D1*
X137520D2*
X140473D1*
X149339D2*
X152899D1*
X160820D2*
X164322D1*
X179222D2*
X183994D1*
X227450D2*
X232222D1*
X254646D2*
X257599D1*
X273997D2*
X277934D1*
X286142D2*
X290079D1*
X309764D2*
X312717D1*
X332402D2*
X336339D1*
X356024D2*
X358976D1*
X-309612Y181961D2*
X-305936D1*
X-296977D2*
X-293049D1*
X-281772D2*
X-273612D1*
X-264994D2*
X-260957D1*
X-252385D2*
X-248594D1*
X-240322D2*
X-236585D1*
X-198110D2*
X-189951D1*
X-175472D2*
X-167313D1*
X-138071D2*
X-136102D1*
X-108444D2*
X-104981D1*
X-66220D2*
X-58061D1*
X-49159D2*
X-45558D1*
X-33544D2*
X-29800D1*
X82D2*
X3883D1*
X13504D2*
X16457D1*
X26163D2*
X30326D1*
X41385D2*
X45824D1*
X60772D2*
X66280D1*
X113898D2*
X117835D1*
X137520D2*
X140473D1*
X149952D2*
X153472D1*
X160143D2*
X163726D1*
X178883D2*
X184390D1*
X227111D2*
X232618D1*
X254646D2*
X257599D1*
X274652D2*
X278589D1*
X286142D2*
X290079D1*
X309764D2*
X312717D1*
X332402D2*
X336339D1*
X356024D2*
X358976D1*
X-309937Y180976D2*
X-306504D1*
X-296409D2*
X-292804D1*
X-281772D2*
X-272621D1*
X-265352D2*
X-261533D1*
X-251779D2*
X-248113D1*
X-240385D2*
X-236978D1*
X-198110D2*
X-188961D1*
X-175472D2*
X-166323D1*
X-138071D2*
X-136102D1*
X-108468D2*
X-105369D1*
X-66220D2*
X-57071D1*
X-48827D2*
X-45221D1*
X-33973D2*
X-30168D1*
X249D2*
X3872D1*
X13504D2*
X16457D1*
X25910D2*
X30610D1*
X41070D2*
X45919D1*
X60424D2*
X66629D1*
X113898D2*
X117835D1*
X137520D2*
X140473D1*
X150513D2*
X154106D1*
X159417D2*
X163088D1*
X178535D2*
X184740D1*
X226763D2*
X232968D1*
X254646D2*
X257599D1*
X275322D2*
X279259D1*
X286142D2*
X290079D1*
X309764D2*
X312717D1*
X332402D2*
X336339D1*
X356024D2*
X358976D1*
X-310138Y179992D2*
X-306913D1*
X-296000D2*
X-292684D1*
X-281772D2*
X-278819D1*
X-275866D2*
X-272231D1*
X-265657D2*
X-261877D1*
X-251343D2*
X-247741D1*
X-240378D2*
X-236899D1*
X-198110D2*
X-195157D1*
X-192205D2*
X-188601D1*
X-175472D2*
X-172520D1*
X-169567D2*
X-165963D1*
X-138071D2*
X-136102D1*
X-108362D2*
X-105365D1*
X-66220D2*
X-63268D1*
X-60315D2*
X-56711D1*
X-48508D2*
X-44890D1*
X-34357D2*
X-30590D1*
X619D2*
X4309D1*
X13504D2*
X16457D1*
X25651D2*
X30916D1*
X40733D2*
X45995D1*
X60089D2*
X67011D1*
X113898D2*
X117835D1*
X137520D2*
X140473D1*
X151067D2*
X155041D1*
X158428D2*
X162484D1*
X178199D2*
X185121D1*
X226428D2*
X233349D1*
X254646D2*
X257599D1*
X275969D2*
X279906D1*
X286142D2*
X290079D1*
X309764D2*
X312717D1*
X332402D2*
X336339D1*
X356024D2*
X358976D1*
X-310240Y179008D2*
X-307120D1*
X-295794D2*
X-292632D1*
X-281772D2*
X-278819D1*
X-273898D2*
X-271929D1*
X-265850D2*
X-262149D1*
X-250961D2*
X-247517D1*
X-240263D2*
X-236711D1*
X-198110D2*
X-195157D1*
X-190236D2*
X-188398D1*
X-175472D2*
X-172520D1*
X-167598D2*
X-165761D1*
X-138071D2*
X-136102D1*
X-108093D2*
X-104901D1*
X-66220D2*
X-63268D1*
X-58346D2*
X-56509D1*
X-48139D2*
X-44574D1*
X-34699D2*
X-31019D1*
X1207D2*
X6215D1*
X13504D2*
X16457D1*
X25473D2*
X31220D1*
X40402D2*
X46138D1*
X59768D2*
X62565D1*
X64837D2*
X67438D1*
X113898D2*
X117835D1*
X137520D2*
X140473D1*
X151666D2*
X156466D1*
X156976D2*
X161926D1*
X177879D2*
X180675D1*
X182947D2*
X185548D1*
X226107D2*
X228903D1*
X231176D2*
X233776D1*
X254646D2*
X257599D1*
X276622D2*
X280559D1*
X286142D2*
X290079D1*
X309764D2*
X312717D1*
X332402D2*
X336339D1*
X356024D2*
X358976D1*
X-310285Y178024D2*
X-307109D1*
X-295804D2*
X-292614D1*
X-281772D2*
X-278819D1*
X-265950D2*
X-262447D1*
X-250647D2*
X-247404D1*
X-240028D2*
X-236457D1*
X-198110D2*
X-195157D1*
X-188268D2*
D3*
X-175472D2*
X-172520D1*
X-165630D2*
D3*
X-138071D2*
X-136102D1*
X-107642D2*
X-103681D1*
X-66220D2*
X-63268D1*
X-56378D2*
D3*
X-47717D2*
X-44237D1*
X-35048D2*
X-31405D1*
X2094D2*
X9431D1*
X13504D2*
X16457D1*
X25346D2*
X31553D1*
X40086D2*
X46380D1*
X59399D2*
X62317D1*
X65085D2*
X67869D1*
X113898D2*
X117835D1*
X137520D2*
X140473D1*
X152309D2*
X161373D1*
X177510D2*
X180427D1*
X183195D2*
X185979D1*
X225738D2*
X228655D1*
X231424D2*
X234208D1*
X254646D2*
X257599D1*
X277290D2*
X281228D1*
X286142D2*
X290079D1*
X309764D2*
X312717D1*
X332402D2*
X336339D1*
X356024D2*
X358976D1*
X-310304Y177039D2*
X-306887D1*
X-296026D2*
X-292641D1*
X-281772D2*
X-278819D1*
X-265994D2*
X-262724D1*
X-250450D2*
X-247355D1*
X-239738D2*
X-236115D1*
X-198110D2*
X-195157D1*
X-175472D2*
X-172520D1*
X-138071D2*
X-136102D1*
X-106923D2*
X-102271D1*
X-66220D2*
X-63268D1*
X-47288D2*
X-43905D1*
X-35383D2*
X-31746D1*
X3287D2*
X16457D1*
X25179D2*
X31883D1*
X39749D2*
X46635D1*
X58977D2*
X62027D1*
X65375D2*
X68255D1*
X113898D2*
X117835D1*
X137520D2*
X140473D1*
X152948D2*
X160778D1*
X177087D2*
X180137D1*
X183485D2*
X186365D1*
X225316D2*
X228366D1*
X231713D2*
X234593D1*
X254646D2*
X257599D1*
X277932D2*
X281875D1*
X286142D2*
X290079D1*
X309764D2*
X312717D1*
X332402D2*
X336339D1*
X356024D2*
X358976D1*
X-310311Y176055D2*
X-306473D1*
X-296441D2*
X-292768D1*
X-281772D2*
X-278819D1*
X-266013D2*
X-262905D1*
X-250350D2*
X-247335D1*
X-239407D2*
X-235700D1*
X-198110D2*
X-195157D1*
X-175472D2*
X-172520D1*
X-138071D2*
X-136102D1*
X-105861D2*
X-100916D1*
X-66220D2*
X-63268D1*
X-46902D2*
X-43590D1*
X-35700D2*
X-32095D1*
X4646D2*
X16457D1*
X24926D2*
X27284D1*
X29404D2*
X32198D1*
X39417D2*
X41895D1*
X44016D2*
X46811D1*
X58548D2*
X61729D1*
X65672D2*
X68600D1*
X113898D2*
X117835D1*
X127677D2*
X140473D1*
X153629D2*
X160174D1*
X176658D2*
X179840D1*
X183783D2*
X186710D1*
X224886D2*
X228068D1*
X232011D2*
X234939D1*
X254646D2*
X257599D1*
X278577D2*
X282528D1*
X286138D2*
X290079D1*
X299921D2*
X312717D1*
X321575D2*
X336339D1*
X346181D2*
X358976D1*
X-310314Y175071D2*
X-305916D1*
X-296997D2*
X-293037D1*
X-281772D2*
X-278819D1*
X-266020D2*
X-263000D1*
X-250305D2*
X-247327D1*
X-238951D2*
X-235239D1*
X-198110D2*
X-195157D1*
X-175472D2*
X-172520D1*
X-138071D2*
X-136102D1*
X-104606D2*
X-100239D1*
X-66220D2*
X-63268D1*
X-46561D2*
X-43252D1*
X-36039D2*
X-32431D1*
X2875D2*
X16457D1*
X24667D2*
X27284D1*
X29652D2*
X32535D1*
X39102D2*
X41647D1*
X44020D2*
X46938D1*
X58162D2*
X61398D1*
X66003D2*
X68980D1*
X113898D2*
X117835D1*
X127677D2*
X140473D1*
X154406D2*
X159703D1*
X176273D2*
X179509D1*
X184114D2*
X187090D1*
X224501D2*
X227737D1*
X232342D2*
X235319D1*
X254646D2*
X257599D1*
X279252D2*
X283196D1*
X286100D2*
X290079D1*
X299921D2*
X312717D1*
X321575D2*
X336339D1*
X346181D2*
X358976D1*
X-310311Y174087D2*
X-304270D1*
X-298643D2*
X-293422D1*
X-281772D2*
X-278819D1*
X-266022D2*
X-263043D1*
X-250286D2*
X-247324D1*
X-238382D2*
X-234730D1*
X-198110D2*
X-195157D1*
X-175472D2*
X-172520D1*
X-138071D2*
X-136102D1*
X-106041D2*
X-99979D1*
X-66220D2*
X-63268D1*
X-46212D2*
X-42921D1*
X-36370D2*
X-32751D1*
X1353D2*
X16457D1*
X24489D2*
X27280D1*
X29941D2*
X32866D1*
X38764D2*
X41358D1*
X44054D2*
X47105D1*
X57817D2*
X61070D1*
X66332D2*
X69410D1*
X113898D2*
X117835D1*
X127677D2*
X140473D1*
X155236D2*
X159375D1*
X175927D2*
X179180D1*
X184442D2*
X187521D1*
X224156D2*
X227408D1*
X232671D2*
X235749D1*
X254646D2*
X257599D1*
X278642D2*
X283838D1*
X285948D2*
X290079D1*
X299921D2*
X312717D1*
X321575D2*
X336339D1*
X346181D2*
X358976D1*
X-310276Y173102D2*
X-301693D1*
X-301220D2*
X-293906D1*
X-281772D2*
X-278819D1*
X-266023D2*
X-263056D1*
X-250279D2*
X-247323D1*
X-237781D2*
X-234149D1*
X-198110D2*
X-195157D1*
X-175472D2*
X-172520D1*
X-138071D2*
X-136102D1*
X-107269D2*
X-101183D1*
X-66220D2*
X-63268D1*
X-45876D2*
X-42602D1*
X-36689D2*
X-33120D1*
X199D2*
X5827D1*
X13504D2*
X16457D1*
X24362D2*
X27245D1*
X30239D2*
X33182D1*
X38433D2*
X41060D1*
X44180D2*
X47358D1*
X57437D2*
X60755D1*
X66650D2*
X69872D1*
X113898D2*
X117835D1*
X127677D2*
X140473D1*
X154626D2*
X159456D1*
X175548D2*
X178865D1*
X184761D2*
X187982D1*
X223776D2*
X227094D1*
X232989D2*
X236211D1*
X254646D2*
X257599D1*
X278077D2*
X284483D1*
X285612D2*
X290079D1*
X299921D2*
X312717D1*
X321575D2*
X336339D1*
X346181D2*
X358976D1*
X-310151Y172118D2*
X-294577D1*
X-281772D2*
X-278819D1*
X-266023D2*
X-263029D1*
X-250277D2*
X-247323D1*
X-237147D2*
X-233514D1*
X-198110D2*
X-195157D1*
X-175472D2*
X-172520D1*
X-138071D2*
X-136102D1*
X-108233D2*
X-102628D1*
X-66220D2*
X-63268D1*
X-45556D2*
X-42233D1*
X-37058D2*
X-33543D1*
X-580D2*
X4306D1*
X13504D2*
X16457D1*
X24195D2*
X27120D1*
X30570D2*
X33515D1*
X38118D2*
X40729D1*
X44415D2*
X47617D1*
X57011D2*
X60418D1*
X67019D2*
X70349D1*
X113898D2*
X117835D1*
X137520D2*
X140473D1*
X154061D2*
X159775D1*
X175121D2*
X178528D1*
X185129D2*
X188459D1*
X223350D2*
X226756D1*
X233357D2*
X236687D1*
X254646D2*
X257599D1*
X277519D2*
X290079D1*
X309764D2*
X312717D1*
X332402D2*
X336339D1*
X356024D2*
X358976D1*
X-309911Y171134D2*
X-295584D1*
X-281772D2*
X-278819D1*
X-266023D2*
X-262906D1*
X-250280D2*
X-247323D1*
X-236485D2*
X-232881D1*
X-198110D2*
X-195157D1*
X-175472D2*
X-172520D1*
X-138071D2*
X-136102D1*
X-108989D2*
X-104021D1*
X-66220D2*
X-63268D1*
X-45187D2*
X-41811D1*
X-37480D2*
X-33972D1*
X-1107D2*
X3156D1*
X13504D2*
X16457D1*
X23942D2*
X26884D1*
X30899D2*
X33820D1*
X37776D2*
X40400D1*
X44668D2*
X47795D1*
X56580D2*
X60084D1*
X67441D2*
X70804D1*
X113898D2*
X117835D1*
X137520D2*
X140473D1*
X153503D2*
X160280D1*
X174690D2*
X178194D1*
X185552D2*
X188915D1*
X222919D2*
X226422D1*
X233780D2*
X237143D1*
X254646D2*
X257599D1*
X276918D2*
X290079D1*
X309764D2*
X312717D1*
X332402D2*
X336339D1*
X356024D2*
X358976D1*
X-309621Y170150D2*
X-296957D1*
X-281772D2*
X-278819D1*
X-266020D2*
X-262671D1*
X-250314D2*
X-247323D1*
X-235841D2*
X-232233D1*
X-198110D2*
X-195157D1*
X-175472D2*
X-172520D1*
X-138071D2*
X-136102D1*
X-109303D2*
X-105129D1*
X-66220D2*
X-63268D1*
X-44764D2*
X-41382D1*
X-37909D2*
X-34357D1*
X-1531D2*
X2282D1*
X13504D2*
X16457D1*
X23683D2*
X26632D1*
X31213D2*
X34085D1*
X37405D2*
X40086D1*
X44843D2*
X47922D1*
X56194D2*
X59741D1*
X67876D2*
X71201D1*
X113898D2*
X117835D1*
X137520D2*
X140473D1*
X152902D2*
X160856D1*
X174304D2*
X177851D1*
X185986D2*
X189311D1*
X222533D2*
X226080D1*
X234214D2*
X237539D1*
X254646D2*
X257599D1*
X276278D2*
X280392D1*
X283152D2*
X290079D1*
X309764D2*
X312717D1*
X332402D2*
X336339D1*
X356024D2*
X358976D1*
X-309289Y169165D2*
X-306415D1*
X-303425D2*
X-298504D1*
X-281772D2*
X-278819D1*
X-265985D2*
X-262419D1*
X-250439D2*
X-247323D1*
X-235189D2*
X-231566D1*
X-198110D2*
X-195157D1*
X-175472D2*
X-172520D1*
X-138071D2*
X-136102D1*
X-109576D2*
X-105986D1*
X-66220D2*
X-63268D1*
X-44335D2*
X-40994D1*
X-38297D2*
X-34699D1*
X-1863D2*
X1978D1*
X13504D2*
X16457D1*
X23505D2*
X26456D1*
X31551D2*
X34383D1*
X36910D2*
X39748D1*
X44969D2*
X48089D1*
X55853D2*
X59301D1*
X68272D2*
X71551D1*
X113898D2*
X117835D1*
X137520D2*
X140473D1*
X152262D2*
X156258D1*
X158379D2*
X161481D1*
X173963D2*
X177411D1*
X186383D2*
X189661D1*
X222191D2*
X225640D1*
X234611D2*
X237889D1*
X254646D2*
X257599D1*
X275673D2*
X279687D1*
X284006D2*
X290079D1*
X309764D2*
X312717D1*
X332402D2*
X336339D1*
X356024D2*
X358976D1*
X-308833Y168181D2*
X-305557D1*
X-281772D2*
X-278819D1*
X-265860D2*
X-262243D1*
X-250679D2*
X-247327D1*
X-234524D2*
X-230920D1*
X-198110D2*
X-195157D1*
X-175472D2*
X-172520D1*
X-138071D2*
X-136102D1*
X-109845D2*
X-106286D1*
X-66220D2*
X-63268D1*
X-43950D2*
X-40625D1*
X-38666D2*
X-35048D1*
X-2062D2*
X1818D1*
X13504D2*
X16457D1*
X23378D2*
X26330D1*
X31882D2*
X35180D1*
X36133D2*
X39417D1*
X45136D2*
X48342D1*
X55504D2*
X58780D1*
X68622D2*
X71932D1*
X113898D2*
X117835D1*
X137520D2*
X140473D1*
X151657D2*
X155404D1*
X158753D2*
X162135D1*
X173614D2*
X176890D1*
X186732D2*
X190042D1*
X221842D2*
X225118D1*
X234961D2*
X238271D1*
X254646D2*
X257599D1*
X275115D2*
X279083D1*
X284716D2*
X290079D1*
X309764D2*
X312717D1*
X332402D2*
X336339D1*
X356024D2*
X358976D1*
X-308264Y167197D2*
X-304809D1*
X-281772D2*
X-278819D1*
X-265620D2*
X-262114D1*
X-250966D2*
X-247361D1*
X-233908D2*
X-230268D1*
X-198110D2*
X-195157D1*
X-175472D2*
X-172520D1*
X-138071D2*
X-136102D1*
X-109999D2*
X-106415D1*
X-66220D2*
X-63268D1*
X-43608D2*
X-40174D1*
X-39118D2*
X-35383D1*
X-2130D2*
X1782D1*
X13504D2*
X16457D1*
X23210D2*
X26163D1*
X32197D2*
X39102D1*
X45389D2*
X48601D1*
X55168D2*
X72359D1*
X113898D2*
X117835D1*
X137520D2*
X140473D1*
X151100D2*
X154690D1*
X159278D2*
X162747D1*
X173278D2*
X190469D1*
X221506D2*
X238698D1*
X254646D2*
X257599D1*
X274562D2*
X278510D1*
X285284D2*
X290079D1*
X309764D2*
X312717D1*
X332402D2*
X336339D1*
X356024D2*
X358976D1*
X-307663Y166213D2*
X-304077D1*
X-281772D2*
X-278819D1*
X-265333D2*
X-261908D1*
X-251271D2*
X-247487D1*
X-233346D2*
X-229599D1*
X-198110D2*
X-195157D1*
X-175472D2*
X-172520D1*
X-138071D2*
X-136102D1*
X-109942D2*
X-106356D1*
X-66220D2*
X-63268D1*
X-43259D2*
X-35704D1*
X-2047D2*
X1837D1*
X13504D2*
X16457D1*
X22957D2*
X25910D1*
X32535D2*
X38764D1*
X45648D2*
X48775D1*
X54847D2*
X72790D1*
X113898D2*
X117835D1*
X137520D2*
X140473D1*
X150546D2*
X154084D1*
X159832D2*
X163308D1*
X172957D2*
X190900D1*
X221186D2*
X239129D1*
X254646D2*
X257599D1*
X273963D2*
X277905D1*
X285697D2*
X290079D1*
X309764D2*
X312717D1*
X332402D2*
X336339D1*
X356024D2*
X358976D1*
X-307028Y165228D2*
X-303264D1*
X-281772D2*
X-278819D1*
X-265032D2*
X-261579D1*
X-251690D2*
X-247726D1*
X-232787D2*
X-228952D1*
X-198110D2*
X-195157D1*
X-175472D2*
X-172520D1*
X-138071D2*
X-136102D1*
X-109750D2*
X-106156D1*
X-66220D2*
X-63268D1*
X-42924D2*
X-36073D1*
X-1795D2*
X2225D1*
X13504D2*
X16457D1*
X22698D2*
X25651D1*
X32866D2*
X38433D1*
X45822D2*
X48871D1*
X54478D2*
X73176D1*
X113898D2*
X117835D1*
X137520D2*
X140473D1*
X149948D2*
X153511D1*
X160369D2*
X163863D1*
X172588D2*
X191286D1*
X220817D2*
X239515D1*
X254646D2*
X257599D1*
X273325D2*
X277263D1*
X285938D2*
X290079D1*
X309764D2*
X312717D1*
X332402D2*
X336339D1*
X356024D2*
X358976D1*
X-306366Y164244D2*
X-302372D1*
X-281772D2*
X-278819D1*
X-264667D2*
X-260693D1*
X-252250D2*
X-248017D1*
X-232154D2*
X-228299D1*
X-198110D2*
X-195157D1*
X-175472D2*
X-172520D1*
X-138071D2*
X-136102D1*
X-109492D2*
X-105533D1*
X-66220D2*
X-63268D1*
X-42607D2*
X-36495D1*
X-1420D2*
X3127D1*
X13504D2*
X16457D1*
X22520D2*
X25473D1*
X33182D2*
X38118D1*
X45918D2*
X48948D1*
X54056D2*
X73521D1*
X113898D2*
X117835D1*
X137520D2*
X140473D1*
X149305D2*
X152905D1*
X160915D2*
X164462D1*
X172166D2*
X191632D1*
X220394D2*
X239860D1*
X254646D2*
X257599D1*
X272720D2*
X276658D1*
X286057D2*
X290079D1*
X309764D2*
X312717D1*
X332402D2*
X336339D1*
X356024D2*
X358976D1*
X-305715Y163260D2*
X-301429D1*
X-281772D2*
X-278819D1*
X-264209D2*
X-259239D1*
X-253999D2*
X-248353D1*
X-231386D2*
X-227630D1*
X-215827D2*
X-212874D1*
X-198110D2*
X-195157D1*
X-175472D2*
X-172520D1*
X-138071D2*
X-136102D1*
X-109144D2*
X-103453D1*
X-83937D2*
X-80984D1*
X-66220D2*
X-63268D1*
X-42268D2*
X-36925D1*
X-973D2*
X5651D1*
X13504D2*
X16457D1*
X22394D2*
X25346D1*
X33519D2*
X37780D1*
X45995D2*
X49091D1*
X53626D2*
X57985D1*
X70628D2*
X73901D1*
X113898D2*
X117835D1*
X137520D2*
X140473D1*
X148670D2*
X152263D1*
X161511D2*
X165101D1*
X171737D2*
X176095D1*
X188738D2*
X192012D1*
X219965D2*
X224324D1*
X236967D2*
X240240D1*
X254646D2*
X257599D1*
X272162D2*
X276100D1*
X286109D2*
X290079D1*
X309764D2*
X312717D1*
X332402D2*
X336339D1*
X356024D2*
X358976D1*
X-304990Y162276D2*
X-300462D1*
X-281772D2*
X-278819D1*
X-263616D2*
X-256975D1*
X-256746D2*
X-248847D1*
X-230517D2*
X-226984D1*
X-216277D2*
X-212423D1*
X-198110D2*
X-195157D1*
X-175472D2*
X-172520D1*
X-138071D2*
X-136102D1*
X-108685D2*
X-100028D1*
X-96732D2*
X-94764D1*
X-84387D2*
X-80534D1*
X-66220D2*
X-63268D1*
X-41937D2*
X-37310D1*
X-428D2*
X9607D1*
X13504D2*
X16457D1*
X22226D2*
X25179D1*
X33851D2*
X37449D1*
X46138D2*
X49333D1*
X53241D2*
X57375D1*
X70758D2*
X74328D1*
X113898D2*
X117835D1*
X137520D2*
X140473D1*
X148021D2*
X151658D1*
X162152D2*
X165705D1*
X171351D2*
X175485D1*
X188868D2*
X192438D1*
X219580D2*
X223713D1*
X237097D2*
X240666D1*
X254646D2*
X257599D1*
X271609D2*
X275546D1*
X286130D2*
X290079D1*
X309764D2*
X312717D1*
X332402D2*
X336339D1*
X356024D2*
X358976D1*
X-304032Y161291D2*
X-299484D1*
X-281772D2*
X-278819D1*
X-262829D2*
X-249578D1*
X-242401D2*
X-226334D1*
X-216522D2*
X-212178D1*
X-198110D2*
X-195157D1*
X-175472D2*
X-172520D1*
X-138071D2*
X-136102D1*
X-108024D2*
X-94287D1*
X-84633D2*
X-80288D1*
X-66220D2*
X-63268D1*
X-41621D2*
X-37652D1*
X348D2*
X16457D1*
X21973D2*
X24926D1*
X34167D2*
X37133D1*
X46380D2*
X49588D1*
X52899D2*
X56919D1*
X71032D2*
X74755D1*
X100118D2*
X117835D1*
X122756D2*
X140473D1*
X147355D2*
X151100D1*
X162791D2*
X166262D1*
X171009D2*
X175029D1*
X189142D2*
X192865D1*
X219238D2*
X223258D1*
X237370D2*
X241094D1*
X254646D2*
X257599D1*
X271014D2*
X274951D1*
X286138D2*
X290079D1*
X295000D2*
X312717D1*
X332402D2*
X336339D1*
X341260D2*
X358976D1*
X-302750Y160307D2*
X-298503D1*
X-281772D2*
X-278819D1*
X-261809D2*
X-250571D1*
X-242401D2*
X-225692D1*
X-216608D2*
X-212092D1*
X-198110D2*
X-195157D1*
X-175472D2*
X-172520D1*
X-138071D2*
X-136102D1*
X-106972D2*
X-94939D1*
X-84718D2*
X-80203D1*
X-66220D2*
X-63268D1*
X-41278D2*
X-38006D1*
X1504D2*
X16457D1*
X21711D2*
X24664D1*
X34509D2*
X36790D1*
X46638D2*
X49761D1*
X52545D2*
X56515D1*
X71439D2*
X75109D1*
X100118D2*
X117835D1*
X122756D2*
X140473D1*
X146713D2*
X150552D1*
X163471D2*
X166810D1*
X170656D2*
X174625D1*
X189549D2*
X193219D1*
X218884D2*
X222853D1*
X237777D2*
X241448D1*
X254646D2*
X257599D1*
X270398D2*
X274335D1*
X286140D2*
X290079D1*
X295000D2*
X312717D1*
X332402D2*
X336339D1*
X341260D2*
X358976D1*
X-301182Y159323D2*
X-297520D1*
X-281772D2*
X-278819D1*
X-260542D2*
X-251827D1*
X-242401D2*
X-225148D1*
X-216267D2*
X-212434D1*
X-198110D2*
X-195157D1*
X-175472D2*
X-172520D1*
X-138071D2*
X-136102D1*
X-105437D2*
X-96258D1*
X-84377D2*
X-80544D1*
X-66220D2*
X-63268D1*
X-40939D2*
X-38349D1*
X2999D2*
X16457D1*
X21522D2*
X24475D1*
X34848D2*
X36451D1*
X46825D2*
X49858D1*
X52202D2*
X56150D1*
X71962D2*
X75342D1*
X100118D2*
X117835D1*
X122756D2*
X140473D1*
X146068D2*
X149965D1*
X164249D2*
X167397D1*
X170312D2*
X174260D1*
X190072D2*
X193452D1*
X218540D2*
X222489D1*
X238300D2*
X241680D1*
X254646D2*
X257599D1*
X269866D2*
X273803D1*
X286141D2*
X290079D1*
X295000D2*
X312717D1*
X332402D2*
X336339D1*
X341260D2*
X358976D1*
X-299488Y158339D2*
X-298504D1*
X-281772D2*
X-278819D1*
X-259134D2*
X-253228D1*
X-242401D2*
X-224685D1*
X-215827D2*
X-212874D1*
X-198110D2*
X-195157D1*
X-175472D2*
X-172520D1*
X-138071D2*
X-136102D1*
X-103622D2*
X-97716D1*
X-83937D2*
X-80984D1*
X-66220D2*
X-63268D1*
X-40630D2*
X-38661D1*
X4646D2*
X16457D1*
X21378D2*
X24331D1*
X35158D2*
X36142D1*
X46969D2*
X49921D1*
X51890D2*
X55827D1*
X72559D2*
X75512D1*
X100118D2*
X117835D1*
X122756D2*
X140473D1*
X145394D2*
X149331D1*
X165079D2*
X168032D1*
X170000D2*
X173937D1*
X190669D2*
X193622D1*
X218228D2*
X222165D1*
X238898D2*
X241850D1*
X254646D2*
X257599D1*
X269410D2*
X273347D1*
X286142D2*
X290079D1*
X295000D2*
X312717D1*
X332402D2*
X336339D1*
X341260D2*
X358976D1*
X-138071Y157354D2*
X-136102D1*
X-138071Y156370D2*
X-136102D1*
X-138071Y155386D2*
X-136102D1*
X-138071Y154402D2*
X-136102D1*
X-25866D2*
X-4213D1*
X77480D2*
X99134D1*
X195591D2*
X217244D1*
X-138071Y153417D2*
X-136102D1*
X-25866D2*
X-4213D1*
X77480D2*
X99134D1*
X195591D2*
X217244D1*
X-138071Y152433D2*
X-136102D1*
X-25866D2*
X-4213D1*
X77480D2*
X99134D1*
X195591D2*
X217244D1*
X-112448Y-507400D2*
X-112444Y-508384D1*
X-112409Y-509368D1*
X-112284Y-510352D1*
X-112044Y-511337D1*
X-111757Y-512321D1*
X-111460Y-513305D1*
X-111133Y-514289D1*
X-110835Y-515274D1*
X-110612Y-516258D1*
X-110388Y-517242D1*
X-110104Y-518226D1*
X-109799Y-519211D1*
X-109495Y-520195D1*
X-109162Y-521179D1*
X-108832Y-522163D1*
X-108518Y-523148D1*
X-108184Y-524132D1*
X-107884Y-525116D1*
X-107659Y-526100D1*
X-107436Y-527085D1*
X-107152Y-528069D1*
X-106847Y-529053D1*
X-106543Y-530037D1*
X-106209Y-531022D1*
X-105880Y-532006D1*
X-105565Y-532990D1*
X-105231Y-533974D1*
X-104932Y-534959D1*
X-104727Y-535943D1*
X-104573Y-536927D1*
X-96699Y-507400D2*
Y-508384D1*
Y-509368D1*
Y-510352D1*
Y-511337D1*
Y-512321D1*
Y-513305D1*
Y-514289D1*
Y-515274D1*
X-83904Y-507400D2*
X-85642Y-508384D1*
X-87076Y-509368D1*
X-88150Y-510352D1*
X-89003Y-511337D1*
X-89721Y-512321D1*
X-90245Y-513305D1*
X-90567Y-514289D1*
X-90794Y-515274D1*
X-77999Y-507400D2*
X-76110Y-508384D1*
X-74595Y-509368D1*
X-73454Y-510352D1*
X-72617Y-511337D1*
X-71997Y-512321D1*
X-71561Y-513305D1*
X-71278Y-514289D1*
X-71032Y-515274D1*
X-70743Y-516258D1*
X-70469Y-517242D1*
X-70290Y-518226D1*
X-70196Y-519211D1*
X-70153Y-520195D1*
X-70135Y-521179D1*
X-70128Y-522163D1*
X-70126Y-523148D1*
X-70129Y-524132D1*
X-70163Y-525116D1*
X-70289Y-526100D1*
X-70524Y-527085D1*
X-70780Y-528069D1*
X-70987Y-529053D1*
X-71207Y-530037D1*
X-71523Y-531022D1*
X-71957Y-532006D1*
X-72542Y-532990D1*
X-73363Y-533974D1*
X-74533Y-534959D1*
X-76137Y-535943D1*
X-77999Y-536927D1*
X-108510Y-510352D2*
X-108358Y-511337D1*
X-108111Y-512321D1*
X-107821Y-513305D1*
X-107523Y-514289D1*
X-107192Y-515274D1*
X-106863Y-516258D1*
X-106549Y-517242D1*
X-106215Y-518226D1*
X-105915Y-519211D1*
X-105691Y-520195D1*
X-105467Y-521179D1*
X-105183Y-522163D1*
X-104878Y-523148D1*
X-104574Y-524132D1*
X-104241Y-525116D1*
X-103911Y-526100D1*
X-103596Y-527085D1*
X-103263Y-528069D1*
X-102962Y-529053D1*
X-102738Y-530037D1*
X-102514Y-531022D1*
X-102230Y-532006D1*
X-101925Y-532990D1*
X-101621Y-533974D1*
X-101283Y-534959D1*
X-100945Y-535943D1*
X-100636Y-536927D1*
X-99652Y-510352D2*
Y-511337D1*
Y-512321D1*
Y-513305D1*
Y-514289D1*
Y-515274D1*
X-80951Y-510352D2*
X-82723Y-511337D1*
X-84245Y-512321D1*
X-85408Y-513305D1*
X-86223Y-514289D1*
X-86857Y-515274D1*
X-80951Y-510352D2*
X-79180Y-511337D1*
X-77655Y-512321D1*
X-76470Y-513305D1*
X-75600Y-514289D1*
X-74963Y-515274D1*
X-74523Y-516258D1*
X-74271Y-517242D1*
X-74149Y-518226D1*
X-74095Y-519211D1*
X-74074Y-520195D1*
X-74066Y-521179D1*
X-74063Y-522163D1*
X-74062Y-523148D1*
Y-524132D1*
X-74066Y-525116D1*
X-74100Y-526100D1*
X-74229Y-527085D1*
X-74504Y-528069D1*
X-74924Y-529053D1*
X-75545Y-530037D1*
X-76367Y-531022D1*
X-78233Y-532006D1*
X-80839Y-532990D1*
X-83904Y-533974D1*
X-90794Y-529053D2*
X-90604Y-530037D1*
X-90230Y-531022D1*
X-89697Y-532006D1*
X-89070Y-532990D1*
X-88244Y-533974D1*
X-87063Y-534959D1*
X-85557Y-535943D1*
X-83904Y-536927D1*
X-86857Y-529053D2*
X-86274Y-530037D1*
X-85499Y-531022D1*
X-83653Y-532006D1*
X-81058Y-532990D1*
X-77999Y-533974D1*
X324867Y-411634D2*
X323130Y-412618D1*
X321700Y-413602D1*
X320657Y-414587D1*
X319894Y-415571D1*
X319287Y-416555D1*
X318782Y-417539D1*
X318401Y-418524D1*
X318173Y-419508D1*
X318060Y-420492D1*
X318010Y-421476D1*
X317990Y-422461D1*
X317982Y-423445D1*
X317979Y-424429D1*
X317978Y-425413D1*
Y-426398D1*
Y-427382D1*
Y-428366D1*
Y-429350D1*
Y-430335D1*
X317982Y-431319D1*
X318016Y-432303D1*
X318145Y-433287D1*
X318416Y-434272D1*
X318797Y-435256D1*
X319247Y-436240D1*
X319793Y-437224D1*
X320570Y-438209D1*
X321725Y-439193D1*
X323221Y-440177D1*
X324867Y-441161D1*
X338647Y-411634D2*
Y-412618D1*
Y-413602D1*
Y-414587D1*
Y-415571D1*
Y-416555D1*
Y-417539D1*
Y-418524D1*
Y-419508D1*
Y-420492D1*
Y-421476D1*
Y-422461D1*
Y-423445D1*
Y-424429D1*
Y-425413D1*
Y-426398D1*
Y-427382D1*
Y-428366D1*
Y-429350D1*
Y-430335D1*
Y-431319D1*
Y-432303D1*
Y-433287D1*
Y-434272D1*
Y-435256D1*
Y-436240D1*
Y-437224D1*
Y-438209D1*
Y-439193D1*
Y-440177D1*
Y-441161D1*
X343568Y-411634D2*
X343905Y-412618D1*
X344202Y-413602D1*
X344423Y-414587D1*
X344645Y-415571D1*
X344924Y-416555D1*
X345198Y-417539D1*
X345411Y-418524D1*
X345630Y-419508D1*
X345908Y-420492D1*
X346182Y-421476D1*
X346395Y-422461D1*
X346614Y-423445D1*
X346893Y-424429D1*
X347166Y-425413D1*
X347379Y-426398D1*
X347598Y-427382D1*
X347877Y-428366D1*
X348151Y-429350D1*
X348364Y-430335D1*
X348583Y-431319D1*
X348861Y-432303D1*
X349131Y-433287D1*
X349313Y-434272D1*
X349442Y-435256D1*
X349610Y-436240D1*
X349863Y-437224D1*
X350122Y-438209D1*
X350297Y-439193D1*
X350394Y-440177D1*
X350458Y-441161D1*
X347505Y-411634D2*
X347543Y-412618D1*
X347669Y-413602D1*
X347905Y-414587D1*
X348161Y-415571D1*
X348367Y-416555D1*
X348584Y-417539D1*
X348862Y-418524D1*
X349135Y-419508D1*
X349348Y-420492D1*
X349567Y-421476D1*
X349845Y-422461D1*
X350115Y-423445D1*
X350297Y-424429D1*
X350426Y-425413D1*
X350594Y-426398D1*
X350847Y-427382D1*
X351110Y-428366D1*
X351319Y-429350D1*
X351540Y-430335D1*
X351856Y-431319D1*
X352280Y-432303D1*
X352810Y-433287D1*
X353411Y-434272D1*
X359316Y-411634D2*
X359279Y-412618D1*
X359153Y-413602D1*
X358913Y-414587D1*
X358626Y-415571D1*
X358329Y-416555D1*
X358002Y-417539D1*
X357704Y-418524D1*
X357480Y-419508D1*
X357257Y-420492D1*
X356977Y-421476D1*
X356703Y-422461D1*
X356490Y-423445D1*
X356270Y-424429D1*
X355992Y-425413D1*
X355718Y-426398D1*
X355505Y-427382D1*
X355286Y-428366D1*
X355008Y-429350D1*
X354734Y-430335D1*
X354518Y-431319D1*
X354272Y-432303D1*
X353891Y-433287D1*
X353411Y-434272D1*
X362269Y-411634D2*
X362421Y-412618D1*
X362665Y-413602D1*
X362924Y-414587D1*
X363131Y-415571D1*
X363348Y-416555D1*
X363625Y-417539D1*
X363899Y-418524D1*
X364112Y-419508D1*
X364331Y-420492D1*
X364609Y-421476D1*
X364883Y-422461D1*
X365096Y-423445D1*
X365315Y-424429D1*
X365593Y-425413D1*
X365867Y-426398D1*
X366080Y-427382D1*
X366299Y-428366D1*
X366585Y-429350D1*
X366930Y-430335D1*
X367414Y-431319D1*
X368185Y-432303D1*
X369159Y-433287D1*
X374080Y-411634D2*
X374043Y-412618D1*
X373916Y-413602D1*
X373681Y-414587D1*
X373424Y-415571D1*
X373218Y-416555D1*
X373001Y-417539D1*
X372724Y-418524D1*
X372454Y-419508D1*
X372272Y-420492D1*
X372144Y-421476D1*
X371976Y-422461D1*
X371722Y-423445D1*
X371459Y-424429D1*
X371251Y-425413D1*
X371033Y-426398D1*
X370755Y-427382D1*
X370486Y-428366D1*
X370300Y-429350D1*
X370131Y-430335D1*
X369899Y-431319D1*
X369122Y-432303D1*
X368175Y-433287D1*
X378017Y-411634D2*
X377681Y-412618D1*
X377388Y-413602D1*
X377197Y-414587D1*
X377066Y-415571D1*
X376897Y-416555D1*
X376644Y-417539D1*
X376381Y-418524D1*
X376172Y-419508D1*
X375954Y-420492D1*
X375677Y-421476D1*
X375403Y-422461D1*
X375190Y-423445D1*
X374971Y-424429D1*
X374693Y-425413D1*
X374419Y-426398D1*
X374206Y-427382D1*
X373987Y-428366D1*
X373708Y-429350D1*
X373435Y-430335D1*
X373222Y-431319D1*
X373003Y-432303D1*
X372724Y-433287D1*
X372450Y-434272D1*
X372237Y-435256D1*
X372018Y-436240D1*
X371740Y-437224D1*
X371470Y-438209D1*
X371291Y-439193D1*
X371192Y-440177D1*
X371127Y-441161D1*
X387860Y-411634D2*
X386130Y-412618D1*
X384585Y-413602D1*
X383787Y-414587D1*
X383675Y-415571D1*
X383923Y-416555D1*
X395734Y-411634D2*
X397471Y-412618D1*
X398901Y-413602D1*
X399941Y-414587D1*
X400668Y-415571D1*
X401151Y-416555D1*
X401419Y-417539D1*
X401548Y-418524D1*
X401604Y-419508D1*
X401622Y-420492D1*
X401592Y-421476D1*
X401431Y-422461D1*
X401029Y-423445D1*
X400327Y-424429D1*
X399228Y-425413D1*
X397468Y-426398D1*
X394910Y-427382D1*
X391956Y-428366D1*
X389334Y-429350D1*
X387455Y-430335D1*
X386089Y-431319D1*
X385537Y-432303D1*
X385501Y-433287D1*
X385822Y-434272D1*
X386645Y-435256D1*
X389177Y-436240D1*
X393034Y-437224D1*
X397702Y-438209D1*
X327820Y-414587D2*
X326049Y-415571D1*
X324528Y-416555D1*
X323378Y-417539D1*
X322504Y-418524D1*
X322199Y-419508D1*
X322035Y-420492D1*
X321962Y-421476D1*
X321932Y-422461D1*
X321921Y-423445D1*
X321917Y-424429D1*
X321915Y-425413D1*
Y-426398D1*
Y-427382D1*
Y-428366D1*
Y-429350D1*
Y-430335D1*
X321919Y-431319D1*
X321957Y-432303D1*
X322125Y-433287D1*
X322443Y-434272D1*
X323363Y-435256D1*
X326059Y-436240D1*
X330357Y-437224D1*
X335694Y-438209D1*
X334710Y-414587D2*
Y-415571D1*
Y-416555D1*
Y-417539D1*
Y-418524D1*
Y-419508D1*
Y-420492D1*
Y-421476D1*
Y-422461D1*
Y-423445D1*
Y-424429D1*
Y-425413D1*
Y-426398D1*
Y-427382D1*
Y-428366D1*
Y-429350D1*
Y-430335D1*
Y-431319D1*
Y-432303D1*
Y-433287D1*
Y-434272D1*
Y-435256D1*
Y-436240D1*
Y-437224D1*
X326836Y-438209D1*
X391797Y-414587D2*
X388844Y-415571D1*
X385891Y-416555D1*
X392781Y-414587D2*
X394552Y-415571D1*
X396073Y-416555D1*
X397220Y-417539D1*
X398082Y-418524D1*
X398335Y-419508D1*
X398192Y-420492D1*
X397680Y-421476D1*
X396239Y-422461D1*
X393975Y-423445D1*
X391107Y-424429D1*
X388327Y-425413D1*
X386143Y-426398D1*
X384617Y-427382D1*
X383593Y-428366D1*
X382893Y-429350D1*
X382428Y-430335D1*
X382168Y-431319D1*
X382043Y-432303D1*
X381992Y-433287D1*
X382009Y-434272D1*
X382165Y-435256D1*
X382561Y-436240D1*
X383220Y-437224D1*
X384118Y-438209D1*
X385337Y-439193D1*
X386966Y-440177D1*
X388844Y-441161D1*
X359316Y-421476D2*
X359312Y-422461D1*
X359278Y-423445D1*
X359152Y-424429D1*
X358917Y-425413D1*
X358660Y-426398D1*
X358454Y-427382D1*
X358237Y-428366D1*
X357956Y-429350D1*
X357652Y-430335D1*
X357348Y-431319D1*
X357019Y-432303D1*
X356720Y-433287D1*
X356496Y-434272D1*
X356273Y-435256D1*
X355993Y-436240D1*
X355718Y-437224D1*
X355502Y-438209D1*
X355256Y-439193D1*
X354875Y-440177D1*
X354395Y-441161D1*
X360301Y-421476D2*
X361095Y-422461D1*
X361705Y-423445D1*
X362160Y-424429D1*
X362556Y-425413D1*
X362881Y-426398D1*
X363115Y-427382D1*
X363342Y-428366D1*
X363623Y-429350D1*
X363898Y-430335D1*
X364111Y-431319D1*
X364331Y-432303D1*
X364613Y-433287D1*
X364917Y-434272D1*
X365221Y-435256D1*
X365551Y-436240D1*
X365850Y-437224D1*
X366076Y-438209D1*
X366327Y-439193D1*
X366709Y-440177D1*
X367190Y-441161D1*
X400655Y-435256D2*
X397255Y-436240D1*
X392880Y-437224D1*
X387860Y-438209D1*
X401639Y-435256D2*
X402165Y-436240D1*
X402845Y-437224D1*
X403608Y-438209D1*
X401458Y-439193D1*
X399144Y-440177D1*
X396718Y-441161D1*
X130110Y562354D2*
X130484Y561370D1*
X130907Y560386D1*
X131364Y559402D1*
X131842Y558417D1*
X132328Y557433D1*
X132819Y556449D1*
X133309Y555465D1*
X133802Y554480D1*
X134293Y553496D1*
X134786Y552512D1*
X135277Y551528D1*
X135766Y550543D1*
X136227Y549559D1*
X136625Y548575D1*
X136975Y547591D1*
X137357Y546606D1*
X137788Y545622D1*
X138253Y544638D1*
X138759Y543654D1*
X139328Y542669D1*
X139953Y541685D1*
X132079Y540701D1*
X134047Y562354D2*
X134421Y561370D1*
X134844Y560386D1*
X135301Y559402D1*
X135775Y558417D1*
X136230Y557433D1*
X136626Y556449D1*
X136976Y555465D1*
X137357Y554480D1*
X137788Y553496D1*
X138250Y552512D1*
X138730Y551528D1*
X139217Y550543D1*
X139708Y549559D1*
X140199Y548575D1*
X140691Y547591D1*
X141183Y546606D1*
X141676Y545622D1*
X142167Y544638D1*
X142656Y543654D1*
X143113Y542669D1*
X143476Y541685D1*
X143697Y540701D1*
X143809Y539717D1*
X143860Y538732D1*
X143890Y537748D1*
X156685Y562354D2*
X155250Y561370D1*
X154022Y560386D1*
X153055Y559402D1*
X152372Y558417D1*
X151888Y557433D1*
X151482Y556449D1*
X151161Y555465D1*
X150995Y554480D1*
X151019Y553496D1*
X151213Y552512D1*
X151485Y551528D1*
X151813Y550543D1*
X152305Y549559D1*
X153029Y548575D1*
X153953Y547591D1*
X154911Y546606D1*
X155754Y545622D1*
X155957Y544638D1*
X155686Y543654D1*
X155232Y542669D1*
X154656Y541685D1*
X154076Y540701D1*
X153532Y539717D1*
X153012Y538732D1*
X152509Y537748D1*
X152012Y536764D1*
X151516Y535780D1*
X150997Y534795D1*
X150422Y533811D1*
X149795Y532827D1*
X171449Y562354D2*
Y561370D1*
Y560386D1*
Y559402D1*
Y558417D1*
Y557433D1*
Y556449D1*
Y555465D1*
Y554480D1*
Y553496D1*
Y552512D1*
Y551528D1*
Y550543D1*
Y549559D1*
Y548575D1*
Y547591D1*
Y546606D1*
Y545622D1*
Y544638D1*
Y543654D1*
Y542669D1*
Y541685D1*
Y540701D1*
Y539717D1*
Y538732D1*
Y537748D1*
Y536764D1*
Y535780D1*
Y534795D1*
Y533811D1*
Y532827D1*
X159638Y559402D2*
X158019Y558417D1*
X156741Y557433D1*
X155846Y556449D1*
X155175Y555465D1*
X154977Y554480D1*
X154903Y553496D1*
X155149Y552512D1*
X155809Y551528D1*
X158402Y550543D1*
X162849Y549559D1*
X168496Y548575D1*
X167512Y559402D2*
Y558417D1*
Y557433D1*
Y556449D1*
Y555465D1*
Y554480D1*
Y553496D1*
Y552512D1*
Y551528D1*
Y550543D1*
Y549559D1*
X158654Y548575D1*
X127157Y550543D2*
Y549559D1*
Y548575D1*
Y547591D1*
Y546606D1*
Y545622D1*
X127150Y544638D1*
X127081Y543654D1*
X126919Y542669D1*
X126381Y541685D1*
X125859Y540701D1*
X125512Y539717D1*
X125328Y538732D1*
X125240Y537748D1*
X125189Y536764D1*
X127157D1*
Y535780D1*
Y534795D1*
Y533811D1*
Y532827D1*
X130110Y550543D2*
Y549559D1*
Y548575D1*
Y547591D1*
Y546606D1*
Y545622D1*
Y544638D1*
Y543654D1*
Y542669D1*
Y541685D1*
X138969Y540701D1*
X161606Y545622D2*
X160778Y544638D1*
X160072Y543654D1*
X159472Y542669D1*
X158931Y541685D1*
X158420Y540701D1*
X157919Y539717D1*
X157425Y538732D1*
X156931Y537748D1*
X156440Y536764D1*
X155950Y535780D1*
X155484Y534795D1*
X155074Y533811D1*
X154717Y532827D1*
X167512Y545622D2*
Y544638D1*
Y543654D1*
Y542669D1*
Y541685D1*
Y540701D1*
Y539717D1*
Y538732D1*
Y537748D1*
Y536764D1*
Y535780D1*
Y534795D1*
Y533811D1*
Y532827D1*
X130110Y537748D2*
Y536764D1*
Y535780D1*
Y534795D1*
Y533811D1*
Y532827D1*
X-174349Y557034D2*
Y556050D1*
Y555066D1*
Y554081D1*
Y553097D1*
X-163522D1*
Y552113D1*
Y551129D1*
X-163526Y550144D1*
X-163564Y549160D1*
X-163716Y548176D1*
X-164052Y547192D1*
X-164507Y546207D1*
X-159585Y557034D2*
Y556050D1*
Y555066D1*
Y554081D1*
Y553097D1*
Y552113D1*
Y551129D1*
Y550144D1*
Y549160D1*
Y548176D1*
Y547192D1*
Y546207D1*
Y545223D1*
Y544239D1*
Y543255D1*
Y542270D1*
Y541286D1*
X-145806Y557034D2*
X-147241Y556050D1*
X-148469Y555066D1*
X-149436Y554081D1*
X-150119Y553097D1*
X-150602Y552113D1*
X-151008Y551129D1*
X-151330Y550144D1*
X-151496Y549160D1*
X-151472Y548176D1*
X-151278Y547192D1*
X-151006Y546207D1*
X-150678Y545223D1*
X-150185Y544239D1*
X-149462Y543255D1*
X-148538Y542270D1*
X-147579Y541286D1*
X-146737Y540302D1*
X-146534Y539318D1*
X-146805Y538333D1*
X-147258Y537349D1*
X-147835Y536365D1*
X-148414Y535381D1*
X-148959Y534396D1*
X-149479Y533412D1*
X-149981Y532428D1*
X-150479Y531444D1*
X-150975Y530459D1*
X-151494Y529475D1*
X-152068Y528491D1*
X-152696Y527507D1*
X-131042Y557034D2*
Y556050D1*
Y555066D1*
Y554081D1*
Y553097D1*
Y552113D1*
Y551129D1*
Y550144D1*
Y549160D1*
Y548176D1*
Y547192D1*
Y546207D1*
Y545223D1*
Y544239D1*
Y543255D1*
Y542270D1*
Y541286D1*
Y540302D1*
Y539318D1*
Y538333D1*
Y537349D1*
Y536365D1*
Y535381D1*
Y534396D1*
Y533412D1*
Y532428D1*
Y531444D1*
Y530459D1*
Y529475D1*
Y528491D1*
Y527507D1*
X-142853Y554081D2*
X-144472Y553097D1*
X-145750Y552113D1*
X-146645Y551129D1*
X-147316Y550144D1*
X-147514Y549160D1*
X-147588Y548176D1*
X-147342Y547192D1*
X-146682Y546207D1*
X-144089Y545223D1*
X-139642Y544239D1*
X-133995Y543255D1*
X-134979Y554081D2*
Y553097D1*
Y552113D1*
Y551129D1*
Y550144D1*
Y549160D1*
Y548176D1*
Y547192D1*
Y546207D1*
Y545223D1*
Y544239D1*
X-143837Y543255D1*
X-170412Y547192D2*
X-171813Y546207D1*
X-172950Y545223D1*
X-173803Y544239D1*
X-174434Y543255D1*
X-174873Y542270D1*
X-175124Y541286D1*
X-175246Y540302D1*
X-175300Y539318D1*
X-175321Y538333D1*
X-175329Y537349D1*
X-175332Y536365D1*
X-175329Y535381D1*
X-175295Y534396D1*
X-175166Y533412D1*
X-174891Y532428D1*
X-174471Y531444D1*
X-173863Y530459D1*
X-172968Y529475D1*
X-171772Y528491D1*
X-170412Y527507D1*
X-165491Y547192D2*
X-164507Y546207D1*
X-168444Y544239D2*
X-169390Y543255D1*
X-170245Y542270D1*
X-170954Y541286D1*
X-171522Y540302D1*
X-171935Y539318D1*
X-172173Y538333D1*
X-172257Y537349D1*
X-172180Y536365D1*
X-171926Y535381D1*
X-171507Y534396D1*
X-170967Y533412D1*
X-169663Y532428D1*
X-167768Y531444D1*
X-165491Y530459D1*
X-167459Y544239D2*
X-165672Y543255D1*
X-164049Y542270D1*
X-162538Y541286D1*
X-140885Y540302D2*
X-141713Y539318D1*
X-142418Y538333D1*
X-143019Y537349D1*
X-143560Y536365D1*
X-144071Y535381D1*
X-144572Y534396D1*
X-145066Y533412D1*
X-145560Y532428D1*
X-146051Y531444D1*
X-146541Y530459D1*
X-147007Y529475D1*
X-147417Y528491D1*
X-147774Y527507D1*
X-134979Y540302D2*
Y539318D1*
Y538333D1*
Y537349D1*
Y536365D1*
Y535381D1*
Y534396D1*
Y533412D1*
Y532428D1*
Y531444D1*
Y530459D1*
Y529475D1*
Y528491D1*
Y527507D1*
X-162538Y534396D2*
X-163186Y533412D1*
X-164897Y532428D1*
X-167410Y531444D1*
X-170412Y530459D1*
X-159585Y534396D2*
X-159741Y533412D1*
X-160024Y532428D1*
X-160446Y531444D1*
X-161056Y530459D1*
X-161950Y529475D1*
X-163146Y528491D1*
X-164507Y527507D1*
X-222526Y366853D2*
X-222522Y365869D1*
X-222488Y364885D1*
X-222362Y363900D1*
X-222123Y362916D1*
X-221836Y361932D1*
X-221539Y360948D1*
X-221212Y359963D1*
X-220914Y358979D1*
X-220690Y357995D1*
X-220467Y357010D1*
X-220183Y356026D1*
X-219878Y355042D1*
X-219574Y354058D1*
X-219241Y353073D1*
X-218911Y352089D1*
X-218596Y351105D1*
X-218263Y350121D1*
X-217962Y349136D1*
X-217738Y348152D1*
X-217514Y347168D1*
X-217230Y346184D1*
X-216925Y345199D1*
X-216621Y344215D1*
X-216288Y343231D1*
X-215958Y342247D1*
X-215644Y341262D1*
X-215310Y340278D1*
X-215011Y339294D1*
X-214805Y338310D1*
X-214652Y337325D1*
X-206778Y366853D2*
Y365869D1*
Y364885D1*
Y363900D1*
Y362916D1*
Y361932D1*
Y360948D1*
Y359963D1*
Y358979D1*
X-193983Y366853D2*
X-195418Y365869D1*
X-196646Y364885D1*
X-197613Y363900D1*
X-198296Y362916D1*
X-198780Y361932D1*
X-199186Y360948D1*
X-199507Y359963D1*
X-199673Y358979D1*
X-199649Y357995D1*
X-199455Y357010D1*
X-199183Y356026D1*
X-198855Y355042D1*
X-198363Y354058D1*
X-197639Y353073D1*
X-196715Y352089D1*
X-195757Y351105D1*
X-194914Y350121D1*
X-194711Y349136D1*
X-194982Y348152D1*
X-195436Y347168D1*
X-196012Y346184D1*
X-196592Y345199D1*
X-197136Y344215D1*
X-197656Y343231D1*
X-198159Y342247D1*
X-198656Y341262D1*
X-199152Y340278D1*
X-199671Y339294D1*
X-200246Y338310D1*
X-200873Y337325D1*
X-179219Y366853D2*
Y365869D1*
Y364885D1*
Y363900D1*
Y362916D1*
Y361932D1*
Y360948D1*
Y359963D1*
Y358979D1*
Y357995D1*
Y357010D1*
Y356026D1*
Y355042D1*
Y354058D1*
Y353073D1*
Y352089D1*
Y351105D1*
Y350121D1*
Y349136D1*
Y348152D1*
Y347168D1*
Y346184D1*
Y345199D1*
Y344215D1*
Y343231D1*
Y342247D1*
Y341262D1*
Y340278D1*
Y339294D1*
Y338310D1*
Y337325D1*
X-218589Y363900D2*
X-218437Y362916D1*
X-218189Y361932D1*
X-217900Y360948D1*
X-217602Y359963D1*
X-217271Y358979D1*
X-216942Y357995D1*
X-216628Y357010D1*
X-216294Y356026D1*
X-215994Y355042D1*
X-215769Y354058D1*
X-215546Y353073D1*
X-215262Y352089D1*
X-214957Y351105D1*
X-214653Y350121D1*
X-214319Y349136D1*
X-213990Y348152D1*
X-213675Y347168D1*
X-213341Y346184D1*
X-213041Y345199D1*
X-212817Y344215D1*
X-212593Y343231D1*
X-212309Y342247D1*
X-212004Y341262D1*
X-211699Y340278D1*
X-211361Y339294D1*
X-211024Y338310D1*
X-210715Y337325D1*
X-209731Y363900D2*
Y362916D1*
Y361932D1*
Y360948D1*
Y359963D1*
Y358979D1*
X-191030Y363900D2*
X-192649Y362916D1*
X-193927Y361932D1*
X-194822Y360948D1*
X-195493Y359963D1*
X-195691Y358979D1*
X-195765Y357995D1*
X-195519Y357010D1*
X-194859Y356026D1*
X-192266Y355042D1*
X-187819Y354058D1*
X-182172Y353073D1*
X-183156Y363900D2*
Y362916D1*
Y361932D1*
Y360948D1*
Y359963D1*
Y358979D1*
Y357995D1*
Y357010D1*
Y356026D1*
Y355042D1*
Y354058D1*
X-192014Y353073D1*
X-189062Y350121D2*
X-189890Y349136D1*
X-190596Y348152D1*
X-191196Y347168D1*
X-191737Y346184D1*
X-192248Y345199D1*
X-192749Y344215D1*
X-193243Y343231D1*
X-193737Y342247D1*
X-194228Y341262D1*
X-194718Y340278D1*
X-195184Y339294D1*
X-195594Y338310D1*
X-195951Y337325D1*
X-183156Y350121D2*
Y349136D1*
Y348152D1*
Y347168D1*
Y346184D1*
Y345199D1*
Y344215D1*
Y343231D1*
Y342247D1*
Y341262D1*
Y340278D1*
Y339294D1*
Y338310D1*
Y337325D1*
X189209Y371966D2*
X189583Y370982D1*
X190006Y369997D1*
X190463Y369013D1*
X190941Y368029D1*
X191426Y367045D1*
X191917Y366060D1*
X192407Y365076D1*
X192897Y364092D1*
X193363Y363108D1*
X193773Y362123D1*
X194130Y361139D1*
X191328Y360155D1*
X189217Y359171D1*
X187699Y358186D1*
X186625Y357202D1*
X185819Y356218D1*
X185537Y355234D1*
X185384Y354249D1*
X185316Y353265D1*
X185288Y352281D1*
X185277Y351297D1*
Y350312D1*
X185311Y349328D1*
X185440Y348344D1*
X185714Y347360D1*
X186134Y346375D1*
X186742Y345391D1*
X187637Y344407D1*
X188833Y343423D1*
X190193Y342438D1*
X192161Y371966D2*
X192990Y370982D1*
X193695Y369997D1*
X194295Y369013D1*
X194837Y368029D1*
X195348Y367045D1*
X195849Y366060D1*
X196343Y365076D1*
X196837Y364092D1*
X197328Y363108D1*
X197821Y362123D1*
X198313Y361139D1*
X198802Y360155D1*
X199262Y359171D1*
X199660Y358186D1*
X200007Y357202D1*
X200354Y356218D1*
X200656Y355234D1*
X200847Y354249D1*
X200946Y353265D1*
X200991Y352281D1*
X201009Y351297D1*
X201012Y350312D1*
X200980Y349328D1*
X200852Y348344D1*
X200578Y347360D1*
X200158Y346375D1*
X199549Y345391D1*
X198654Y344407D1*
X197459Y343423D1*
X196098Y342438D1*
X213815Y371966D2*
X212380Y370982D1*
X211152Y369997D1*
X210184Y369013D1*
X209502Y368029D1*
X209018Y367045D1*
X208612Y366060D1*
X208291Y365076D1*
X208125Y364092D1*
X208148Y363108D1*
X208342Y362123D1*
X208615Y361139D1*
X208943Y360155D1*
X209435Y359171D1*
X210159Y358186D1*
X211083Y357202D1*
X212041Y356218D1*
X212884Y355234D1*
X213087Y354249D1*
X212816Y353265D1*
X212362Y352281D1*
X211786Y351297D1*
X211206Y350312D1*
X210661Y349328D1*
X210142Y348344D1*
X209639Y347360D1*
X209142Y346375D1*
X208646Y345391D1*
X208127Y344407D1*
X207552Y343423D1*
X206925Y342438D1*
X228579Y371966D2*
Y370982D1*
Y369997D1*
Y369013D1*
Y368029D1*
Y367045D1*
Y366060D1*
Y365076D1*
Y364092D1*
Y363108D1*
Y362123D1*
Y361139D1*
Y360155D1*
Y359171D1*
Y358186D1*
Y357202D1*
Y356218D1*
Y355234D1*
Y354249D1*
Y353265D1*
Y352281D1*
Y351297D1*
Y350312D1*
Y349328D1*
Y348344D1*
Y347360D1*
Y346375D1*
Y345391D1*
Y344407D1*
Y343423D1*
Y342438D1*
X216768Y369013D2*
X215149Y368029D1*
X213871Y367045D1*
X212976Y366060D1*
X212305Y365076D1*
X212107Y364092D1*
X212033Y363108D1*
X212279Y362123D1*
X212939Y361139D1*
X215531Y360155D1*
X219979Y359171D1*
X225626Y358186D1*
X224642Y369013D2*
Y368029D1*
Y367045D1*
Y366060D1*
Y365076D1*
Y364092D1*
Y363108D1*
Y362123D1*
Y361139D1*
Y360155D1*
Y359171D1*
X215783Y358186D1*
X193146Y357202D2*
X191527Y356218D1*
X190249Y355234D1*
X189354Y354249D1*
X188683Y353265D1*
X188451Y352281D1*
X188358Y351297D1*
X188433Y350312D1*
X188642Y349328D1*
X189219Y348344D1*
X190785Y347360D1*
X193186Y346375D1*
X196098Y345391D1*
X194130Y357202D2*
X195077Y356218D1*
X195931Y355234D1*
X196641Y354249D1*
X197205Y353265D1*
X197583Y352281D1*
X197791Y351297D1*
X197564Y350312D1*
X197170Y349328D1*
X196647Y348344D1*
X195347Y347360D1*
X193454Y346375D1*
X191177Y345391D1*
X218736Y355234D2*
X217908Y354249D1*
X217202Y353265D1*
X216602Y352281D1*
X216061Y351297D1*
X215549Y350312D1*
X215049Y349328D1*
X214555Y348344D1*
X214061Y347360D1*
X213569Y346375D1*
X213080Y345391D1*
X212614Y344407D1*
X212204Y343423D1*
X211846Y342438D1*
X224642Y355234D2*
Y354249D1*
Y353265D1*
Y352281D1*
Y351297D1*
Y350312D1*
Y349328D1*
Y348344D1*
Y347360D1*
Y346375D1*
Y345391D1*
Y344407D1*
Y343423D1*
Y342438D1*
X-34430Y478643D2*
X-36167Y477659D1*
X-37438Y476675D1*
X-38325Y475690D1*
X-38989Y474706D1*
X-39517Y473722D1*
X-39904Y472738D1*
X-40100Y471753D1*
X-40085Y470769D1*
X-39862Y469785D1*
X-39466Y468801D1*
X-38906Y467816D1*
X-38208Y466832D1*
X-37546Y465848D1*
X-37026Y464864D1*
X-37112Y463879D1*
X-37723Y462895D1*
X-38470Y461911D1*
X-39202Y460927D1*
X-39751Y459942D1*
X-40070Y458958D1*
X-40226Y457974D1*
X-40289Y456990D1*
X-40282Y456005D1*
X-40163Y455021D1*
X-39892Y454037D1*
X-39473Y453052D1*
X-38865Y452068D1*
X-37971Y451084D1*
X-36775Y450100D1*
X-35415Y449115D1*
X-19667Y478643D2*
Y477659D1*
Y476675D1*
Y475690D1*
Y474706D1*
Y473722D1*
Y472738D1*
Y471753D1*
Y470769D1*
Y469785D1*
Y468801D1*
Y467816D1*
Y466832D1*
Y465848D1*
Y464864D1*
Y463879D1*
Y462895D1*
Y461911D1*
Y460927D1*
Y459942D1*
Y458958D1*
Y457974D1*
Y456990D1*
Y456005D1*
Y455021D1*
Y454037D1*
Y453052D1*
Y452068D1*
Y451084D1*
Y450100D1*
Y449115D1*
X-4903Y478643D2*
X-6640Y477659D1*
X-8074Y476675D1*
X-9148Y475690D1*
X-10002Y474706D1*
X-10720Y473722D1*
X-11244Y472738D1*
X-11566Y471753D1*
X-11793Y470769D1*
X1003Y478643D2*
X2774Y477659D1*
X4299Y476675D1*
X5484Y475690D1*
X6354Y474706D1*
X6991Y473722D1*
X7435Y472738D1*
X7721Y471753D1*
X7969Y470769D1*
X8258Y469785D1*
X8532Y468801D1*
X8712Y467816D1*
X8806Y466832D1*
X8849Y465848D1*
X8866Y464864D1*
X8873Y463879D1*
X8875Y462895D1*
X8872Y461911D1*
X8838Y460927D1*
X8713Y459942D1*
X8477Y458958D1*
X8221Y457974D1*
X8015Y456990D1*
X7794Y456005D1*
X7478Y455021D1*
X7045Y454037D1*
X6459Y453052D1*
X5638Y452068D1*
X4468Y451084D1*
X2865Y450100D1*
X1003Y449115D1*
X21672Y478643D2*
X20237Y477659D1*
X19009Y476675D1*
X18041Y475690D1*
X17359Y474706D1*
X16875Y473722D1*
X16469Y472738D1*
X16148Y471753D1*
X15982Y470769D1*
X16005Y469785D1*
X16199Y468801D1*
X16472Y467816D1*
X16800Y466832D1*
X17292Y465848D1*
X18016Y464864D1*
X18940Y463879D1*
X19898Y462895D1*
X20740Y461911D1*
X20944Y460927D1*
X20673Y459942D1*
X20219Y458958D1*
X19643Y457974D1*
X19063Y456990D1*
X18518Y456005D1*
X17999Y455021D1*
X17496Y454037D1*
X16999Y453052D1*
X16503Y452068D1*
X15984Y451084D1*
X15409Y450100D1*
X14782Y449115D1*
X36436Y478643D2*
Y477659D1*
Y476675D1*
Y475690D1*
Y474706D1*
Y473722D1*
Y472738D1*
Y471753D1*
Y470769D1*
Y469785D1*
Y468801D1*
Y467816D1*
Y466832D1*
Y465848D1*
Y464864D1*
Y463879D1*
Y462895D1*
Y461911D1*
Y460927D1*
Y459942D1*
Y458958D1*
Y457974D1*
Y456990D1*
Y456005D1*
Y455021D1*
Y454037D1*
Y453052D1*
Y452068D1*
Y451084D1*
Y450100D1*
Y449115D1*
X-33446Y475690D2*
X-34389Y474706D1*
X-35209Y473722D1*
X-35793Y472738D1*
X-36122Y471753D1*
X-36244Y470769D1*
X-36238Y469785D1*
X-35723Y468801D1*
X-33292Y467816D1*
X-29048Y466832D1*
X-23604Y465848D1*
Y475690D2*
Y474706D1*
Y473722D1*
Y472738D1*
Y471753D1*
Y470769D1*
Y469785D1*
Y468801D1*
Y467816D1*
Y466832D1*
X-33446Y465848D1*
X-1950Y475690D2*
X-3721Y474706D1*
X-5244Y473722D1*
X-6407Y472738D1*
X-7222Y471753D1*
X-7856Y470769D1*
X-1950Y475690D2*
X-179Y474706D1*
X1346Y473722D1*
X2531Y472738D1*
X3401Y471753D1*
X4038Y470769D1*
X4479Y469785D1*
X4730Y468801D1*
X4852Y467816D1*
X4906Y466832D1*
X4927Y465848D1*
X4935Y464864D1*
X4938Y463879D1*
X4939Y462895D1*
Y461911D1*
X4940Y460927D1*
X4936Y459942D1*
X4901Y458958D1*
X4772Y457974D1*
X4490Y456990D1*
X4097Y456005D1*
X3257Y455021D1*
X1054Y454037D1*
X-2127Y453052D1*
X-5887Y452068D1*
X24625Y475690D2*
X23006Y474706D1*
X21728Y473722D1*
X20833Y472738D1*
X20162Y471753D1*
X19964Y470769D1*
X19890Y469785D1*
X20136Y468801D1*
X20796Y467816D1*
X23388Y466832D1*
X27836Y465848D1*
X33483Y464864D1*
X32499Y475690D2*
Y474706D1*
Y473722D1*
Y472738D1*
Y471753D1*
Y470769D1*
Y469785D1*
Y468801D1*
Y467816D1*
Y466832D1*
Y465848D1*
X23640Y464864D1*
X-12777D2*
Y463879D1*
Y462895D1*
X-12773Y461911D1*
X-12738Y460927D1*
X-12613Y459942D1*
X-12377Y458958D1*
X-12121Y457974D1*
X-11915Y456990D1*
X-11694Y456005D1*
X-11378Y455021D1*
X-10945Y454037D1*
X-10359Y453052D1*
X-9539Y452068D1*
X-8368Y451084D1*
X-6765Y450100D1*
X-4903Y449115D1*
X-2934Y464864D2*
Y463879D1*
Y462895D1*
Y461911D1*
Y460927D1*
X-8840D1*
X-8836Y459942D1*
X-8798Y458958D1*
X-8638Y457974D1*
X-8265Y456990D1*
X-7650Y456005D1*
X-6859Y455021D1*
X-4773Y454037D1*
X-1691Y453052D1*
X1987Y452068D1*
X-33446Y462895D2*
X-34393Y461911D1*
X-35247Y460927D1*
X-35953Y459942D1*
X-36487Y458958D1*
X-36881Y457974D1*
X-36761Y456990D1*
X-36498Y456005D1*
X-35723Y455021D1*
X-32951Y454037D1*
X-28371Y453052D1*
X-22619Y452068D1*
X-23604Y462895D2*
Y461911D1*
Y460927D1*
Y459942D1*
Y458958D1*
Y457974D1*
Y456990D1*
Y456005D1*
Y455021D1*
Y454037D1*
Y453052D1*
X-32462Y452068D1*
X26593Y461911D2*
X25765Y460927D1*
X25059Y459942D1*
X24459Y458958D1*
X23918Y457974D1*
X23406Y456990D1*
X22906Y456005D1*
X22412Y455021D1*
X21918Y454037D1*
X21426Y453052D1*
X20936Y452068D1*
X20471Y451084D1*
X20061Y450100D1*
X19703Y449115D1*
X32499Y461911D2*
Y460927D1*
Y459942D1*
Y458958D1*
Y457974D1*
Y456990D1*
Y456005D1*
Y455021D1*
Y454037D1*
Y453052D1*
Y452068D1*
Y451084D1*
Y450100D1*
Y449115D1*
X-95248Y10054D2*
X-96531Y9070D1*
X-97519Y8085D1*
X-98262Y7101D1*
X-98863Y6117D1*
X-99362Y5133D1*
X-99708Y4148D1*
X-99899Y3164D1*
X-99706Y2180D1*
X-99452Y1196D1*
X-99167Y211D1*
X-98809Y-773D1*
X-98357Y-1757D1*
X-97804Y-2741D1*
X-97180Y-3726D1*
X-96548Y-4710D1*
X-95871Y-5694D1*
X-95114Y-6678D1*
X-94354Y-7663D1*
X-93650Y-8647D1*
X-92940Y-9631D1*
X-92169Y-10615D1*
X-91404Y-11600D1*
X-90698Y-12584D1*
X-89984Y-13568D1*
X-89179Y-14552D1*
X-88294Y-15537D1*
X-87374Y-16521D1*
X-88358Y10054D2*
X-86957Y9070D1*
X-85820Y8085D1*
X-84967Y7101D1*
X-84336Y6117D1*
X-83894Y5133D1*
X-83626Y4148D1*
X-83437Y3164D1*
X-71626Y10054D2*
X-73061Y9070D1*
X-74289Y8085D1*
X-75253Y7101D1*
X-76009Y6117D1*
X-76286Y5133D1*
X-76436Y4148D1*
X-76500Y3164D1*
X-76493Y2180D1*
X-76374Y1196D1*
X-76100Y211D1*
X-75647Y-773D1*
X-74927Y-1757D1*
X-73865Y-2741D1*
X-72610Y-3726D1*
X-73775Y-4710D1*
X-74774Y-5694D1*
X-75560Y-6678D1*
X-76194Y-7663D1*
X-76714Y-8647D1*
X-77103Y-9631D1*
X-77330Y-10615D1*
X-77410Y-11600D1*
X-77331Y-12584D1*
X-77081Y-13568D1*
X-76704Y-14552D1*
X-76222Y-15537D1*
X-75552Y-16521D1*
X-74546Y-17505D1*
X-73173Y-18490D1*
X-71626Y-19474D1*
X-65720Y10054D2*
X-64319Y9070D1*
X-63182Y8085D1*
X-62329Y7101D1*
X-61698Y6117D1*
X-61256Y5133D1*
X-60988Y4148D1*
X-60799Y3164D1*
X-48988Y10054D2*
X-50423Y9070D1*
X-51651Y8085D1*
X-52615Y7101D1*
X-53371Y6117D1*
X-53648Y5133D1*
X-53798Y4148D1*
X-53866Y3164D1*
X-53893Y2180D1*
X-53904Y1196D1*
X-53908Y211D1*
X-53909Y-773D1*
Y-1757D1*
Y-2741D1*
Y-3726D1*
Y-4710D1*
Y-5694D1*
Y-6678D1*
Y-7663D1*
Y-8647D1*
Y-9631D1*
Y-10615D1*
Y-11600D1*
X-53906Y-12584D1*
X-53867Y-13568D1*
X-53703Y-14552D1*
X-53300Y-15537D1*
X-52610Y-16521D1*
X-51635Y-17505D1*
X-50386Y-18490D1*
X-48988Y-19474D1*
X-43083Y10054D2*
X-41648Y9070D1*
X-40419Y8085D1*
X-39456Y7101D1*
X-38700Y6117D1*
X-38385Y5133D1*
X-38109Y4148D1*
X-37806Y3164D1*
X-37526Y2180D1*
X-37343Y1196D1*
X-37248Y211D1*
X-37205Y-773D1*
X-37188Y-1757D1*
X-37181Y-2741D1*
X-37178Y-3726D1*
Y-4710D1*
X-37177Y-5694D1*
Y-6678D1*
Y-7663D1*
X-37181Y-8647D1*
X-37216Y-9631D1*
X-37341Y-10615D1*
X-37577Y-11600D1*
X-37833Y-12584D1*
X-38043Y-13568D1*
X-38298Y-14552D1*
X-38743Y-15537D1*
X-39450Y-16521D1*
X-40432Y-17505D1*
X-41684Y-18490D1*
X-43083Y-19474D1*
X-26350Y10054D2*
X-27633Y9070D1*
X-28621Y8085D1*
X-29365Y7101D1*
X-29966Y6117D1*
X-30464Y5133D1*
X-30810Y4148D1*
X-31001Y3164D1*
X-30808Y2180D1*
X-30555Y1196D1*
X-30270Y211D1*
X-29911Y-773D1*
X-29459Y-1757D1*
X-28906Y-2741D1*
X-28282Y-3726D1*
X-27650Y-4710D1*
X-26973Y-5694D1*
X-26216Y-6678D1*
X-25456Y-7663D1*
X-24752Y-8647D1*
X-24043Y-9631D1*
X-23272Y-10615D1*
X-22507Y-11600D1*
X-21801Y-12584D1*
X-21086Y-13568D1*
X-20281Y-14552D1*
X-19396Y-15537D1*
X-18476Y-16521D1*
X-19461Y10054D2*
X-18060Y9070D1*
X-16923Y8085D1*
X-16070Y7101D1*
X-15438Y6117D1*
X-14997Y5133D1*
X-14728Y4148D1*
X-14539Y3164D1*
X-1744Y10054D2*
X-3179Y9070D1*
X-4407Y8085D1*
X-5375Y7101D1*
X-6057Y6117D1*
X-6541Y5133D1*
X-6947Y4148D1*
X-7268Y3164D1*
X-7434Y2180D1*
X-7411Y1196D1*
X-7217Y211D1*
X-6944Y-773D1*
X-6616Y-1757D1*
X-6124Y-2741D1*
X-5400Y-3726D1*
X-4476Y-4710D1*
X-3518Y-5694D1*
X-2676Y-6678D1*
X-2472Y-7663D1*
X-2743Y-8647D1*
X-3197Y-9631D1*
X-3773Y-10615D1*
X-4353Y-11600D1*
X-4898Y-12584D1*
X-5417Y-13568D1*
X-5920Y-14552D1*
X-6417Y-15537D1*
X-6913Y-16521D1*
X-7432Y-17505D1*
X-8007Y-18490D1*
X-8634Y-19474D1*
X13020Y10054D2*
Y9070D1*
Y8085D1*
Y7101D1*
Y6117D1*
Y5133D1*
Y4148D1*
Y3164D1*
Y2180D1*
Y1196D1*
Y211D1*
Y-773D1*
Y-1757D1*
Y-2741D1*
Y-3726D1*
Y-4710D1*
Y-5694D1*
Y-6678D1*
Y-7663D1*
Y-8647D1*
Y-9631D1*
Y-10615D1*
Y-11600D1*
Y-12584D1*
Y-13568D1*
Y-14552D1*
Y-15537D1*
Y-16521D1*
Y-17505D1*
Y-18490D1*
Y-19474D1*
X26799Y10054D2*
X25062Y9070D1*
X23628Y8085D1*
X22554Y7101D1*
X21701Y6117D1*
X20982Y5133D1*
X20458Y4148D1*
X20136Y3164D1*
X19909Y2180D1*
X32705Y10054D2*
X34594Y9070D1*
X36109Y8085D1*
X37250Y7101D1*
X38087Y6117D1*
X38706Y5133D1*
X39143Y4148D1*
X39425Y3164D1*
X39672Y2180D1*
X39961Y1196D1*
X40234Y211D1*
X40414Y-773D1*
X40508Y-1757D1*
X40551Y-2741D1*
X40568Y-3726D1*
X40575Y-4710D1*
X40577Y-5694D1*
X40574Y-6678D1*
X40540Y-7663D1*
X40415Y-8647D1*
X40179Y-9631D1*
X39923Y-10615D1*
X39717Y-11600D1*
X39496Y-12584D1*
X39180Y-13568D1*
X38747Y-14552D1*
X38161Y-15537D1*
X37340Y-16521D1*
X36170Y-17505D1*
X34567Y-18490D1*
X32705Y-19474D1*
X-91311Y7101D2*
X-93045Y6117D1*
X-94440Y5133D1*
X-95513Y4148D1*
X-95935Y3164D1*
X-95940Y2180D1*
X-95743Y1196D1*
X-95393Y211D1*
X-94960Y-773D1*
X-94457Y-1757D1*
X-93849Y-2741D1*
X-93124Y-3726D1*
X-92377Y-4710D1*
X-91679Y-5694D1*
X-90967Y-6678D1*
X-90166Y-7663D1*
X-89310Y-8647D1*
X-88494Y-9631D1*
X-87763Y-10615D1*
X-87042Y-11600D1*
X-86266Y-12584D1*
X-85503Y-13568D1*
X-84835Y-14552D1*
X-84285Y-15537D1*
X-83878Y-16521D1*
X-83639Y-17505D1*
X-83515Y-18490D1*
X-83437Y-19474D1*
X-91311Y7101D2*
X-89689Y6117D1*
X-88377Y5133D1*
X-87337Y4148D1*
X-86390Y3164D1*
X-68673Y7101D2*
X-70292Y6117D1*
X-71570Y5133D1*
X-72461Y4148D1*
X-73120Y3164D1*
X-73292Y2180D1*
X-73035Y1196D1*
X-72610Y211D1*
X-71503Y-773D1*
X-70181Y-1757D1*
X-68888Y-2741D1*
X-68246Y-3726D1*
X-68042Y-4710D1*
X-69396Y-5694D1*
X-70838Y-6678D1*
X-72031Y-7663D1*
X-72960Y-8647D1*
X-73288Y-9631D1*
X-73461Y-10615D1*
X-73498Y-11600D1*
X-73434Y-12584D1*
X-72897Y-13568D1*
X-71214Y-14552D1*
X-68715Y-15537D1*
X-65720Y-16521D1*
X-67689Y7101D2*
X-66705Y6117D1*
X-65720Y5133D1*
X-64736Y4148D1*
X-63752Y3164D1*
X-46035Y7101D2*
X-47769Y6117D1*
X-49164Y5133D1*
X-50237Y4148D1*
X-50610Y3164D1*
X-50810Y2180D1*
X-50900Y1196D1*
X-50936Y211D1*
X-50949Y-773D1*
X-50954Y-1757D1*
X-50956Y-2741D1*
Y-3726D1*
X-50957Y-4710D1*
Y-5694D1*
Y-6678D1*
Y-7663D1*
Y-8647D1*
Y-9631D1*
X-50953Y-10615D1*
X-50911Y-11600D1*
X-50807Y-12584D1*
X-50263Y-13568D1*
X-48578Y-14552D1*
X-46078Y-15537D1*
X-43083Y-16521D1*
X-46035Y7101D2*
X-44302Y6117D1*
X-42906Y5133D1*
X-41833Y4148D1*
X-41460Y3164D1*
X-41261Y2180D1*
X-41171Y1196D1*
X-41135Y211D1*
X-41122Y-773D1*
X-41117Y-1757D1*
X-41115Y-2741D1*
X-41114Y-3726D1*
Y-4710D1*
Y-5694D1*
Y-6678D1*
Y-7663D1*
Y-8647D1*
Y-9631D1*
X-41118Y-10615D1*
X-41160Y-11600D1*
X-41264Y-12584D1*
X-41808Y-13568D1*
X-43493Y-14552D1*
X-45993Y-15537D1*
X-48988Y-16521D1*
X-22413Y7101D2*
X-24147Y6117D1*
X-25542Y5133D1*
X-26615Y4148D1*
X-27037Y3164D1*
X-27042Y2180D1*
X-26845Y1196D1*
X-26495Y211D1*
X-26062Y-773D1*
X-25559Y-1757D1*
X-24952Y-2741D1*
X-24226Y-3726D1*
X-23480Y-4710D1*
X-22781Y-5694D1*
X-22069Y-6678D1*
X-21268Y-7663D1*
X-20413Y-8647D1*
X-19596Y-9631D1*
X-18866Y-10615D1*
X-18144Y-11600D1*
X-17369Y-12584D1*
X-16606Y-13568D1*
X-15938Y-14552D1*
X-15387Y-15537D1*
X-14981Y-16521D1*
X-14741Y-17505D1*
X-14617Y-18490D1*
X-14539Y-19474D1*
X-22413Y7101D2*
X-20791Y6117D1*
X-19480Y5133D1*
X-18439Y4148D1*
X-17492Y3164D1*
X1209Y7101D2*
X-410Y6117D1*
X-1688Y5133D1*
X-2583Y4148D1*
X-3254Y3164D1*
X-3452Y2180D1*
X-3526Y1196D1*
X-3280Y211D1*
X-2620Y-773D1*
X-28Y-1757D1*
X4420Y-2741D1*
X10067Y-3726D1*
X9083Y7101D2*
Y6117D1*
Y5133D1*
Y4148D1*
Y3164D1*
Y2180D1*
Y1196D1*
Y211D1*
Y-773D1*
Y-1757D1*
Y-2741D1*
X224Y-3726D1*
X29752Y7101D2*
X27981Y6117D1*
X26458Y5133D1*
X25296Y4148D1*
X24480Y3164D1*
X23846Y2180D1*
X29752Y7101D2*
X31523Y6117D1*
X33048Y5133D1*
X34233Y4148D1*
X35103Y3164D1*
X35740Y2180D1*
X36181Y1196D1*
X36432Y211D1*
X36555Y-773D1*
X36608Y-1757D1*
X36629Y-2741D1*
X36637Y-3726D1*
X36640Y-4710D1*
X36641Y-5694D1*
X36642Y-6678D1*
X36638Y-7663D1*
X36603Y-8647D1*
X36474Y-9631D1*
X36200Y-10615D1*
X35780Y-11600D1*
X35158Y-12584D1*
X34336Y-13568D1*
X32471Y-14552D1*
X29865Y-15537D1*
X26799Y-16521D1*
X3177Y-6678D2*
X2349Y-7663D1*
X1643Y-8647D1*
X1043Y-9631D1*
X502Y-10615D1*
X-10Y-11600D1*
X-510Y-12584D1*
X-1004Y-13568D1*
X-1498Y-14552D1*
X-1990Y-15537D1*
X-2480Y-16521D1*
X-2945Y-17505D1*
X-3355Y-18490D1*
X-3713Y-19474D1*
X9083Y-6678D2*
Y-7663D1*
Y-8647D1*
Y-9631D1*
Y-10615D1*
Y-11600D1*
Y-12584D1*
Y-13568D1*
Y-14552D1*
Y-15537D1*
Y-16521D1*
Y-17505D1*
Y-18490D1*
Y-19474D1*
X19909Y-11600D2*
X20099Y-12584D1*
X20473Y-13568D1*
X21006Y-14552D1*
X21633Y-15537D1*
X22460Y-16521D1*
X23640Y-17505D1*
X25147Y-18490D1*
X26799Y-19474D1*
X23846Y-11600D2*
X24429Y-12584D1*
X25205Y-13568D1*
X27050Y-14552D1*
X29646Y-15537D1*
X32705Y-16521D1*
X-63752Y-12584D2*
X-64400Y-13568D1*
X-66111Y-14552D1*
X-68624Y-15537D1*
X-71626Y-16521D1*
X-59815Y-12584D2*
X-60193Y-13568D1*
X-60650Y-14552D1*
X-61241Y-15537D1*
X-62026Y-16521D1*
X-63045Y-17505D1*
X-64313Y-18490D1*
X-65720Y-19474D1*
X-100169Y-16521D2*
Y-17505D1*
Y-18490D1*
Y-19474D1*
X-31272Y-16521D2*
Y-17505D1*
Y-18490D1*
Y-19474D1*
X-87618Y-341445D2*
Y-342429D1*
Y-343413D1*
Y-344398D1*
Y-345382D1*
Y-346366D1*
Y-347350D1*
Y-348335D1*
Y-349319D1*
Y-350303D1*
Y-351287D1*
Y-352272D1*
Y-353256D1*
Y-354240D1*
Y-355224D1*
X-87622Y-356209D1*
X-87657Y-357193D1*
X-87797Y-358177D1*
X-88058Y-359161D1*
X-88819Y-360146D1*
X-90522Y-361130D1*
X-92539Y-362114D1*
X-80728Y-341445D2*
Y-342429D1*
Y-343413D1*
Y-344398D1*
Y-345382D1*
Y-346366D1*
Y-347350D1*
Y-348335D1*
Y-349319D1*
Y-350303D1*
Y-351287D1*
Y-352272D1*
Y-353256D1*
Y-354240D1*
Y-355224D1*
Y-356209D1*
Y-357193D1*
X-80732Y-358177D1*
X-80767Y-359161D1*
X-80892Y-360146D1*
X-81132Y-361130D1*
X-81423Y-362114D1*
X-81758Y-363098D1*
X-82249Y-364083D1*
X-82950Y-365067D1*
X-83866Y-366051D1*
X-85092Y-367035D1*
X-86723Y-368020D1*
X-88602Y-369004D1*
X-50217Y-341445D2*
Y-342429D1*
Y-343413D1*
Y-344398D1*
Y-345382D1*
Y-346366D1*
Y-347350D1*
Y-348335D1*
Y-349319D1*
Y-350303D1*
Y-351287D1*
Y-352272D1*
Y-353256D1*
Y-354240D1*
Y-355224D1*
Y-356209D1*
Y-357193D1*
Y-358177D1*
Y-359161D1*
Y-360146D1*
Y-361130D1*
Y-362114D1*
Y-363098D1*
Y-364083D1*
Y-365067D1*
Y-366051D1*
Y-367035D1*
Y-368020D1*
Y-369004D1*
X-43327Y-341445D2*
Y-342429D1*
Y-343413D1*
Y-344398D1*
Y-345382D1*
Y-346366D1*
Y-347350D1*
Y-348335D1*
Y-349319D1*
Y-350303D1*
Y-351287D1*
Y-352272D1*
Y-353256D1*
Y-354240D1*
Y-355224D1*
Y-356209D1*
Y-357193D1*
Y-358177D1*
Y-359161D1*
Y-360146D1*
Y-361130D1*
Y-362114D1*
Y-363098D1*
Y-364083D1*
Y-365067D1*
Y-366051D1*
Y-367035D1*
Y-368020D1*
Y-369004D1*
X-8878Y-341445D2*
Y-342429D1*
Y-343413D1*
Y-344398D1*
Y-345382D1*
Y-346366D1*
Y-347350D1*
Y-348335D1*
Y-349319D1*
X-12815D1*
Y-350303D1*
Y-351287D1*
Y-352272D1*
Y-353256D1*
Y-354240D1*
Y-355224D1*
Y-356209D1*
Y-357193D1*
X-8878D1*
X-9109Y-358177D1*
X-9509Y-359161D1*
X-10459Y-360146D1*
X-11397Y-361130D1*
X-12198Y-362114D1*
X-12514Y-363098D1*
X-12687Y-364083D1*
X-12765Y-365067D1*
X-12796Y-366051D1*
X-12808Y-367035D1*
X-12813Y-368020D1*
X-12815Y-369004D1*
X-1988Y-341445D2*
Y-342429D1*
Y-343413D1*
Y-344398D1*
Y-345382D1*
Y-346366D1*
Y-347350D1*
Y-348335D1*
Y-349319D1*
Y-350303D1*
Y-351287D1*
Y-352272D1*
Y-353256D1*
Y-354240D1*
Y-355224D1*
Y-356209D1*
Y-357193D1*
Y-358177D1*
X-1992Y-359161D1*
X-2027Y-360146D1*
X-2156Y-361130D1*
X-2430Y-362114D1*
X-2846Y-363098D1*
X-3418Y-364083D1*
X-4165Y-365067D1*
X-5068Y-366051D1*
X-6152Y-367035D1*
X-7451Y-368020D1*
X-8878Y-369004D1*
X13760Y-341445D2*
Y-342429D1*
Y-343413D1*
Y-344398D1*
Y-345382D1*
Y-346366D1*
Y-347350D1*
Y-348335D1*
Y-349319D1*
Y-350303D1*
X13756Y-351287D1*
X13719Y-352272D1*
X13566Y-353256D1*
X13230Y-354240D1*
X12776Y-355224D1*
X20650Y-341445D2*
Y-342429D1*
Y-343413D1*
Y-344398D1*
Y-345382D1*
Y-346366D1*
Y-347350D1*
Y-348335D1*
Y-349319D1*
Y-350303D1*
Y-351287D1*
Y-352272D1*
Y-353256D1*
Y-354240D1*
Y-355224D1*
Y-356209D1*
Y-357193D1*
Y-358177D1*
Y-359161D1*
Y-360146D1*
Y-361130D1*
Y-362114D1*
Y-363098D1*
Y-364083D1*
Y-365067D1*
Y-366051D1*
Y-367035D1*
Y-368020D1*
Y-369004D1*
X49193Y-341445D2*
Y-342429D1*
Y-343413D1*
Y-344398D1*
X49201Y-345382D1*
X49274Y-346366D1*
X49447Y-347350D1*
X50128Y-348335D1*
X50889Y-349319D1*
X51490Y-350303D1*
X51846Y-351287D1*
X52021Y-352272D1*
X52100Y-353256D1*
X52146Y-354240D1*
X49193D1*
Y-355224D1*
Y-356209D1*
Y-357193D1*
Y-358177D1*
Y-359161D1*
Y-360146D1*
Y-361130D1*
Y-362114D1*
X52146D1*
Y-363098D1*
Y-364083D1*
Y-365067D1*
Y-366051D1*
Y-367035D1*
Y-368020D1*
Y-369004D1*
Y-341445D2*
X53699Y-342429D1*
X55084Y-343413D1*
X56226Y-344398D1*
X57155Y-345382D1*
X57921Y-346366D1*
X58466Y-347350D1*
X58777Y-348335D1*
X58929Y-349319D1*
X58994Y-350303D1*
X59020Y-351287D1*
X59030Y-352272D1*
X59034Y-353256D1*
X59035Y-354240D1*
Y-355224D1*
Y-356209D1*
Y-357193D1*
Y-358177D1*
Y-359161D1*
Y-360146D1*
Y-361130D1*
Y-362114D1*
Y-363098D1*
Y-364083D1*
Y-365067D1*
Y-366051D1*
Y-367035D1*
Y-368020D1*
Y-369004D1*
X-194902Y-349319D2*
X-196303Y-350303D1*
X-197440Y-351287D1*
X-198293Y-352272D1*
X-198924Y-353256D1*
X-199363Y-354240D1*
X-199613Y-355224D1*
X-199736Y-356209D1*
X-199789Y-357193D1*
X-199810Y-358177D1*
X-199818Y-359161D1*
X-199821Y-360146D1*
X-199822Y-361130D1*
X-199823Y-362114D1*
Y-363098D1*
Y-364083D1*
Y-365067D1*
Y-366051D1*
Y-367035D1*
Y-368020D1*
Y-369004D1*
X-189980Y-349319D2*
X-186628Y-350303D1*
X-183091Y-351287D1*
X-182106Y-349319D2*
X-185459Y-350303D1*
X-188996Y-351287D1*
X-177185Y-349319D2*
X-175750Y-350303D1*
X-174522Y-351287D1*
X-173558Y-352272D1*
X-172802Y-353256D1*
X-172525Y-354240D1*
X-172375Y-355224D1*
X-172307Y-356209D1*
X-172280Y-357193D1*
X-172269Y-358177D1*
X-172266Y-359161D1*
X-172264Y-360146D1*
Y-361130D1*
Y-362114D1*
Y-363098D1*
Y-364083D1*
Y-365067D1*
Y-366051D1*
Y-367035D1*
Y-368020D1*
Y-369004D1*
X-160453Y-349319D2*
X-161891Y-350303D1*
X-163154Y-351287D1*
X-164247Y-352272D1*
X-165166Y-353256D1*
X-165901Y-354240D1*
X-166479Y-355224D1*
X-166896Y-356209D1*
X-167138Y-357193D1*
X-167257Y-358177D1*
X-167305Y-359161D1*
X-167292Y-360146D1*
X-167170Y-361130D1*
X-166899Y-362114D1*
X-166484Y-363098D1*
X-165913Y-364083D1*
X-165166Y-365067D1*
X-164263Y-366051D1*
X-163179Y-367035D1*
X-161880Y-368020D1*
X-160453Y-369004D1*
X-153563Y-349319D2*
X-151792Y-350303D1*
X-150266Y-351287D1*
X-149082Y-352272D1*
X-148212Y-353256D1*
X-147571Y-354240D1*
X-147096Y-355224D1*
X-146719Y-356209D1*
X-146365Y-357193D1*
X-146094Y-358177D1*
X-145945Y-359161D1*
X-146146Y-360146D1*
X-146403Y-361130D1*
X-146690Y-362114D1*
X-147049Y-363098D1*
X-147509Y-364083D1*
X-148135Y-365067D1*
X-149048Y-366051D1*
X-150312Y-367035D1*
X-151872Y-368020D1*
X-153563Y-369004D1*
X-134862Y-349319D2*
X-136755Y-350303D1*
X-138301Y-351287D1*
X-139533Y-352272D1*
X-140472Y-353256D1*
X-141191Y-354240D1*
X-141492Y-355224D1*
X-140714Y-356209D1*
X-139783Y-357193D1*
X-128957Y-349319D2*
X-127185Y-350303D1*
X-125660Y-351287D1*
X-124476Y-352272D1*
X-123606Y-353256D1*
X-122969Y-354240D1*
X-122528Y-355224D1*
X-122277Y-356209D1*
X-122154Y-357193D1*
X-122101Y-358177D1*
X-122079Y-359161D1*
X-122075Y-360146D1*
X-122111Y-361130D1*
X-122270Y-362114D1*
X-122634Y-363098D1*
X-123165Y-364083D1*
X-123791Y-365067D1*
X-124617Y-366051D1*
X-125798Y-367035D1*
X-127304Y-368020D1*
X-128957Y-369004D1*
X-94508Y-349319D2*
X-96245Y-350303D1*
X-97679Y-351287D1*
X-98753Y-352272D1*
X-99607Y-353256D1*
X-100324Y-354240D1*
X-100845Y-355224D1*
X-101146Y-356209D1*
X-101293Y-357193D1*
X-101357Y-358177D1*
X-101383Y-359161D1*
X-101389Y-360146D1*
X-101354Y-361130D1*
X-101195Y-362114D1*
X-100826Y-363098D1*
X-100265Y-364083D1*
X-99548Y-365067D1*
X-98612Y-366051D1*
X-97421Y-367035D1*
X-96021Y-368020D1*
X-94508Y-369004D1*
X-89587Y-349319D2*
Y-350303D1*
Y-351287D1*
Y-352272D1*
X-89602Y-353256D1*
X-89648Y-354240D1*
X-90079Y-355224D1*
X-91298Y-356209D1*
X-92578Y-357193D1*
X-93535Y-358177D1*
X-94236Y-359161D1*
X-93416Y-360146D1*
X-91216Y-361130D1*
X-88602Y-362114D1*
X-68917Y-349319D2*
X-70655Y-350303D1*
X-72085Y-351287D1*
X-73128Y-352272D1*
X-73891Y-353256D1*
X-74498Y-354240D1*
X-75002Y-355224D1*
X-75384Y-356209D1*
X-75611Y-357193D1*
X-75725Y-358177D1*
X-75775Y-359161D1*
X-75795Y-360146D1*
X-75803Y-361130D1*
X-75806Y-362114D1*
X-75807Y-363098D1*
Y-364083D1*
Y-365067D1*
Y-366051D1*
Y-367035D1*
Y-368020D1*
Y-369004D1*
X-62028Y-349319D2*
X-60256Y-350303D1*
X-58731Y-351287D1*
X-57546Y-352272D1*
X-56677Y-353256D1*
X-56039Y-354240D1*
X-55595Y-355224D1*
X-55306Y-356209D1*
X-55031Y-357193D1*
X-54639Y-358177D1*
X-54154Y-359161D1*
X-54612Y-360146D1*
X-54929Y-361130D1*
X-55201Y-362114D1*
X-55539Y-363098D1*
X-55985Y-364083D1*
X-56604Y-365067D1*
X-57515Y-366051D1*
X-58777Y-367035D1*
X-60337Y-368020D1*
X-62028Y-369004D1*
X-30531Y-349319D2*
X-32269Y-350303D1*
X-33699Y-351287D1*
X-34742Y-352272D1*
X-35505Y-353256D1*
X-36112Y-354240D1*
X-36617Y-355224D1*
X-36998Y-356209D1*
X-37226Y-357193D1*
X-37339Y-358177D1*
X-37389Y-359161D1*
X-37409Y-360146D1*
X-37417Y-361130D1*
X-37420Y-362114D1*
X-37421Y-363098D1*
Y-364083D1*
Y-365067D1*
Y-366051D1*
Y-367035D1*
Y-368020D1*
Y-369004D1*
X-23642Y-349319D2*
X-21871Y-350303D1*
X-20345Y-351287D1*
X-19161Y-352272D1*
X-18291Y-353256D1*
X-17654Y-354240D1*
X-17209Y-355224D1*
X-16920Y-356209D1*
X-16645Y-357193D1*
X-16254Y-358177D1*
X-15768Y-359161D1*
X-16226Y-360146D1*
X-16543Y-361130D1*
X-16816Y-362114D1*
X-17153Y-363098D1*
X-17599Y-364083D1*
X-18218Y-365067D1*
X-19129Y-366051D1*
X-20391Y-367035D1*
X-21951Y-368020D1*
X-23642Y-369004D1*
X1949Y-349319D2*
X2559Y-350303D1*
X3120Y-351287D1*
X3648Y-352272D1*
X4157Y-353256D1*
X4681Y-354240D1*
X5258Y-355224D1*
X5886Y-356209D1*
X5394Y-357193D1*
X4981Y-358177D1*
X4568Y-359161D1*
X4123Y-360146D1*
X3655Y-361130D1*
X3176Y-362114D1*
X2720Y-363098D1*
X2323Y-364083D1*
X1973Y-365067D1*
X1589Y-366051D1*
X1132Y-367035D1*
X589Y-368020D1*
X-20Y-369004D1*
X9823Y-349319D2*
X10197Y-350303D1*
X10620Y-351287D1*
X11080Y-352272D1*
X11584Y-353256D1*
X12152Y-354240D1*
X12776Y-355224D1*
X31476Y-349319D2*
X30038Y-350303D1*
X28775Y-351287D1*
X27686Y-352272D1*
X26798Y-353256D1*
X26153Y-354240D1*
X25686Y-355224D1*
X25286Y-356209D1*
X24963Y-357193D1*
X24763Y-358177D1*
X24655Y-359161D1*
X24587Y-360146D1*
X38366Y-349319D2*
X40137Y-350303D1*
X41663Y-351287D1*
X42847Y-352272D1*
X43717Y-353256D1*
X44358Y-354240D1*
X44833Y-355224D1*
X45210Y-356209D1*
X45565Y-357193D1*
X45836Y-358177D1*
X45984Y-359161D1*
X45783Y-360146D1*
X45526Y-361130D1*
X45239Y-362114D1*
X44880Y-363098D1*
X44420Y-364083D1*
X43794Y-365067D1*
X42881Y-366051D1*
X41617Y-367035D1*
X40057Y-368020D1*
X38366Y-369004D1*
X69862Y-349319D2*
X68424Y-350303D1*
X67161Y-351287D1*
X66072Y-352272D1*
X65184Y-353256D1*
X64539Y-354240D1*
X64072Y-355224D1*
X63672Y-356209D1*
X63349Y-357193D1*
X63148Y-358177D1*
X63041Y-359161D1*
X62972Y-360146D1*
X76752Y-349319D2*
X78523Y-350303D1*
X80048Y-351287D1*
X81233Y-352272D1*
X82103Y-353256D1*
X82744Y-354240D1*
X83219Y-355224D1*
X83596Y-356209D1*
X83950Y-357193D1*
X84221Y-358177D1*
X84370Y-359161D1*
X84169Y-360146D1*
X83912Y-361130D1*
X83625Y-362114D1*
X83266Y-363098D1*
X82806Y-364083D1*
X82180Y-365067D1*
X81267Y-366051D1*
X80003Y-367035D1*
X78443Y-368020D1*
X76752Y-369004D1*
X105295Y-349319D2*
Y-350303D1*
Y-351287D1*
Y-352272D1*
Y-353256D1*
Y-354240D1*
Y-355224D1*
Y-356209D1*
Y-357193D1*
Y-358177D1*
Y-359161D1*
Y-360146D1*
X105299Y-361130D1*
X105334Y-362114D1*
X105463Y-363098D1*
X105737Y-364083D1*
X106157Y-365067D1*
X106766Y-366051D1*
X107661Y-367035D1*
X108856Y-368020D1*
X110217Y-369004D1*
X112185Y-349319D2*
Y-350303D1*
Y-351287D1*
Y-352272D1*
Y-353256D1*
Y-354240D1*
Y-355224D1*
Y-356209D1*
Y-357193D1*
X112193Y-358177D1*
X112268Y-359161D1*
X112446Y-360146D1*
X113214Y-361130D1*
X114154Y-362114D1*
X116122Y-349319D2*
Y-350303D1*
Y-351287D1*
Y-352272D1*
Y-353256D1*
Y-354240D1*
Y-355224D1*
Y-356209D1*
X116118Y-357193D1*
X116072Y-358177D1*
X115957Y-359161D1*
X115348Y-360146D1*
X113885Y-361130D1*
X112185Y-362114D1*
X123012Y-349319D2*
Y-350303D1*
Y-351287D1*
Y-352272D1*
Y-353256D1*
Y-354240D1*
Y-355224D1*
Y-356209D1*
Y-357193D1*
X123020Y-358177D1*
X123094Y-359161D1*
X123273Y-360146D1*
X124040Y-361130D1*
X124980Y-362114D1*
X125965Y-349319D2*
Y-350303D1*
Y-351287D1*
Y-352272D1*
Y-353256D1*
Y-354240D1*
Y-355224D1*
Y-356209D1*
Y-357193D1*
X125957Y-358177D1*
X125882Y-359161D1*
X125703Y-360146D1*
X124936Y-361130D1*
X123996Y-362114D1*
X132854Y-349319D2*
Y-350303D1*
Y-351287D1*
Y-352272D1*
Y-353256D1*
Y-354240D1*
Y-355224D1*
Y-356209D1*
Y-357193D1*
Y-358177D1*
Y-359161D1*
Y-360146D1*
Y-361130D1*
X132850Y-362114D1*
X132812Y-363098D1*
X132648Y-364083D1*
X132245Y-365067D1*
X131555Y-366051D1*
X130580Y-367035D1*
X129331Y-368020D1*
X127933Y-369004D1*
X138760Y-349319D2*
Y-350303D1*
Y-351287D1*
Y-352272D1*
Y-353256D1*
Y-354240D1*
Y-355224D1*
Y-356209D1*
Y-357193D1*
Y-358177D1*
Y-359161D1*
Y-360146D1*
X138764Y-361130D1*
X138798Y-362114D1*
X138928Y-363098D1*
X139202Y-364083D1*
X139622Y-365067D1*
X140231Y-366051D1*
X141125Y-367035D1*
X142321Y-368020D1*
X143681Y-369004D1*
X145650Y-349319D2*
Y-350303D1*
Y-351287D1*
Y-352272D1*
Y-353256D1*
Y-354240D1*
Y-355224D1*
Y-356209D1*
Y-357193D1*
X145657Y-358177D1*
X145732Y-359161D1*
X145911Y-360146D1*
X146678Y-361130D1*
X147618Y-362114D1*
X149587Y-349319D2*
Y-350303D1*
Y-351287D1*
Y-352272D1*
Y-353256D1*
Y-354240D1*
Y-355224D1*
Y-356209D1*
X149583Y-357193D1*
X149537Y-358177D1*
X149421Y-359161D1*
X148813Y-360146D1*
X147349Y-361130D1*
X145650Y-362114D1*
X156476Y-349319D2*
Y-350303D1*
Y-351287D1*
Y-352272D1*
Y-353256D1*
Y-354240D1*
Y-355224D1*
Y-356209D1*
Y-357193D1*
X156484Y-358177D1*
X156559Y-359161D1*
X156738Y-360146D1*
X157505Y-361130D1*
X158445Y-362114D1*
X159429Y-349319D2*
Y-350303D1*
Y-351287D1*
Y-352272D1*
Y-353256D1*
Y-354240D1*
Y-355224D1*
Y-356209D1*
Y-357193D1*
X159421Y-358177D1*
X159346Y-359161D1*
X159168Y-360146D1*
X158401Y-361130D1*
X157461Y-362114D1*
X166319Y-349319D2*
Y-350303D1*
Y-351287D1*
Y-352272D1*
Y-353256D1*
Y-354240D1*
Y-355224D1*
Y-356209D1*
Y-357193D1*
Y-358177D1*
Y-359161D1*
Y-360146D1*
Y-361130D1*
X166315Y-362114D1*
X166277Y-363098D1*
X166113Y-364083D1*
X165709Y-365067D1*
X165020Y-366051D1*
X164044Y-367035D1*
X162795Y-368020D1*
X161398Y-369004D1*
X172224Y-349319D2*
Y-350303D1*
Y-351287D1*
Y-352272D1*
Y-353256D1*
Y-354240D1*
Y-355224D1*
Y-356209D1*
Y-357193D1*
Y-358177D1*
Y-359161D1*
Y-360146D1*
X172228Y-361130D1*
X172263Y-362114D1*
X172392Y-363098D1*
X172666Y-364083D1*
X173086Y-365067D1*
X173695Y-366051D1*
X174590Y-367035D1*
X175786Y-368020D1*
X177146Y-369004D1*
X179114Y-349319D2*
Y-350303D1*
Y-351287D1*
Y-352272D1*
Y-353256D1*
Y-354240D1*
Y-355224D1*
Y-356209D1*
Y-357193D1*
X179122Y-358177D1*
X179197Y-359161D1*
X179376Y-360146D1*
X180143Y-361130D1*
X181083Y-362114D1*
X183051Y-349319D2*
Y-350303D1*
Y-351287D1*
Y-352272D1*
Y-353256D1*
Y-354240D1*
Y-355224D1*
Y-356209D1*
X183047Y-357193D1*
X183001Y-358177D1*
X182886Y-359161D1*
X182277Y-360146D1*
X180814Y-361130D1*
X179114Y-362114D1*
X189941Y-349319D2*
Y-350303D1*
Y-351287D1*
Y-352272D1*
Y-353256D1*
Y-354240D1*
Y-355224D1*
Y-356209D1*
Y-357193D1*
X189949Y-358177D1*
X190024Y-359161D1*
X190202Y-360146D1*
X190969Y-361130D1*
X191909Y-362114D1*
X192894Y-349319D2*
Y-350303D1*
Y-351287D1*
Y-352272D1*
Y-353256D1*
Y-354240D1*
Y-355224D1*
Y-356209D1*
Y-357193D1*
X192886Y-358177D1*
X192811Y-359161D1*
X192632Y-360146D1*
X191865Y-361130D1*
X190925Y-362114D1*
X199783Y-349319D2*
Y-350303D1*
Y-351287D1*
Y-352272D1*
Y-353256D1*
Y-354240D1*
Y-355224D1*
Y-356209D1*
Y-357193D1*
Y-358177D1*
Y-359161D1*
Y-360146D1*
Y-361130D1*
X199780Y-362114D1*
X199741Y-363098D1*
X199577Y-364083D1*
X199174Y-365067D1*
X198484Y-366051D1*
X197509Y-367035D1*
X196260Y-368020D1*
X194862Y-369004D1*
X33445Y-354240D2*
X32461Y-355224D1*
X31476Y-356209D1*
X36398Y-357193D1*
Y-358177D1*
Y-359161D1*
Y-360146D1*
Y-354240D2*
X37188Y-355224D1*
X37764Y-356209D1*
X38094Y-357193D1*
X38250Y-358177D1*
X38265Y-359161D1*
X38161Y-360146D1*
X37373Y-361130D1*
X35577Y-362114D1*
X33697Y-363098D1*
X32122Y-364083D1*
X30968Y-365067D1*
X30119Y-366051D1*
X29776Y-367035D1*
X30550Y-368020D1*
X31476Y-369004D1*
X71831Y-354240D2*
X70846Y-355224D1*
X69862Y-356209D1*
X74783Y-357193D1*
Y-358177D1*
Y-359161D1*
Y-360146D1*
Y-354240D2*
X75574Y-355224D1*
X76150Y-356209D1*
X76480Y-357193D1*
X76636Y-358177D1*
X76651Y-359161D1*
X76547Y-360146D1*
X75759Y-361130D1*
X73962Y-362114D1*
X72083Y-363098D1*
X70508Y-364083D1*
X69354Y-365067D1*
X68505Y-366051D1*
X68162Y-367035D1*
X68936Y-368020D1*
X69862Y-369004D1*
X-192933Y-356209D2*
Y-357193D1*
Y-358177D1*
Y-359161D1*
Y-360146D1*
Y-361130D1*
Y-362114D1*
Y-363098D1*
Y-364083D1*
Y-365067D1*
Y-366051D1*
Y-367035D1*
Y-368020D1*
Y-369004D1*
X-190965Y-356209D2*
X-190174Y-357193D1*
X-189598Y-358177D1*
X-189268Y-359161D1*
X-189109Y-360146D1*
X-189040Y-361130D1*
X-189012Y-362114D1*
X-189002Y-363098D1*
X-188998Y-364083D1*
X-188997Y-365067D1*
X-188996Y-366051D1*
Y-367035D1*
Y-368020D1*
Y-369004D1*
X-182106Y-356209D2*
Y-357193D1*
Y-358177D1*
Y-359161D1*
Y-360146D1*
Y-361130D1*
Y-362114D1*
Y-363098D1*
Y-364083D1*
Y-365067D1*
Y-366051D1*
Y-367035D1*
Y-368020D1*
Y-369004D1*
X-179154Y-356209D2*
Y-357193D1*
Y-358177D1*
Y-359161D1*
Y-360146D1*
Y-361130D1*
Y-362114D1*
Y-363098D1*
Y-364083D1*
Y-365067D1*
Y-366051D1*
Y-367035D1*
Y-368020D1*
Y-369004D1*
X-158484Y-356209D2*
X-159271Y-357193D1*
X-159925Y-358177D1*
X-160051Y-359161D1*
X-159765Y-360146D1*
X-157314Y-361130D1*
X-154547Y-362114D1*
X-155531Y-356209D2*
X-154745Y-357193D1*
X-154091Y-358177D1*
X-153965Y-359161D1*
X-154251Y-360146D1*
X-156702Y-361130D1*
X-159469Y-362114D1*
X-133878Y-356209D2*
X-134862Y-357193D1*
X-130925Y-356209D2*
X-130138Y-357193D1*
X-129484Y-358177D1*
X-129359Y-359161D1*
X-129645Y-360146D1*
X-132096Y-361130D1*
X-134862Y-362114D1*
X-66949Y-356209D2*
X-67740Y-357193D1*
X-68315Y-358177D1*
X-68645Y-359161D1*
X-68805Y-360146D1*
X-68874Y-361130D1*
X-68901Y-362114D1*
X-68912Y-363098D1*
X-68915Y-364083D1*
X-68917Y-365067D1*
Y-366051D1*
Y-367035D1*
Y-368020D1*
Y-369004D1*
X-63996Y-356209D2*
X-63209Y-357193D1*
X-62555Y-358177D1*
X-62414Y-359161D1*
X-62959Y-360146D1*
X-64262Y-361130D1*
X-65460Y-362114D1*
X-66381Y-363098D1*
X-66680Y-364083D1*
X-66837Y-365067D1*
X-66906Y-366051D1*
X-66933Y-367035D1*
X-66944Y-368020D1*
X-66949Y-369004D1*
X-28563Y-356209D2*
X-29354Y-357193D1*
X-29929Y-358177D1*
X-30259Y-359161D1*
X-30419Y-360146D1*
X-30488Y-361130D1*
X-30516Y-362114D1*
X-30526Y-363098D1*
X-30530Y-364083D1*
X-30531Y-365067D1*
Y-366051D1*
Y-367035D1*
Y-368020D1*
Y-369004D1*
X-25610Y-356209D2*
X-24823Y-357193D1*
X-24169Y-358177D1*
X-24028Y-359161D1*
X-24573Y-360146D1*
X-25876Y-361130D1*
X-27074Y-362114D1*
X-27995Y-363098D1*
X-28294Y-364083D1*
X-28452Y-365067D1*
X-28520Y-366051D1*
X-28548Y-367035D1*
X-28558Y-368020D1*
X-28563Y-369004D1*
X11791Y-357193D2*
X11754Y-358177D1*
X11624Y-359161D1*
X11353Y-360146D1*
X10976Y-361130D1*
X10564Y-362114D1*
X10186Y-363098D1*
X9847Y-364083D1*
X9499Y-365067D1*
X9161Y-366051D1*
X8817Y-367035D1*
X8376Y-368020D1*
X7854Y-369004D1*
X13760Y-357193D2*
Y-358177D1*
Y-359161D1*
Y-360146D1*
Y-361130D1*
Y-362114D1*
Y-363098D1*
Y-364083D1*
Y-365067D1*
Y-366051D1*
Y-367035D1*
Y-368020D1*
Y-369004D1*
X-142736Y-360146D2*
X-142396Y-361130D1*
X-142065Y-362114D1*
X-141714Y-363098D1*
X-141218Y-364083D1*
X-140515Y-365067D1*
X-139599Y-366051D1*
X-138373Y-367035D1*
X-136741Y-368020D1*
X-134862Y-369004D1*
X-135846Y-360146D2*
X-133017Y-361130D1*
X-129941Y-362114D1*
X-113209Y-360146D2*
X-114269Y-361130D1*
X-115079Y-362114D1*
X-115616Y-363098D1*
X-115965Y-364083D1*
X-115911Y-365067D1*
X-115646Y-366051D1*
X-115107Y-367035D1*
X-114256Y-368020D1*
X-113209Y-369004D1*
X-109272Y-360146D2*
X-108481Y-361130D1*
X-107905Y-362114D1*
X-107576Y-363098D1*
X-107420Y-364083D1*
X-107389Y-365067D1*
X-107525Y-366051D1*
X-107911Y-367035D1*
X-108536Y-368020D1*
X-109272Y-369004D1*
X92500Y-360146D2*
X91439Y-361130D1*
X90630Y-362114D1*
X90093Y-363098D1*
X89743Y-364083D1*
X89797Y-365067D1*
X90063Y-366051D1*
X90601Y-367035D1*
X91453Y-368020D1*
X92500Y-369004D1*
X96437Y-360146D2*
X97228Y-361130D1*
X97803Y-362114D1*
X98133Y-363098D1*
X98289Y-364083D1*
X98320Y-365067D1*
X98184Y-366051D1*
X97798Y-367035D1*
X97172Y-368020D1*
X96437Y-369004D1*
X120059Y-367035D2*
X118091Y-368020D1*
X116122Y-369004D1*
X119075Y-367035D2*
X121043Y-368020D1*
X123012Y-369004D1*
X153524Y-367035D2*
X151555Y-368020D1*
X149587Y-369004D1*
X152539Y-367035D2*
X154508Y-368020D1*
X156476Y-369004D1*
X186988Y-367035D2*
X185020Y-368020D1*
X183051Y-369004D1*
X186004Y-367035D2*
X187972Y-368020D1*
X189941Y-369004D1*
X-304409Y187866D2*
X-305844Y186882D1*
X-307073Y185898D1*
X-308040Y184913D1*
X-308723Y183929D1*
X-309206Y182945D1*
X-309612Y181961D1*
X-309937Y180976D1*
X-310138Y179992D1*
X-310240Y179008D1*
X-310285Y178024D1*
X-310304Y177039D1*
X-310311Y176055D1*
X-310314Y175071D1*
X-310311Y174087D1*
X-310276Y173102D1*
X-310151Y172118D1*
X-309911Y171134D1*
X-309621Y170150D1*
X-309289Y169165D1*
X-308833Y168181D1*
X-308264Y167197D1*
X-307663Y166213D1*
X-307028Y165228D1*
X-306366Y164244D1*
X-305715Y163260D1*
X-304990Y162276D1*
X-304032Y161291D1*
X-302750Y160307D1*
X-301182Y159323D1*
X-299488Y158339D1*
X-298504Y187866D2*
X-297069Y186882D1*
X-295837Y185898D1*
X-294839Y184913D1*
X-294065Y183929D1*
X-293472Y182945D1*
X-293049Y181961D1*
X-292804Y180976D1*
X-292684Y179992D1*
X-292632Y179008D1*
X-292614Y178024D1*
X-292641Y177039D1*
X-292768Y176055D1*
X-293037Y175071D1*
X-293422Y174087D1*
X-293906Y173102D1*
X-294577Y172118D1*
X-295584Y171134D1*
X-296957Y170150D1*
X-298504Y169165D1*
X-281772Y187866D2*
Y186882D1*
Y185898D1*
Y184913D1*
Y183929D1*
Y182945D1*
Y181961D1*
Y180976D1*
Y179992D1*
Y179008D1*
Y178024D1*
Y177039D1*
Y176055D1*
Y175071D1*
Y174087D1*
Y173102D1*
Y172118D1*
Y171134D1*
Y170150D1*
Y169165D1*
Y168181D1*
Y167197D1*
Y166213D1*
Y165228D1*
Y164244D1*
Y163260D1*
Y162276D1*
Y161291D1*
Y160307D1*
Y159323D1*
Y158339D1*
X-280787Y187866D2*
X-279799Y186882D1*
X-278777Y185898D1*
X-277632Y184913D1*
X-276291Y183929D1*
X-274857Y182945D1*
X-273612Y181961D1*
X-272621Y180976D1*
X-272231Y179992D1*
X-271929Y179008D1*
X-260118Y187866D2*
X-261519Y186882D1*
X-262656Y185898D1*
X-263509Y184913D1*
X-264144Y183929D1*
X-264618Y182945D1*
X-264994Y181961D1*
X-265352Y180976D1*
X-265657Y179992D1*
X-265850Y179008D1*
X-265950Y178024D1*
X-265994Y177039D1*
X-266013Y176055D1*
X-266020Y175071D1*
X-266022Y174087D1*
X-266023Y173102D1*
Y172118D1*
Y171134D1*
X-266020Y170150D1*
X-265985Y169165D1*
X-265860Y168181D1*
X-265620Y167197D1*
X-265333Y166213D1*
X-265032Y165228D1*
X-264667Y164244D1*
X-264209Y163260D1*
X-263616Y162276D1*
X-262829Y161291D1*
X-261809Y160307D1*
X-260542Y159323D1*
X-259134Y158339D1*
X-254213Y187866D2*
X-252778Y186882D1*
X-251545Y185898D1*
X-250547Y184913D1*
X-249770Y183929D1*
X-249142Y182945D1*
X-248594Y181961D1*
X-248113Y180976D1*
X-247741Y179992D1*
X-247517Y179008D1*
X-247404Y178024D1*
X-247355Y177039D1*
X-247335Y176055D1*
X-247327Y175071D1*
X-247324Y174087D1*
X-247323Y173102D1*
Y172118D1*
Y171134D1*
Y170150D1*
Y169165D1*
X-247327Y168181D1*
X-247361Y167197D1*
X-247487Y166213D1*
X-247726Y165228D1*
X-248017Y164244D1*
X-248353Y163260D1*
X-248847Y162276D1*
X-249578Y161291D1*
X-250571Y160307D1*
X-251827Y159323D1*
X-253228Y158339D1*
X-235512Y187866D2*
X-236946Y186882D1*
X-238175Y185898D1*
X-239138Y184913D1*
X-239895Y183929D1*
X-240171Y182945D1*
X-240322Y181961D1*
X-240385Y180976D1*
X-240378Y179992D1*
X-240263Y179008D1*
X-240028Y178024D1*
X-239738Y177039D1*
X-239407Y176055D1*
X-238951Y175071D1*
X-238382Y174087D1*
X-237781Y173102D1*
X-237147Y172118D1*
X-236485Y171134D1*
X-235841Y170150D1*
X-235189Y169165D1*
X-234524Y168181D1*
X-233908Y167197D1*
X-233346Y166213D1*
X-232787Y165228D1*
X-232154Y164244D1*
X-231386Y163260D1*
X-230517Y162276D1*
X-229606Y161291D1*
X-228622Y187866D2*
X-227229Y186882D1*
X-226013Y185898D1*
X-225400Y184913D1*
X-225374Y183929D1*
X-225669Y182945D1*
X-198110Y187866D2*
Y186882D1*
Y185898D1*
Y184913D1*
Y183929D1*
Y182945D1*
Y181961D1*
Y180976D1*
Y179992D1*
Y179008D1*
Y178024D1*
Y177039D1*
Y176055D1*
Y175071D1*
Y174087D1*
Y173102D1*
Y172118D1*
Y171134D1*
Y170150D1*
Y169165D1*
Y168181D1*
Y167197D1*
Y166213D1*
Y165228D1*
Y164244D1*
Y163260D1*
Y162276D1*
Y161291D1*
Y160307D1*
Y159323D1*
Y158339D1*
X-197126Y187866D2*
X-196138Y186882D1*
X-195115Y185898D1*
X-193971Y184913D1*
X-192629Y183929D1*
X-191195Y182945D1*
X-189951Y181961D1*
X-188961Y180976D1*
X-188601Y179992D1*
X-188398Y179008D1*
X-188268Y178024D1*
X-175472Y187866D2*
Y186882D1*
Y185898D1*
Y184913D1*
Y183929D1*
Y182945D1*
Y181961D1*
Y180976D1*
Y179992D1*
Y179008D1*
Y178024D1*
Y177039D1*
Y176055D1*
Y175071D1*
Y174087D1*
Y173102D1*
Y172118D1*
Y171134D1*
Y170150D1*
Y169165D1*
Y168181D1*
Y167197D1*
Y166213D1*
Y165228D1*
Y164244D1*
Y163260D1*
Y162276D1*
Y161291D1*
Y160307D1*
Y159323D1*
Y158339D1*
X-174488Y187866D2*
X-173500Y186882D1*
X-172477Y185898D1*
X-171333Y184913D1*
X-169991Y183929D1*
X-168558Y182945D1*
X-167313Y181961D1*
X-166323Y180976D1*
X-165963Y179992D1*
X-165761Y179008D1*
X-165630Y178024D1*
X-103622Y187866D2*
X-105241Y186882D1*
X-106518Y185898D1*
X-107414Y184913D1*
X-108084Y183929D1*
X-108320Y182945D1*
X-108444Y181961D1*
X-108468Y180976D1*
X-108362Y179992D1*
X-108093Y179008D1*
X-107642Y178024D1*
X-106923Y177039D1*
X-105861Y176055D1*
X-104606Y175071D1*
X-106041Y174087D1*
X-107269Y173102D1*
X-108233Y172118D1*
X-108989Y171134D1*
X-109303Y170150D1*
X-109576Y169165D1*
X-109845Y168181D1*
X-109999Y167197D1*
X-109942Y166213D1*
X-109750Y165228D1*
X-109492Y164244D1*
X-109144Y163260D1*
X-108685Y162276D1*
X-108024Y161291D1*
X-106972Y160307D1*
X-105437Y159323D1*
X-103622Y158339D1*
X-97716Y187866D2*
X-96471Y186882D1*
X-95468Y185898D1*
X-95071Y184913D1*
X-94764Y183929D1*
X-66220Y187866D2*
Y186882D1*
Y185898D1*
Y184913D1*
Y183929D1*
Y182945D1*
Y181961D1*
Y180976D1*
Y179992D1*
Y179008D1*
Y178024D1*
Y177039D1*
Y176055D1*
Y175071D1*
Y174087D1*
Y173102D1*
Y172118D1*
Y171134D1*
Y170150D1*
Y169165D1*
Y168181D1*
Y167197D1*
Y166213D1*
Y165228D1*
Y164244D1*
Y163260D1*
Y162276D1*
Y161291D1*
Y160307D1*
Y159323D1*
Y158339D1*
X-65236Y187866D2*
X-64248Y186882D1*
X-63225Y185898D1*
X-62081Y184913D1*
X-60739Y183929D1*
X-59306Y182945D1*
X-58061Y181961D1*
X-57071Y180976D1*
X-56711Y179992D1*
X-56509Y179008D1*
X-56378Y178024D1*
X-51457Y187866D2*
X-50965Y186882D1*
X-50556Y185898D1*
X-50173Y184913D1*
X-49823Y183929D1*
X-49500Y182945D1*
X-49159Y181961D1*
X-48827Y180976D1*
X-48508Y179992D1*
X-48139Y179008D1*
X-47717Y178024D1*
X-47288Y177039D1*
X-46902Y176055D1*
X-46561Y175071D1*
X-46212Y174087D1*
X-45876Y173102D1*
X-45556Y172118D1*
X-45187Y171134D1*
X-44764Y170150D1*
X-44335Y169165D1*
X-43950Y168181D1*
X-43608Y167197D1*
X-43259Y166213D1*
X-42924Y165228D1*
X-42607Y164244D1*
X-42268Y163260D1*
X-41937Y162276D1*
X-41621Y161291D1*
X-41278Y160307D1*
X-40939Y159323D1*
X-40630Y158339D1*
X-47520Y187866D2*
X-47179Y186882D1*
X-46852Y185898D1*
X-46540Y184913D1*
X-46204Y183929D1*
X-45873Y182945D1*
X-45558Y181961D1*
X-45221Y180976D1*
X-44890Y179992D1*
X-44574Y179008D1*
X-44237Y178024D1*
X-43905Y177039D1*
X-43590Y176055D1*
X-43252Y175071D1*
X-42921Y174087D1*
X-42602Y173102D1*
X-42233Y172118D1*
X-41811Y171134D1*
X-41382Y170150D1*
X-40994Y169165D1*
X-40625Y168181D1*
X-40174Y167197D1*
X-39646Y166213D1*
X-31772Y187866D2*
X-31924Y186882D1*
X-32172Y185898D1*
X-32461Y184913D1*
X-32763Y183929D1*
X-33124Y182945D1*
X-33544Y181961D1*
X-33973Y180976D1*
X-34357Y179992D1*
X-34699Y179008D1*
X-35048Y178024D1*
X-35383Y177039D1*
X-35700Y176055D1*
X-36039Y175071D1*
X-36370Y174087D1*
X-36689Y173102D1*
X-37058Y172118D1*
X-37480Y171134D1*
X-37909Y170150D1*
X-38297Y169165D1*
X-38666Y168181D1*
X-39118Y167197D1*
X-39646Y166213D1*
X-27835Y187866D2*
X-28175Y186882D1*
X-28502Y185898D1*
X-28814Y184913D1*
X-29150Y183929D1*
X-29481Y182945D1*
X-29800Y181961D1*
X-30168Y180976D1*
X-30590Y179992D1*
X-31019Y179008D1*
X-31405Y178024D1*
X-31746Y177039D1*
X-32095Y176055D1*
X-32431Y175071D1*
X-32751Y174087D1*
X-33120Y173102D1*
X-33543Y172118D1*
X-33972Y171134D1*
X-34357Y170150D1*
X-34699Y169165D1*
X-35048Y168181D1*
X-35383Y167197D1*
X-35704Y166213D1*
X-36073Y165228D1*
X-36495Y164244D1*
X-36925Y163260D1*
X-37310Y162276D1*
X-37652Y161291D1*
X-38006Y160307D1*
X-38349Y159323D1*
X-38661Y158339D1*
X5630Y187866D2*
X3775Y186882D1*
X2355Y185898D1*
X1359Y184913D1*
X668Y183929D1*
X140Y182945D1*
X82Y181961D1*
X249Y180976D1*
X619Y179992D1*
X1207Y179008D1*
X2094Y178024D1*
X3287Y177039D1*
X4646Y176055D1*
X2875Y175071D1*
X1353Y174087D1*
X199Y173102D1*
X-580Y172118D1*
X-1107Y171134D1*
X-1531Y170150D1*
X-1863Y169165D1*
X-2062Y168181D1*
X-2130Y167197D1*
X-2047Y166213D1*
X-1795Y165228D1*
X-1420Y164244D1*
X-973Y163260D1*
X-428Y162276D1*
X348Y161291D1*
X1504Y160307D1*
X2999Y159323D1*
X4646Y158339D1*
X16457Y187866D2*
Y186882D1*
Y185898D1*
Y184913D1*
Y183929D1*
Y182945D1*
Y181961D1*
Y180976D1*
Y179992D1*
Y179008D1*
Y178024D1*
Y177039D1*
Y176055D1*
Y175071D1*
Y174087D1*
Y173102D1*
Y172118D1*
Y171134D1*
Y170150D1*
Y169165D1*
Y168181D1*
Y167197D1*
Y166213D1*
Y165228D1*
Y164244D1*
Y163260D1*
Y162276D1*
Y161291D1*
Y160307D1*
Y159323D1*
Y158339D1*
X27284Y187866D2*
X27131Y186882D1*
X26887Y185898D1*
X26633Y184913D1*
X26456Y183929D1*
X26330Y182945D1*
X26163Y181961D1*
X25910Y180976D1*
X25651Y179992D1*
X25473Y179008D1*
X25346Y178024D1*
X25179Y177039D1*
X24926Y176055D1*
X24667Y175071D1*
X24489Y174087D1*
X24362Y173102D1*
X24195Y172118D1*
X23942Y171134D1*
X23683Y170150D1*
X23505Y169165D1*
X23378Y168181D1*
X23210Y167197D1*
X22957Y166213D1*
X22698Y165228D1*
X22520Y164244D1*
X22394Y163260D1*
X22226Y162276D1*
X21973Y161291D1*
X21711Y160307D1*
X21522Y159323D1*
X21378Y158339D1*
X28268Y187866D2*
X28760Y186882D1*
X29168Y185898D1*
X29547Y184913D1*
X29867Y183929D1*
X30099Y182945D1*
X30326Y181961D1*
X30610Y180976D1*
X30916Y179992D1*
X31220Y179008D1*
X31553Y178024D1*
X31883Y177039D1*
X32198Y176055D1*
X32535Y175071D1*
X32866Y174087D1*
X33182Y173102D1*
X33515Y172118D1*
X33820Y171134D1*
X34085Y170150D1*
X34383Y169165D1*
X35180Y168181D1*
X36142Y167197D1*
X43032Y187866D2*
X42879Y186882D1*
X42632Y185898D1*
X42342Y184913D1*
X42044Y183929D1*
X41713Y182945D1*
X41385Y181961D1*
X41070Y180976D1*
X40733Y179992D1*
X40402Y179008D1*
X40086Y178024D1*
X39749Y177039D1*
X39417Y176055D1*
X39102Y175071D1*
X38764Y174087D1*
X38433Y173102D1*
X38118Y172118D1*
X37776Y171134D1*
X37405Y170150D1*
X36910Y169165D1*
X36133Y168181D1*
X35158Y167197D1*
X45000Y187866D2*
X45004Y186882D1*
X45039Y185898D1*
X45164Y184913D1*
X45400Y183929D1*
X45652Y182945D1*
X45824Y181961D1*
X45919Y180976D1*
X45995Y179992D1*
X46138Y179008D1*
X46380Y178024D1*
X46635Y177039D1*
X46811Y176055D1*
X46938Y175071D1*
X47105Y174087D1*
X47358Y173102D1*
X47617Y172118D1*
X47795Y171134D1*
X47922Y170150D1*
X48089Y169165D1*
X48342Y168181D1*
X48601Y167197D1*
X48775Y166213D1*
X48871Y165228D1*
X48948Y164244D1*
X49091Y163260D1*
X49333Y162276D1*
X49588Y161291D1*
X49761Y160307D1*
X49858Y159323D1*
X49921Y158339D1*
X62717Y187866D2*
X62561Y186882D1*
X62282Y185898D1*
X61902Y184913D1*
X61490Y183929D1*
X61111Y182945D1*
X60772Y181961D1*
X60424Y180976D1*
X60089Y179992D1*
X59768Y179008D1*
X59399Y178024D1*
X58977Y177039D1*
X58548Y176055D1*
X58162Y175071D1*
X57817Y174087D1*
X57437Y173102D1*
X57011Y172118D1*
X56580Y171134D1*
X56194Y170150D1*
X55853Y169165D1*
X55504Y168181D1*
X55168Y167197D1*
X54847Y166213D1*
X54478Y165228D1*
X54056Y164244D1*
X53626Y163260D1*
X53241Y162276D1*
X52899Y161291D1*
X52545Y160307D1*
X52202Y159323D1*
X51890Y158339D1*
X63701Y187866D2*
X64075Y186882D1*
X64498Y185898D1*
X64955Y184913D1*
X65429Y183929D1*
X65884Y182945D1*
X66280Y181961D1*
X66629Y180976D1*
X67011Y179992D1*
X67438Y179008D1*
X67869Y178024D1*
X68255Y177039D1*
X68600Y176055D1*
X68980Y175071D1*
X69410Y174087D1*
X69872Y173102D1*
X70349Y172118D1*
X70804Y171134D1*
X71201Y170150D1*
X71551Y169165D1*
X71932Y168181D1*
X72359Y167197D1*
X72790Y166213D1*
X73176Y165228D1*
X73521Y164244D1*
X73901Y163260D1*
X74328Y162276D1*
X74755Y161291D1*
X75109Y160307D1*
X75342Y159323D1*
X75512Y158339D1*
X113898Y187866D2*
Y186882D1*
Y185898D1*
Y184913D1*
Y183929D1*
Y182945D1*
Y181961D1*
Y180976D1*
Y179992D1*
Y179008D1*
Y178024D1*
Y177039D1*
Y176055D1*
Y175071D1*
Y174087D1*
Y173102D1*
Y172118D1*
Y171134D1*
Y170150D1*
Y169165D1*
Y168181D1*
Y167197D1*
Y166213D1*
Y165228D1*
Y164244D1*
Y163260D1*
Y162276D1*
Y161291D1*
X117835Y187866D2*
Y186882D1*
Y185898D1*
Y184913D1*
Y183929D1*
Y182945D1*
Y181961D1*
Y180976D1*
Y179992D1*
Y179008D1*
Y178024D1*
Y177039D1*
Y176055D1*
Y175071D1*
Y174087D1*
Y173102D1*
Y172118D1*
Y171134D1*
Y170150D1*
Y169165D1*
Y168181D1*
Y167197D1*
Y166213D1*
Y165228D1*
Y164244D1*
Y163260D1*
Y162276D1*
Y161291D1*
Y160307D1*
Y159323D1*
Y158339D1*
X122756Y187866D2*
Y186882D1*
Y185898D1*
Y184913D1*
X140473Y187866D2*
Y186882D1*
Y185898D1*
Y184913D1*
Y183929D1*
Y182945D1*
Y181961D1*
Y180976D1*
Y179992D1*
Y179008D1*
Y178024D1*
Y177039D1*
Y176055D1*
Y175071D1*
Y174087D1*
Y173102D1*
Y172118D1*
Y171134D1*
Y170150D1*
Y169165D1*
Y168181D1*
Y167197D1*
Y166213D1*
Y165228D1*
Y164244D1*
Y163260D1*
Y162276D1*
Y161291D1*
Y160307D1*
Y159323D1*
Y158339D1*
X146378Y187866D2*
X146870Y186882D1*
X147446Y185898D1*
X148047Y184913D1*
X148681Y183929D1*
X149339Y182945D1*
X149952Y181961D1*
X150513Y180976D1*
X151067Y179992D1*
X151666Y179008D1*
X152309Y178024D1*
X152948Y177039D1*
X153629Y176055D1*
X154406Y175071D1*
X155236Y174087D1*
X154626Y173102D1*
X154061Y172118D1*
X153503Y171134D1*
X152902Y170150D1*
X152262Y169165D1*
X151657Y168181D1*
X151100Y167197D1*
X150546Y166213D1*
X149948Y165228D1*
X149305Y164244D1*
X148670Y163260D1*
X148021Y162276D1*
X147355Y161291D1*
X146713Y160307D1*
X146068Y159323D1*
X145394Y158339D1*
X149331Y187866D2*
X150163Y186882D1*
X150899Y185898D1*
X151594Y184913D1*
X152277Y183929D1*
X152899Y182945D1*
X153472Y181961D1*
X154106Y180976D1*
X155041Y179992D1*
X156466Y179008D1*
X158189Y178024D1*
X164095Y187866D2*
X163451Y186882D1*
X162794Y185898D1*
X162122Y184913D1*
X161473Y183929D1*
X160820Y182945D1*
X160143Y181961D1*
X159417Y180976D1*
X158428Y179992D1*
X156976Y179008D1*
X155236Y178024D1*
X167047Y187866D2*
X166555Y186882D1*
X165983Y185898D1*
X165413Y184913D1*
X164870Y183929D1*
X164322Y182945D1*
X163726Y181961D1*
X163088Y180976D1*
X162484Y179992D1*
X161926Y179008D1*
X161373Y178024D1*
X160778Y177039D1*
X160174Y176055D1*
X159703Y175071D1*
X159375Y174087D1*
X159456Y173102D1*
X159775Y172118D1*
X160280Y171134D1*
X160856Y170150D1*
X161481Y169165D1*
X162135Y168181D1*
X162747Y167197D1*
X163308Y166213D1*
X163863Y165228D1*
X164462Y164244D1*
X165101Y163260D1*
X165705Y162276D1*
X166262Y161291D1*
X166810Y160307D1*
X167397Y159323D1*
X168032Y158339D1*
X180827Y187866D2*
X180671Y186882D1*
X180392Y185898D1*
X180012Y184913D1*
X179600Y183929D1*
X179222Y182945D1*
X178883Y181961D1*
X178535Y180976D1*
X178199Y179992D1*
X177879Y179008D1*
X177510Y178024D1*
X177087Y177039D1*
X176658Y176055D1*
X176273Y175071D1*
X175927Y174087D1*
X175548Y173102D1*
X175121Y172118D1*
X174690Y171134D1*
X174304Y170150D1*
X173963Y169165D1*
X173614Y168181D1*
X173278Y167197D1*
X172957Y166213D1*
X172588Y165228D1*
X172166Y164244D1*
X171737Y163260D1*
X171351Y162276D1*
X171009Y161291D1*
X170656Y160307D1*
X170312Y159323D1*
X170000Y158339D1*
X181811Y187866D2*
X182185Y186882D1*
X182608Y185898D1*
X183065Y184913D1*
X183539Y183929D1*
X183994Y182945D1*
X184390Y181961D1*
X184740Y180976D1*
X185121Y179992D1*
X185548Y179008D1*
X185979Y178024D1*
X186365Y177039D1*
X186710Y176055D1*
X187090Y175071D1*
X187521Y174087D1*
X187982Y173102D1*
X188459Y172118D1*
X188915Y171134D1*
X189311Y170150D1*
X189661Y169165D1*
X190042Y168181D1*
X190469Y167197D1*
X190900Y166213D1*
X191286Y165228D1*
X191632Y164244D1*
X192012Y163260D1*
X192438Y162276D1*
X192865Y161291D1*
X193219Y160307D1*
X193452Y159323D1*
X193622Y158339D1*
X229055Y187866D2*
X228899Y186882D1*
X228621Y185898D1*
X228240Y184913D1*
X227828Y183929D1*
X227450Y182945D1*
X227111Y181961D1*
X226763Y180976D1*
X226428Y179992D1*
X226107Y179008D1*
X225738Y178024D1*
X225316Y177039D1*
X224886Y176055D1*
X224501Y175071D1*
X224156Y174087D1*
X223776Y173102D1*
X223350Y172118D1*
X222919Y171134D1*
X222533Y170150D1*
X222191Y169165D1*
X221842Y168181D1*
X221506Y167197D1*
X221186Y166213D1*
X220817Y165228D1*
X220394Y164244D1*
X219965Y163260D1*
X219580Y162276D1*
X219238Y161291D1*
X218884Y160307D1*
X218540Y159323D1*
X218228Y158339D1*
X230039Y187866D2*
X230413Y186882D1*
X230836Y185898D1*
X231293Y184913D1*
X231768Y183929D1*
X232222Y182945D1*
X232618Y181961D1*
X232968Y180976D1*
X233349Y179992D1*
X233776Y179008D1*
X234208Y178024D1*
X234593Y177039D1*
X234939Y176055D1*
X235319Y175071D1*
X235749Y174087D1*
X236211Y173102D1*
X236687Y172118D1*
X237143Y171134D1*
X237539Y170150D1*
X237889Y169165D1*
X238271Y168181D1*
X238698Y167197D1*
X239129Y166213D1*
X239515Y165228D1*
X239860Y164244D1*
X240240Y163260D1*
X240666Y162276D1*
X241094Y161291D1*
X241448Y160307D1*
X241680Y159323D1*
X241850Y158339D1*
X243819Y187866D2*
Y186882D1*
Y185898D1*
Y184913D1*
Y183929D1*
X254646D1*
Y182945D1*
Y181961D1*
Y180976D1*
Y179992D1*
Y179008D1*
Y178024D1*
Y177039D1*
Y176055D1*
Y175071D1*
Y174087D1*
Y173102D1*
Y172118D1*
Y171134D1*
Y170150D1*
Y169165D1*
Y168181D1*
Y167197D1*
Y166213D1*
Y165228D1*
Y164244D1*
Y163260D1*
Y162276D1*
Y161291D1*
Y160307D1*
Y159323D1*
Y158339D1*
X267441Y187866D2*
Y186882D1*
Y185898D1*
Y184913D1*
Y183929D1*
X257599D1*
Y182945D1*
Y181961D1*
Y180976D1*
Y179992D1*
Y179008D1*
Y178024D1*
Y177039D1*
Y176055D1*
Y175071D1*
Y174087D1*
Y173102D1*
Y172118D1*
Y171134D1*
Y170150D1*
Y169165D1*
Y168181D1*
Y167197D1*
Y166213D1*
Y165228D1*
Y164244D1*
Y163260D1*
Y162276D1*
Y161291D1*
Y160307D1*
Y159323D1*
Y158339D1*
X270394Y187866D2*
X271226Y186882D1*
X271962Y185898D1*
X272657Y184913D1*
X273344Y183929D1*
X273997Y182945D1*
X274652Y181961D1*
X275322Y180976D1*
X275969Y179992D1*
X276622Y179008D1*
X277290Y178024D1*
X277932Y177039D1*
X278577Y176055D1*
X279252Y175071D1*
X278642Y174087D1*
X278077Y173102D1*
X277519Y172118D1*
X276918Y171134D1*
X276278Y170150D1*
X275673Y169165D1*
X275115Y168181D1*
X274562Y167197D1*
X273963Y166213D1*
X273325Y165228D1*
X272720Y164244D1*
X272162Y163260D1*
X271609Y162276D1*
X271014Y161291D1*
X270398Y160307D1*
X269866Y159323D1*
X269410Y158339D1*
X274331Y187866D2*
X275163Y186882D1*
X275899Y185898D1*
X276594Y184913D1*
X277281Y183929D1*
X277934Y182945D1*
X278589Y181961D1*
X279259Y180976D1*
X279906Y179992D1*
X280559Y179008D1*
X281228Y178024D1*
X281875Y177039D1*
X282528Y176055D1*
X283196Y175071D1*
X283838Y174087D1*
X284483Y173102D1*
X285158Y172118D1*
X286142Y187866D2*
Y186882D1*
Y185898D1*
Y184913D1*
Y183929D1*
Y182945D1*
Y181961D1*
Y180976D1*
Y179992D1*
Y179008D1*
Y178024D1*
Y177039D1*
X286138Y176055D1*
X286100Y175071D1*
X285948Y174087D1*
X285612Y173102D1*
X285158Y172118D1*
X290079Y187866D2*
Y186882D1*
Y185898D1*
Y184913D1*
Y183929D1*
Y182945D1*
Y181961D1*
Y180976D1*
Y179992D1*
Y179008D1*
Y178024D1*
Y177039D1*
Y176055D1*
Y175071D1*
Y174087D1*
Y173102D1*
Y172118D1*
Y171134D1*
Y170150D1*
Y169165D1*
Y168181D1*
Y167197D1*
Y166213D1*
Y165228D1*
Y164244D1*
Y163260D1*
Y162276D1*
Y161291D1*
Y160307D1*
Y159323D1*
Y158339D1*
X295000Y187866D2*
Y186882D1*
Y185898D1*
Y184913D1*
X312717Y187866D2*
Y186882D1*
Y185898D1*
Y184913D1*
Y183929D1*
Y182945D1*
Y181961D1*
Y180976D1*
Y179992D1*
Y179008D1*
Y178024D1*
Y177039D1*
Y176055D1*
Y175071D1*
Y174087D1*
Y173102D1*
Y172118D1*
Y171134D1*
Y170150D1*
Y169165D1*
Y168181D1*
Y167197D1*
Y166213D1*
Y165228D1*
Y164244D1*
Y163260D1*
Y162276D1*
Y161291D1*
Y160307D1*
Y159323D1*
Y158339D1*
X317638Y187866D2*
Y186882D1*
Y185898D1*
Y184913D1*
X336339Y187866D2*
Y186882D1*
Y185898D1*
Y184913D1*
Y183929D1*
Y182945D1*
Y181961D1*
Y180976D1*
Y179992D1*
Y179008D1*
Y178024D1*
Y177039D1*
Y176055D1*
Y175071D1*
Y174087D1*
Y173102D1*
Y172118D1*
Y171134D1*
Y170150D1*
Y169165D1*
Y168181D1*
Y167197D1*
Y166213D1*
Y165228D1*
Y164244D1*
Y163260D1*
Y162276D1*
Y161291D1*
Y160307D1*
Y159323D1*
Y158339D1*
X341260Y187866D2*
Y186882D1*
Y185898D1*
Y184913D1*
X358976Y187866D2*
Y186882D1*
Y185898D1*
Y184913D1*
Y183929D1*
Y182945D1*
Y181961D1*
Y180976D1*
Y179992D1*
Y179008D1*
Y178024D1*
Y177039D1*
Y176055D1*
Y175071D1*
Y174087D1*
Y173102D1*
Y172118D1*
Y171134D1*
Y170150D1*
Y169165D1*
Y168181D1*
Y167197D1*
Y166213D1*
Y165228D1*
Y164244D1*
Y163260D1*
Y162276D1*
Y161291D1*
Y160307D1*
Y159323D1*
Y158339D1*
X-138071Y186882D2*
Y185898D1*
Y184913D1*
Y183929D1*
Y182945D1*
Y181961D1*
Y180976D1*
Y179992D1*
Y179008D1*
Y178024D1*
Y177039D1*
Y176055D1*
Y175071D1*
Y174087D1*
Y173102D1*
Y172118D1*
Y171134D1*
Y170150D1*
Y169165D1*
Y168181D1*
Y167197D1*
Y166213D1*
Y165228D1*
Y164244D1*
Y163260D1*
Y162276D1*
Y161291D1*
Y160307D1*
Y159323D1*
Y158339D1*
Y157354D1*
Y156370D1*
Y155386D1*
Y154402D1*
Y153417D1*
Y152433D1*
X-136102Y186882D2*
Y185898D1*
Y184913D1*
Y183929D1*
Y182945D1*
Y181961D1*
Y180976D1*
Y179992D1*
Y179008D1*
Y178024D1*
Y177039D1*
Y176055D1*
Y175071D1*
Y174087D1*
Y173102D1*
Y172118D1*
Y171134D1*
Y170150D1*
Y169165D1*
Y168181D1*
Y167197D1*
Y166213D1*
Y165228D1*
Y164244D1*
Y163260D1*
Y162276D1*
Y161291D1*
Y160307D1*
Y159323D1*
Y158339D1*
Y157354D1*
Y156370D1*
Y155386D1*
Y154402D1*
Y153417D1*
Y152433D1*
X-303425Y184913D2*
X-304372Y183929D1*
X-305226Y182945D1*
X-305936Y181961D1*
X-306504Y180976D1*
X-306913Y179992D1*
X-307120Y179008D1*
X-307109Y178024D1*
X-306887Y177039D1*
X-306473Y176055D1*
X-305916Y175071D1*
X-304270Y174087D1*
X-301693Y173102D1*
X-298504Y172118D1*
X-299488Y184913D2*
X-298541Y183929D1*
X-297687Y182945D1*
X-296977Y181961D1*
X-296409Y180976D1*
X-296000Y179992D1*
X-295794Y179008D1*
X-295804Y178024D1*
X-296026Y177039D1*
X-296441Y176055D1*
X-296997Y175071D1*
X-298643Y174087D1*
X-301220Y173102D1*
X-304409Y172118D1*
X-257165Y184913D2*
X-258784Y183929D1*
X-260062Y182945D1*
X-260957Y181961D1*
X-261533Y180976D1*
X-261877Y179992D1*
X-262149Y179008D1*
X-262447Y178024D1*
X-262724Y177039D1*
X-262905Y176055D1*
X-263000Y175071D1*
X-263043Y174087D1*
X-263056Y173102D1*
X-263029Y172118D1*
X-262906Y171134D1*
X-262671Y170150D1*
X-262419Y169165D1*
X-262243Y168181D1*
X-262114Y167197D1*
X-261908Y166213D1*
X-261579Y165228D1*
X-260693Y164244D1*
X-259239Y163260D1*
X-256975Y162276D1*
X-254213Y161291D1*
X-256181Y184913D2*
X-254562Y183929D1*
X-253284Y182945D1*
X-252385Y181961D1*
X-251779Y180976D1*
X-251343Y179992D1*
X-250961Y179008D1*
X-250647Y178024D1*
X-250450Y177039D1*
X-250350Y176055D1*
X-250305Y175071D1*
X-250286Y174087D1*
X-250279Y173102D1*
X-250277Y172118D1*
X-250280Y171134D1*
X-250314Y170150D1*
X-250439Y169165D1*
X-250679Y168181D1*
X-250966Y167197D1*
X-251271Y166213D1*
X-251690Y165228D1*
X-252250Y164244D1*
X-253999Y163260D1*
X-256746Y162276D1*
X-260118Y161291D1*
X-234527Y184913D2*
X-235356Y183929D1*
X-236054Y182945D1*
X-236585Y181961D1*
X-236978Y180976D1*
X-236899Y179992D1*
X-236711Y179008D1*
X-236457Y178024D1*
X-236115Y177039D1*
X-235700Y176055D1*
X-235239Y175071D1*
X-234730Y174087D1*
X-234149Y173102D1*
X-233514Y172118D1*
X-232881Y171134D1*
X-232233Y170150D1*
X-231566Y169165D1*
X-230920Y168181D1*
X-230268Y167197D1*
X-229599Y166213D1*
X-228952Y165228D1*
X-228299Y164244D1*
X-227630Y163260D1*
X-226984Y162276D1*
X-226334Y161291D1*
X-225692Y160307D1*
X-225148Y159323D1*
X-224685Y158339D1*
X-231575Y184913D2*
X-229606Y183929D1*
X-227638Y182945D1*
X-102638Y184913D2*
X-103581Y183929D1*
X-104400Y182945D1*
X-104981Y181961D1*
X-105369Y180976D1*
X-105365Y179992D1*
X-104901Y179008D1*
X-103681Y178024D1*
X-102271Y177039D1*
X-100916Y176055D1*
X-100239Y175071D1*
X-99979Y174087D1*
X-101183Y173102D1*
X-102628Y172118D1*
X-104021Y171134D1*
X-105129Y170150D1*
X-105986Y169165D1*
X-106286Y168181D1*
X-106415Y167197D1*
X-106356Y166213D1*
X-106156Y165228D1*
X-105533Y164244D1*
X-103453Y163260D1*
X-100028Y162276D1*
X-95748Y161291D1*
X-97716Y184913D2*
X-96732Y183929D1*
X5630Y184913D2*
X4839Y183929D1*
X4267Y182945D1*
X3883Y181961D1*
X3872Y180976D1*
X4309Y179992D1*
X6215Y179008D1*
X9431Y178024D1*
X13504Y177039D1*
Y184913D2*
Y183929D1*
Y182945D1*
Y181961D1*
Y180976D1*
Y179992D1*
Y179008D1*
Y178024D1*
X6614Y177039D1*
X137520Y184913D2*
Y183929D1*
Y182945D1*
Y181961D1*
Y180976D1*
Y179992D1*
Y179008D1*
Y178024D1*
Y177039D1*
Y176055D1*
X127677D1*
Y175071D1*
Y174087D1*
Y173102D1*
Y172118D1*
X137520D1*
Y171134D1*
Y170150D1*
Y169165D1*
Y168181D1*
Y167197D1*
Y166213D1*
Y165228D1*
Y164244D1*
Y163260D1*
Y162276D1*
Y161291D1*
X309764Y184913D2*
Y183929D1*
Y182945D1*
Y181961D1*
Y180976D1*
Y179992D1*
Y179008D1*
Y178024D1*
Y177039D1*
Y176055D1*
X299921D1*
Y175071D1*
Y174087D1*
Y173102D1*
Y172118D1*
X309764D1*
Y171134D1*
Y170150D1*
Y169165D1*
Y168181D1*
Y167197D1*
Y166213D1*
Y165228D1*
Y164244D1*
Y163260D1*
Y162276D1*
Y161291D1*
X332402Y184913D2*
Y183929D1*
Y182945D1*
Y181961D1*
Y180976D1*
Y179992D1*
Y179008D1*
Y178024D1*
Y177039D1*
Y176055D1*
X321575D1*
Y175071D1*
Y174087D1*
Y173102D1*
Y172118D1*
X332402D1*
Y171134D1*
Y170150D1*
Y169165D1*
Y168181D1*
Y167197D1*
Y166213D1*
Y165228D1*
Y164244D1*
Y163260D1*
Y162276D1*
Y161291D1*
Y160307D1*
Y159323D1*
Y158339D1*
X356024Y184913D2*
Y183929D1*
Y182945D1*
Y181961D1*
Y180976D1*
Y179992D1*
Y179008D1*
Y178024D1*
Y177039D1*
Y176055D1*
X346181D1*
Y175071D1*
Y174087D1*
Y173102D1*
Y172118D1*
X356024D1*
Y171134D1*
Y170150D1*
Y169165D1*
Y168181D1*
Y167197D1*
Y166213D1*
Y165228D1*
Y164244D1*
Y163260D1*
Y162276D1*
Y161291D1*
X-278819Y180976D2*
Y179992D1*
Y179008D1*
Y178024D1*
Y177039D1*
Y176055D1*
Y175071D1*
Y174087D1*
Y173102D1*
Y172118D1*
Y171134D1*
Y170150D1*
Y169165D1*
Y168181D1*
Y167197D1*
Y166213D1*
Y165228D1*
Y164244D1*
Y163260D1*
Y162276D1*
Y161291D1*
Y160307D1*
Y159323D1*
Y158339D1*
X-277835Y180976D2*
X-275866Y179992D1*
X-273898Y179008D1*
X-195157Y180976D2*
Y179992D1*
Y179008D1*
Y178024D1*
Y177039D1*
Y176055D1*
Y175071D1*
Y174087D1*
Y173102D1*
Y172118D1*
Y171134D1*
Y170150D1*
Y169165D1*
Y168181D1*
Y167197D1*
Y166213D1*
Y165228D1*
Y164244D1*
Y163260D1*
Y162276D1*
Y161291D1*
Y160307D1*
Y159323D1*
Y158339D1*
X-194173Y180976D2*
X-192205Y179992D1*
X-190236Y179008D1*
X-188268Y178024D1*
X-172520Y180976D2*
Y179992D1*
Y179008D1*
Y178024D1*
Y177039D1*
Y176055D1*
Y175071D1*
Y174087D1*
Y173102D1*
Y172118D1*
Y171134D1*
Y170150D1*
Y169165D1*
Y168181D1*
Y167197D1*
Y166213D1*
Y165228D1*
Y164244D1*
Y163260D1*
Y162276D1*
Y161291D1*
Y160307D1*
Y159323D1*
Y158339D1*
X-171535Y180976D2*
X-169567Y179992D1*
X-167598Y179008D1*
X-165630Y178024D1*
X-63268Y180976D2*
Y179992D1*
Y179008D1*
Y178024D1*
Y177039D1*
Y176055D1*
Y175071D1*
Y174087D1*
Y173102D1*
Y172118D1*
Y171134D1*
Y170150D1*
Y169165D1*
Y168181D1*
Y167197D1*
Y166213D1*
Y165228D1*
Y164244D1*
Y163260D1*
Y162276D1*
Y161291D1*
Y160307D1*
Y159323D1*
Y158339D1*
X-62283Y180976D2*
X-60315Y179992D1*
X-58346Y179008D1*
X-56378Y178024D1*
X62717Y179992D2*
X62565Y179008D1*
X62317Y178024D1*
X62027Y177039D1*
X61729Y176055D1*
X61398Y175071D1*
X61070Y174087D1*
X60755Y173102D1*
X60418Y172118D1*
X60084Y171134D1*
X59741Y170150D1*
X59301Y169165D1*
X58780Y168181D1*
X66654Y167197D1*
X64685Y179992D2*
X64837Y179008D1*
X65085Y178024D1*
X65375Y177039D1*
X65672Y176055D1*
X66003Y175071D1*
X66332Y174087D1*
X66650Y173102D1*
X67019Y172118D1*
X67441Y171134D1*
X67876Y170150D1*
X68272Y169165D1*
X68622Y168181D1*
X59764Y167197D1*
X180827Y179992D2*
X180675Y179008D1*
X180427Y178024D1*
X180137Y177039D1*
X179840Y176055D1*
X179509Y175071D1*
X179180Y174087D1*
X178865Y173102D1*
X178528Y172118D1*
X178194Y171134D1*
X177851Y170150D1*
X177411Y169165D1*
X176890Y168181D1*
X184764Y167197D1*
X182795Y179992D2*
X182947Y179008D1*
X183195Y178024D1*
X183485Y177039D1*
X183783Y176055D1*
X184114Y175071D1*
X184442Y174087D1*
X184761Y173102D1*
X185129Y172118D1*
X185552Y171134D1*
X185986Y170150D1*
X186383Y169165D1*
X186732Y168181D1*
X177874Y167197D1*
X229055Y179992D2*
X228903Y179008D1*
X228655Y178024D1*
X228366Y177039D1*
X228068Y176055D1*
X227737Y175071D1*
X227408Y174087D1*
X227094Y173102D1*
X226756Y172118D1*
X226422Y171134D1*
X226080Y170150D1*
X225640Y169165D1*
X225118Y168181D1*
X232992Y167197D1*
X231024Y179992D2*
X231176Y179008D1*
X231424Y178024D1*
X231713Y177039D1*
X232011Y176055D1*
X232342Y175071D1*
X232671Y174087D1*
X232989Y173102D1*
X233357Y172118D1*
X233780Y171134D1*
X234214Y170150D1*
X234611Y169165D1*
X234961Y168181D1*
X226102Y167197D1*
X27284Y177039D2*
Y176055D1*
Y175071D1*
X27280Y174087D1*
X27245Y173102D1*
X27120Y172118D1*
X26884Y171134D1*
X26632Y170150D1*
X26456Y169165D1*
X26330Y168181D1*
X26163Y167197D1*
X25910Y166213D1*
X25651Y165228D1*
X25473Y164244D1*
X25346Y163260D1*
X25179Y162276D1*
X24926Y161291D1*
X24664Y160307D1*
X24475Y159323D1*
X24331Y158339D1*
X29252Y177039D2*
X29404Y176055D1*
X29652Y175071D1*
X29941Y174087D1*
X30239Y173102D1*
X30570Y172118D1*
X30899Y171134D1*
X31213Y170150D1*
X31551Y169165D1*
X31882Y168181D1*
X32197Y167197D1*
X32535Y166213D1*
X32866Y165228D1*
X33182Y164244D1*
X33519Y163260D1*
X33851Y162276D1*
X34167Y161291D1*
X34509Y160307D1*
X34848Y159323D1*
X35158Y158339D1*
X42047Y177039D2*
X41895Y176055D1*
X41647Y175071D1*
X41358Y174087D1*
X41060Y173102D1*
X40729Y172118D1*
X40400Y171134D1*
X40086Y170150D1*
X39748Y169165D1*
X39417Y168181D1*
X39102Y167197D1*
X38764Y166213D1*
X38433Y165228D1*
X38118Y164244D1*
X37780Y163260D1*
X37449Y162276D1*
X37133Y161291D1*
X36790Y160307D1*
X36451Y159323D1*
X36142Y158339D1*
X44016Y177039D2*
Y176055D1*
X44020Y175071D1*
X44054Y174087D1*
X44180Y173102D1*
X44415Y172118D1*
X44668Y171134D1*
X44843Y170150D1*
X44969Y169165D1*
X45136Y168181D1*
X45389Y167197D1*
X45648Y166213D1*
X45822Y165228D1*
X45918Y164244D1*
X45995Y163260D1*
X46138Y162276D1*
X46380Y161291D1*
X46638Y160307D1*
X46825Y159323D1*
X46969Y158339D1*
X7599Y174087D2*
X5827Y173102D1*
X4306Y172118D1*
X3156Y171134D1*
X2282Y170150D1*
X1978Y169165D1*
X1818Y168181D1*
X1782Y167197D1*
X1837Y166213D1*
X2225Y165228D1*
X3127Y164244D1*
X5651Y163260D1*
X9607Y162276D1*
X14488Y161291D1*
X13504Y174087D2*
Y173102D1*
Y172118D1*
Y171134D1*
Y170150D1*
Y169165D1*
Y168181D1*
Y167197D1*
Y166213D1*
Y165228D1*
Y164244D1*
Y163260D1*
Y162276D1*
X6614Y161291D1*
X281221Y171134D2*
X280392Y170150D1*
X279687Y169165D1*
X279083Y168181D1*
X278510Y167197D1*
X277905Y166213D1*
X277263Y165228D1*
X276658Y164244D1*
X276100Y163260D1*
X275546Y162276D1*
X274951Y161291D1*
X274335Y160307D1*
X273803Y159323D1*
X273347Y158339D1*
X282205Y171134D2*
X283152Y170150D1*
X284006Y169165D1*
X284716Y168181D1*
X285284Y167197D1*
X285697Y166213D1*
X285938Y165228D1*
X286057Y164244D1*
X286109Y163260D1*
X286130Y162276D1*
X286138Y161291D1*
X286140Y160307D1*
X286141Y159323D1*
X286142Y158339D1*
X-307362Y170150D2*
X-306415Y169165D1*
X-305557Y168181D1*
X-304809Y167197D1*
X-304077Y166213D1*
X-303264Y165228D1*
X-302372Y164244D1*
X-301429Y163260D1*
X-300462Y162276D1*
X-299484Y161291D1*
X-298503Y160307D1*
X-297520Y159323D1*
X-298504Y158339D1*
X-304409Y170150D2*
X-303425Y169165D1*
X157205Y170150D2*
X156258Y169165D1*
X155404Y168181D1*
X154690Y167197D1*
X154084Y166213D1*
X153511Y165228D1*
X152905Y164244D1*
X152263Y163260D1*
X151658Y162276D1*
X151100Y161291D1*
X150552Y160307D1*
X149965Y159323D1*
X149331Y158339D1*
X158189Y170150D2*
X158379Y169165D1*
X158753Y168181D1*
X159278Y167197D1*
X159832Y166213D1*
X160369Y165228D1*
X160915Y164244D1*
X161511Y163260D1*
X162152Y162276D1*
X162791Y161291D1*
X163471Y160307D1*
X164249Y159323D1*
X165079Y158339D1*
X-215827Y163260D2*
X-216277Y162276D1*
X-216522Y161291D1*
X-216608Y160307D1*
X-216267Y159323D1*
X-215827Y158339D1*
X-212874Y163260D2*
X-212423Y162276D1*
X-212178Y161291D1*
X-212092Y160307D1*
X-212434Y159323D1*
X-212874Y158339D1*
X-83937Y163260D2*
X-84387Y162276D1*
X-84633Y161291D1*
X-84718Y160307D1*
X-84377Y159323D1*
X-83937Y158339D1*
X-80984Y163260D2*
X-80534Y162276D1*
X-80288Y161291D1*
X-80203Y160307D1*
X-80544Y159323D1*
X-80984Y158339D1*
X58780Y164244D2*
X57985Y163260D1*
X57375Y162276D1*
X56919Y161291D1*
X56515Y160307D1*
X56150Y159323D1*
X55827Y158339D1*
X70591Y164244D2*
X70628Y163260D1*
X70758Y162276D1*
X71032Y161291D1*
X71439Y160307D1*
X71962Y159323D1*
X72559Y158339D1*
X176890Y164244D2*
X176095Y163260D1*
X175485Y162276D1*
X175029Y161291D1*
X174625Y160307D1*
X174260Y159323D1*
X173937Y158339D1*
X188701Y164244D2*
X188738Y163260D1*
X188868Y162276D1*
X189142Y161291D1*
X189549Y160307D1*
X190072Y159323D1*
X190669Y158339D1*
X225118Y164244D2*
X224324Y163260D1*
X223713Y162276D1*
X223258Y161291D1*
X222853Y160307D1*
X222489Y159323D1*
X222165Y158339D1*
X236929Y164244D2*
X236967Y163260D1*
X237097Y162276D1*
X237370Y161291D1*
X237777Y160307D1*
X238300Y159323D1*
X238898Y158339D1*
X-96732Y162276D2*
X-97716Y161291D1*
X-94764Y162276D2*
X-94287Y161291D1*
X-94939Y160307D1*
X-96258Y159323D1*
X-97716Y158339D1*
X-242401Y161291D2*
Y160307D1*
Y159323D1*
Y158339D1*
X100118Y161291D2*
Y160307D1*
Y159323D1*
Y158339D1*
X122756Y161291D2*
Y160307D1*
Y159323D1*
Y158339D1*
X295000Y161291D2*
Y160307D1*
Y159323D1*
Y158339D1*
X341260Y161291D2*
Y160307D1*
Y159323D1*
Y158339D1*
X-25866Y154402D2*
Y153417D1*
Y152433D1*
X-4213Y154402D2*
Y153417D1*
Y152433D1*
X77480Y154402D2*
Y153417D1*
Y152433D1*
X99134Y154402D2*
Y153417D1*
Y152433D1*
X195591Y154402D2*
Y153417D1*
Y152433D1*
X217244Y154402D2*
Y153417D1*
Y152433D1*
X96557Y-199398D2*
D62*
Y-214696D1*
X97508Y-217570D1*
X98481Y-218521D1*
X100382Y-219494D1*
X102305D1*
X104206Y-218521D1*
X105157Y-217570D1*
X106130Y-214696D1*
Y-212795D1*
X90381Y-199398D2*
Y-219494D1*
X78908D1*
X58384Y-204173D2*
X59334Y-202272D1*
X61258Y-200348D1*
X63159Y-199398D1*
X66984D1*
X68907Y-200348D1*
X70808Y-202272D1*
X71781Y-204173D1*
X72732Y-207047D1*
Y-211844D1*
X71781Y-214696D1*
X70808Y-216620D1*
X68907Y-218521D1*
X66984Y-219494D1*
X63159D1*
X61258Y-218521D1*
X59334Y-216620D1*
X58384Y-214696D1*
X42635Y-199398D2*
Y-214696D1*
X43586Y-217570D1*
X44559Y-218521D1*
X46460Y-219494D1*
X48383D1*
X50285Y-218521D1*
X51235Y-217570D1*
X52208Y-214696D1*
Y-212795D1*
X36460Y-199398D2*
Y-219494D1*
X24986D1*
X4462Y-204173D2*
X5413Y-202272D1*
X7336Y-200348D1*
X9237Y-199398D1*
X13062D1*
X14985Y-200348D1*
X16887Y-202272D1*
X17859Y-204173D1*
X18810Y-207047D1*
Y-211844D1*
X17859Y-214696D1*
X16887Y-216620D1*
X14985Y-218521D1*
X13062Y-219494D1*
X9237D1*
X7336Y-218521D1*
X5413Y-216620D1*
X4462Y-214696D1*
X-11286Y-199398D2*
Y-214696D1*
X-10336Y-217570D1*
X-9363Y-218521D1*
X-7462Y-219494D1*
X-5538D1*
X-3637Y-218521D1*
X-2686Y-217570D1*
X-1714Y-214696D1*
Y-212795D1*
X-17462Y-199398D2*
Y-219494D1*
X-28936D1*
X-49460Y-204173D2*
X-48509Y-202272D1*
X-46586Y-200348D1*
X-44684Y-199398D1*
X-40860D1*
X-38936Y-200348D1*
X-37035Y-202272D1*
X-36062Y-204173D1*
X-35112Y-207047D1*
Y-211844D1*
X-36062Y-214696D1*
X-37035Y-216620D1*
X-38936Y-218521D1*
X-40860Y-219494D1*
X-44684D1*
X-46586Y-218521D1*
X-48509Y-216620D1*
X-49460Y-214696D1*
X-65208Y-199398D2*
Y-214696D1*
X-64257Y-217570D1*
X-63285Y-218521D1*
X-61383Y-219494D1*
X-59460D1*
X-57559Y-218521D1*
X-56608Y-217570D1*
X-55635Y-214696D1*
Y-212795D1*
X-71384Y-199398D2*
Y-219494D1*
X-82858D1*
X-103381Y-204173D2*
X-102431Y-202272D1*
X-100507Y-200348D1*
X-98606Y-199398D1*
X-94781D1*
X-92858Y-200348D1*
X-90957Y-202272D1*
X-89984Y-204173D1*
X-89033Y-207047D1*
Y-211844D1*
X-89984Y-214696D1*
X-90957Y-216620D1*
X-92858Y-218521D1*
X-94781Y-219494D1*
X-98606D1*
X-100507Y-218521D1*
X-102431Y-216620D1*
X-103381Y-214696D1*
M02*
