G04 DipTrace 3.2.0.1*
G04 BottomSilk.gbr*
%MOIN*%
G04 #@! TF.FileFunction,Legend,Bot*
G04 #@! TF.Part,Single*
%ADD10C,0.009843*%
%ADD13C,0.001969*%
%FSLAX26Y26*%
G04*
G70*
G90*
G75*
G01*
G04 BotSilk*
%LPD*%
X-240995Y-414996D2*
D10*
X-304547Y-523888D1*
X-247480Y-411212D2*
X-311058Y-520128D1*
X-247480Y-411212D2*
X-206639Y-435113D1*
X-311058Y-520128D2*
X-270111Y-543937D1*
X241188Y-334200D2*
X263109Y-322639D1*
X263722Y-322534D2*
X275264Y-344470D1*
X119291Y479528D2*
X50787D1*
Y616929D1*
X119291D1*
Y479528D1*
X-52362D2*
X-120866D1*
Y616929D1*
X-52362D1*
Y479528D1*
X-27165Y393701D2*
X-164567D1*
Y325197D1*
X-27165D1*
Y393701D1*
X166535D2*
X29134D1*
Y325197D1*
X166535D1*
Y393701D1*
X25594Y539367D2*
X-25591D1*
Y562995D1*
X25594D1*
Y539367D1*
X-39370Y511809D2*
X-418619Y0D2*
G02X-418619Y0I439008J0D01*
G01*
X329467Y309039D2*
X-288690D1*
X329467Y-309039D2*
X-288690D1*
X-432377Y255923D2*
Y78752D1*
Y-78752D2*
Y-255923D1*
Y255923D2*
X-333937D1*
X-432377Y-255923D2*
X-333937D1*
X-145707Y-545661D2*
D13*
X-129959D1*
X-117164D2*
X-111259D1*
X-145704Y-546645D2*
X-129959D1*
X-118902D2*
X-109369D1*
X-145669Y-547629D2*
X-129959D1*
X-120335D2*
X-107854D1*
X-145543Y-548614D2*
X-129959D1*
X-121409D2*
X-106713D1*
X-145304Y-549598D2*
X-141618D1*
X-132912D2*
X-129959D1*
X-122263D2*
X-115983D1*
X-112440D2*
X-105876D1*
X-145017Y-550582D2*
X-141370D1*
X-132912D2*
X-129959D1*
X-122981D2*
X-117505D1*
X-110915D2*
X-105257D1*
X-144720Y-551566D2*
X-141081D1*
X-132912D2*
X-129959D1*
X-123505D2*
X-118668D1*
X-109730D2*
X-104821D1*
X-144393Y-552551D2*
X-140783D1*
X-132912D2*
X-129959D1*
X-123827D2*
X-119483D1*
X-108860D2*
X-104538D1*
X-144095Y-553535D2*
X-140452D1*
X-132912D2*
X-129959D1*
X-124054D2*
X-120117D1*
X-108223D2*
X-104291D1*
X-143871Y-554519D2*
X-140123D1*
X-107783D2*
X-104003D1*
X-143648Y-555503D2*
X-139809D1*
X-107531D2*
X-103729D1*
X-143364Y-556488D2*
X-139475D1*
X-107409D2*
X-103549D1*
X-143059Y-557472D2*
X-139175D1*
X-107355D2*
X-103455D1*
X-142755Y-558456D2*
X-138951D1*
X-107334D2*
X-103413D1*
X-142422Y-559440D2*
X-138727D1*
X-107326D2*
X-103395D1*
X-142092Y-560425D2*
X-138443D1*
X-107323D2*
X-103388D1*
X-141778Y-561409D2*
X-138138D1*
X-107322D2*
X-103386D1*
X-141444Y-562393D2*
X-137834D1*
X-107322D2*
X-103389D1*
X-141143Y-563377D2*
X-137501D1*
X-107325D2*
X-103423D1*
X-140919Y-564362D2*
X-137171D1*
X-107360D2*
X-103548D1*
X-140695Y-565346D2*
X-136856D1*
X-107489D2*
X-103784D1*
X-140412Y-566330D2*
X-136523D1*
X-107763D2*
X-104040D1*
X-140106Y-567314D2*
X-136222D1*
X-124054D2*
X-120117D1*
X-108184D2*
X-104247D1*
X-139802Y-568299D2*
X-135998D1*
X-123864D2*
X-119534D1*
X-108805D2*
X-104467D1*
X-139469Y-569283D2*
X-135774D1*
X-123490D2*
X-118758D1*
X-109627D2*
X-104783D1*
X-139139Y-570267D2*
X-135490D1*
X-122957D2*
X-116913D1*
X-111492D2*
X-105217D1*
X-138825Y-571251D2*
X-135185D1*
X-122330D2*
X-114317D1*
X-114098D2*
X-105802D1*
X-138491Y-572236D2*
X-134880D1*
X-121504D2*
X-106623D1*
X-138192Y-573220D2*
X-134542D1*
X-120323D2*
X-107793D1*
X-137987Y-574204D2*
X-134205D1*
X-118817D2*
X-109396D1*
X-137833Y-575188D2*
X-133896D1*
X-117164D2*
X-111259D1*
X324867Y-411634D2*
X338647D1*
X343568D2*
X347505D1*
X359316D2*
X362269D1*
X374080D2*
X378017D1*
X387860D2*
X395734D1*
X323130Y-412618D2*
X338647D1*
X343905D2*
X347543D1*
X359279D2*
X362421D1*
X374043D2*
X377681D1*
X386130D2*
X397471D1*
X321700Y-413602D2*
X338647D1*
X344202D2*
X347669D1*
X359153D2*
X362665D1*
X373916D2*
X377388D1*
X384585D2*
X398901D1*
X320657Y-414587D2*
X338647D1*
X344423D2*
X347905D1*
X358913D2*
X362924D1*
X373681D2*
X377197D1*
X383787D2*
X399941D1*
X319894Y-415571D2*
X326049D1*
X334710D2*
X338647D1*
X344645D2*
X348161D1*
X358626D2*
X363131D1*
X373424D2*
X377066D1*
X383675D2*
X388844D1*
X394552D2*
X400668D1*
X319287Y-416555D2*
X324528D1*
X334710D2*
X338647D1*
X344924D2*
X348367D1*
X358329D2*
X363348D1*
X373218D2*
X376897D1*
X383923D2*
X385891D1*
X396073D2*
X401151D1*
X318782Y-417539D2*
X323378D1*
X334710D2*
X338647D1*
X345198D2*
X348584D1*
X358002D2*
X363625D1*
X373001D2*
X376644D1*
X397220D2*
X401419D1*
X318401Y-418524D2*
X322504D1*
X334710D2*
X338647D1*
X345411D2*
X348862D1*
X357704D2*
X363899D1*
X372724D2*
X376381D1*
X398082D2*
X401548D1*
X318173Y-419508D2*
X322199D1*
X334710D2*
X338647D1*
X345630D2*
X349135D1*
X357480D2*
X364112D1*
X372454D2*
X376172D1*
X398335D2*
X401604D1*
X318060Y-420492D2*
X322035D1*
X334710D2*
X338647D1*
X345908D2*
X349348D1*
X357257D2*
X364331D1*
X372272D2*
X375954D1*
X398192D2*
X401622D1*
X318010Y-421476D2*
X321962D1*
X334710D2*
X338647D1*
X346182D2*
X349567D1*
X356977D2*
X364609D1*
X372144D2*
X375677D1*
X397680D2*
X401592D1*
X317990Y-422461D2*
X321932D1*
X334710D2*
X338647D1*
X346395D2*
X349845D1*
X356703D2*
X359312D1*
X361095D2*
X364883D1*
X371976D2*
X375403D1*
X396239D2*
X401431D1*
X317982Y-423445D2*
X321921D1*
X334710D2*
X338647D1*
X346614D2*
X350115D1*
X356490D2*
X359278D1*
X361705D2*
X365096D1*
X371722D2*
X375190D1*
X393975D2*
X401029D1*
X317979Y-424429D2*
X321917D1*
X334710D2*
X338647D1*
X346893D2*
X350297D1*
X356270D2*
X359152D1*
X362160D2*
X365315D1*
X371459D2*
X374971D1*
X391107D2*
X400327D1*
X317978Y-425413D2*
X321915D1*
X334710D2*
X338647D1*
X347166D2*
X350426D1*
X355992D2*
X358917D1*
X362556D2*
X365593D1*
X371251D2*
X374693D1*
X388327D2*
X399228D1*
X317978Y-426398D2*
X321915D1*
X334710D2*
X338647D1*
X347379D2*
X350594D1*
X355718D2*
X358660D1*
X362881D2*
X365867D1*
X371033D2*
X374419D1*
X386143D2*
X397468D1*
X317978Y-427382D2*
X321915D1*
X334710D2*
X338647D1*
X347598D2*
X350847D1*
X355505D2*
X358454D1*
X363115D2*
X366080D1*
X370755D2*
X374206D1*
X384617D2*
X394910D1*
X317978Y-428366D2*
X321915D1*
X334710D2*
X338647D1*
X347877D2*
X351110D1*
X355286D2*
X358237D1*
X363342D2*
X366299D1*
X370486D2*
X373987D1*
X383593D2*
X391956D1*
X317978Y-429350D2*
X321915D1*
X334710D2*
X338647D1*
X348151D2*
X351319D1*
X355008D2*
X357956D1*
X363623D2*
X366585D1*
X370300D2*
X373708D1*
X382893D2*
X389334D1*
X317978Y-430335D2*
X321915D1*
X334710D2*
X338647D1*
X348364D2*
X351540D1*
X354734D2*
X357652D1*
X363898D2*
X366930D1*
X370131D2*
X373435D1*
X382428D2*
X387455D1*
X317982Y-431319D2*
X321919D1*
X334710D2*
X338647D1*
X348583D2*
X351856D1*
X354518D2*
X357348D1*
X364111D2*
X367414D1*
X369899D2*
X373222D1*
X382168D2*
X386089D1*
X318016Y-432303D2*
X321957D1*
X334710D2*
X338647D1*
X348861D2*
X352280D1*
X354272D2*
X357019D1*
X364331D2*
X368185D1*
X369122D2*
X373003D1*
X382043D2*
X385537D1*
X318145Y-433287D2*
X322125D1*
X334710D2*
X338647D1*
X349131D2*
X352810D1*
X353891D2*
X356720D1*
X364613D2*
X372724D1*
X381992D2*
X385501D1*
X318416Y-434272D2*
X322443D1*
X334710D2*
X338647D1*
X349313D2*
X356496D1*
X364917D2*
X372450D1*
X382009D2*
X385822D1*
X318797Y-435256D2*
X323363D1*
X334710D2*
X338647D1*
X349442D2*
X356273D1*
X365221D2*
X372237D1*
X382165D2*
X386645D1*
X400655D2*
X401639D1*
X319247Y-436240D2*
X326059D1*
X334710D2*
X338647D1*
X349610D2*
X355993D1*
X365551D2*
X372018D1*
X382561D2*
X389177D1*
X397255D2*
X402165D1*
X319793Y-437224D2*
X330357D1*
X334710D2*
X338647D1*
X349863D2*
X355718D1*
X365850D2*
X371740D1*
X383220D2*
X393034D1*
X392880D2*
X402845D1*
X320570Y-438209D2*
X338647D1*
X350122D2*
X355502D1*
X366076D2*
X371470D1*
X384118D2*
X403608D1*
X321725Y-439193D2*
X338647D1*
X350297D2*
X355256D1*
X366327D2*
X371291D1*
X385337D2*
X401458D1*
X323221Y-440177D2*
X338647D1*
X350394D2*
X354875D1*
X366709D2*
X371192D1*
X386966D2*
X399144D1*
X324867Y-441161D2*
X338647D1*
X350458D2*
X354395D1*
X367190D2*
X371127D1*
X388844D2*
X396718D1*
X130110Y562354D2*
X134047D1*
X156685D2*
X171449D1*
X130484Y561370D2*
X134421D1*
X155250D2*
X171449D1*
X130907Y560386D2*
X134844D1*
X154022D2*
X171449D1*
X131364Y559402D2*
X135301D1*
X153055D2*
X171449D1*
X131842Y558417D2*
X135775D1*
X152372D2*
X158019D1*
X167512D2*
X171449D1*
X132328Y557433D2*
X136230D1*
X151888D2*
X156741D1*
X167512D2*
X171449D1*
X132819Y556449D2*
X136626D1*
X151482D2*
X155846D1*
X167512D2*
X171449D1*
X133309Y555465D2*
X136976D1*
X151161D2*
X155175D1*
X167512D2*
X171449D1*
X133802Y554480D2*
X137357D1*
X150995D2*
X154977D1*
X167512D2*
X171449D1*
X134293Y553496D2*
X137788D1*
X151019D2*
X154903D1*
X167512D2*
X171449D1*
X134786Y552512D2*
X138250D1*
X151213D2*
X155149D1*
X167512D2*
X171449D1*
X135277Y551528D2*
X138730D1*
X151485D2*
X155809D1*
X167512D2*
X171449D1*
X127157Y550543D2*
X130110D1*
X135766D2*
X139217D1*
X151813D2*
X158402D1*
X167512D2*
X171449D1*
X127157Y549559D2*
X130110D1*
X136227D2*
X139708D1*
X152305D2*
X162849D1*
X167512D2*
X171449D1*
X127157Y548575D2*
X130110D1*
X136625D2*
X140199D1*
X153029D2*
X171449D1*
X127157Y547591D2*
X130110D1*
X136975D2*
X140691D1*
X153953D2*
X171449D1*
X127157Y546606D2*
X130110D1*
X137357D2*
X141183D1*
X154911D2*
X171449D1*
X127157Y545622D2*
X130110D1*
X137788D2*
X141676D1*
X155754D2*
X171449D1*
X127150Y544638D2*
X130110D1*
X138253D2*
X142167D1*
X155957D2*
X160778D1*
X167512D2*
X171449D1*
X127081Y543654D2*
X130110D1*
X138759D2*
X142656D1*
X155686D2*
X160072D1*
X167512D2*
X171449D1*
X126919Y542669D2*
X130110D1*
X139328D2*
X143113D1*
X155232D2*
X159472D1*
X167512D2*
X171449D1*
X126381Y541685D2*
X130110D1*
X139953D2*
X143476D1*
X154656D2*
X158931D1*
X167512D2*
X171449D1*
X125859Y540701D2*
X143697D1*
X154076D2*
X158420D1*
X167512D2*
X171449D1*
X125512Y539717D2*
X143809D1*
X153532D2*
X157919D1*
X167512D2*
X171449D1*
X125328Y538732D2*
X143860D1*
X153012D2*
X157425D1*
X167512D2*
X171449D1*
X125240Y537748D2*
X143890D1*
X152509D2*
X156931D1*
X167512D2*
X171449D1*
X127157Y536764D2*
X130110D1*
X152012D2*
X156440D1*
X167512D2*
X171449D1*
X127157Y535780D2*
X130110D1*
X151516D2*
X155950D1*
X167512D2*
X171449D1*
X127157Y534795D2*
X130110D1*
X150997D2*
X155484D1*
X167512D2*
X171449D1*
X127157Y533811D2*
X130110D1*
X150422D2*
X155074D1*
X167512D2*
X171449D1*
X127157Y532827D2*
X130110D1*
X149795D2*
X154717D1*
X167512D2*
X171449D1*
X-174349Y557034D2*
X-159585D1*
X-145806D2*
X-131042D1*
X-174349Y556050D2*
X-159585D1*
X-147241D2*
X-131042D1*
X-174349Y555066D2*
X-159585D1*
X-148469D2*
X-131042D1*
X-174349Y554081D2*
X-159585D1*
X-149436D2*
X-131042D1*
X-163522Y553097D2*
X-159585D1*
X-150119D2*
X-144472D1*
X-134979D2*
X-131042D1*
X-163522Y552113D2*
X-159585D1*
X-150602D2*
X-145750D1*
X-134979D2*
X-131042D1*
X-163522Y551129D2*
X-159585D1*
X-151008D2*
X-146645D1*
X-134979D2*
X-131042D1*
X-163526Y550144D2*
X-159585D1*
X-151330D2*
X-147316D1*
X-134979D2*
X-131042D1*
X-163564Y549160D2*
X-159585D1*
X-151496D2*
X-147514D1*
X-134979D2*
X-131042D1*
X-163716Y548176D2*
X-159585D1*
X-151472D2*
X-147588D1*
X-134979D2*
X-131042D1*
X-170412Y547192D2*
X-165491D1*
X-164052D2*
X-159585D1*
X-151278D2*
X-147342D1*
X-134979D2*
X-131042D1*
X-171813Y546207D2*
X-159585D1*
X-151006D2*
X-146682D1*
X-134979D2*
X-131042D1*
X-172950Y545223D2*
X-159585D1*
X-150678D2*
X-144089D1*
X-134979D2*
X-131042D1*
X-173803Y544239D2*
X-159585D1*
X-150185D2*
X-139642D1*
X-134979D2*
X-131042D1*
X-174434Y543255D2*
X-169390D1*
X-165672D2*
X-159585D1*
X-149462D2*
X-131042D1*
X-174873Y542270D2*
X-170245D1*
X-164049D2*
X-159585D1*
X-148538D2*
X-131042D1*
X-175124Y541286D2*
X-170954D1*
X-162538D2*
X-159585D1*
X-147579D2*
X-131042D1*
X-175246Y540302D2*
X-171522D1*
X-146737D2*
X-131042D1*
X-175300Y539318D2*
X-171935D1*
X-146534D2*
X-141713D1*
X-134979D2*
X-131042D1*
X-175321Y538333D2*
X-172173D1*
X-146805D2*
X-142418D1*
X-134979D2*
X-131042D1*
X-175329Y537349D2*
X-172257D1*
X-147258D2*
X-143019D1*
X-134979D2*
X-131042D1*
X-175332Y536365D2*
X-172180D1*
X-147835D2*
X-143560D1*
X-134979D2*
X-131042D1*
X-175329Y535381D2*
X-171926D1*
X-148414D2*
X-144071D1*
X-134979D2*
X-131042D1*
X-175295Y534396D2*
X-171507D1*
X-162538D2*
X-159585D1*
X-148959D2*
X-144572D1*
X-134979D2*
X-131042D1*
X-175166Y533412D2*
X-170967D1*
X-163186D2*
X-159741D1*
X-149479D2*
X-145066D1*
X-134979D2*
X-131042D1*
X-174891Y532428D2*
X-169663D1*
X-164897D2*
X-160024D1*
X-149981D2*
X-145560D1*
X-134979D2*
X-131042D1*
X-174471Y531444D2*
X-167768D1*
X-167410D2*
X-160446D1*
X-150479D2*
X-146051D1*
X-134979D2*
X-131042D1*
X-173863Y530459D2*
X-161056D1*
X-150975D2*
X-146541D1*
X-134979D2*
X-131042D1*
X-172968Y529475D2*
X-161950D1*
X-151494D2*
X-147007D1*
X-134979D2*
X-131042D1*
X-171772Y528491D2*
X-163146D1*
X-152068D2*
X-147417D1*
X-134979D2*
X-131042D1*
X-170412Y527507D2*
X-164507D1*
X-152696D2*
X-147774D1*
X-134979D2*
X-131042D1*
X-222526Y366853D2*
X-206778D1*
X-193983D2*
X-179219D1*
X-222522Y365869D2*
X-206778D1*
X-195418D2*
X-179219D1*
X-222488Y364885D2*
X-206778D1*
X-196646D2*
X-179219D1*
X-222362Y363900D2*
X-206778D1*
X-197613D2*
X-179219D1*
X-222123Y362916D2*
X-218437D1*
X-209731D2*
X-206778D1*
X-198296D2*
X-192649D1*
X-183156D2*
X-179219D1*
X-221836Y361932D2*
X-218189D1*
X-209731D2*
X-206778D1*
X-198780D2*
X-193927D1*
X-183156D2*
X-179219D1*
X-221539Y360948D2*
X-217900D1*
X-209731D2*
X-206778D1*
X-199186D2*
X-194822D1*
X-183156D2*
X-179219D1*
X-221212Y359963D2*
X-217602D1*
X-209731D2*
X-206778D1*
X-199507D2*
X-195493D1*
X-183156D2*
X-179219D1*
X-220914Y358979D2*
X-217271D1*
X-209731D2*
X-206778D1*
X-199673D2*
X-195691D1*
X-183156D2*
X-179219D1*
X-220690Y357995D2*
X-216942D1*
X-199649D2*
X-195765D1*
X-183156D2*
X-179219D1*
X-220467Y357010D2*
X-216628D1*
X-199455D2*
X-195519D1*
X-183156D2*
X-179219D1*
X-220183Y356026D2*
X-216294D1*
X-199183D2*
X-194859D1*
X-183156D2*
X-179219D1*
X-219878Y355042D2*
X-215994D1*
X-198855D2*
X-192266D1*
X-183156D2*
X-179219D1*
X-219574Y354058D2*
X-215769D1*
X-198363D2*
X-187819D1*
X-183156D2*
X-179219D1*
X-219241Y353073D2*
X-215546D1*
X-197639D2*
X-179219D1*
X-218911Y352089D2*
X-215262D1*
X-196715D2*
X-179219D1*
X-218596Y351105D2*
X-214957D1*
X-195757D2*
X-179219D1*
X-218263Y350121D2*
X-214653D1*
X-194914D2*
X-179219D1*
X-217962Y349136D2*
X-214319D1*
X-194711D2*
X-189890D1*
X-183156D2*
X-179219D1*
X-217738Y348152D2*
X-213990D1*
X-194982D2*
X-190596D1*
X-183156D2*
X-179219D1*
X-217514Y347168D2*
X-213675D1*
X-195436D2*
X-191196D1*
X-183156D2*
X-179219D1*
X-217230Y346184D2*
X-213341D1*
X-196012D2*
X-191737D1*
X-183156D2*
X-179219D1*
X-216925Y345199D2*
X-213041D1*
X-196592D2*
X-192248D1*
X-183156D2*
X-179219D1*
X-216621Y344215D2*
X-212817D1*
X-197136D2*
X-192749D1*
X-183156D2*
X-179219D1*
X-216288Y343231D2*
X-212593D1*
X-197656D2*
X-193243D1*
X-183156D2*
X-179219D1*
X-215958Y342247D2*
X-212309D1*
X-198159D2*
X-193737D1*
X-183156D2*
X-179219D1*
X-215644Y341262D2*
X-212004D1*
X-198656D2*
X-194228D1*
X-183156D2*
X-179219D1*
X-215310Y340278D2*
X-211699D1*
X-199152D2*
X-194718D1*
X-183156D2*
X-179219D1*
X-215011Y339294D2*
X-211361D1*
X-199671D2*
X-195184D1*
X-183156D2*
X-179219D1*
X-214805Y338310D2*
X-211024D1*
X-200246D2*
X-195594D1*
X-183156D2*
X-179219D1*
X-214652Y337325D2*
X-210715D1*
X-200873D2*
X-195951D1*
X-183156D2*
X-179219D1*
X189209Y371966D2*
X192161D1*
X213815D2*
X228579D1*
X189583Y370982D2*
X192990D1*
X212380D2*
X228579D1*
X190006Y369997D2*
X193695D1*
X211152D2*
X228579D1*
X190463Y369013D2*
X194295D1*
X210184D2*
X228579D1*
X190941Y368029D2*
X194837D1*
X209502D2*
X215149D1*
X224642D2*
X228579D1*
X191426Y367045D2*
X195348D1*
X209018D2*
X213871D1*
X224642D2*
X228579D1*
X191917Y366060D2*
X195849D1*
X208612D2*
X212976D1*
X224642D2*
X228579D1*
X192407Y365076D2*
X196343D1*
X208291D2*
X212305D1*
X224642D2*
X228579D1*
X192897Y364092D2*
X196837D1*
X208125D2*
X212107D1*
X224642D2*
X228579D1*
X193363Y363108D2*
X197328D1*
X208148D2*
X212033D1*
X224642D2*
X228579D1*
X193773Y362123D2*
X197821D1*
X208342D2*
X212279D1*
X224642D2*
X228579D1*
X194130Y361139D2*
X198313D1*
X208615D2*
X212939D1*
X224642D2*
X228579D1*
X191328Y360155D2*
X198802D1*
X208943D2*
X215531D1*
X224642D2*
X228579D1*
X189217Y359171D2*
X199262D1*
X209435D2*
X219979D1*
X224642D2*
X228579D1*
X187699Y358186D2*
X199660D1*
X210159D2*
X228579D1*
X186625Y357202D2*
X200007D1*
X211083D2*
X228579D1*
X185819Y356218D2*
X191527D1*
X195077D2*
X200354D1*
X212041D2*
X228579D1*
X185537Y355234D2*
X190249D1*
X195931D2*
X200656D1*
X212884D2*
X228579D1*
X185384Y354249D2*
X189354D1*
X196641D2*
X200847D1*
X213087D2*
X217908D1*
X224642D2*
X228579D1*
X185316Y353265D2*
X188683D1*
X197205D2*
X200946D1*
X212816D2*
X217202D1*
X224642D2*
X228579D1*
X185288Y352281D2*
X188451D1*
X197583D2*
X200991D1*
X212362D2*
X216602D1*
X224642D2*
X228579D1*
X185277Y351297D2*
X188358D1*
X197791D2*
X201009D1*
X211786D2*
X216061D1*
X224642D2*
X228579D1*
X185277Y350312D2*
X188433D1*
X197564D2*
X201012D1*
X211206D2*
X215549D1*
X224642D2*
X228579D1*
X185311Y349328D2*
X188642D1*
X197170D2*
X200980D1*
X210661D2*
X215049D1*
X224642D2*
X228579D1*
X185440Y348344D2*
X189219D1*
X196647D2*
X200852D1*
X210142D2*
X214555D1*
X224642D2*
X228579D1*
X185714Y347360D2*
X190785D1*
X195347D2*
X200578D1*
X209639D2*
X214061D1*
X224642D2*
X228579D1*
X186134Y346375D2*
X193186D1*
X193454D2*
X200158D1*
X209142D2*
X213569D1*
X224642D2*
X228579D1*
X186742Y345391D2*
X199549D1*
X208646D2*
X213080D1*
X224642D2*
X228579D1*
X187637Y344407D2*
X198654D1*
X208127D2*
X212614D1*
X224642D2*
X228579D1*
X188833Y343423D2*
X197459D1*
X207552D2*
X212204D1*
X224642D2*
X228579D1*
X190193Y342438D2*
X196098D1*
X206925D2*
X211846D1*
X224642D2*
X228579D1*
X-34430Y478643D2*
X-19667D1*
X-4903D2*
X1003D1*
X21672D2*
X36436D1*
X-36167Y477659D2*
X-19667D1*
X-6640D2*
X2774D1*
X20237D2*
X36436D1*
X-37438Y476675D2*
X-19667D1*
X-8074D2*
X4299D1*
X19009D2*
X36436D1*
X-38325Y475690D2*
X-19667D1*
X-9148D2*
X5484D1*
X18041D2*
X36436D1*
X-38989Y474706D2*
X-34389D1*
X-23604D2*
X-19667D1*
X-10002D2*
X-3721D1*
X-179D2*
X6354D1*
X17359D2*
X23006D1*
X32499D2*
X36436D1*
X-39517Y473722D2*
X-35209D1*
X-23604D2*
X-19667D1*
X-10720D2*
X-5244D1*
X1346D2*
X6991D1*
X16875D2*
X21728D1*
X32499D2*
X36436D1*
X-39904Y472738D2*
X-35793D1*
X-23604D2*
X-19667D1*
X-11244D2*
X-6407D1*
X2531D2*
X7435D1*
X16469D2*
X20833D1*
X32499D2*
X36436D1*
X-40100Y471753D2*
X-36122D1*
X-23604D2*
X-19667D1*
X-11566D2*
X-7222D1*
X3401D2*
X7721D1*
X16148D2*
X20162D1*
X32499D2*
X36436D1*
X-40085Y470769D2*
X-36244D1*
X-23604D2*
X-19667D1*
X-11793D2*
X-7856D1*
X4038D2*
X7969D1*
X15982D2*
X19964D1*
X32499D2*
X36436D1*
X-39862Y469785D2*
X-36238D1*
X-23604D2*
X-19667D1*
X4479D2*
X8258D1*
X16005D2*
X19890D1*
X32499D2*
X36436D1*
X-39466Y468801D2*
X-35723D1*
X-23604D2*
X-19667D1*
X4730D2*
X8532D1*
X16199D2*
X20136D1*
X32499D2*
X36436D1*
X-38906Y467816D2*
X-33292D1*
X-23604D2*
X-19667D1*
X4852D2*
X8712D1*
X16472D2*
X20796D1*
X32499D2*
X36436D1*
X-38208Y466832D2*
X-29048D1*
X-23604D2*
X-19667D1*
X4906D2*
X8806D1*
X16800D2*
X23388D1*
X32499D2*
X36436D1*
X-37546Y465848D2*
X-19667D1*
X4927D2*
X8849D1*
X17292D2*
X27836D1*
X32499D2*
X36436D1*
X-37026Y464864D2*
X-19667D1*
X-12777D2*
X-2934D1*
X4935D2*
X8866D1*
X18016D2*
X36436D1*
X-37112Y463879D2*
X-19667D1*
X-12777D2*
X-2934D1*
X4938D2*
X8873D1*
X18940D2*
X36436D1*
X-37723Y462895D2*
X-19667D1*
X-12777D2*
X-2934D1*
X4939D2*
X8875D1*
X19898D2*
X36436D1*
X-38470Y461911D2*
X-34393D1*
X-23604D2*
X-19667D1*
X-12773D2*
X-2934D1*
X4939D2*
X8872D1*
X20740D2*
X36436D1*
X-39202Y460927D2*
X-35247D1*
X-23604D2*
X-19667D1*
X-12738D2*
X-8840D1*
X4940D2*
X8838D1*
X20944D2*
X25765D1*
X32499D2*
X36436D1*
X-39751Y459942D2*
X-35953D1*
X-23604D2*
X-19667D1*
X-12613D2*
X-8836D1*
X4936D2*
X8713D1*
X20673D2*
X25059D1*
X32499D2*
X36436D1*
X-40070Y458958D2*
X-36487D1*
X-23604D2*
X-19667D1*
X-12377D2*
X-8798D1*
X4901D2*
X8477D1*
X20219D2*
X24459D1*
X32499D2*
X36436D1*
X-40226Y457974D2*
X-36881D1*
X-23604D2*
X-19667D1*
X-12121D2*
X-8638D1*
X4772D2*
X8221D1*
X19643D2*
X23918D1*
X32499D2*
X36436D1*
X-40289Y456990D2*
X-36761D1*
X-23604D2*
X-19667D1*
X-11915D2*
X-8265D1*
X4490D2*
X8015D1*
X19063D2*
X23406D1*
X32499D2*
X36436D1*
X-40282Y456005D2*
X-36498D1*
X-23604D2*
X-19667D1*
X-11694D2*
X-7650D1*
X4097D2*
X7794D1*
X18518D2*
X22906D1*
X32499D2*
X36436D1*
X-40163Y455021D2*
X-35723D1*
X-23604D2*
X-19667D1*
X-11378D2*
X-6859D1*
X3257D2*
X7478D1*
X17999D2*
X22412D1*
X32499D2*
X36436D1*
X-39892Y454037D2*
X-32951D1*
X-23604D2*
X-19667D1*
X-10945D2*
X-4773D1*
X1054D2*
X7045D1*
X17496D2*
X21918D1*
X32499D2*
X36436D1*
X-39473Y453052D2*
X-28371D1*
X-23604D2*
X-19667D1*
X-10359D2*
X-1691D1*
X-2127D2*
X6459D1*
X16999D2*
X21426D1*
X32499D2*
X36436D1*
X-38865Y452068D2*
X-19667D1*
X-9539D2*
X5638D1*
X16503D2*
X20936D1*
X32499D2*
X36436D1*
X-37971Y451084D2*
X-19667D1*
X-8368D2*
X4468D1*
X15984D2*
X20471D1*
X32499D2*
X36436D1*
X-36775Y450100D2*
X-19667D1*
X-6765D2*
X2865D1*
X15409D2*
X20061D1*
X32499D2*
X36436D1*
X-35415Y449115D2*
X-19667D1*
X-4903D2*
X1003D1*
X14782D2*
X19703D1*
X32499D2*
X36436D1*
X-93209Y11782D2*
X-86319D1*
X-69587D2*
X-63681D1*
X-46949D2*
X-41043D1*
X-24311D2*
X-17421D1*
X295D2*
X15059D1*
X28839D2*
X34744D1*
X-94491Y10798D2*
X-84918D1*
X-71021D2*
X-62280D1*
X-48384D2*
X-39609D1*
X-25594D2*
X-16020D1*
X-1139D2*
X15059D1*
X27101D2*
X36633D1*
X-95480Y9814D2*
X-83781D1*
X-72250D2*
X-61143D1*
X-49612D2*
X-38380D1*
X-26582D2*
X-14883D1*
X-2368D2*
X15059D1*
X25667D2*
X38148D1*
X-96223Y8829D2*
X-82928D1*
X-73213D2*
X-60290D1*
X-50575D2*
X-37417D1*
X-27325D2*
X-14030D1*
X-3335D2*
X15059D1*
X24593D2*
X39289D1*
X-96824Y7845D2*
X-91005D1*
X-87649D2*
X-82296D1*
X-73969D2*
X-68253D1*
X-64665D2*
X-59659D1*
X-51332D2*
X-45730D1*
X-42262D2*
X-36661D1*
X-27926D2*
X-22108D1*
X-18752D2*
X-13399D1*
X-4018D2*
X1629D1*
X11122D2*
X15059D1*
X23740D2*
X30020D1*
X33563D2*
X40126D1*
X-97322Y6861D2*
X-92401D1*
X-86338D2*
X-81855D1*
X-74246D2*
X-69530D1*
X-63681D2*
X-59217D1*
X-51609D2*
X-47125D1*
X-40867D2*
X-36346D1*
X-28425D2*
X-23503D1*
X-17440D2*
X-12957D1*
X-4501D2*
X352D1*
X11122D2*
X15059D1*
X23022D2*
X28498D1*
X35088D2*
X40746D1*
X-97669Y5877D2*
X-93474D1*
X-85297D2*
X-81587D1*
X-74396D2*
X-70422D1*
X-62697D2*
X-58949D1*
X-51759D2*
X-48198D1*
X-39794D2*
X-36070D1*
X-28771D2*
X-24576D1*
X-16400D2*
X-12689D1*
X-4907D2*
X-544D1*
X11122D2*
X15059D1*
X22498D2*
X27335D1*
X36272D2*
X41182D1*
X-97859Y4892D2*
X-93896D1*
X-84350D2*
X-81398D1*
X-74460D2*
X-71081D1*
X-61713D2*
X-58760D1*
X-51826D2*
X-48571D1*
X-39421D2*
X-35766D1*
X-28962D2*
X-24998D1*
X-15453D2*
X-12500D1*
X-5229D2*
X-1215D1*
X11122D2*
X15059D1*
X22176D2*
X26520D1*
X37142D2*
X41465D1*
X-97666Y3908D2*
X-93901D1*
X-74453D2*
X-71253D1*
X-51854D2*
X-48771D1*
X-39221D2*
X-35486D1*
X-28769D2*
X-25003D1*
X-5395D2*
X-1413D1*
X11122D2*
X15059D1*
X21949D2*
X25886D1*
X37780D2*
X41711D1*
X-97413Y2924D2*
X-93703D1*
X-74334D2*
X-70995D1*
X-51864D2*
X-48860D1*
X-39132D2*
X-35304D1*
X-28515D2*
X-24806D1*
X-5371D2*
X-1487D1*
X11122D2*
X15059D1*
X38220D2*
X42000D1*
X-97128Y1940D2*
X-93354D1*
X-74060D2*
X-70570D1*
X-51868D2*
X-48896D1*
X-39096D2*
X-35209D1*
X-28230D2*
X-24456D1*
X-5177D2*
X-1241D1*
X11122D2*
X15059D1*
X38471D2*
X42273D1*
X-96769Y955D2*
X-92920D1*
X-73608D2*
X-69464D1*
X-51869D2*
X-48910D1*
X-39082D2*
X-35166D1*
X-27872D2*
X-24023D1*
X-4905D2*
X-581D1*
X11122D2*
X15059D1*
X38594D2*
X42453D1*
X-96318Y-29D2*
X-92417D1*
X-72888D2*
X-68142D1*
X-51870D2*
X-48915D1*
X-39077D2*
X-35148D1*
X-27420D2*
X-23520D1*
X-4577D2*
X2012D1*
X11122D2*
X15059D1*
X38647D2*
X42547D1*
X-95765Y-1013D2*
X-91810D1*
X-71826D2*
X-66848D1*
X-51870D2*
X-48917D1*
X-39076D2*
X-35142D1*
X-26867D2*
X-22912D1*
X-4084D2*
X6459D1*
X11122D2*
X15059D1*
X38669D2*
X42590D1*
X-95140Y-1997D2*
X-91085D1*
X-70571D2*
X-66207D1*
X-51870D2*
X-48917D1*
X-39075D2*
X-35139D1*
X-26243D2*
X-22187D1*
X-3361D2*
X15059D1*
X38677D2*
X42608D1*
X-94508Y-2982D2*
X-90338D1*
X-71736D2*
X-66003D1*
X-51870D2*
X-48917D1*
X-39075D2*
X-35138D1*
X-25611D2*
X-21440D1*
X-2437D2*
X15059D1*
X38680D2*
X42614D1*
X-93832Y-3966D2*
X-89639D1*
X-72734D2*
X-67357D1*
X-51870D2*
X-48917D1*
X-39075D2*
X-35138D1*
X-24934D2*
X-20742D1*
X-1478D2*
X15059D1*
X38681D2*
X42617D1*
X-93074Y-4950D2*
X-88928D1*
X-73521D2*
X-68799D1*
X-51870D2*
X-48917D1*
X-39075D2*
X-35138D1*
X-24177D2*
X-20030D1*
X-636D2*
X15059D1*
X38681D2*
X42614D1*
X-92315Y-5934D2*
X-88126D1*
X-74155D2*
X-69991D1*
X-51870D2*
X-48917D1*
X-39075D2*
X-35138D1*
X-23417D2*
X-19229D1*
X-433D2*
X4388D1*
X11122D2*
X15059D1*
X38677D2*
X42580D1*
X-91611Y-6919D2*
X-87271D1*
X-74675D2*
X-70920D1*
X-51870D2*
X-48917D1*
X-39075D2*
X-35142D1*
X-22713D2*
X-18373D1*
X-704D2*
X3683D1*
X11122D2*
X15059D1*
X38643D2*
X42454D1*
X-90901Y-7903D2*
X-86455D1*
X-75064D2*
X-71249D1*
X-51870D2*
X-48917D1*
X-39075D2*
X-35176D1*
X-22003D2*
X-17557D1*
X-1157D2*
X3082D1*
X11122D2*
X15059D1*
X38513D2*
X42218D1*
X-90130Y-8887D2*
X-85724D1*
X-75291D2*
X-71422D1*
X-51870D2*
X-48913D1*
X-39079D2*
X-35302D1*
X-21232D2*
X-16826D1*
X-1733D2*
X2541D1*
X11122D2*
X15059D1*
X38239D2*
X41962D1*
X-89365Y-9871D2*
X-85002D1*
X-75371D2*
X-71458D1*
X-51870D2*
X-48871D1*
X-39121D2*
X-35537D1*
X-20467D2*
X-16105D1*
X-2313D2*
X2030D1*
X11122D2*
X15059D1*
X21949D2*
X25886D1*
X37819D2*
X41756D1*
X-88659Y-10856D2*
X-84227D1*
X-75292D2*
X-71395D1*
X-61713D2*
X-57776D1*
X-51866D2*
X-48767D1*
X-39225D2*
X-35794D1*
X-19761D2*
X-15329D1*
X-2858D2*
X1529D1*
X11122D2*
X15059D1*
X22138D2*
X26469D1*
X37198D2*
X41535D1*
X-87945Y-11840D2*
X-83464D1*
X-75042D2*
X-70858D1*
X-62360D2*
X-58153D1*
X-51828D2*
X-48223D1*
X-39769D2*
X-36004D1*
X-19047D2*
X-14566D1*
X-3378D2*
X1035D1*
X11122D2*
X15059D1*
X22512D2*
X27244D1*
X36375D2*
X41220D1*
X-87140Y-12824D2*
X-82796D1*
X-74664D2*
X-69175D1*
X-64072D2*
X-58611D1*
X-51664D2*
X-46539D1*
X-41453D2*
X-36259D1*
X-18242D2*
X-13898D1*
X-3880D2*
X541D1*
X11122D2*
X15059D1*
X23045D2*
X29090D1*
X34510D2*
X40786D1*
X-86254Y-13808D2*
X-82245D1*
X-74183D2*
X-66676D1*
X-66585D2*
X-59201D1*
X-51260D2*
X-44039D1*
X-43954D2*
X-36704D1*
X-17357D2*
X-13348D1*
X-4378D2*
X50D1*
X11122D2*
X15059D1*
X23673D2*
X31685D1*
X31904D2*
X40200D1*
X-98130Y-14793D2*
X-81839D1*
X-73513D2*
X-59987D1*
X-50571D2*
X-37411D1*
X-29232D2*
X-12941D1*
X-4874D2*
X-440D1*
X11122D2*
X15059D1*
X24499D2*
X39380D1*
X-98130Y-15777D2*
X-81600D1*
X-72507D2*
X-61006D1*
X-49596D2*
X-38393D1*
X-29232D2*
X-12702D1*
X-5393D2*
X-906D1*
X11122D2*
X15059D1*
X25679D2*
X38210D1*
X-98130Y-16761D2*
X-81476D1*
X-71134D2*
X-62273D1*
X-48347D2*
X-39644D1*
X-29232D2*
X-12578D1*
X-5967D2*
X-1316D1*
X11122D2*
X15059D1*
X27186D2*
X36606D1*
X-98130Y-17745D2*
X-81398D1*
X-69587D2*
X-63681D1*
X-46949D2*
X-41043D1*
X-29232D2*
X-12500D1*
X-6594D2*
X-1673D1*
X11122D2*
X15059D1*
X28839D2*
X34744D1*
X477142Y185954D2*
X489937D1*
X477142Y184970D2*
X491826D1*
X477142Y183986D2*
X493341D1*
X477142Y183001D2*
X494482D1*
X477142Y182017D2*
X495319D1*
X477142Y181033D2*
X495939D1*
X477142Y180049D2*
X496371D1*
X477142Y179064D2*
X496615D1*
X488953Y178080D2*
X496702D1*
X489937Y177096D2*
X496625D1*
X488953Y176112D2*
X496376D1*
X477142Y175127D2*
X496007D1*
X477142Y174143D2*
X495602D1*
X477142Y173159D2*
X495263D1*
X477142Y172175D2*
X495085D1*
X477142Y171190D2*
X495106D1*
X477142Y170206D2*
X495328D1*
X477142Y169222D2*
X495686D1*
X477142Y168238D2*
X496086D1*
X488953Y167253D2*
X496427D1*
X489937Y166269D2*
X496635D1*
X488953Y165285D2*
X496709D1*
X477142Y164301D2*
X496628D1*
X477142Y163316D2*
X496373D1*
X477142Y162332D2*
X495965D1*
X477142Y161348D2*
X495392D1*
X477142Y160364D2*
X494612D1*
X477142Y159379D2*
X493595D1*
X477142Y158395D2*
X492329D1*
X477142Y157411D2*
X490921D1*
X477142Y152490D2*
X489937D1*
X477142Y151505D2*
X491826D1*
X477142Y150521D2*
X493341D1*
X477142Y149537D2*
X494482D1*
X477142Y148552D2*
X495319D1*
X477142Y147568D2*
X495939D1*
X477142Y146584D2*
X496371D1*
X477142Y145600D2*
X496615D1*
X488953Y144615D2*
X496702D1*
X489937Y143631D2*
X496625D1*
X488953Y142647D2*
X496376D1*
X477142Y141663D2*
X496007D1*
X477142Y140678D2*
X495602D1*
X477142Y139694D2*
X495263D1*
X477142Y138710D2*
X495085D1*
X477142Y137726D2*
X495106D1*
X477142Y136741D2*
X495328D1*
X477142Y135757D2*
X495686D1*
X477142Y134773D2*
X496086D1*
X488953Y133789D2*
X496427D1*
X489937Y132804D2*
X496635D1*
X488953Y131820D2*
X496709D1*
X477142Y130836D2*
X496628D1*
X477142Y129852D2*
X496373D1*
X477142Y128867D2*
X495965D1*
X477142Y127883D2*
X495392D1*
X477142Y126899D2*
X494612D1*
X477142Y125915D2*
X493595D1*
X477142Y124930D2*
X492329D1*
X477142Y123946D2*
X490921D1*
X477142Y119025D2*
X489937D1*
X477142Y118041D2*
X491826D1*
X477142Y117056D2*
X493341D1*
X477142Y116072D2*
X494482D1*
X477142Y115088D2*
X495319D1*
X477142Y114104D2*
X495939D1*
X477142Y113119D2*
X496371D1*
X477142Y112135D2*
X496615D1*
X488953Y111151D2*
X496702D1*
X489937Y110167D2*
X496625D1*
X488953Y109182D2*
X496376D1*
X477142Y108198D2*
X496007D1*
X477142Y107214D2*
X495602D1*
X477142Y106230D2*
X495263D1*
X477142Y105245D2*
X495085D1*
X477142Y104261D2*
X495106D1*
X477142Y103277D2*
X495328D1*
X477142Y102293D2*
X495686D1*
X477142Y101308D2*
X496086D1*
X488953Y100324D2*
X496427D1*
X489937Y99340D2*
X496635D1*
X488953Y98356D2*
X496709D1*
X477142Y97371D2*
X496628D1*
X477142Y96387D2*
X496373D1*
X477142Y95403D2*
X495965D1*
X477142Y94419D2*
X495392D1*
X477142Y93434D2*
X494612D1*
X477142Y92450D2*
X493595D1*
X477142Y91466D2*
X492329D1*
X477142Y90482D2*
X490921D1*
Y84576D2*
X492890D1*
X489676Y83592D2*
X494172D1*
X488674Y82608D2*
X495157D1*
X488309Y81623D2*
X495862D1*
X488117Y80639D2*
X496403D1*
X488067Y79655D2*
X496465D1*
X488195Y78671D2*
X496301D1*
X488578Y77686D2*
X495945D1*
X489202Y76702D2*
X495444D1*
X489937Y75718D2*
X494858D1*
X484031Y69812D2*
X488953D1*
X482593Y68828D2*
X490724D1*
X481330Y67844D2*
X492249D1*
X480237Y66860D2*
X493434D1*
X479319Y65875D2*
X494304D1*
X478583Y64891D2*
X494945D1*
X478005Y63907D2*
X495420D1*
X477589Y62923D2*
X495797D1*
X477346Y61938D2*
X485251D1*
X487619D2*
X496155D1*
X477227Y60954D2*
X483855D1*
X488893D2*
X496461D1*
X477175Y59970D2*
X482782D1*
X485016D2*
X487969D1*
X489888D2*
X496650D1*
X477154Y58986D2*
X482376D1*
X484935D2*
X487969D1*
X490333D2*
X496715D1*
X477150Y58001D2*
X482426D1*
X484754D2*
X487969D1*
X490207D2*
X496634D1*
X477182Y57017D2*
X483134D1*
X483987D2*
X487969D1*
X489937D2*
X496412D1*
X477310Y56033D2*
X487969D1*
X490921D2*
X496130D1*
X477584Y55049D2*
X487969D1*
X491906D2*
X495808D1*
X478000Y54064D2*
X487969D1*
X492890D2*
X495376D1*
X478575Y53080D2*
X487969D1*
X493874D2*
X494858D1*
X479356Y52096D2*
X487969D1*
X480373Y51112D2*
X487969D1*
X481640Y50127D2*
X487969D1*
X483047Y49143D2*
X487969D1*
X478126Y45206D2*
X496827D1*
X475897Y44222D2*
X496827D1*
X474058Y43238D2*
X496827D1*
X472636Y42253D2*
X496827D1*
X471557Y41269D2*
X496827D1*
X470752Y40285D2*
X496827D1*
X470147Y39301D2*
X496827D1*
X469716Y38316D2*
X496827D1*
X469433Y37332D2*
X479344D1*
X480886D2*
X488953D1*
X469160Y36348D2*
X477933D1*
X481465D2*
X488953D1*
X468769Y35364D2*
X476934D1*
X481817D2*
X488953D1*
X468283Y34379D2*
X476157D1*
X482063D2*
X488953D1*
X484031Y31427D2*
X488953D1*
X482593Y30442D2*
X490724D1*
X481330Y29458D2*
X492249D1*
X480237Y28474D2*
X493434D1*
X479319Y27490D2*
X494304D1*
X478583Y26505D2*
X494945D1*
X478005Y25521D2*
X495420D1*
X477589Y24537D2*
X495797D1*
X477346Y23552D2*
X485251D1*
X487619D2*
X496155D1*
X477227Y22568D2*
X483855D1*
X488893D2*
X496461D1*
X477175Y21584D2*
X482782D1*
X485016D2*
X487969D1*
X489888D2*
X496650D1*
X477154Y20600D2*
X482376D1*
X484935D2*
X487969D1*
X490333D2*
X496715D1*
X477150Y19615D2*
X482426D1*
X484754D2*
X487969D1*
X490207D2*
X496634D1*
X477182Y18631D2*
X483134D1*
X483987D2*
X487969D1*
X489937D2*
X496412D1*
X477310Y17647D2*
X487969D1*
X490921D2*
X496130D1*
X477584Y16663D2*
X487969D1*
X491906D2*
X495808D1*
X478000Y15678D2*
X487969D1*
X492890D2*
X495376D1*
X478575Y14694D2*
X487969D1*
X493874D2*
X494858D1*
X479356Y13710D2*
X487969D1*
X480373Y12726D2*
X487969D1*
X481640Y11741D2*
X487969D1*
X483047Y10757D2*
X487969D1*
X469268Y6820D2*
X496827D1*
X469268Y5836D2*
X496827D1*
X469268Y4852D2*
X496827D1*
X469268Y3867D2*
X496827D1*
X469268Y2883D2*
X496827D1*
X469268Y1899D2*
X496827D1*
X469268Y915D2*
X496827D1*
X469268Y-70D2*
X496827D1*
X482858Y-1054D2*
X484418D1*
X481507Y-2038D2*
X486216D1*
X480071Y-3022D2*
X488467D1*
X478825Y-4007D2*
X490894D1*
X477835Y-4991D2*
X493107D1*
X477477Y-5975D2*
X494789D1*
X477284Y-6959D2*
X496037D1*
X477197Y-7944D2*
X496448D1*
X477162Y-8928D2*
X496668D1*
X477149Y-9912D2*
X482063D1*
X486152D2*
X496765D1*
X477144Y-10896D2*
X480094D1*
X488365D2*
X496804D1*
X477142Y-11881D2*
X478126D1*
X490591D2*
X496819D1*
X492746Y-12865D2*
X496824D1*
X494858Y-13849D2*
X496827D1*
X469268Y-15818D2*
X485016D1*
X469268Y-16802D2*
X488154D1*
X469268Y-17786D2*
X490562D1*
X469268Y-18770D2*
X492301D1*
X469268Y-19755D2*
X493597D1*
X469268Y-20739D2*
X494567D1*
X469268Y-21723D2*
X495243D1*
X469268Y-22707D2*
X495722D1*
X469268Y-23692D2*
X496126D1*
X477142Y-24676D2*
X484031D1*
X487788D2*
X496452D1*
X477142Y-25660D2*
X484031D1*
X488426D2*
X496668D1*
X477142Y-26644D2*
X484031D1*
X488953D2*
X496827D1*
X484031Y-30581D2*
X488953D1*
X482593Y-31566D2*
X490724D1*
X481330Y-32550D2*
X492249D1*
X480237Y-33534D2*
X493434D1*
X479319Y-34518D2*
X494304D1*
X478583Y-35503D2*
X494945D1*
X478005Y-36487D2*
X495420D1*
X477589Y-37471D2*
X495797D1*
X477346Y-38455D2*
X486387D1*
X487927D2*
X496155D1*
X477227Y-39440D2*
X485056D1*
X488747D2*
X496461D1*
X477175Y-40424D2*
X484443D1*
X489335D2*
X496654D1*
X477154Y-41408D2*
X484263D1*
X489690D2*
X496759D1*
X477146Y-42392D2*
X484180D1*
X489937D2*
X496827D1*
X477147Y-43377D2*
X486784D1*
X477185Y-44361D2*
X491208D1*
X477344Y-45345D2*
X496827D1*
X477709Y-46329D2*
X496827D1*
X478239Y-47314D2*
X496827D1*
X478873Y-48298D2*
X496827D1*
X479775Y-49282D2*
X496827D1*
X481259Y-50266D2*
X496827D1*
X483439Y-51251D2*
X496827D1*
X486000Y-52235D2*
X496827D1*
X469268Y-57156D2*
X496827D1*
X469268Y-58140D2*
X496827D1*
X469268Y-59125D2*
X496827D1*
X469268Y-60109D2*
X496827D1*
X469268Y-61093D2*
X496827D1*
X469268Y-62077D2*
X496827D1*
X469268Y-63062D2*
X496827D1*
X469268Y-64046D2*
X496827D1*
X484031Y-68967D2*
X488953D1*
X482593Y-69951D2*
X490724D1*
X481330Y-70936D2*
X492249D1*
X480237Y-71920D2*
X493434D1*
X479319Y-72904D2*
X494304D1*
X478583Y-73888D2*
X494945D1*
X478005Y-74873D2*
X495420D1*
X477589Y-75857D2*
X495797D1*
X477346Y-76841D2*
X486387D1*
X487927D2*
X496155D1*
X477227Y-77825D2*
X485056D1*
X488747D2*
X496461D1*
X477175Y-78810D2*
X484443D1*
X489335D2*
X496654D1*
X477154Y-79794D2*
X484263D1*
X489690D2*
X496759D1*
X477146Y-80778D2*
X484180D1*
X489937D2*
X496827D1*
X477147Y-81762D2*
X486784D1*
X477185Y-82747D2*
X491208D1*
X477344Y-83731D2*
X496827D1*
X477709Y-84715D2*
X496827D1*
X478239Y-85699D2*
X496827D1*
X478873Y-86684D2*
X496827D1*
X479775Y-87668D2*
X496827D1*
X481259Y-88652D2*
X496827D1*
X483439Y-89636D2*
X496827D1*
X486000Y-90621D2*
X496827D1*
X469268Y-95542D2*
X489937D1*
X469268Y-96526D2*
X491372D1*
X469268Y-97510D2*
X492604D1*
X469268Y-98495D2*
X493602D1*
X469268Y-99479D2*
X494376D1*
X469268Y-100463D2*
X494973D1*
X469268Y-101448D2*
X495430D1*
X469268Y-102432D2*
X495800D1*
X489101Y-103416D2*
X496156D1*
X476157Y-104400D2*
X484031D1*
X489310D2*
X496461D1*
X476612Y-105385D2*
X484084D1*
X489510D2*
X496650D1*
X476894Y-106369D2*
X484212D1*
X489382D2*
X496715D1*
X477041Y-107353D2*
X484936D1*
X488817D2*
X496630D1*
X477139Y-108337D2*
X486783D1*
X487526D2*
X496378D1*
X477294Y-109322D2*
X496003D1*
X477578Y-110306D2*
X495560D1*
X477998Y-111290D2*
X495053D1*
X478574Y-112274D2*
X494437D1*
X479356Y-113259D2*
X493639D1*
X480373Y-114243D2*
X492615D1*
X481640Y-115227D2*
X491346D1*
X483047Y-116211D2*
X489937D1*
X490921Y-121133D2*
X492890D1*
X489676Y-122117D2*
X494172D1*
X488674Y-123101D2*
X495157D1*
X488309Y-124085D2*
X495862D1*
X488117Y-125070D2*
X496403D1*
X488067Y-126054D2*
X496465D1*
X488195Y-127038D2*
X496301D1*
X488578Y-128022D2*
X495945D1*
X489202Y-129007D2*
X495444D1*
X489937Y-129991D2*
X494858D1*
X484031Y-135896D2*
X488953D1*
X482593Y-136881D2*
X490724D1*
X481330Y-137865D2*
X492249D1*
X480237Y-138849D2*
X493434D1*
X479319Y-139833D2*
X494304D1*
X478583Y-140818D2*
X494945D1*
X478005Y-141802D2*
X495420D1*
X477589Y-142786D2*
X495797D1*
X477346Y-143770D2*
X485209D1*
X487816D2*
X496155D1*
X477227Y-144755D2*
X484634D1*
X488548D2*
X496461D1*
X477175Y-145739D2*
X484304D1*
X489236D2*
X496650D1*
X477154Y-146723D2*
X484144D1*
X489937D2*
X496715D1*
X477150Y-147707D2*
X484075D1*
X489331D2*
X496634D1*
X477182Y-148692D2*
X484047D1*
X488804D2*
X496412D1*
X477310Y-149676D2*
X484037D1*
X488406D2*
X496129D1*
X477584Y-150660D2*
X484033D1*
X488170D2*
X495796D1*
X478000Y-151644D2*
X484032D1*
X488053D2*
X495306D1*
X478575Y-152629D2*
X484032D1*
X488001D2*
X494612D1*
X479356Y-153613D2*
X484032D1*
X487981D2*
X493771D1*
X480373Y-154597D2*
X484032D1*
X487973D2*
X492850D1*
X481640Y-155581D2*
X484032D1*
X487970D2*
X491892D1*
X483047Y-156566D2*
X484031D1*
X487969D2*
X490921D1*
X484031Y-160503D2*
X488953D1*
X482294Y-161487D2*
X490724D1*
X480864Y-162471D2*
X492249D1*
X479821Y-163455D2*
X493434D1*
X479058Y-164440D2*
X494304D1*
X478451Y-165424D2*
X494945D1*
X477946Y-166408D2*
X495420D1*
X477565Y-167392D2*
X495797D1*
X477337Y-168377D2*
X485209D1*
X487923D2*
X496155D1*
X477224Y-169361D2*
X484637D1*
X488708D2*
X496461D1*
X477174Y-170345D2*
X484253D1*
X489305D2*
X496650D1*
X477154Y-171329D2*
X484288D1*
X489306D2*
X496715D1*
X477150Y-172314D2*
X484962D1*
X488791D2*
X496634D1*
X477182Y-173298D2*
X486794D1*
X487516D2*
X496412D1*
X477310Y-174282D2*
X496129D1*
X477584Y-175266D2*
X495796D1*
X478000Y-176251D2*
X495306D1*
X478575Y-177235D2*
X494612D1*
X479361Y-178219D2*
X493764D1*
X480427Y-179203D2*
X492767D1*
X481907Y-180188D2*
X491504D1*
X483836Y-181172D2*
X489857D1*
X486000Y-182156D2*
X487969D1*
X483047Y-186093D2*
X496827D1*
X481310Y-187077D2*
X496827D1*
X479880Y-188062D2*
X496827D1*
X478840Y-189046D2*
X496827D1*
X478112Y-190030D2*
X496827D1*
X477630Y-191014D2*
X496827D1*
X477362Y-191999D2*
X496827D1*
X477233Y-192983D2*
X496827D1*
X477177Y-193967D2*
X485209D1*
X477158Y-194951D2*
X484630D1*
X477189Y-195936D2*
X484278D1*
X477346Y-196920D2*
X496827D1*
X477702Y-197904D2*
X496827D1*
X478155Y-198888D2*
X496827D1*
X478554Y-199873D2*
X496827D1*
X478468Y-200857D2*
X496827D1*
X478204Y-201841D2*
X496827D1*
X477851Y-202825D2*
X496827D1*
X477530Y-203810D2*
X496827D1*
X477325Y-204794D2*
X484031D1*
X477220Y-205778D2*
X484031D1*
X477176Y-206762D2*
X484031D1*
X477192Y-207747D2*
X496827D1*
X477314Y-208731D2*
X496827D1*
X477585Y-209715D2*
X496827D1*
X478008Y-210699D2*
X496827D1*
X478654Y-211684D2*
X496827D1*
X479700Y-212668D2*
X496827D1*
X481233Y-213652D2*
X496827D1*
X483047Y-214636D2*
X496827D1*
X-293931Y187867D2*
X-288025D1*
X-271293D2*
X-270309D1*
X-249639D2*
X-243734D1*
X-225033D2*
X-218143D1*
X-188616D2*
X-182710D1*
X-164994D2*
X-164009D1*
X-94127D2*
X-93143D1*
X-55742D2*
X-54757D1*
X-40978D2*
X-37041D1*
X-21293D2*
X-17356D1*
X16109D2*
X26936D1*
X37762D2*
X38747D1*
X53510D2*
X55479D1*
X73195D2*
X74180D1*
X124376D2*
X128313D1*
X133235D2*
X150951D1*
X156857D2*
X159810D1*
X174573D2*
X177526D1*
X191306D2*
X192290D1*
X239534D2*
X240518D1*
X254298D2*
X277920D1*
X280873D2*
X284810D1*
X296621D2*
X300558D1*
X305479D2*
X323195D1*
X328117D2*
X346817D1*
X351739D2*
X369455D1*
X-295365Y186882D2*
X-286590D1*
X-271293D2*
X-269320D1*
X-251040D2*
X-242299D1*
X-226468D2*
X-216750D1*
X-190017D2*
X-181275D1*
X-164994D2*
X-163021D1*
X-127592D2*
X-125624D1*
X-94127D2*
X-92155D1*
X-55742D2*
X-53769D1*
X-40486D2*
X-36701D1*
X-21445D2*
X-17696D1*
X14253D2*
X26936D1*
X37610D2*
X39238D1*
X53358D2*
X55483D1*
X73039D2*
X74554D1*
X124376D2*
X128313D1*
X133235D2*
X150951D1*
X157349D2*
X160642D1*
X173929D2*
X177034D1*
X191150D2*
X192664D1*
X239378D2*
X240892D1*
X254298D2*
X277920D1*
X281705D2*
X285642D1*
X296621D2*
X300558D1*
X305479D2*
X323195D1*
X328117D2*
X346817D1*
X351739D2*
X369455D1*
X-296594Y185898D2*
X-285358D1*
X-271293D2*
X-268298D1*
X-252177D2*
X-241067D1*
X-227696D2*
X-215534D1*
X-191154D2*
X-180043D1*
X-164994D2*
X-161999D1*
X-127592D2*
X-125624D1*
X-94127D2*
X-91132D1*
X-55742D2*
X-52747D1*
X-40077D2*
X-36373D1*
X-21693D2*
X-18024D1*
X12834D2*
X26936D1*
X37366D2*
X39647D1*
X53110D2*
X55517D1*
X72761D2*
X74977D1*
X124376D2*
X128313D1*
X133235D2*
X150951D1*
X157925D2*
X161378D1*
X173273D2*
X176462D1*
X190871D2*
X193087D1*
X239099D2*
X241315D1*
X254298D2*
X277920D1*
X282441D2*
X286378D1*
X296621D2*
X300558D1*
X305479D2*
X323195D1*
X328117D2*
X346817D1*
X351739D2*
X369455D1*
X-297561Y184914D2*
X-284360D1*
X-271293D2*
X-267153D1*
X-253030D2*
X-240069D1*
X-228660D2*
X-214921D1*
X-192007D2*
X-179045D1*
X-164994D2*
X-160854D1*
X-127592D2*
X-125624D1*
X-94127D2*
X-89988D1*
X-55742D2*
X-51602D1*
X-39694D2*
X-36061D1*
X-21982D2*
X-18336D1*
X11838D2*
X26936D1*
X37111D2*
X40026D1*
X52821D2*
X55643D1*
X72381D2*
X75434D1*
X124376D2*
X128313D1*
X133235D2*
X150951D1*
X158526D2*
X162073D1*
X172600D2*
X175891D1*
X190491D2*
X193544D1*
X238719D2*
X241772D1*
X254298D2*
X277920D1*
X283136D2*
X287073D1*
X296621D2*
X300558D1*
X305479D2*
X323195D1*
X328117D2*
X346817D1*
X351739D2*
X369455D1*
X-298244Y183930D2*
X-293893D1*
X-288063D2*
X-283586D1*
X-271293D2*
X-265812D1*
X-253665D2*
X-248306D1*
X-244083D2*
X-239291D1*
X-229416D2*
X-224877D1*
X-219127D2*
X-214895D1*
X-192642D2*
X-187282D1*
X-183060D2*
X-178268D1*
X-164994D2*
X-159513D1*
X-127592D2*
X-125624D1*
X-94127D2*
X-88647D1*
X-55742D2*
X-50261D1*
X-39344D2*
X-35725D1*
X-22284D2*
X-18672D1*
X11147D2*
X15318D1*
X23983D2*
X26936D1*
X36935D2*
X40346D1*
X52523D2*
X55878D1*
X71969D2*
X75908D1*
X124376D2*
X128313D1*
X147999D2*
X150951D1*
X159160D2*
X162755D1*
X171952D2*
X175348D1*
X190079D2*
X194018D1*
X238307D2*
X242246D1*
X265125D2*
X268077D1*
X283822D2*
X287759D1*
X296621D2*
X300558D1*
X320243D2*
X323195D1*
X342880D2*
X346817D1*
X366502D2*
X369455D1*
X-298727Y182945D2*
X-294747D1*
X-287208D2*
X-282993D1*
X-271293D2*
X-264378D1*
X-254139D2*
X-249583D1*
X-242806D2*
X-238663D1*
X-229693D2*
X-225575D1*
X-217159D2*
X-215190D1*
X-193115D2*
X-188559D1*
X-181782D2*
X-177639D1*
X-164994D2*
X-158079D1*
X-127592D2*
X-125624D1*
X-94127D2*
X-87213D1*
X-55742D2*
X-48827D1*
X-39021D2*
X-35395D1*
X-22646D2*
X-19002D1*
X10618D2*
X14746D1*
X23983D2*
X26936D1*
X36809D2*
X40578D1*
X52192D2*
X56131D1*
X71590D2*
X76363D1*
X124376D2*
X128313D1*
X147999D2*
X150951D1*
X159818D2*
X163378D1*
X171298D2*
X174801D1*
X189700D2*
X194473D1*
X237929D2*
X242701D1*
X265125D2*
X268077D1*
X284476D2*
X288413D1*
X296621D2*
X300558D1*
X320243D2*
X323195D1*
X342880D2*
X346817D1*
X366502D2*
X369455D1*
X-299133Y181961D2*
X-295457D1*
X-286498D2*
X-282570D1*
X-271293D2*
X-263133D1*
X-254515D2*
X-250478D1*
X-241907D2*
X-238115D1*
X-229843D2*
X-226106D1*
X-193491D2*
X-189455D1*
X-180883D2*
X-177091D1*
X-164994D2*
X-156834D1*
X-127592D2*
X-125624D1*
X-94127D2*
X-85968D1*
X-55742D2*
X-47582D1*
X-38681D2*
X-35080D1*
X-23065D2*
X-19321D1*
X10561D2*
X14362D1*
X23983D2*
X26936D1*
X36642D2*
X40804D1*
X51863D2*
X56302D1*
X71251D2*
X76759D1*
X124376D2*
X128313D1*
X147999D2*
X150951D1*
X160430D2*
X163950D1*
X170621D2*
X174205D1*
X189361D2*
X194869D1*
X237590D2*
X243097D1*
X265125D2*
X268077D1*
X285131D2*
X289068D1*
X296621D2*
X300558D1*
X320243D2*
X323195D1*
X342880D2*
X346817D1*
X366502D2*
X369455D1*
X-299458Y180977D2*
X-296025D1*
X-285930D2*
X-282326D1*
X-271293D2*
X-262142D1*
X-254873D2*
X-251054D1*
X-241300D2*
X-237635D1*
X-229907D2*
X-226499D1*
X-193849D2*
X-190031D1*
X-180276D2*
X-176611D1*
X-164994D2*
X-155844D1*
X-127592D2*
X-125624D1*
X-94127D2*
X-84978D1*
X-55742D2*
X-46592D1*
X-38348D2*
X-34742D1*
X-23494D2*
X-19689D1*
X10728D2*
X14351D1*
X23983D2*
X26936D1*
X36389D2*
X41089D1*
X51549D2*
X56398D1*
X70903D2*
X77108D1*
X124376D2*
X128313D1*
X147999D2*
X150951D1*
X160992D2*
X164585D1*
X169896D2*
X173567D1*
X189013D2*
X195218D1*
X237242D2*
X243447D1*
X265125D2*
X268077D1*
X285801D2*
X289738D1*
X296621D2*
X300558D1*
X320243D2*
X323195D1*
X342880D2*
X346817D1*
X366502D2*
X369455D1*
X-299659Y179993D2*
X-296434D1*
X-285521D2*
X-282205D1*
X-271293D2*
X-268340D1*
X-265387D2*
X-261752D1*
X-255179D2*
X-251399D1*
X-240865D2*
X-237262D1*
X-229900D2*
X-226421D1*
X-194155D2*
X-190375D1*
X-179841D2*
X-176239D1*
X-164994D2*
X-162041D1*
X-159088D2*
X-155485D1*
X-127592D2*
X-125624D1*
X-94127D2*
X-91175D1*
X-88222D2*
X-84618D1*
X-55742D2*
X-52789D1*
X-49836D2*
X-46233D1*
X-38029D2*
X-34411D1*
X-23879D2*
X-20111D1*
X11098D2*
X14787D1*
X23983D2*
X26936D1*
X36130D2*
X41395D1*
X51211D2*
X56474D1*
X70568D2*
X77489D1*
X124376D2*
X128313D1*
X147999D2*
X150951D1*
X161546D2*
X165520D1*
X168907D2*
X172963D1*
X188678D2*
X195600D1*
X236906D2*
X243828D1*
X265125D2*
X268077D1*
X286448D2*
X290385D1*
X296621D2*
X300558D1*
X320243D2*
X323195D1*
X342880D2*
X346817D1*
X366502D2*
X369455D1*
X-299761Y179008D2*
X-296641D1*
X-285315D2*
X-282153D1*
X-271293D2*
X-268340D1*
X-263419D2*
X-261450D1*
X-255372D2*
X-251670D1*
X-240483D2*
X-237038D1*
X-229785D2*
X-226232D1*
X-194348D2*
X-190647D1*
X-179459D2*
X-176014D1*
X-164994D2*
X-162041D1*
X-157120D2*
X-155282D1*
X-127592D2*
X-125624D1*
X-94127D2*
X-91175D1*
X-86253D2*
X-84416D1*
X-55742D2*
X-52789D1*
X-47868D2*
X-46030D1*
X-37660D2*
X-34096D1*
X-24220D2*
X-20541D1*
X11686D2*
X16694D1*
X23983D2*
X26936D1*
X35952D2*
X41699D1*
X50880D2*
X56617D1*
X70247D2*
X73043D1*
X75316D2*
X77917D1*
X124376D2*
X128313D1*
X147999D2*
X150951D1*
X162145D2*
X166945D1*
X167455D2*
X172405D1*
X188357D2*
X191154D1*
X193426D2*
X196027D1*
X236586D2*
X239382D1*
X241655D2*
X244255D1*
X265125D2*
X268077D1*
X287101D2*
X291038D1*
X296621D2*
X300558D1*
X320243D2*
X323195D1*
X342880D2*
X346817D1*
X366502D2*
X369455D1*
X-299807Y178024D2*
X-296630D1*
X-285325D2*
X-282136D1*
X-271293D2*
X-268340D1*
X-255471D2*
X-251969D1*
X-240168D2*
X-236926D1*
X-229549D2*
X-225979D1*
X-194447D2*
X-190945D1*
X-179144D2*
X-175902D1*
X-164994D2*
X-162041D1*
X-155151D2*
D3*
X-127592D2*
X-125624D1*
X-94127D2*
X-91175D1*
X-84285D2*
D3*
X-55742D2*
X-52789D1*
X-45899D2*
D3*
X-37238D2*
X-33758D1*
X-24569D2*
X-20926D1*
X12573D2*
X19909D1*
X23983D2*
X26936D1*
X35825D2*
X42032D1*
X50565D2*
X56859D1*
X69878D2*
X72795D1*
X75564D2*
X78348D1*
X124376D2*
X128313D1*
X147999D2*
X150951D1*
X162788D2*
X171852D1*
X187988D2*
X190906D1*
X193674D2*
X196458D1*
X236217D2*
X239134D1*
X241902D2*
X244686D1*
X265125D2*
X268077D1*
X287769D2*
X291707D1*
X296621D2*
X300558D1*
X320243D2*
X323195D1*
X342880D2*
X346817D1*
X366502D2*
X369455D1*
X-299825Y177040D2*
X-296408D1*
X-285547D2*
X-282162D1*
X-271293D2*
X-268340D1*
X-255516D2*
X-252246D1*
X-239971D2*
X-236876D1*
X-229259D2*
X-225637D1*
X-194492D2*
X-191222D1*
X-178948D2*
X-175852D1*
X-164994D2*
X-162041D1*
X-127592D2*
X-125624D1*
X-94127D2*
X-91175D1*
X-55742D2*
X-52789D1*
X-36809D2*
X-33427D1*
X-24905D2*
X-21267D1*
X13766D2*
X26936D1*
X35658D2*
X42362D1*
X50227D2*
X57114D1*
X69456D2*
X72506D1*
X75853D2*
X78734D1*
X124376D2*
X128313D1*
X147999D2*
X150951D1*
X163427D2*
X171257D1*
X187566D2*
X190616D1*
X193964D2*
X196844D1*
X235794D2*
X238845D1*
X242192D2*
X245072D1*
X265125D2*
X268077D1*
X288411D2*
X292353D1*
X296621D2*
X300558D1*
X320243D2*
X323195D1*
X342880D2*
X346817D1*
X366502D2*
X369455D1*
X-299832Y176056D2*
X-295994D1*
X-285962D2*
X-282289D1*
X-271293D2*
X-268340D1*
X-255534D2*
X-252426D1*
X-239871D2*
X-236856D1*
X-228928D2*
X-225221D1*
X-194510D2*
X-191403D1*
X-178847D2*
X-175832D1*
X-164994D2*
X-162041D1*
X-127592D2*
X-125624D1*
X-94127D2*
X-91175D1*
X-55742D2*
X-52789D1*
X-36424D2*
X-33111D1*
X-25221D2*
X-21616D1*
X15125D2*
X26936D1*
X35405D2*
X37762D1*
X39883D2*
X42676D1*
X49896D2*
X52374D1*
X54495D2*
X57290D1*
X69026D2*
X72208D1*
X76151D2*
X79079D1*
X124376D2*
X128313D1*
X138156D2*
X150951D1*
X164108D2*
X170653D1*
X187137D2*
X190318D1*
X194261D2*
X197189D1*
X235365D2*
X238547D1*
X242490D2*
X245418D1*
X265125D2*
X268077D1*
X289056D2*
X293006D1*
X296617D2*
X300558D1*
X310400D2*
X323195D1*
X332054D2*
X346817D1*
X356660D2*
X369455D1*
X-299835Y175071D2*
X-295437D1*
X-286519D2*
X-282558D1*
X-271293D2*
X-268340D1*
X-255541D2*
X-252521D1*
X-239826D2*
X-236848D1*
X-228472D2*
X-224761D1*
X-194517D2*
X-191497D1*
X-178802D2*
X-175825D1*
X-164994D2*
X-162041D1*
X-127592D2*
X-125624D1*
X-94127D2*
X-91175D1*
X-55742D2*
X-52789D1*
X-36082D2*
X-32774D1*
X-25560D2*
X-21952D1*
X13353D2*
X26936D1*
X35146D2*
X37762D1*
X40131D2*
X43014D1*
X49581D2*
X52126D1*
X54498D2*
X57416D1*
X68641D2*
X71877D1*
X76482D2*
X79459D1*
X124376D2*
X128313D1*
X138156D2*
X150951D1*
X164885D2*
X170182D1*
X186751D2*
X189987D1*
X194592D2*
X197569D1*
X234980D2*
X238216D1*
X242821D2*
X245797D1*
X265125D2*
X268077D1*
X289731D2*
X293675D1*
X296579D2*
X300558D1*
X310400D2*
X323195D1*
X332054D2*
X346817D1*
X356660D2*
X369455D1*
X-299832Y174087D2*
X-293791D1*
X-288164D2*
X-282943D1*
X-271293D2*
X-268340D1*
X-255543D2*
X-252564D1*
X-239808D2*
X-236845D1*
X-227904D2*
X-224251D1*
X-194520D2*
X-191540D1*
X-178784D2*
X-175822D1*
X-164994D2*
X-162041D1*
X-127592D2*
X-125624D1*
X-94127D2*
X-91175D1*
X-55742D2*
X-52789D1*
X-35733D2*
X-32442D1*
X-25891D2*
X-22273D1*
X11832D2*
X26936D1*
X34968D2*
X37758D1*
X40420D2*
X43345D1*
X49243D2*
X51837D1*
X54533D2*
X57584D1*
X68296D2*
X71548D1*
X76811D2*
X79889D1*
X124376D2*
X128313D1*
X138156D2*
X150951D1*
X165715D2*
X169854D1*
X186406D2*
X189659D1*
X194921D2*
X197999D1*
X234635D2*
X237887D1*
X243150D2*
X246228D1*
X265125D2*
X268077D1*
X289121D2*
X294316D1*
X296427D2*
X300558D1*
X310400D2*
X323195D1*
X332054D2*
X346817D1*
X356660D2*
X369455D1*
X-299798Y173103D2*
X-291214D1*
X-290741D2*
X-283427D1*
X-271293D2*
X-268340D1*
X-255544D2*
X-252578D1*
X-239801D2*
X-236844D1*
X-227302D2*
X-223671D1*
X-194521D2*
X-191554D1*
X-178777D2*
X-175821D1*
X-164994D2*
X-162041D1*
X-127592D2*
X-125624D1*
X-94127D2*
X-91175D1*
X-55742D2*
X-52789D1*
X-35398D2*
X-32123D1*
X-26210D2*
X-22642D1*
X10678D2*
X16306D1*
X23983D2*
X26936D1*
X34841D2*
X37724D1*
X40718D2*
X43660D1*
X48912D2*
X51539D1*
X54658D2*
X57837D1*
X67916D2*
X71234D1*
X77129D2*
X80351D1*
X124376D2*
X128313D1*
X138156D2*
X150951D1*
X165105D2*
X169935D1*
X186026D2*
X189344D1*
X195239D2*
X198461D1*
X234255D2*
X237573D1*
X243468D2*
X246690D1*
X265125D2*
X268077D1*
X288555D2*
X294962D1*
X296091D2*
X300558D1*
X310400D2*
X323195D1*
X332054D2*
X346817D1*
X356660D2*
X369455D1*
X-299672Y172119D2*
X-284098D1*
X-271293D2*
X-268340D1*
X-255545D2*
X-252550D1*
X-239798D2*
X-236844D1*
X-226668D2*
X-223035D1*
X-194521D2*
X-191526D1*
X-178774D2*
X-175821D1*
X-164994D2*
X-162041D1*
X-127592D2*
X-125624D1*
X-94127D2*
X-91175D1*
X-55742D2*
X-52789D1*
X-35077D2*
X-31755D1*
X-26579D2*
X-23064D1*
X9899D2*
X14785D1*
X23983D2*
X26936D1*
X34673D2*
X37598D1*
X41049D2*
X43994D1*
X48597D2*
X51208D1*
X54894D2*
X58096D1*
X67490D2*
X70896D1*
X77497D2*
X80828D1*
X124376D2*
X128313D1*
X147999D2*
X150951D1*
X164540D2*
X170254D1*
X185600D2*
X189007D1*
X195608D2*
X198938D1*
X233828D2*
X237235D1*
X243836D2*
X247166D1*
X265125D2*
X268077D1*
X287997D2*
X300558D1*
X320243D2*
X323195D1*
X342880D2*
X346817D1*
X366502D2*
X369455D1*
X-299433Y171134D2*
X-285105D1*
X-271293D2*
X-268340D1*
X-255545D2*
X-252427D1*
X-239801D2*
X-236844D1*
X-226006D2*
X-222402D1*
X-194521D2*
X-191403D1*
X-178777D2*
X-175820D1*
X-164994D2*
X-162041D1*
X-127592D2*
X-125624D1*
X-94127D2*
X-91175D1*
X-55742D2*
X-52789D1*
X-34708D2*
X-31333D1*
X-27001D2*
X-23493D1*
X9372D2*
X13635D1*
X23983D2*
X26936D1*
X34420D2*
X37363D1*
X41378D2*
X44299D1*
X48255D2*
X50879D1*
X55147D2*
X58274D1*
X67059D2*
X70562D1*
X77920D2*
X81283D1*
X124376D2*
X128313D1*
X147999D2*
X150951D1*
X163982D2*
X170759D1*
X185169D2*
X188673D1*
X196030D2*
X199393D1*
X233397D2*
X236901D1*
X244259D2*
X247622D1*
X265125D2*
X268077D1*
X287397D2*
X300558D1*
X320243D2*
X323195D1*
X342880D2*
X346817D1*
X366502D2*
X369455D1*
X-299142Y170150D2*
X-286478D1*
X-271293D2*
X-268340D1*
X-255541D2*
X-252192D1*
X-239835D2*
X-236844D1*
X-225362D2*
X-221754D1*
X-194517D2*
X-191168D1*
X-178812D2*
X-175820D1*
X-164994D2*
X-162041D1*
X-127592D2*
X-125624D1*
X-94127D2*
X-91175D1*
X-55742D2*
X-52789D1*
X-34285D2*
X-30903D1*
X-27430D2*
X-23879D1*
X8948D2*
X12761D1*
X23983D2*
X26936D1*
X34161D2*
X37110D1*
X41692D2*
X44563D1*
X47883D2*
X50565D1*
X55322D2*
X58400D1*
X66673D2*
X70220D1*
X78355D2*
X81680D1*
X124376D2*
X128313D1*
X147999D2*
X150951D1*
X163381D2*
X171335D1*
X184783D2*
X188330D1*
X196465D2*
X199790D1*
X233012D2*
X236558D1*
X244693D2*
X248018D1*
X265125D2*
X268077D1*
X286757D2*
X290871D1*
X293630D2*
X300558D1*
X320243D2*
X323195D1*
X342880D2*
X346817D1*
X366502D2*
X369455D1*
X-298810Y169166D2*
X-295937D1*
X-292946D2*
X-288025D1*
X-271293D2*
X-268340D1*
X-255506D2*
X-251940D1*
X-239961D2*
X-236844D1*
X-224710D2*
X-221087D1*
X-194483D2*
X-190916D1*
X-178937D2*
X-175820D1*
X-164994D2*
X-162041D1*
X-127592D2*
X-125624D1*
X-94127D2*
X-91175D1*
X-55742D2*
X-52789D1*
X-33856D2*
X-30515D1*
X-27818D2*
X-24220D1*
X8616D2*
X12456D1*
X23983D2*
X26936D1*
X33983D2*
X36935D1*
X42030D2*
X44862D1*
X47389D2*
X50227D1*
X55448D2*
X58568D1*
X66331D2*
X69780D1*
X78751D2*
X82029D1*
X124376D2*
X128313D1*
X147999D2*
X150951D1*
X162741D2*
X166737D1*
X168857D2*
X171960D1*
X184442D2*
X187890D1*
X196861D2*
X200140D1*
X232670D2*
X236118D1*
X245090D2*
X248368D1*
X265125D2*
X268077D1*
X286152D2*
X290165D1*
X294485D2*
X300558D1*
X320243D2*
X323195D1*
X342880D2*
X346817D1*
X366502D2*
X369455D1*
X-298354Y168182D2*
X-295078D1*
X-271293D2*
X-268340D1*
X-255381D2*
X-251765D1*
X-240200D2*
X-236848D1*
X-224045D2*
X-220442D1*
X-194357D2*
X-190741D1*
X-179177D2*
X-175824D1*
X-164994D2*
X-162041D1*
X-127592D2*
X-125624D1*
X-94127D2*
X-91175D1*
X-55742D2*
X-52789D1*
X-33471D2*
X-30146D1*
X-28187D2*
X-24569D1*
X8417D2*
X12296D1*
X23983D2*
X26936D1*
X33857D2*
X36809D1*
X42361D2*
X45659D1*
X46612D2*
X49896D1*
X55615D2*
X58821D1*
X65982D2*
X69258D1*
X79101D2*
X82411D1*
X124376D2*
X128313D1*
X147999D2*
X150951D1*
X162136D2*
X165883D1*
X169231D2*
X172614D1*
X184093D2*
X187369D1*
X197211D2*
X200521D1*
X232321D2*
X235597D1*
X245439D2*
X248749D1*
X265125D2*
X268077D1*
X285594D2*
X289561D1*
X295194D2*
X300558D1*
X320243D2*
X323195D1*
X342880D2*
X346817D1*
X366502D2*
X369455D1*
X-297786Y167197D2*
X-294330D1*
X-271293D2*
X-268340D1*
X-255141D2*
X-251635D1*
X-240487D2*
X-236882D1*
X-223429D2*
X-219789D1*
X-194118D2*
X-190611D1*
X-179464D2*
X-175859D1*
X-164994D2*
X-162041D1*
X-127592D2*
X-125624D1*
X-94127D2*
X-91175D1*
X-55742D2*
X-52789D1*
X-33129D2*
X-29695D1*
X-28639D2*
X-24905D1*
X8349D2*
X12261D1*
X23983D2*
X26936D1*
X33689D2*
X36642D1*
X42676D2*
X49581D1*
X55868D2*
X59080D1*
X65647D2*
X82838D1*
X124376D2*
X128313D1*
X147999D2*
X150951D1*
X161578D2*
X165169D1*
X169757D2*
X173226D1*
X183757D2*
X200948D1*
X231985D2*
X249176D1*
X265125D2*
X268077D1*
X285041D2*
X288989D1*
X295762D2*
X300558D1*
X320243D2*
X323195D1*
X342880D2*
X346817D1*
X366502D2*
X369455D1*
X-297184Y166213D2*
X-293598D1*
X-271293D2*
X-268340D1*
X-254854D2*
X-251429D1*
X-240792D2*
X-237008D1*
X-222867D2*
X-219120D1*
X-193831D2*
X-190406D1*
X-179768D2*
X-175984D1*
X-164994D2*
X-162041D1*
X-127592D2*
X-125624D1*
X-94127D2*
X-91175D1*
X-55742D2*
X-52789D1*
X-32781D2*
X-25225D1*
X8432D2*
X12316D1*
X23983D2*
X26936D1*
X33436D2*
X36389D1*
X43014D2*
X49243D1*
X56127D2*
X59254D1*
X65326D2*
X83269D1*
X124376D2*
X128313D1*
X147999D2*
X150951D1*
X161025D2*
X164562D1*
X170311D2*
X173787D1*
X183436D2*
X201379D1*
X231665D2*
X249608D1*
X265125D2*
X268077D1*
X284442D2*
X288383D1*
X296175D2*
X300558D1*
X320243D2*
X323195D1*
X342880D2*
X346817D1*
X366502D2*
X369455D1*
X-296550Y165229D2*
X-292786D1*
X-271293D2*
X-268340D1*
X-254553D2*
X-251100D1*
X-241211D2*
X-237247D1*
X-222308D2*
X-218473D1*
X-193530D2*
X-190077D1*
X-180188D2*
X-176224D1*
X-164994D2*
X-162041D1*
X-127592D2*
X-125624D1*
X-94127D2*
X-91175D1*
X-55742D2*
X-52789D1*
X-32445D2*
X-25594D1*
X8684D2*
X12703D1*
X23983D2*
X26936D1*
X33177D2*
X36130D1*
X43345D2*
X48912D1*
X56301D2*
X59350D1*
X64957D2*
X83655D1*
X124376D2*
X128313D1*
X147999D2*
X150951D1*
X160426D2*
X163989D1*
X170848D2*
X174341D1*
X183067D2*
X201765D1*
X231295D2*
X249993D1*
X265125D2*
X268077D1*
X283803D2*
X287742D1*
X296416D2*
X300558D1*
X320243D2*
X323195D1*
X342880D2*
X346817D1*
X366502D2*
X369455D1*
X-295888Y164245D2*
X-291893D1*
X-271293D2*
X-268340D1*
X-254188D2*
X-250214D1*
X-241771D2*
X-237538D1*
X-221675D2*
X-217820D1*
X-193164D2*
X-189191D1*
X-180748D2*
X-176515D1*
X-164994D2*
X-162041D1*
X-127592D2*
X-125624D1*
X-94127D2*
X-91175D1*
X-55742D2*
X-52789D1*
X-32128D2*
X-26017D1*
X9058D2*
X13605D1*
X23983D2*
X26936D1*
X32999D2*
X35952D1*
X43660D2*
X48597D1*
X56397D2*
X59427D1*
X64535D2*
X84000D1*
X124376D2*
X128313D1*
X147999D2*
X150951D1*
X159784D2*
X163383D1*
X171394D2*
X174940D1*
X182645D2*
X202110D1*
X230873D2*
X250339D1*
X265125D2*
X268077D1*
X283199D2*
X287136D1*
X296535D2*
X300558D1*
X320243D2*
X323195D1*
X342880D2*
X346817D1*
X366502D2*
X369455D1*
X-295236Y163260D2*
X-290950D1*
X-271293D2*
X-268340D1*
X-253730D2*
X-248761D1*
X-243520D2*
X-237874D1*
X-220907D2*
X-217151D1*
X-205348D2*
X-202395D1*
X-192706D2*
X-187737D1*
X-182496D2*
X-176850D1*
X-164994D2*
X-162041D1*
X-127592D2*
X-125624D1*
X-94127D2*
X-91175D1*
X-73458D2*
X-70505D1*
X-55742D2*
X-52789D1*
X-31790D2*
X-26446D1*
X9505D2*
X16129D1*
X23983D2*
X26936D1*
X32872D2*
X35825D1*
X43998D2*
X48259D1*
X56474D2*
X59569D1*
X64105D2*
X68464D1*
X81107D2*
X84380D1*
X124376D2*
X128313D1*
X147999D2*
X150951D1*
X159149D2*
X162742D1*
X171989D2*
X175579D1*
X182215D2*
X186574D1*
X199217D2*
X202490D1*
X230444D2*
X234802D1*
X247445D2*
X250719D1*
X265125D2*
X268077D1*
X282641D2*
X286578D1*
X296587D2*
X300558D1*
X320243D2*
X323195D1*
X342880D2*
X346817D1*
X366502D2*
X369455D1*
X-294511Y162276D2*
X-289983D1*
X-271293D2*
X-268340D1*
X-253138D2*
X-246497D1*
X-246268D2*
X-238369D1*
X-220038D2*
X-216505D1*
X-205798D2*
X-201945D1*
X-192114D2*
X-185473D1*
X-185244D2*
X-177345D1*
X-164994D2*
X-162041D1*
X-127592D2*
X-125624D1*
X-94127D2*
X-91175D1*
X-73909D2*
X-70055D1*
X-55742D2*
X-52789D1*
X-31458D2*
X-26831D1*
X10051D2*
X20086D1*
X23983D2*
X26936D1*
X32705D2*
X35658D1*
X44329D2*
X47928D1*
X56617D2*
X59812D1*
X63720D2*
X67853D1*
X81237D2*
X84807D1*
X124376D2*
X128313D1*
X147999D2*
X150951D1*
X158500D2*
X162136D1*
X172631D2*
X176184D1*
X181830D2*
X185964D1*
X199347D2*
X202917D1*
X230058D2*
X234192D1*
X247575D2*
X251145D1*
X265125D2*
X268077D1*
X282088D2*
X286025D1*
X296608D2*
X300558D1*
X320243D2*
X323195D1*
X342880D2*
X346817D1*
X366502D2*
X369455D1*
X-293553Y161292D2*
X-289006D1*
X-271293D2*
X-268340D1*
X-252350D2*
X-239100D1*
X-231923D2*
X-215855D1*
X-206044D2*
X-201699D1*
X-191327D2*
X-178076D1*
X-164994D2*
X-162041D1*
X-127592D2*
X-125624D1*
X-94127D2*
X-91175D1*
X-74154D2*
X-69810D1*
X-55742D2*
X-52789D1*
X-31142D2*
X-27173D1*
X10827D2*
X26936D1*
X32452D2*
X35404D1*
X44645D2*
X47612D1*
X56859D2*
X60067D1*
X63378D2*
X67398D1*
X81510D2*
X85234D1*
X110597D2*
X128313D1*
X133235D2*
X150951D1*
X157833D2*
X161579D1*
X173270D2*
X176741D1*
X181488D2*
X185508D1*
X199621D2*
X203344D1*
X229716D2*
X233736D1*
X247849D2*
X251573D1*
X265125D2*
X268077D1*
X281492D2*
X285429D1*
X296616D2*
X300558D1*
X305479D2*
X323195D1*
X342880D2*
X346817D1*
X351739D2*
X369455D1*
X-292271Y160308D2*
X-288024D1*
X-271293D2*
X-268340D1*
X-251331D2*
X-240092D1*
X-231923D2*
X-215213D1*
X-206129D2*
X-201614D1*
X-190307D2*
X-179069D1*
X-164994D2*
X-162041D1*
X-127592D2*
X-125624D1*
X-94127D2*
X-91175D1*
X-74240D2*
X-69724D1*
X-55742D2*
X-52789D1*
X-30800D2*
X-27527D1*
X11983D2*
X26936D1*
X32190D2*
X35143D1*
X44988D2*
X47269D1*
X57116D2*
X60240D1*
X63024D2*
X66994D1*
X81917D2*
X85588D1*
X110597D2*
X128313D1*
X133235D2*
X150951D1*
X157192D2*
X161031D1*
X173950D2*
X177289D1*
X181134D2*
X185104D1*
X200028D2*
X203698D1*
X229363D2*
X233332D1*
X248256D2*
X251926D1*
X265125D2*
X268077D1*
X280877D2*
X284814D1*
X296619D2*
X300558D1*
X305479D2*
X323195D1*
X342880D2*
X346817D1*
X351739D2*
X369455D1*
X-290704Y159323D2*
X-287041D1*
X-271293D2*
X-268340D1*
X-250063D2*
X-241348D1*
X-231923D2*
X-214669D1*
X-205788D2*
X-201955D1*
X-189039D2*
X-180325D1*
X-164994D2*
X-162041D1*
X-127592D2*
X-125624D1*
X-94127D2*
X-91175D1*
X-73898D2*
X-70065D1*
X-55742D2*
X-52789D1*
X-30461D2*
X-27871D1*
X13478D2*
X26936D1*
X32001D2*
X34954D1*
X45327D2*
X46930D1*
X57304D2*
X60337D1*
X62681D2*
X66629D1*
X82441D2*
X85821D1*
X110597D2*
X128313D1*
X133235D2*
X150951D1*
X156547D2*
X160444D1*
X174727D2*
X177876D1*
X180791D2*
X184739D1*
X200551D2*
X203931D1*
X229019D2*
X232968D1*
X248779D2*
X252159D1*
X265125D2*
X268077D1*
X280345D2*
X284282D1*
X296620D2*
X300558D1*
X305479D2*
X323195D1*
X342880D2*
X346817D1*
X351739D2*
X369455D1*
X-289009Y158339D2*
X-288025D1*
X-271293D2*
X-268340D1*
X-248655D2*
X-242749D1*
X-231923D2*
X-214206D1*
X-205348D2*
X-202395D1*
X-187631D2*
X-181726D1*
X-164994D2*
X-162041D1*
X-127592D2*
X-125624D1*
X-94127D2*
X-91175D1*
X-73458D2*
X-70505D1*
X-55742D2*
X-52789D1*
X-30151D2*
X-28183D1*
X15125D2*
X26936D1*
X31857D2*
X34810D1*
X45636D2*
X46621D1*
X57447D2*
X60400D1*
X62369D2*
X66306D1*
X83038D2*
X85991D1*
X110597D2*
X128313D1*
X133235D2*
X150951D1*
X155873D2*
X159810D1*
X175558D2*
X178510D1*
X180479D2*
X184416D1*
X201148D2*
X204101D1*
X228707D2*
X232644D1*
X249376D2*
X252329D1*
X265125D2*
X268077D1*
X279888D2*
X283825D1*
X296621D2*
X300558D1*
X305479D2*
X323195D1*
X342880D2*
X346817D1*
X351739D2*
X369455D1*
X-127592Y157355D2*
X-125624D1*
X-127592Y156371D2*
X-125624D1*
X-127592Y155386D2*
X-125624D1*
X-127592Y154402D2*
X-125624D1*
X-15387D2*
X6266D1*
X87959D2*
X109613D1*
X206069D2*
X227723D1*
X-127592Y153418D2*
X-125624D1*
X-15387D2*
X6266D1*
X87959D2*
X109613D1*
X206069D2*
X227723D1*
X-127592Y152434D2*
X-125624D1*
X-15387D2*
X6266D1*
X87959D2*
X109613D1*
X206069D2*
X227723D1*
X-145707Y-545661D2*
X-145704Y-546645D1*
X-145669Y-547629D1*
X-145543Y-548614D1*
X-145304Y-549598D1*
X-145017Y-550582D1*
X-144720Y-551566D1*
X-144393Y-552551D1*
X-144095Y-553535D1*
X-143871Y-554519D1*
X-143648Y-555503D1*
X-143364Y-556488D1*
X-143059Y-557472D1*
X-142755Y-558456D1*
X-142422Y-559440D1*
X-142092Y-560425D1*
X-141778Y-561409D1*
X-141444Y-562393D1*
X-141143Y-563377D1*
X-140919Y-564362D1*
X-140695Y-565346D1*
X-140412Y-566330D1*
X-140106Y-567314D1*
X-139802Y-568299D1*
X-139469Y-569283D1*
X-139139Y-570267D1*
X-138825Y-571251D1*
X-138491Y-572236D1*
X-138192Y-573220D1*
X-137987Y-574204D1*
X-137833Y-575188D1*
X-129959Y-545661D2*
Y-546645D1*
Y-547629D1*
Y-548614D1*
Y-549598D1*
Y-550582D1*
Y-551566D1*
Y-552551D1*
Y-553535D1*
X-117164Y-545661D2*
X-118902Y-546645D1*
X-120335Y-547629D1*
X-121409Y-548614D1*
X-122263Y-549598D1*
X-122981Y-550582D1*
X-123505Y-551566D1*
X-123827Y-552551D1*
X-124054Y-553535D1*
X-111259Y-545661D2*
X-109369Y-546645D1*
X-107854Y-547629D1*
X-106713Y-548614D1*
X-105876Y-549598D1*
X-105257Y-550582D1*
X-104821Y-551566D1*
X-104538Y-552551D1*
X-104291Y-553535D1*
X-104003Y-554519D1*
X-103729Y-555503D1*
X-103549Y-556488D1*
X-103455Y-557472D1*
X-103413Y-558456D1*
X-103395Y-559440D1*
X-103388Y-560425D1*
X-103386Y-561409D1*
X-103389Y-562393D1*
X-103423Y-563377D1*
X-103548Y-564362D1*
X-103784Y-565346D1*
X-104040Y-566330D1*
X-104247Y-567314D1*
X-104467Y-568299D1*
X-104783Y-569283D1*
X-105217Y-570267D1*
X-105802Y-571251D1*
X-106623Y-572236D1*
X-107793Y-573220D1*
X-109396Y-574204D1*
X-111259Y-575188D1*
X-141770Y-548614D2*
X-141618Y-549598D1*
X-141370Y-550582D1*
X-141081Y-551566D1*
X-140783Y-552551D1*
X-140452Y-553535D1*
X-140123Y-554519D1*
X-139809Y-555503D1*
X-139475Y-556488D1*
X-139175Y-557472D1*
X-138951Y-558456D1*
X-138727Y-559440D1*
X-138443Y-560425D1*
X-138138Y-561409D1*
X-137834Y-562393D1*
X-137501Y-563377D1*
X-137171Y-564362D1*
X-136856Y-565346D1*
X-136523Y-566330D1*
X-136222Y-567314D1*
X-135998Y-568299D1*
X-135774Y-569283D1*
X-135490Y-570267D1*
X-135185Y-571251D1*
X-134880Y-572236D1*
X-134542Y-573220D1*
X-134205Y-574204D1*
X-133896Y-575188D1*
X-132912Y-548614D2*
Y-549598D1*
Y-550582D1*
Y-551566D1*
Y-552551D1*
Y-553535D1*
X-114211Y-548614D2*
X-115983Y-549598D1*
X-117505Y-550582D1*
X-118668Y-551566D1*
X-119483Y-552551D1*
X-120117Y-553535D1*
X-114211Y-548614D2*
X-112440Y-549598D1*
X-110915Y-550582D1*
X-109730Y-551566D1*
X-108860Y-552551D1*
X-108223Y-553535D1*
X-107783Y-554519D1*
X-107531Y-555503D1*
X-107409Y-556488D1*
X-107355Y-557472D1*
X-107334Y-558456D1*
X-107326Y-559440D1*
X-107323Y-560425D1*
X-107322Y-561409D1*
Y-562393D1*
X-107325Y-563377D1*
X-107360Y-564362D1*
X-107489Y-565346D1*
X-107763Y-566330D1*
X-108184Y-567314D1*
X-108805Y-568299D1*
X-109627Y-569283D1*
X-111492Y-570267D1*
X-114098Y-571251D1*
X-117164Y-572236D1*
X-124054Y-567314D2*
X-123864Y-568299D1*
X-123490Y-569283D1*
X-122957Y-570267D1*
X-122330Y-571251D1*
X-121504Y-572236D1*
X-120323Y-573220D1*
X-118817Y-574204D1*
X-117164Y-575188D1*
X-120117Y-567314D2*
X-119534Y-568299D1*
X-118758Y-569283D1*
X-116913Y-570267D1*
X-114317Y-571251D1*
X-111259Y-572236D1*
X324867Y-411634D2*
X323130Y-412618D1*
X321700Y-413602D1*
X320657Y-414587D1*
X319894Y-415571D1*
X319287Y-416555D1*
X318782Y-417539D1*
X318401Y-418524D1*
X318173Y-419508D1*
X318060Y-420492D1*
X318010Y-421476D1*
X317990Y-422461D1*
X317982Y-423445D1*
X317979Y-424429D1*
X317978Y-425413D1*
Y-426398D1*
Y-427382D1*
Y-428366D1*
Y-429350D1*
Y-430335D1*
X317982Y-431319D1*
X318016Y-432303D1*
X318145Y-433287D1*
X318416Y-434272D1*
X318797Y-435256D1*
X319247Y-436240D1*
X319793Y-437224D1*
X320570Y-438209D1*
X321725Y-439193D1*
X323221Y-440177D1*
X324867Y-441161D1*
X338647Y-411634D2*
Y-412618D1*
Y-413602D1*
Y-414587D1*
Y-415571D1*
Y-416555D1*
Y-417539D1*
Y-418524D1*
Y-419508D1*
Y-420492D1*
Y-421476D1*
Y-422461D1*
Y-423445D1*
Y-424429D1*
Y-425413D1*
Y-426398D1*
Y-427382D1*
Y-428366D1*
Y-429350D1*
Y-430335D1*
Y-431319D1*
Y-432303D1*
Y-433287D1*
Y-434272D1*
Y-435256D1*
Y-436240D1*
Y-437224D1*
Y-438209D1*
Y-439193D1*
Y-440177D1*
Y-441161D1*
X343568Y-411634D2*
X343905Y-412618D1*
X344202Y-413602D1*
X344423Y-414587D1*
X344645Y-415571D1*
X344924Y-416555D1*
X345198Y-417539D1*
X345411Y-418524D1*
X345630Y-419508D1*
X345908Y-420492D1*
X346182Y-421476D1*
X346395Y-422461D1*
X346614Y-423445D1*
X346893Y-424429D1*
X347166Y-425413D1*
X347379Y-426398D1*
X347598Y-427382D1*
X347877Y-428366D1*
X348151Y-429350D1*
X348364Y-430335D1*
X348583Y-431319D1*
X348861Y-432303D1*
X349131Y-433287D1*
X349313Y-434272D1*
X349442Y-435256D1*
X349610Y-436240D1*
X349863Y-437224D1*
X350122Y-438209D1*
X350297Y-439193D1*
X350394Y-440177D1*
X350458Y-441161D1*
X347505Y-411634D2*
X347543Y-412618D1*
X347669Y-413602D1*
X347905Y-414587D1*
X348161Y-415571D1*
X348367Y-416555D1*
X348584Y-417539D1*
X348862Y-418524D1*
X349135Y-419508D1*
X349348Y-420492D1*
X349567Y-421476D1*
X349845Y-422461D1*
X350115Y-423445D1*
X350297Y-424429D1*
X350426Y-425413D1*
X350594Y-426398D1*
X350847Y-427382D1*
X351110Y-428366D1*
X351319Y-429350D1*
X351540Y-430335D1*
X351856Y-431319D1*
X352280Y-432303D1*
X352810Y-433287D1*
X353411Y-434272D1*
X359316Y-411634D2*
X359279Y-412618D1*
X359153Y-413602D1*
X358913Y-414587D1*
X358626Y-415571D1*
X358329Y-416555D1*
X358002Y-417539D1*
X357704Y-418524D1*
X357480Y-419508D1*
X357257Y-420492D1*
X356977Y-421476D1*
X356703Y-422461D1*
X356490Y-423445D1*
X356270Y-424429D1*
X355992Y-425413D1*
X355718Y-426398D1*
X355505Y-427382D1*
X355286Y-428366D1*
X355008Y-429350D1*
X354734Y-430335D1*
X354518Y-431319D1*
X354272Y-432303D1*
X353891Y-433287D1*
X353411Y-434272D1*
X362269Y-411634D2*
X362421Y-412618D1*
X362665Y-413602D1*
X362924Y-414587D1*
X363131Y-415571D1*
X363348Y-416555D1*
X363625Y-417539D1*
X363899Y-418524D1*
X364112Y-419508D1*
X364331Y-420492D1*
X364609Y-421476D1*
X364883Y-422461D1*
X365096Y-423445D1*
X365315Y-424429D1*
X365593Y-425413D1*
X365867Y-426398D1*
X366080Y-427382D1*
X366299Y-428366D1*
X366585Y-429350D1*
X366930Y-430335D1*
X367414Y-431319D1*
X368185Y-432303D1*
X369159Y-433287D1*
X374080Y-411634D2*
X374043Y-412618D1*
X373916Y-413602D1*
X373681Y-414587D1*
X373424Y-415571D1*
X373218Y-416555D1*
X373001Y-417539D1*
X372724Y-418524D1*
X372454Y-419508D1*
X372272Y-420492D1*
X372144Y-421476D1*
X371976Y-422461D1*
X371722Y-423445D1*
X371459Y-424429D1*
X371251Y-425413D1*
X371033Y-426398D1*
X370755Y-427382D1*
X370486Y-428366D1*
X370300Y-429350D1*
X370131Y-430335D1*
X369899Y-431319D1*
X369122Y-432303D1*
X368175Y-433287D1*
X378017Y-411634D2*
X377681Y-412618D1*
X377388Y-413602D1*
X377197Y-414587D1*
X377066Y-415571D1*
X376897Y-416555D1*
X376644Y-417539D1*
X376381Y-418524D1*
X376172Y-419508D1*
X375954Y-420492D1*
X375677Y-421476D1*
X375403Y-422461D1*
X375190Y-423445D1*
X374971Y-424429D1*
X374693Y-425413D1*
X374419Y-426398D1*
X374206Y-427382D1*
X373987Y-428366D1*
X373708Y-429350D1*
X373435Y-430335D1*
X373222Y-431319D1*
X373003Y-432303D1*
X372724Y-433287D1*
X372450Y-434272D1*
X372237Y-435256D1*
X372018Y-436240D1*
X371740Y-437224D1*
X371470Y-438209D1*
X371291Y-439193D1*
X371192Y-440177D1*
X371127Y-441161D1*
X387860Y-411634D2*
X386130Y-412618D1*
X384585Y-413602D1*
X383787Y-414587D1*
X383675Y-415571D1*
X383923Y-416555D1*
X395734Y-411634D2*
X397471Y-412618D1*
X398901Y-413602D1*
X399941Y-414587D1*
X400668Y-415571D1*
X401151Y-416555D1*
X401419Y-417539D1*
X401548Y-418524D1*
X401604Y-419508D1*
X401622Y-420492D1*
X401592Y-421476D1*
X401431Y-422461D1*
X401029Y-423445D1*
X400327Y-424429D1*
X399228Y-425413D1*
X397468Y-426398D1*
X394910Y-427382D1*
X391956Y-428366D1*
X389334Y-429350D1*
X387455Y-430335D1*
X386089Y-431319D1*
X385537Y-432303D1*
X385501Y-433287D1*
X385822Y-434272D1*
X386645Y-435256D1*
X389177Y-436240D1*
X393034Y-437224D1*
X397702Y-438209D1*
X327820Y-414587D2*
X326049Y-415571D1*
X324528Y-416555D1*
X323378Y-417539D1*
X322504Y-418524D1*
X322199Y-419508D1*
X322035Y-420492D1*
X321962Y-421476D1*
X321932Y-422461D1*
X321921Y-423445D1*
X321917Y-424429D1*
X321915Y-425413D1*
Y-426398D1*
Y-427382D1*
Y-428366D1*
Y-429350D1*
Y-430335D1*
X321919Y-431319D1*
X321957Y-432303D1*
X322125Y-433287D1*
X322443Y-434272D1*
X323363Y-435256D1*
X326059Y-436240D1*
X330357Y-437224D1*
X335694Y-438209D1*
X334710Y-414587D2*
Y-415571D1*
Y-416555D1*
Y-417539D1*
Y-418524D1*
Y-419508D1*
Y-420492D1*
Y-421476D1*
Y-422461D1*
Y-423445D1*
Y-424429D1*
Y-425413D1*
Y-426398D1*
Y-427382D1*
Y-428366D1*
Y-429350D1*
Y-430335D1*
Y-431319D1*
Y-432303D1*
Y-433287D1*
Y-434272D1*
Y-435256D1*
Y-436240D1*
Y-437224D1*
X326836Y-438209D1*
X391797Y-414587D2*
X388844Y-415571D1*
X385891Y-416555D1*
X392781Y-414587D2*
X394552Y-415571D1*
X396073Y-416555D1*
X397220Y-417539D1*
X398082Y-418524D1*
X398335Y-419508D1*
X398192Y-420492D1*
X397680Y-421476D1*
X396239Y-422461D1*
X393975Y-423445D1*
X391107Y-424429D1*
X388327Y-425413D1*
X386143Y-426398D1*
X384617Y-427382D1*
X383593Y-428366D1*
X382893Y-429350D1*
X382428Y-430335D1*
X382168Y-431319D1*
X382043Y-432303D1*
X381992Y-433287D1*
X382009Y-434272D1*
X382165Y-435256D1*
X382561Y-436240D1*
X383220Y-437224D1*
X384118Y-438209D1*
X385337Y-439193D1*
X386966Y-440177D1*
X388844Y-441161D1*
X359316Y-421476D2*
X359312Y-422461D1*
X359278Y-423445D1*
X359152Y-424429D1*
X358917Y-425413D1*
X358660Y-426398D1*
X358454Y-427382D1*
X358237Y-428366D1*
X357956Y-429350D1*
X357652Y-430335D1*
X357348Y-431319D1*
X357019Y-432303D1*
X356720Y-433287D1*
X356496Y-434272D1*
X356273Y-435256D1*
X355993Y-436240D1*
X355718Y-437224D1*
X355502Y-438209D1*
X355256Y-439193D1*
X354875Y-440177D1*
X354395Y-441161D1*
X360301Y-421476D2*
X361095Y-422461D1*
X361705Y-423445D1*
X362160Y-424429D1*
X362556Y-425413D1*
X362881Y-426398D1*
X363115Y-427382D1*
X363342Y-428366D1*
X363623Y-429350D1*
X363898Y-430335D1*
X364111Y-431319D1*
X364331Y-432303D1*
X364613Y-433287D1*
X364917Y-434272D1*
X365221Y-435256D1*
X365551Y-436240D1*
X365850Y-437224D1*
X366076Y-438209D1*
X366327Y-439193D1*
X366709Y-440177D1*
X367190Y-441161D1*
X400655Y-435256D2*
X397255Y-436240D1*
X392880Y-437224D1*
X387860Y-438209D1*
X401639Y-435256D2*
X402165Y-436240D1*
X402845Y-437224D1*
X403608Y-438209D1*
X401458Y-439193D1*
X399144Y-440177D1*
X396718Y-441161D1*
X130110Y562354D2*
X130484Y561370D1*
X130907Y560386D1*
X131364Y559402D1*
X131842Y558417D1*
X132328Y557433D1*
X132819Y556449D1*
X133309Y555465D1*
X133802Y554480D1*
X134293Y553496D1*
X134786Y552512D1*
X135277Y551528D1*
X135766Y550543D1*
X136227Y549559D1*
X136625Y548575D1*
X136975Y547591D1*
X137357Y546606D1*
X137788Y545622D1*
X138253Y544638D1*
X138759Y543654D1*
X139328Y542669D1*
X139953Y541685D1*
X132079Y540701D1*
X134047Y562354D2*
X134421Y561370D1*
X134844Y560386D1*
X135301Y559402D1*
X135775Y558417D1*
X136230Y557433D1*
X136626Y556449D1*
X136976Y555465D1*
X137357Y554480D1*
X137788Y553496D1*
X138250Y552512D1*
X138730Y551528D1*
X139217Y550543D1*
X139708Y549559D1*
X140199Y548575D1*
X140691Y547591D1*
X141183Y546606D1*
X141676Y545622D1*
X142167Y544638D1*
X142656Y543654D1*
X143113Y542669D1*
X143476Y541685D1*
X143697Y540701D1*
X143809Y539717D1*
X143860Y538732D1*
X143890Y537748D1*
X156685Y562354D2*
X155250Y561370D1*
X154022Y560386D1*
X153055Y559402D1*
X152372Y558417D1*
X151888Y557433D1*
X151482Y556449D1*
X151161Y555465D1*
X150995Y554480D1*
X151019Y553496D1*
X151213Y552512D1*
X151485Y551528D1*
X151813Y550543D1*
X152305Y549559D1*
X153029Y548575D1*
X153953Y547591D1*
X154911Y546606D1*
X155754Y545622D1*
X155957Y544638D1*
X155686Y543654D1*
X155232Y542669D1*
X154656Y541685D1*
X154076Y540701D1*
X153532Y539717D1*
X153012Y538732D1*
X152509Y537748D1*
X152012Y536764D1*
X151516Y535780D1*
X150997Y534795D1*
X150422Y533811D1*
X149795Y532827D1*
X171449Y562354D2*
Y561370D1*
Y560386D1*
Y559402D1*
Y558417D1*
Y557433D1*
Y556449D1*
Y555465D1*
Y554480D1*
Y553496D1*
Y552512D1*
Y551528D1*
Y550543D1*
Y549559D1*
Y548575D1*
Y547591D1*
Y546606D1*
Y545622D1*
Y544638D1*
Y543654D1*
Y542669D1*
Y541685D1*
Y540701D1*
Y539717D1*
Y538732D1*
Y537748D1*
Y536764D1*
Y535780D1*
Y534795D1*
Y533811D1*
Y532827D1*
X159638Y559402D2*
X158019Y558417D1*
X156741Y557433D1*
X155846Y556449D1*
X155175Y555465D1*
X154977Y554480D1*
X154903Y553496D1*
X155149Y552512D1*
X155809Y551528D1*
X158402Y550543D1*
X162849Y549559D1*
X168496Y548575D1*
X167512Y559402D2*
Y558417D1*
Y557433D1*
Y556449D1*
Y555465D1*
Y554480D1*
Y553496D1*
Y552512D1*
Y551528D1*
Y550543D1*
Y549559D1*
X158654Y548575D1*
X127157Y550543D2*
Y549559D1*
Y548575D1*
Y547591D1*
Y546606D1*
Y545622D1*
X127150Y544638D1*
X127081Y543654D1*
X126919Y542669D1*
X126381Y541685D1*
X125859Y540701D1*
X125512Y539717D1*
X125328Y538732D1*
X125240Y537748D1*
X125189Y536764D1*
X127157D1*
Y535780D1*
Y534795D1*
Y533811D1*
Y532827D1*
X130110Y550543D2*
Y549559D1*
Y548575D1*
Y547591D1*
Y546606D1*
Y545622D1*
Y544638D1*
Y543654D1*
Y542669D1*
Y541685D1*
X138969Y540701D1*
X161606Y545622D2*
X160778Y544638D1*
X160072Y543654D1*
X159472Y542669D1*
X158931Y541685D1*
X158420Y540701D1*
X157919Y539717D1*
X157425Y538732D1*
X156931Y537748D1*
X156440Y536764D1*
X155950Y535780D1*
X155484Y534795D1*
X155074Y533811D1*
X154717Y532827D1*
X167512Y545622D2*
Y544638D1*
Y543654D1*
Y542669D1*
Y541685D1*
Y540701D1*
Y539717D1*
Y538732D1*
Y537748D1*
Y536764D1*
Y535780D1*
Y534795D1*
Y533811D1*
Y532827D1*
X130110Y537748D2*
Y536764D1*
Y535780D1*
Y534795D1*
Y533811D1*
Y532827D1*
X-174349Y557034D2*
Y556050D1*
Y555066D1*
Y554081D1*
Y553097D1*
X-163522D1*
Y552113D1*
Y551129D1*
X-163526Y550144D1*
X-163564Y549160D1*
X-163716Y548176D1*
X-164052Y547192D1*
X-164507Y546207D1*
X-159585Y557034D2*
Y556050D1*
Y555066D1*
Y554081D1*
Y553097D1*
Y552113D1*
Y551129D1*
Y550144D1*
Y549160D1*
Y548176D1*
Y547192D1*
Y546207D1*
Y545223D1*
Y544239D1*
Y543255D1*
Y542270D1*
Y541286D1*
X-145806Y557034D2*
X-147241Y556050D1*
X-148469Y555066D1*
X-149436Y554081D1*
X-150119Y553097D1*
X-150602Y552113D1*
X-151008Y551129D1*
X-151330Y550144D1*
X-151496Y549160D1*
X-151472Y548176D1*
X-151278Y547192D1*
X-151006Y546207D1*
X-150678Y545223D1*
X-150185Y544239D1*
X-149462Y543255D1*
X-148538Y542270D1*
X-147579Y541286D1*
X-146737Y540302D1*
X-146534Y539318D1*
X-146805Y538333D1*
X-147258Y537349D1*
X-147835Y536365D1*
X-148414Y535381D1*
X-148959Y534396D1*
X-149479Y533412D1*
X-149981Y532428D1*
X-150479Y531444D1*
X-150975Y530459D1*
X-151494Y529475D1*
X-152068Y528491D1*
X-152696Y527507D1*
X-131042Y557034D2*
Y556050D1*
Y555066D1*
Y554081D1*
Y553097D1*
Y552113D1*
Y551129D1*
Y550144D1*
Y549160D1*
Y548176D1*
Y547192D1*
Y546207D1*
Y545223D1*
Y544239D1*
Y543255D1*
Y542270D1*
Y541286D1*
Y540302D1*
Y539318D1*
Y538333D1*
Y537349D1*
Y536365D1*
Y535381D1*
Y534396D1*
Y533412D1*
Y532428D1*
Y531444D1*
Y530459D1*
Y529475D1*
Y528491D1*
Y527507D1*
X-142853Y554081D2*
X-144472Y553097D1*
X-145750Y552113D1*
X-146645Y551129D1*
X-147316Y550144D1*
X-147514Y549160D1*
X-147588Y548176D1*
X-147342Y547192D1*
X-146682Y546207D1*
X-144089Y545223D1*
X-139642Y544239D1*
X-133995Y543255D1*
X-134979Y554081D2*
Y553097D1*
Y552113D1*
Y551129D1*
Y550144D1*
Y549160D1*
Y548176D1*
Y547192D1*
Y546207D1*
Y545223D1*
Y544239D1*
X-143837Y543255D1*
X-170412Y547192D2*
X-171813Y546207D1*
X-172950Y545223D1*
X-173803Y544239D1*
X-174434Y543255D1*
X-174873Y542270D1*
X-175124Y541286D1*
X-175246Y540302D1*
X-175300Y539318D1*
X-175321Y538333D1*
X-175329Y537349D1*
X-175332Y536365D1*
X-175329Y535381D1*
X-175295Y534396D1*
X-175166Y533412D1*
X-174891Y532428D1*
X-174471Y531444D1*
X-173863Y530459D1*
X-172968Y529475D1*
X-171772Y528491D1*
X-170412Y527507D1*
X-165491Y547192D2*
X-164507Y546207D1*
X-168444Y544239D2*
X-169390Y543255D1*
X-170245Y542270D1*
X-170954Y541286D1*
X-171522Y540302D1*
X-171935Y539318D1*
X-172173Y538333D1*
X-172257Y537349D1*
X-172180Y536365D1*
X-171926Y535381D1*
X-171507Y534396D1*
X-170967Y533412D1*
X-169663Y532428D1*
X-167768Y531444D1*
X-165491Y530459D1*
X-167459Y544239D2*
X-165672Y543255D1*
X-164049Y542270D1*
X-162538Y541286D1*
X-140885Y540302D2*
X-141713Y539318D1*
X-142418Y538333D1*
X-143019Y537349D1*
X-143560Y536365D1*
X-144071Y535381D1*
X-144572Y534396D1*
X-145066Y533412D1*
X-145560Y532428D1*
X-146051Y531444D1*
X-146541Y530459D1*
X-147007Y529475D1*
X-147417Y528491D1*
X-147774Y527507D1*
X-134979Y540302D2*
Y539318D1*
Y538333D1*
Y537349D1*
Y536365D1*
Y535381D1*
Y534396D1*
Y533412D1*
Y532428D1*
Y531444D1*
Y530459D1*
Y529475D1*
Y528491D1*
Y527507D1*
X-162538Y534396D2*
X-163186Y533412D1*
X-164897Y532428D1*
X-167410Y531444D1*
X-170412Y530459D1*
X-159585Y534396D2*
X-159741Y533412D1*
X-160024Y532428D1*
X-160446Y531444D1*
X-161056Y530459D1*
X-161950Y529475D1*
X-163146Y528491D1*
X-164507Y527507D1*
X-222526Y366853D2*
X-222522Y365869D1*
X-222488Y364885D1*
X-222362Y363900D1*
X-222123Y362916D1*
X-221836Y361932D1*
X-221539Y360948D1*
X-221212Y359963D1*
X-220914Y358979D1*
X-220690Y357995D1*
X-220467Y357010D1*
X-220183Y356026D1*
X-219878Y355042D1*
X-219574Y354058D1*
X-219241Y353073D1*
X-218911Y352089D1*
X-218596Y351105D1*
X-218263Y350121D1*
X-217962Y349136D1*
X-217738Y348152D1*
X-217514Y347168D1*
X-217230Y346184D1*
X-216925Y345199D1*
X-216621Y344215D1*
X-216288Y343231D1*
X-215958Y342247D1*
X-215644Y341262D1*
X-215310Y340278D1*
X-215011Y339294D1*
X-214805Y338310D1*
X-214652Y337325D1*
X-206778Y366853D2*
Y365869D1*
Y364885D1*
Y363900D1*
Y362916D1*
Y361932D1*
Y360948D1*
Y359963D1*
Y358979D1*
X-193983Y366853D2*
X-195418Y365869D1*
X-196646Y364885D1*
X-197613Y363900D1*
X-198296Y362916D1*
X-198780Y361932D1*
X-199186Y360948D1*
X-199507Y359963D1*
X-199673Y358979D1*
X-199649Y357995D1*
X-199455Y357010D1*
X-199183Y356026D1*
X-198855Y355042D1*
X-198363Y354058D1*
X-197639Y353073D1*
X-196715Y352089D1*
X-195757Y351105D1*
X-194914Y350121D1*
X-194711Y349136D1*
X-194982Y348152D1*
X-195436Y347168D1*
X-196012Y346184D1*
X-196592Y345199D1*
X-197136Y344215D1*
X-197656Y343231D1*
X-198159Y342247D1*
X-198656Y341262D1*
X-199152Y340278D1*
X-199671Y339294D1*
X-200246Y338310D1*
X-200873Y337325D1*
X-179219Y366853D2*
Y365869D1*
Y364885D1*
Y363900D1*
Y362916D1*
Y361932D1*
Y360948D1*
Y359963D1*
Y358979D1*
Y357995D1*
Y357010D1*
Y356026D1*
Y355042D1*
Y354058D1*
Y353073D1*
Y352089D1*
Y351105D1*
Y350121D1*
Y349136D1*
Y348152D1*
Y347168D1*
Y346184D1*
Y345199D1*
Y344215D1*
Y343231D1*
Y342247D1*
Y341262D1*
Y340278D1*
Y339294D1*
Y338310D1*
Y337325D1*
X-218589Y363900D2*
X-218437Y362916D1*
X-218189Y361932D1*
X-217900Y360948D1*
X-217602Y359963D1*
X-217271Y358979D1*
X-216942Y357995D1*
X-216628Y357010D1*
X-216294Y356026D1*
X-215994Y355042D1*
X-215769Y354058D1*
X-215546Y353073D1*
X-215262Y352089D1*
X-214957Y351105D1*
X-214653Y350121D1*
X-214319Y349136D1*
X-213990Y348152D1*
X-213675Y347168D1*
X-213341Y346184D1*
X-213041Y345199D1*
X-212817Y344215D1*
X-212593Y343231D1*
X-212309Y342247D1*
X-212004Y341262D1*
X-211699Y340278D1*
X-211361Y339294D1*
X-211024Y338310D1*
X-210715Y337325D1*
X-209731Y363900D2*
Y362916D1*
Y361932D1*
Y360948D1*
Y359963D1*
Y358979D1*
X-191030Y363900D2*
X-192649Y362916D1*
X-193927Y361932D1*
X-194822Y360948D1*
X-195493Y359963D1*
X-195691Y358979D1*
X-195765Y357995D1*
X-195519Y357010D1*
X-194859Y356026D1*
X-192266Y355042D1*
X-187819Y354058D1*
X-182172Y353073D1*
X-183156Y363900D2*
Y362916D1*
Y361932D1*
Y360948D1*
Y359963D1*
Y358979D1*
Y357995D1*
Y357010D1*
Y356026D1*
Y355042D1*
Y354058D1*
X-192014Y353073D1*
X-189062Y350121D2*
X-189890Y349136D1*
X-190596Y348152D1*
X-191196Y347168D1*
X-191737Y346184D1*
X-192248Y345199D1*
X-192749Y344215D1*
X-193243Y343231D1*
X-193737Y342247D1*
X-194228Y341262D1*
X-194718Y340278D1*
X-195184Y339294D1*
X-195594Y338310D1*
X-195951Y337325D1*
X-183156Y350121D2*
Y349136D1*
Y348152D1*
Y347168D1*
Y346184D1*
Y345199D1*
Y344215D1*
Y343231D1*
Y342247D1*
Y341262D1*
Y340278D1*
Y339294D1*
Y338310D1*
Y337325D1*
X189209Y371966D2*
X189583Y370982D1*
X190006Y369997D1*
X190463Y369013D1*
X190941Y368029D1*
X191426Y367045D1*
X191917Y366060D1*
X192407Y365076D1*
X192897Y364092D1*
X193363Y363108D1*
X193773Y362123D1*
X194130Y361139D1*
X191328Y360155D1*
X189217Y359171D1*
X187699Y358186D1*
X186625Y357202D1*
X185819Y356218D1*
X185537Y355234D1*
X185384Y354249D1*
X185316Y353265D1*
X185288Y352281D1*
X185277Y351297D1*
Y350312D1*
X185311Y349328D1*
X185440Y348344D1*
X185714Y347360D1*
X186134Y346375D1*
X186742Y345391D1*
X187637Y344407D1*
X188833Y343423D1*
X190193Y342438D1*
X192161Y371966D2*
X192990Y370982D1*
X193695Y369997D1*
X194295Y369013D1*
X194837Y368029D1*
X195348Y367045D1*
X195849Y366060D1*
X196343Y365076D1*
X196837Y364092D1*
X197328Y363108D1*
X197821Y362123D1*
X198313Y361139D1*
X198802Y360155D1*
X199262Y359171D1*
X199660Y358186D1*
X200007Y357202D1*
X200354Y356218D1*
X200656Y355234D1*
X200847Y354249D1*
X200946Y353265D1*
X200991Y352281D1*
X201009Y351297D1*
X201012Y350312D1*
X200980Y349328D1*
X200852Y348344D1*
X200578Y347360D1*
X200158Y346375D1*
X199549Y345391D1*
X198654Y344407D1*
X197459Y343423D1*
X196098Y342438D1*
X213815Y371966D2*
X212380Y370982D1*
X211152Y369997D1*
X210184Y369013D1*
X209502Y368029D1*
X209018Y367045D1*
X208612Y366060D1*
X208291Y365076D1*
X208125Y364092D1*
X208148Y363108D1*
X208342Y362123D1*
X208615Y361139D1*
X208943Y360155D1*
X209435Y359171D1*
X210159Y358186D1*
X211083Y357202D1*
X212041Y356218D1*
X212884Y355234D1*
X213087Y354249D1*
X212816Y353265D1*
X212362Y352281D1*
X211786Y351297D1*
X211206Y350312D1*
X210661Y349328D1*
X210142Y348344D1*
X209639Y347360D1*
X209142Y346375D1*
X208646Y345391D1*
X208127Y344407D1*
X207552Y343423D1*
X206925Y342438D1*
X228579Y371966D2*
Y370982D1*
Y369997D1*
Y369013D1*
Y368029D1*
Y367045D1*
Y366060D1*
Y365076D1*
Y364092D1*
Y363108D1*
Y362123D1*
Y361139D1*
Y360155D1*
Y359171D1*
Y358186D1*
Y357202D1*
Y356218D1*
Y355234D1*
Y354249D1*
Y353265D1*
Y352281D1*
Y351297D1*
Y350312D1*
Y349328D1*
Y348344D1*
Y347360D1*
Y346375D1*
Y345391D1*
Y344407D1*
Y343423D1*
Y342438D1*
X216768Y369013D2*
X215149Y368029D1*
X213871Y367045D1*
X212976Y366060D1*
X212305Y365076D1*
X212107Y364092D1*
X212033Y363108D1*
X212279Y362123D1*
X212939Y361139D1*
X215531Y360155D1*
X219979Y359171D1*
X225626Y358186D1*
X224642Y369013D2*
Y368029D1*
Y367045D1*
Y366060D1*
Y365076D1*
Y364092D1*
Y363108D1*
Y362123D1*
Y361139D1*
Y360155D1*
Y359171D1*
X215783Y358186D1*
X193146Y357202D2*
X191527Y356218D1*
X190249Y355234D1*
X189354Y354249D1*
X188683Y353265D1*
X188451Y352281D1*
X188358Y351297D1*
X188433Y350312D1*
X188642Y349328D1*
X189219Y348344D1*
X190785Y347360D1*
X193186Y346375D1*
X196098Y345391D1*
X194130Y357202D2*
X195077Y356218D1*
X195931Y355234D1*
X196641Y354249D1*
X197205Y353265D1*
X197583Y352281D1*
X197791Y351297D1*
X197564Y350312D1*
X197170Y349328D1*
X196647Y348344D1*
X195347Y347360D1*
X193454Y346375D1*
X191177Y345391D1*
X218736Y355234D2*
X217908Y354249D1*
X217202Y353265D1*
X216602Y352281D1*
X216061Y351297D1*
X215549Y350312D1*
X215049Y349328D1*
X214555Y348344D1*
X214061Y347360D1*
X213569Y346375D1*
X213080Y345391D1*
X212614Y344407D1*
X212204Y343423D1*
X211846Y342438D1*
X224642Y355234D2*
Y354249D1*
Y353265D1*
Y352281D1*
Y351297D1*
Y350312D1*
Y349328D1*
Y348344D1*
Y347360D1*
Y346375D1*
Y345391D1*
Y344407D1*
Y343423D1*
Y342438D1*
X-34430Y478643D2*
X-36167Y477659D1*
X-37438Y476675D1*
X-38325Y475690D1*
X-38989Y474706D1*
X-39517Y473722D1*
X-39904Y472738D1*
X-40100Y471753D1*
X-40085Y470769D1*
X-39862Y469785D1*
X-39466Y468801D1*
X-38906Y467816D1*
X-38208Y466832D1*
X-37546Y465848D1*
X-37026Y464864D1*
X-37112Y463879D1*
X-37723Y462895D1*
X-38470Y461911D1*
X-39202Y460927D1*
X-39751Y459942D1*
X-40070Y458958D1*
X-40226Y457974D1*
X-40289Y456990D1*
X-40282Y456005D1*
X-40163Y455021D1*
X-39892Y454037D1*
X-39473Y453052D1*
X-38865Y452068D1*
X-37971Y451084D1*
X-36775Y450100D1*
X-35415Y449115D1*
X-19667Y478643D2*
Y477659D1*
Y476675D1*
Y475690D1*
Y474706D1*
Y473722D1*
Y472738D1*
Y471753D1*
Y470769D1*
Y469785D1*
Y468801D1*
Y467816D1*
Y466832D1*
Y465848D1*
Y464864D1*
Y463879D1*
Y462895D1*
Y461911D1*
Y460927D1*
Y459942D1*
Y458958D1*
Y457974D1*
Y456990D1*
Y456005D1*
Y455021D1*
Y454037D1*
Y453052D1*
Y452068D1*
Y451084D1*
Y450100D1*
Y449115D1*
X-4903Y478643D2*
X-6640Y477659D1*
X-8074Y476675D1*
X-9148Y475690D1*
X-10002Y474706D1*
X-10720Y473722D1*
X-11244Y472738D1*
X-11566Y471753D1*
X-11793Y470769D1*
X1003Y478643D2*
X2774Y477659D1*
X4299Y476675D1*
X5484Y475690D1*
X6354Y474706D1*
X6991Y473722D1*
X7435Y472738D1*
X7721Y471753D1*
X7969Y470769D1*
X8258Y469785D1*
X8532Y468801D1*
X8712Y467816D1*
X8806Y466832D1*
X8849Y465848D1*
X8866Y464864D1*
X8873Y463879D1*
X8875Y462895D1*
X8872Y461911D1*
X8838Y460927D1*
X8713Y459942D1*
X8477Y458958D1*
X8221Y457974D1*
X8015Y456990D1*
X7794Y456005D1*
X7478Y455021D1*
X7045Y454037D1*
X6459Y453052D1*
X5638Y452068D1*
X4468Y451084D1*
X2865Y450100D1*
X1003Y449115D1*
X21672Y478643D2*
X20237Y477659D1*
X19009Y476675D1*
X18041Y475690D1*
X17359Y474706D1*
X16875Y473722D1*
X16469Y472738D1*
X16148Y471753D1*
X15982Y470769D1*
X16005Y469785D1*
X16199Y468801D1*
X16472Y467816D1*
X16800Y466832D1*
X17292Y465848D1*
X18016Y464864D1*
X18940Y463879D1*
X19898Y462895D1*
X20740Y461911D1*
X20944Y460927D1*
X20673Y459942D1*
X20219Y458958D1*
X19643Y457974D1*
X19063Y456990D1*
X18518Y456005D1*
X17999Y455021D1*
X17496Y454037D1*
X16999Y453052D1*
X16503Y452068D1*
X15984Y451084D1*
X15409Y450100D1*
X14782Y449115D1*
X36436Y478643D2*
Y477659D1*
Y476675D1*
Y475690D1*
Y474706D1*
Y473722D1*
Y472738D1*
Y471753D1*
Y470769D1*
Y469785D1*
Y468801D1*
Y467816D1*
Y466832D1*
Y465848D1*
Y464864D1*
Y463879D1*
Y462895D1*
Y461911D1*
Y460927D1*
Y459942D1*
Y458958D1*
Y457974D1*
Y456990D1*
Y456005D1*
Y455021D1*
Y454037D1*
Y453052D1*
Y452068D1*
Y451084D1*
Y450100D1*
Y449115D1*
X-33446Y475690D2*
X-34389Y474706D1*
X-35209Y473722D1*
X-35793Y472738D1*
X-36122Y471753D1*
X-36244Y470769D1*
X-36238Y469785D1*
X-35723Y468801D1*
X-33292Y467816D1*
X-29048Y466832D1*
X-23604Y465848D1*
Y475690D2*
Y474706D1*
Y473722D1*
Y472738D1*
Y471753D1*
Y470769D1*
Y469785D1*
Y468801D1*
Y467816D1*
Y466832D1*
X-33446Y465848D1*
X-1950Y475690D2*
X-3721Y474706D1*
X-5244Y473722D1*
X-6407Y472738D1*
X-7222Y471753D1*
X-7856Y470769D1*
X-1950Y475690D2*
X-179Y474706D1*
X1346Y473722D1*
X2531Y472738D1*
X3401Y471753D1*
X4038Y470769D1*
X4479Y469785D1*
X4730Y468801D1*
X4852Y467816D1*
X4906Y466832D1*
X4927Y465848D1*
X4935Y464864D1*
X4938Y463879D1*
X4939Y462895D1*
Y461911D1*
X4940Y460927D1*
X4936Y459942D1*
X4901Y458958D1*
X4772Y457974D1*
X4490Y456990D1*
X4097Y456005D1*
X3257Y455021D1*
X1054Y454037D1*
X-2127Y453052D1*
X-5887Y452068D1*
X24625Y475690D2*
X23006Y474706D1*
X21728Y473722D1*
X20833Y472738D1*
X20162Y471753D1*
X19964Y470769D1*
X19890Y469785D1*
X20136Y468801D1*
X20796Y467816D1*
X23388Y466832D1*
X27836Y465848D1*
X33483Y464864D1*
X32499Y475690D2*
Y474706D1*
Y473722D1*
Y472738D1*
Y471753D1*
Y470769D1*
Y469785D1*
Y468801D1*
Y467816D1*
Y466832D1*
Y465848D1*
X23640Y464864D1*
X-12777D2*
Y463879D1*
Y462895D1*
X-12773Y461911D1*
X-12738Y460927D1*
X-12613Y459942D1*
X-12377Y458958D1*
X-12121Y457974D1*
X-11915Y456990D1*
X-11694Y456005D1*
X-11378Y455021D1*
X-10945Y454037D1*
X-10359Y453052D1*
X-9539Y452068D1*
X-8368Y451084D1*
X-6765Y450100D1*
X-4903Y449115D1*
X-2934Y464864D2*
Y463879D1*
Y462895D1*
Y461911D1*
Y460927D1*
X-8840D1*
X-8836Y459942D1*
X-8798Y458958D1*
X-8638Y457974D1*
X-8265Y456990D1*
X-7650Y456005D1*
X-6859Y455021D1*
X-4773Y454037D1*
X-1691Y453052D1*
X1987Y452068D1*
X-33446Y462895D2*
X-34393Y461911D1*
X-35247Y460927D1*
X-35953Y459942D1*
X-36487Y458958D1*
X-36881Y457974D1*
X-36761Y456990D1*
X-36498Y456005D1*
X-35723Y455021D1*
X-32951Y454037D1*
X-28371Y453052D1*
X-22619Y452068D1*
X-23604Y462895D2*
Y461911D1*
Y460927D1*
Y459942D1*
Y458958D1*
Y457974D1*
Y456990D1*
Y456005D1*
Y455021D1*
Y454037D1*
Y453052D1*
X-32462Y452068D1*
X26593Y461911D2*
X25765Y460927D1*
X25059Y459942D1*
X24459Y458958D1*
X23918Y457974D1*
X23406Y456990D1*
X22906Y456005D1*
X22412Y455021D1*
X21918Y454037D1*
X21426Y453052D1*
X20936Y452068D1*
X20471Y451084D1*
X20061Y450100D1*
X19703Y449115D1*
X32499Y461911D2*
Y460927D1*
Y459942D1*
Y458958D1*
Y457974D1*
Y456990D1*
Y456005D1*
Y455021D1*
Y454037D1*
Y453052D1*
Y452068D1*
Y451084D1*
Y450100D1*
Y449115D1*
X-93209Y11782D2*
X-94491Y10798D1*
X-95480Y9814D1*
X-96223Y8829D1*
X-96824Y7845D1*
X-97322Y6861D1*
X-97669Y5877D1*
X-97859Y4892D1*
X-97666Y3908D1*
X-97413Y2924D1*
X-97128Y1940D1*
X-96769Y955D1*
X-96318Y-29D1*
X-95765Y-1013D1*
X-95140Y-1997D1*
X-94508Y-2982D1*
X-93832Y-3966D1*
X-93074Y-4950D1*
X-92315Y-5934D1*
X-91611Y-6919D1*
X-90901Y-7903D1*
X-90130Y-8887D1*
X-89365Y-9871D1*
X-88659Y-10856D1*
X-87945Y-11840D1*
X-87140Y-12824D1*
X-86254Y-13808D1*
X-85335Y-14793D1*
X-86319Y11782D2*
X-84918Y10798D1*
X-83781Y9814D1*
X-82928Y8829D1*
X-82296Y7845D1*
X-81855Y6861D1*
X-81587Y5877D1*
X-81398Y4892D1*
X-69587Y11782D2*
X-71021Y10798D1*
X-72250Y9814D1*
X-73213Y8829D1*
X-73969Y7845D1*
X-74246Y6861D1*
X-74396Y5877D1*
X-74460Y4892D1*
X-74453Y3908D1*
X-74334Y2924D1*
X-74060Y1940D1*
X-73608Y955D1*
X-72888Y-29D1*
X-71826Y-1013D1*
X-70571Y-1997D1*
X-71736Y-2982D1*
X-72734Y-3966D1*
X-73521Y-4950D1*
X-74155Y-5934D1*
X-74675Y-6919D1*
X-75064Y-7903D1*
X-75291Y-8887D1*
X-75371Y-9871D1*
X-75292Y-10856D1*
X-75042Y-11840D1*
X-74664Y-12824D1*
X-74183Y-13808D1*
X-73513Y-14793D1*
X-72507Y-15777D1*
X-71134Y-16761D1*
X-69587Y-17745D1*
X-63681Y11782D2*
X-62280Y10798D1*
X-61143Y9814D1*
X-60290Y8829D1*
X-59659Y7845D1*
X-59217Y6861D1*
X-58949Y5877D1*
X-58760Y4892D1*
X-46949Y11782D2*
X-48384Y10798D1*
X-49612Y9814D1*
X-50575Y8829D1*
X-51332Y7845D1*
X-51609Y6861D1*
X-51759Y5877D1*
X-51826Y4892D1*
X-51854Y3908D1*
X-51864Y2924D1*
X-51868Y1940D1*
X-51869Y955D1*
X-51870Y-29D1*
Y-1013D1*
Y-1997D1*
Y-2982D1*
Y-3966D1*
Y-4950D1*
Y-5934D1*
Y-6919D1*
Y-7903D1*
Y-8887D1*
Y-9871D1*
X-51866Y-10856D1*
X-51828Y-11840D1*
X-51664Y-12824D1*
X-51260Y-13808D1*
X-50571Y-14793D1*
X-49596Y-15777D1*
X-48347Y-16761D1*
X-46949Y-17745D1*
X-41043Y11782D2*
X-39609Y10798D1*
X-38380Y9814D1*
X-37417Y8829D1*
X-36661Y7845D1*
X-36346Y6861D1*
X-36070Y5877D1*
X-35766Y4892D1*
X-35486Y3908D1*
X-35304Y2924D1*
X-35209Y1940D1*
X-35166Y955D1*
X-35148Y-29D1*
X-35142Y-1013D1*
X-35139Y-1997D1*
X-35138Y-2982D1*
Y-3966D1*
Y-4950D1*
Y-5934D1*
X-35142Y-6919D1*
X-35176Y-7903D1*
X-35302Y-8887D1*
X-35537Y-9871D1*
X-35794Y-10856D1*
X-36004Y-11840D1*
X-36259Y-12824D1*
X-36704Y-13808D1*
X-37411Y-14793D1*
X-38393Y-15777D1*
X-39644Y-16761D1*
X-41043Y-17745D1*
X-24311Y11782D2*
X-25594Y10798D1*
X-26582Y9814D1*
X-27325Y8829D1*
X-27926Y7845D1*
X-28425Y6861D1*
X-28771Y5877D1*
X-28962Y4892D1*
X-28769Y3908D1*
X-28515Y2924D1*
X-28230Y1940D1*
X-27872Y955D1*
X-27420Y-29D1*
X-26867Y-1013D1*
X-26243Y-1997D1*
X-25611Y-2982D1*
X-24934Y-3966D1*
X-24177Y-4950D1*
X-23417Y-5934D1*
X-22713Y-6919D1*
X-22003Y-7903D1*
X-21232Y-8887D1*
X-20467Y-9871D1*
X-19761Y-10856D1*
X-19047Y-11840D1*
X-18242Y-12824D1*
X-17357Y-13808D1*
X-16437Y-14793D1*
X-17421Y11782D2*
X-16020Y10798D1*
X-14883Y9814D1*
X-14030Y8829D1*
X-13399Y7845D1*
X-12957Y6861D1*
X-12689Y5877D1*
X-12500Y4892D1*
X295Y11782D2*
X-1139Y10798D1*
X-2368Y9814D1*
X-3335Y8829D1*
X-4018Y7845D1*
X-4501Y6861D1*
X-4907Y5877D1*
X-5229Y4892D1*
X-5395Y3908D1*
X-5371Y2924D1*
X-5177Y1940D1*
X-4905Y955D1*
X-4577Y-29D1*
X-4084Y-1013D1*
X-3361Y-1997D1*
X-2437Y-2982D1*
X-1478Y-3966D1*
X-636Y-4950D1*
X-433Y-5934D1*
X-704Y-6919D1*
X-1157Y-7903D1*
X-1733Y-8887D1*
X-2313Y-9871D1*
X-2858Y-10856D1*
X-3378Y-11840D1*
X-3880Y-12824D1*
X-4378Y-13808D1*
X-4874Y-14793D1*
X-5393Y-15777D1*
X-5967Y-16761D1*
X-6594Y-17745D1*
X15059Y11782D2*
Y10798D1*
Y9814D1*
Y8829D1*
Y7845D1*
Y6861D1*
Y5877D1*
Y4892D1*
Y3908D1*
Y2924D1*
Y1940D1*
Y955D1*
Y-29D1*
Y-1013D1*
Y-1997D1*
Y-2982D1*
Y-3966D1*
Y-4950D1*
Y-5934D1*
Y-6919D1*
Y-7903D1*
Y-8887D1*
Y-9871D1*
Y-10856D1*
Y-11840D1*
Y-12824D1*
Y-13808D1*
Y-14793D1*
Y-15777D1*
Y-16761D1*
Y-17745D1*
X28839Y11782D2*
X27101Y10798D1*
X25667Y9814D1*
X24593Y8829D1*
X23740Y7845D1*
X23022Y6861D1*
X22498Y5877D1*
X22176Y4892D1*
X21949Y3908D1*
X34744Y11782D2*
X36633Y10798D1*
X38148Y9814D1*
X39289Y8829D1*
X40126Y7845D1*
X40746Y6861D1*
X41182Y5877D1*
X41465Y4892D1*
X41711Y3908D1*
X42000Y2924D1*
X42273Y1940D1*
X42453Y955D1*
X42547Y-29D1*
X42590Y-1013D1*
X42608Y-1997D1*
X42614Y-2982D1*
X42617Y-3966D1*
X42614Y-4950D1*
X42580Y-5934D1*
X42454Y-6919D1*
X42218Y-7903D1*
X41962Y-8887D1*
X41756Y-9871D1*
X41535Y-10856D1*
X41220Y-11840D1*
X40786Y-12824D1*
X40200Y-13808D1*
X39380Y-14793D1*
X38210Y-15777D1*
X36606Y-16761D1*
X34744Y-17745D1*
X-89272Y8829D2*
X-91005Y7845D1*
X-92401Y6861D1*
X-93474Y5877D1*
X-93896Y4892D1*
X-93901Y3908D1*
X-93703Y2924D1*
X-93354Y1940D1*
X-92920Y955D1*
X-92417Y-29D1*
X-91810Y-1013D1*
X-91085Y-1997D1*
X-90338Y-2982D1*
X-89639Y-3966D1*
X-88928Y-4950D1*
X-88126Y-5934D1*
X-87271Y-6919D1*
X-86455Y-7903D1*
X-85724Y-8887D1*
X-85002Y-9871D1*
X-84227Y-10856D1*
X-83464Y-11840D1*
X-82796Y-12824D1*
X-82245Y-13808D1*
X-81839Y-14793D1*
X-81600Y-15777D1*
X-81476Y-16761D1*
X-81398Y-17745D1*
X-89272Y8829D2*
X-87649Y7845D1*
X-86338Y6861D1*
X-85297Y5877D1*
X-84350Y4892D1*
X-66634Y8829D2*
X-68253Y7845D1*
X-69530Y6861D1*
X-70422Y5877D1*
X-71081Y4892D1*
X-71253Y3908D1*
X-70995Y2924D1*
X-70570Y1940D1*
X-69464Y955D1*
X-68142Y-29D1*
X-66848Y-1013D1*
X-66207Y-1997D1*
X-66003Y-2982D1*
X-67357Y-3966D1*
X-68799Y-4950D1*
X-69991Y-5934D1*
X-70920Y-6919D1*
X-71249Y-7903D1*
X-71422Y-8887D1*
X-71458Y-9871D1*
X-71395Y-10856D1*
X-70858Y-11840D1*
X-69175Y-12824D1*
X-66676Y-13808D1*
X-63681Y-14793D1*
X-65650Y8829D2*
X-64665Y7845D1*
X-63681Y6861D1*
X-62697Y5877D1*
X-61713Y4892D1*
X-43996Y8829D2*
X-45730Y7845D1*
X-47125Y6861D1*
X-48198Y5877D1*
X-48571Y4892D1*
X-48771Y3908D1*
X-48860Y2924D1*
X-48896Y1940D1*
X-48910Y955D1*
X-48915Y-29D1*
X-48917Y-1013D1*
Y-1997D1*
Y-2982D1*
Y-3966D1*
Y-4950D1*
Y-5934D1*
Y-6919D1*
Y-7903D1*
X-48913Y-8887D1*
X-48871Y-9871D1*
X-48767Y-10856D1*
X-48223Y-11840D1*
X-46539Y-12824D1*
X-44039Y-13808D1*
X-41043Y-14793D1*
X-43996Y8829D2*
X-42262Y7845D1*
X-40867Y6861D1*
X-39794Y5877D1*
X-39421Y4892D1*
X-39221Y3908D1*
X-39132Y2924D1*
X-39096Y1940D1*
X-39082Y955D1*
X-39077Y-29D1*
X-39076Y-1013D1*
X-39075Y-1997D1*
Y-2982D1*
Y-3966D1*
Y-4950D1*
Y-5934D1*
Y-6919D1*
Y-7903D1*
X-39079Y-8887D1*
X-39121Y-9871D1*
X-39225Y-10856D1*
X-39769Y-11840D1*
X-41453Y-12824D1*
X-43954Y-13808D1*
X-46949Y-14793D1*
X-20374Y8829D2*
X-22108Y7845D1*
X-23503Y6861D1*
X-24576Y5877D1*
X-24998Y4892D1*
X-25003Y3908D1*
X-24806Y2924D1*
X-24456Y1940D1*
X-24023Y955D1*
X-23520Y-29D1*
X-22912Y-1013D1*
X-22187Y-1997D1*
X-21440Y-2982D1*
X-20742Y-3966D1*
X-20030Y-4950D1*
X-19229Y-5934D1*
X-18373Y-6919D1*
X-17557Y-7903D1*
X-16826Y-8887D1*
X-16105Y-9871D1*
X-15329Y-10856D1*
X-14566Y-11840D1*
X-13898Y-12824D1*
X-13348Y-13808D1*
X-12941Y-14793D1*
X-12702Y-15777D1*
X-12578Y-16761D1*
X-12500Y-17745D1*
X-20374Y8829D2*
X-18752Y7845D1*
X-17440Y6861D1*
X-16400Y5877D1*
X-15453Y4892D1*
X3248Y8829D2*
X1629Y7845D1*
X352Y6861D1*
X-544Y5877D1*
X-1215Y4892D1*
X-1413Y3908D1*
X-1487Y2924D1*
X-1241Y1940D1*
X-581Y955D1*
X2012Y-29D1*
X6459Y-1013D1*
X12106Y-1997D1*
X11122Y8829D2*
Y7845D1*
Y6861D1*
Y5877D1*
Y4892D1*
Y3908D1*
Y2924D1*
Y1940D1*
Y955D1*
Y-29D1*
Y-1013D1*
X2264Y-1997D1*
X31791Y8829D2*
X30020Y7845D1*
X28498Y6861D1*
X27335Y5877D1*
X26520Y4892D1*
X25886Y3908D1*
X31791Y8829D2*
X33563Y7845D1*
X35088Y6861D1*
X36272Y5877D1*
X37142Y4892D1*
X37780Y3908D1*
X38220Y2924D1*
X38471Y1940D1*
X38594Y955D1*
X38647Y-29D1*
X38669Y-1013D1*
X38677Y-1997D1*
X38680Y-2982D1*
X38681Y-3966D1*
Y-4950D1*
X38677Y-5934D1*
X38643Y-6919D1*
X38513Y-7903D1*
X38239Y-8887D1*
X37819Y-9871D1*
X37198Y-10856D1*
X36375Y-11840D1*
X34510Y-12824D1*
X31904Y-13808D1*
X28839Y-14793D1*
X5217Y-4950D2*
X4388Y-5934D1*
X3683Y-6919D1*
X3082Y-7903D1*
X2541Y-8887D1*
X2030Y-9871D1*
X1529Y-10856D1*
X1035Y-11840D1*
X541Y-12824D1*
X50Y-13808D1*
X-440Y-14793D1*
X-906Y-15777D1*
X-1316Y-16761D1*
X-1673Y-17745D1*
X11122Y-4950D2*
Y-5934D1*
Y-6919D1*
Y-7903D1*
Y-8887D1*
Y-9871D1*
Y-10856D1*
Y-11840D1*
Y-12824D1*
Y-13808D1*
Y-14793D1*
Y-15777D1*
Y-16761D1*
Y-17745D1*
X21949Y-9871D2*
X22138Y-10856D1*
X22512Y-11840D1*
X23045Y-12824D1*
X23673Y-13808D1*
X24499Y-14793D1*
X25679Y-15777D1*
X27186Y-16761D1*
X28839Y-17745D1*
X25886Y-9871D2*
X26469Y-10856D1*
X27244Y-11840D1*
X29090Y-12824D1*
X31685Y-13808D1*
X34744Y-14793D1*
X-61713Y-10856D2*
X-62360Y-11840D1*
X-64072Y-12824D1*
X-66585Y-13808D1*
X-69587Y-14793D1*
X-57776Y-10856D2*
X-58153Y-11840D1*
X-58611Y-12824D1*
X-59201Y-13808D1*
X-59987Y-14793D1*
X-61006Y-15777D1*
X-62273Y-16761D1*
X-63681Y-17745D1*
X-98130Y-14793D2*
Y-15777D1*
Y-16761D1*
Y-17745D1*
X-29232Y-14793D2*
Y-15777D1*
Y-16761D1*
Y-17745D1*
X477142Y185954D2*
Y184970D1*
Y183986D1*
Y183001D1*
Y182017D1*
Y181033D1*
Y180049D1*
Y179064D1*
X489937Y185954D2*
X491826Y184970D1*
X493341Y183986D1*
X494482Y183001D1*
X495319Y182017D1*
X495939Y181033D1*
X496371Y180049D1*
X496615Y179064D1*
X496702Y178080D1*
X496625Y177096D1*
X496376Y176112D1*
X496007Y175127D1*
X495602Y174143D1*
X495263Y173159D1*
X495085Y172175D1*
X495106Y171190D1*
X495328Y170206D1*
X495686Y169222D1*
X496086Y168238D1*
X496427Y167253D1*
X496635Y166269D1*
X496709Y165285D1*
X496628Y164301D1*
X496373Y163316D1*
X495965Y162332D1*
X495392Y161348D1*
X494612Y160364D1*
X493595Y159379D1*
X492329Y158395D1*
X490921Y157411D1*
X487969Y179064D2*
X488953Y178080D1*
X489937Y177096D1*
X488953Y176112D1*
X487969Y175127D1*
X477142D2*
Y174143D1*
Y173159D1*
Y172175D1*
Y171190D1*
Y170206D1*
Y169222D1*
Y168238D1*
X487969D2*
X488953Y167253D1*
X489937Y166269D1*
X488953Y165285D1*
X487969Y164301D1*
X477142D2*
Y163316D1*
Y162332D1*
Y161348D1*
Y160364D1*
Y159379D1*
Y158395D1*
Y157411D1*
Y152490D2*
Y151505D1*
Y150521D1*
Y149537D1*
Y148552D1*
Y147568D1*
Y146584D1*
Y145600D1*
X489937Y152490D2*
X491826Y151505D1*
X493341Y150521D1*
X494482Y149537D1*
X495319Y148552D1*
X495939Y147568D1*
X496371Y146584D1*
X496615Y145600D1*
X496702Y144615D1*
X496625Y143631D1*
X496376Y142647D1*
X496007Y141663D1*
X495602Y140678D1*
X495263Y139694D1*
X495085Y138710D1*
X495106Y137726D1*
X495328Y136741D1*
X495686Y135757D1*
X496086Y134773D1*
X496427Y133789D1*
X496635Y132804D1*
X496709Y131820D1*
X496628Y130836D1*
X496373Y129852D1*
X495965Y128867D1*
X495392Y127883D1*
X494612Y126899D1*
X493595Y125915D1*
X492329Y124930D1*
X490921Y123946D1*
X487969Y145600D2*
X488953Y144615D1*
X489937Y143631D1*
X488953Y142647D1*
X487969Y141663D1*
X477142D2*
Y140678D1*
Y139694D1*
Y138710D1*
Y137726D1*
Y136741D1*
Y135757D1*
Y134773D1*
X487969D2*
X488953Y133789D1*
X489937Y132804D1*
X488953Y131820D1*
X487969Y130836D1*
X477142D2*
Y129852D1*
Y128867D1*
Y127883D1*
Y126899D1*
Y125915D1*
Y124930D1*
Y123946D1*
Y119025D2*
Y118041D1*
Y117056D1*
Y116072D1*
Y115088D1*
Y114104D1*
Y113119D1*
Y112135D1*
X489937Y119025D2*
X491826Y118041D1*
X493341Y117056D1*
X494482Y116072D1*
X495319Y115088D1*
X495939Y114104D1*
X496371Y113119D1*
X496615Y112135D1*
X496702Y111151D1*
X496625Y110167D1*
X496376Y109182D1*
X496007Y108198D1*
X495602Y107214D1*
X495263Y106230D1*
X495085Y105245D1*
X495106Y104261D1*
X495328Y103277D1*
X495686Y102293D1*
X496086Y101308D1*
X496427Y100324D1*
X496635Y99340D1*
X496709Y98356D1*
X496628Y97371D1*
X496373Y96387D1*
X495965Y95403D1*
X495392Y94419D1*
X494612Y93434D1*
X493595Y92450D1*
X492329Y91466D1*
X490921Y90482D1*
X487969Y112135D2*
X488953Y111151D1*
X489937Y110167D1*
X488953Y109182D1*
X487969Y108198D1*
X477142D2*
Y107214D1*
Y106230D1*
Y105245D1*
Y104261D1*
Y103277D1*
Y102293D1*
Y101308D1*
X487969D2*
X488953Y100324D1*
X489937Y99340D1*
X488953Y98356D1*
X487969Y97371D1*
X477142D2*
Y96387D1*
Y95403D1*
Y94419D1*
Y93434D1*
Y92450D1*
Y91466D1*
Y90482D1*
X490921Y84576D2*
X489676Y83592D1*
X488674Y82608D1*
X488309Y81623D1*
X488117Y80639D1*
X488067Y79655D1*
X488195Y78671D1*
X488578Y77686D1*
X489202Y76702D1*
X489937Y75718D1*
X492890Y84576D2*
X494172Y83592D1*
X495157Y82608D1*
X495862Y81623D1*
X496403Y80639D1*
X496465Y79655D1*
X496301Y78671D1*
X495945Y77686D1*
X495444Y76702D1*
X494858Y75718D1*
X484031Y69812D2*
X482593Y68828D1*
X481330Y67844D1*
X480237Y66860D1*
X479319Y65875D1*
X478583Y64891D1*
X478005Y63907D1*
X477589Y62923D1*
X477346Y61938D1*
X477227Y60954D1*
X477175Y59970D1*
X477154Y58986D1*
X477150Y58001D1*
X477182Y57017D1*
X477310Y56033D1*
X477584Y55049D1*
X478000Y54064D1*
X478575Y53080D1*
X479356Y52096D1*
X480373Y51112D1*
X481640Y50127D1*
X483047Y49143D1*
X488953Y69812D2*
X490724Y68828D1*
X492249Y67844D1*
X493434Y66860D1*
X494304Y65875D1*
X494945Y64891D1*
X495420Y63907D1*
X495797Y62923D1*
X496155Y61938D1*
X496461Y60954D1*
X496650Y59970D1*
X496715Y58986D1*
X496634Y58001D1*
X496412Y57017D1*
X496130Y56033D1*
X495808Y55049D1*
X495376Y54064D1*
X494858Y53080D1*
X486984Y62923D2*
X485251Y61938D1*
X483855Y60954D1*
X482782Y59970D1*
X482376Y58986D1*
X482426Y58001D1*
X483134Y57017D1*
X484031Y56033D1*
X486000Y62923D2*
X487619Y61938D1*
X488893Y60954D1*
X489888Y59970D1*
X490333Y58986D1*
X490207Y58001D1*
X489937Y57017D1*
X490921Y56033D1*
X491906Y55049D1*
X492890Y54064D1*
X493874Y53080D1*
X485016Y59970D2*
X484935Y58986D1*
X484754Y58001D1*
X483987Y57017D1*
X483047Y56033D1*
X487969Y59970D2*
Y58986D1*
Y58001D1*
Y57017D1*
Y56033D1*
Y55049D1*
Y54064D1*
Y53080D1*
Y52096D1*
Y51112D1*
Y50127D1*
Y49143D1*
X478126Y45206D2*
X475897Y44222D1*
X474058Y43238D1*
X472636Y42253D1*
X471557Y41269D1*
X470752Y40285D1*
X470147Y39301D1*
X469716Y38316D1*
X469433Y37332D1*
X469160Y36348D1*
X468769Y35364D1*
X468283Y34379D1*
X496827Y45206D2*
Y44222D1*
Y43238D1*
Y42253D1*
Y41269D1*
Y40285D1*
Y39301D1*
Y38316D1*
Y37332D1*
X488953D1*
Y36348D1*
Y35364D1*
Y34379D1*
X481079Y38316D2*
X479344Y37332D1*
X477933Y36348D1*
X476934Y35364D1*
X476157Y34379D1*
X480094Y38316D2*
X480886Y37332D1*
X481465Y36348D1*
X481817Y35364D1*
X482063Y34379D1*
X484031Y31427D2*
X482593Y30442D1*
X481330Y29458D1*
X480237Y28474D1*
X479319Y27490D1*
X478583Y26505D1*
X478005Y25521D1*
X477589Y24537D1*
X477346Y23552D1*
X477227Y22568D1*
X477175Y21584D1*
X477154Y20600D1*
X477150Y19615D1*
X477182Y18631D1*
X477310Y17647D1*
X477584Y16663D1*
X478000Y15678D1*
X478575Y14694D1*
X479356Y13710D1*
X480373Y12726D1*
X481640Y11741D1*
X483047Y10757D1*
X488953Y31427D2*
X490724Y30442D1*
X492249Y29458D1*
X493434Y28474D1*
X494304Y27490D1*
X494945Y26505D1*
X495420Y25521D1*
X495797Y24537D1*
X496155Y23552D1*
X496461Y22568D1*
X496650Y21584D1*
X496715Y20600D1*
X496634Y19615D1*
X496412Y18631D1*
X496130Y17647D1*
X495808Y16663D1*
X495376Y15678D1*
X494858Y14694D1*
X486984Y24537D2*
X485251Y23552D1*
X483855Y22568D1*
X482782Y21584D1*
X482376Y20600D1*
X482426Y19615D1*
X483134Y18631D1*
X484031Y17647D1*
X486000Y24537D2*
X487619Y23552D1*
X488893Y22568D1*
X489888Y21584D1*
X490333Y20600D1*
X490207Y19615D1*
X489937Y18631D1*
X490921Y17647D1*
X491906Y16663D1*
X492890Y15678D1*
X493874Y14694D1*
X485016Y21584D2*
X484935Y20600D1*
X484754Y19615D1*
X483987Y18631D1*
X483047Y17647D1*
X487969Y21584D2*
Y20600D1*
Y19615D1*
Y18631D1*
Y17647D1*
Y16663D1*
Y15678D1*
Y14694D1*
Y13710D1*
Y12726D1*
Y11741D1*
Y10757D1*
X469268Y6820D2*
Y5836D1*
Y4852D1*
Y3867D1*
Y2883D1*
Y1899D1*
Y915D1*
Y-70D1*
X496827Y6820D2*
Y5836D1*
Y4852D1*
Y3867D1*
Y2883D1*
Y1899D1*
Y915D1*
Y-70D1*
X484031D2*
X482858Y-1054D1*
X481507Y-2038D1*
X480071Y-3022D1*
X478825Y-4007D1*
X477835Y-4991D1*
X477477Y-5975D1*
X477284Y-6959D1*
X477197Y-7944D1*
X477162Y-8928D1*
X477149Y-9912D1*
X477144Y-10896D1*
X477142Y-11881D1*
X483047Y-70D2*
X484418Y-1054D1*
X486216Y-2038D1*
X488467Y-3022D1*
X490894Y-4007D1*
X493107Y-4991D1*
X494789Y-5975D1*
X496037Y-6959D1*
X496448Y-7944D1*
X496668Y-8928D1*
X496765Y-9912D1*
X496804Y-10896D1*
X496819Y-11881D1*
X496824Y-12865D1*
X496827Y-13849D1*
X484031Y-8928D2*
X482063Y-9912D1*
X480094Y-10896D1*
X478126Y-11881D1*
X484031Y-8928D2*
X486152Y-9912D1*
X488365Y-10896D1*
X490591Y-11881D1*
X492746Y-12865D1*
X494858Y-13849D1*
X469268Y-15818D2*
Y-16802D1*
Y-17786D1*
Y-18770D1*
Y-19755D1*
Y-20739D1*
Y-21723D1*
Y-22707D1*
Y-23692D1*
Y-24676D1*
X477142D1*
Y-25660D1*
Y-26644D1*
X485016Y-15818D2*
X488154Y-16802D1*
X490562Y-17786D1*
X492301Y-18770D1*
X493597Y-19755D1*
X494567Y-20739D1*
X495243Y-21723D1*
X495722Y-22707D1*
X496126Y-23692D1*
X496452Y-24676D1*
X496668Y-25660D1*
X496827Y-26644D1*
X484031Y-23692D2*
Y-24676D1*
Y-25660D1*
Y-26644D1*
X486984Y-23692D2*
X487788Y-24676D1*
X488426Y-25660D1*
X488953Y-26644D1*
X484031Y-30581D2*
X482593Y-31566D1*
X481330Y-32550D1*
X480237Y-33534D1*
X479319Y-34518D1*
X478583Y-35503D1*
X478005Y-36487D1*
X477589Y-37471D1*
X477346Y-38455D1*
X477227Y-39440D1*
X477175Y-40424D1*
X477154Y-41408D1*
X477146Y-42392D1*
X477147Y-43377D1*
X477185Y-44361D1*
X477344Y-45345D1*
X477709Y-46329D1*
X478239Y-47314D1*
X478873Y-48298D1*
X479775Y-49282D1*
X481259Y-50266D1*
X483439Y-51251D1*
X486000Y-52235D1*
X488953Y-30581D2*
X490724Y-31566D1*
X492249Y-32550D1*
X493434Y-33534D1*
X494304Y-34518D1*
X494945Y-35503D1*
X495420Y-36487D1*
X495797Y-37471D1*
X496155Y-38455D1*
X496461Y-39440D1*
X496654Y-40424D1*
X496759Y-41408D1*
X496827Y-42392D1*
X487969Y-37471D2*
X486387Y-38455D1*
X485056Y-39440D1*
X484443Y-40424D1*
X484263Y-41408D1*
X484180Y-42392D1*
X486784Y-43377D1*
X491208Y-44361D1*
X496827Y-45345D1*
Y-46329D1*
Y-47314D1*
Y-48298D1*
Y-49282D1*
Y-50266D1*
Y-51251D1*
Y-52235D1*
X486984Y-37471D2*
X487927Y-38455D1*
X488747Y-39440D1*
X489335Y-40424D1*
X489690Y-41408D1*
X489937Y-42392D1*
X469268Y-57156D2*
Y-58140D1*
Y-59125D1*
Y-60109D1*
Y-61093D1*
Y-62077D1*
Y-63062D1*
Y-64046D1*
X496827Y-57156D2*
Y-58140D1*
Y-59125D1*
Y-60109D1*
Y-61093D1*
Y-62077D1*
Y-63062D1*
Y-64046D1*
X484031Y-68967D2*
X482593Y-69951D1*
X481330Y-70936D1*
X480237Y-71920D1*
X479319Y-72904D1*
X478583Y-73888D1*
X478005Y-74873D1*
X477589Y-75857D1*
X477346Y-76841D1*
X477227Y-77825D1*
X477175Y-78810D1*
X477154Y-79794D1*
X477146Y-80778D1*
X477147Y-81762D1*
X477185Y-82747D1*
X477344Y-83731D1*
X477709Y-84715D1*
X478239Y-85699D1*
X478873Y-86684D1*
X479775Y-87668D1*
X481259Y-88652D1*
X483439Y-89636D1*
X486000Y-90621D1*
X488953Y-68967D2*
X490724Y-69951D1*
X492249Y-70936D1*
X493434Y-71920D1*
X494304Y-72904D1*
X494945Y-73888D1*
X495420Y-74873D1*
X495797Y-75857D1*
X496155Y-76841D1*
X496461Y-77825D1*
X496654Y-78810D1*
X496759Y-79794D1*
X496827Y-80778D1*
X487969Y-75857D2*
X486387Y-76841D1*
X485056Y-77825D1*
X484443Y-78810D1*
X484263Y-79794D1*
X484180Y-80778D1*
X486784Y-81762D1*
X491208Y-82747D1*
X496827Y-83731D1*
Y-84715D1*
Y-85699D1*
Y-86684D1*
Y-87668D1*
Y-88652D1*
Y-89636D1*
Y-90621D1*
X486984Y-75857D2*
X487927Y-76841D1*
X488747Y-77825D1*
X489335Y-78810D1*
X489690Y-79794D1*
X489937Y-80778D1*
X469268Y-95542D2*
Y-96526D1*
Y-97510D1*
Y-98495D1*
Y-99479D1*
Y-100463D1*
Y-101448D1*
Y-102432D1*
X489937Y-95542D2*
X491372Y-96526D1*
X492604Y-97510D1*
X493602Y-98495D1*
X494376Y-99479D1*
X494973Y-100463D1*
X495430Y-101448D1*
X495800Y-102432D1*
X496156Y-103416D1*
X496461Y-104400D1*
X496650Y-105385D1*
X496715Y-106369D1*
X496630Y-107353D1*
X496378Y-108337D1*
X496003Y-109322D1*
X495560Y-110306D1*
X495053Y-111290D1*
X494437Y-112274D1*
X493639Y-113259D1*
X492615Y-114243D1*
X491346Y-115227D1*
X489937Y-116211D1*
X488953Y-102432D2*
X489101Y-103416D1*
X489310Y-104400D1*
X489510Y-105385D1*
X489382Y-106369D1*
X488817Y-107353D1*
X487526Y-108337D1*
X486000Y-109322D1*
X476157Y-104400D2*
X476612Y-105385D1*
X476894Y-106369D1*
X477041Y-107353D1*
X477139Y-108337D1*
X477294Y-109322D1*
X477578Y-110306D1*
X477998Y-111290D1*
X478574Y-112274D1*
X479356Y-113259D1*
X480373Y-114243D1*
X481640Y-115227D1*
X483047Y-116211D1*
X484031Y-104400D2*
X484084Y-105385D1*
X484212Y-106369D1*
X484936Y-107353D1*
X486783Y-108337D1*
X488953Y-109322D1*
X490921Y-121133D2*
X489676Y-122117D1*
X488674Y-123101D1*
X488309Y-124085D1*
X488117Y-125070D1*
X488067Y-126054D1*
X488195Y-127038D1*
X488578Y-128022D1*
X489202Y-129007D1*
X489937Y-129991D1*
X492890Y-121133D2*
X494172Y-122117D1*
X495157Y-123101D1*
X495862Y-124085D1*
X496403Y-125070D1*
X496465Y-126054D1*
X496301Y-127038D1*
X495945Y-128022D1*
X495444Y-129007D1*
X494858Y-129991D1*
X484031Y-135896D2*
X482593Y-136881D1*
X481330Y-137865D1*
X480237Y-138849D1*
X479319Y-139833D1*
X478583Y-140818D1*
X478005Y-141802D1*
X477589Y-142786D1*
X477346Y-143770D1*
X477227Y-144755D1*
X477175Y-145739D1*
X477154Y-146723D1*
X477150Y-147707D1*
X477182Y-148692D1*
X477310Y-149676D1*
X477584Y-150660D1*
X478000Y-151644D1*
X478575Y-152629D1*
X479356Y-153613D1*
X480373Y-154597D1*
X481640Y-155581D1*
X483047Y-156566D1*
X488953Y-135896D2*
X490724Y-136881D1*
X492249Y-137865D1*
X493434Y-138849D1*
X494304Y-139833D1*
X494945Y-140818D1*
X495420Y-141802D1*
X495797Y-142786D1*
X496155Y-143770D1*
X496461Y-144755D1*
X496650Y-145739D1*
X496715Y-146723D1*
X496634Y-147707D1*
X496412Y-148692D1*
X496129Y-149676D1*
X495796Y-150660D1*
X495306Y-151644D1*
X494612Y-152629D1*
X493771Y-153613D1*
X492850Y-154597D1*
X491892Y-155581D1*
X490921Y-156566D1*
X486000Y-142786D2*
X485209Y-143770D1*
X484634Y-144755D1*
X484304Y-145739D1*
X484144Y-146723D1*
X484075Y-147707D1*
X484047Y-148692D1*
X484037Y-149676D1*
X484033Y-150660D1*
X484032Y-151644D1*
Y-152629D1*
Y-153613D1*
Y-154597D1*
Y-155581D1*
X484031Y-156566D1*
X486984Y-142786D2*
X487816Y-143770D1*
X488548Y-144755D1*
X489236Y-145739D1*
X489937Y-146723D1*
X489331Y-147707D1*
X488804Y-148692D1*
X488406Y-149676D1*
X488170Y-150660D1*
X488053Y-151644D1*
X488001Y-152629D1*
X487981Y-153613D1*
X487973Y-154597D1*
X487970Y-155581D1*
X487969Y-156566D1*
X484031Y-160503D2*
X482294Y-161487D1*
X480864Y-162471D1*
X479821Y-163455D1*
X479058Y-164440D1*
X478451Y-165424D1*
X477946Y-166408D1*
X477565Y-167392D1*
X477337Y-168377D1*
X477224Y-169361D1*
X477174Y-170345D1*
X477154Y-171329D1*
X477150Y-172314D1*
X477182Y-173298D1*
X477310Y-174282D1*
X477584Y-175266D1*
X478000Y-176251D1*
X478575Y-177235D1*
X479361Y-178219D1*
X480427Y-179203D1*
X481907Y-180188D1*
X483836Y-181172D1*
X486000Y-182156D1*
X488953Y-160503D2*
X490724Y-161487D1*
X492249Y-162471D1*
X493434Y-163455D1*
X494304Y-164440D1*
X494945Y-165424D1*
X495420Y-166408D1*
X495797Y-167392D1*
X496155Y-168377D1*
X496461Y-169361D1*
X496650Y-170345D1*
X496715Y-171329D1*
X496634Y-172314D1*
X496412Y-173298D1*
X496129Y-174282D1*
X495796Y-175266D1*
X495306Y-176251D1*
X494612Y-177235D1*
X493764Y-178219D1*
X492767Y-179203D1*
X491504Y-180188D1*
X489857Y-181172D1*
X487969Y-182156D1*
X486000Y-167392D2*
X485209Y-168377D1*
X484637Y-169361D1*
X484253Y-170345D1*
X484288Y-171329D1*
X484962Y-172314D1*
X486794Y-173298D1*
X488953Y-174282D1*
X486984Y-167392D2*
X487923Y-168377D1*
X488708Y-169361D1*
X489305Y-170345D1*
X489306Y-171329D1*
X488791Y-172314D1*
X487516Y-173298D1*
X486000Y-174282D1*
X483047Y-186093D2*
X481310Y-187077D1*
X479880Y-188062D1*
X478840Y-189046D1*
X478112Y-190030D1*
X477630Y-191014D1*
X477362Y-191999D1*
X477233Y-192983D1*
X477177Y-193967D1*
X477158Y-194951D1*
X477189Y-195936D1*
X477346Y-196920D1*
X477702Y-197904D1*
X478155Y-198888D1*
X478554Y-199873D1*
X478468Y-200857D1*
X478204Y-201841D1*
X477851Y-202825D1*
X477530Y-203810D1*
X477325Y-204794D1*
X477220Y-205778D1*
X477176Y-206762D1*
X477192Y-207747D1*
X477314Y-208731D1*
X477585Y-209715D1*
X478008Y-210699D1*
X478654Y-211684D1*
X479700Y-212668D1*
X481233Y-213652D1*
X483047Y-214636D1*
X496827Y-186093D2*
Y-187077D1*
Y-188062D1*
Y-189046D1*
Y-190030D1*
Y-191014D1*
Y-191999D1*
Y-192983D1*
X486000D2*
X485209Y-193967D1*
X484630Y-194951D1*
X484278Y-195936D1*
X484031Y-196920D1*
X496827D2*
Y-197904D1*
Y-198888D1*
Y-199873D1*
Y-200857D1*
Y-201841D1*
Y-202825D1*
Y-203810D1*
X484031D2*
Y-204794D1*
Y-205778D1*
Y-206762D1*
Y-207747D1*
X496827D2*
Y-208731D1*
Y-209715D1*
Y-210699D1*
Y-211684D1*
Y-212668D1*
Y-213652D1*
Y-214636D1*
X-293931Y187867D2*
X-295365Y186882D1*
X-296594Y185898D1*
X-297561Y184914D1*
X-298244Y183930D1*
X-298727Y182945D1*
X-299133Y181961D1*
X-299458Y180977D1*
X-299659Y179993D1*
X-299761Y179008D1*
X-299807Y178024D1*
X-299825Y177040D1*
X-299832Y176056D1*
X-299835Y175071D1*
X-299832Y174087D1*
X-299798Y173103D1*
X-299672Y172119D1*
X-299433Y171134D1*
X-299142Y170150D1*
X-298810Y169166D1*
X-298354Y168182D1*
X-297786Y167197D1*
X-297184Y166213D1*
X-296550Y165229D1*
X-295888Y164245D1*
X-295236Y163260D1*
X-294511Y162276D1*
X-293553Y161292D1*
X-292271Y160308D1*
X-290704Y159323D1*
X-289009Y158339D1*
X-288025Y187867D2*
X-286590Y186882D1*
X-285358Y185898D1*
X-284360Y184914D1*
X-283586Y183930D1*
X-282993Y182945D1*
X-282570Y181961D1*
X-282326Y180977D1*
X-282205Y179993D1*
X-282153Y179008D1*
X-282136Y178024D1*
X-282162Y177040D1*
X-282289Y176056D1*
X-282558Y175071D1*
X-282943Y174087D1*
X-283427Y173103D1*
X-284098Y172119D1*
X-285105Y171134D1*
X-286478Y170150D1*
X-288025Y169166D1*
X-271293Y187867D2*
Y186882D1*
Y185898D1*
Y184914D1*
Y183930D1*
Y182945D1*
Y181961D1*
Y180977D1*
Y179993D1*
Y179008D1*
Y178024D1*
Y177040D1*
Y176056D1*
Y175071D1*
Y174087D1*
Y173103D1*
Y172119D1*
Y171134D1*
Y170150D1*
Y169166D1*
Y168182D1*
Y167197D1*
Y166213D1*
Y165229D1*
Y164245D1*
Y163260D1*
Y162276D1*
Y161292D1*
Y160308D1*
Y159323D1*
Y158339D1*
X-270309Y187867D2*
X-269320Y186882D1*
X-268298Y185898D1*
X-267153Y184914D1*
X-265812Y183930D1*
X-264378Y182945D1*
X-263133Y181961D1*
X-262142Y180977D1*
X-261752Y179993D1*
X-261450Y179008D1*
X-249639Y187867D2*
X-251040Y186882D1*
X-252177Y185898D1*
X-253030Y184914D1*
X-253665Y183930D1*
X-254139Y182945D1*
X-254515Y181961D1*
X-254873Y180977D1*
X-255179Y179993D1*
X-255372Y179008D1*
X-255471Y178024D1*
X-255516Y177040D1*
X-255534Y176056D1*
X-255541Y175071D1*
X-255543Y174087D1*
X-255544Y173103D1*
X-255545Y172119D1*
Y171134D1*
X-255541Y170150D1*
X-255506Y169166D1*
X-255381Y168182D1*
X-255141Y167197D1*
X-254854Y166213D1*
X-254553Y165229D1*
X-254188Y164245D1*
X-253730Y163260D1*
X-253138Y162276D1*
X-252350Y161292D1*
X-251331Y160308D1*
X-250063Y159323D1*
X-248655Y158339D1*
X-243734Y187867D2*
X-242299Y186882D1*
X-241067Y185898D1*
X-240069Y184914D1*
X-239291Y183930D1*
X-238663Y182945D1*
X-238115Y181961D1*
X-237635Y180977D1*
X-237262Y179993D1*
X-237038Y179008D1*
X-236926Y178024D1*
X-236876Y177040D1*
X-236856Y176056D1*
X-236848Y175071D1*
X-236845Y174087D1*
X-236844Y173103D1*
Y172119D1*
Y171134D1*
Y170150D1*
Y169166D1*
X-236848Y168182D1*
X-236882Y167197D1*
X-237008Y166213D1*
X-237247Y165229D1*
X-237538Y164245D1*
X-237874Y163260D1*
X-238369Y162276D1*
X-239100Y161292D1*
X-240092Y160308D1*
X-241348Y159323D1*
X-242749Y158339D1*
X-225033Y187867D2*
X-226468Y186882D1*
X-227696Y185898D1*
X-228660Y184914D1*
X-229416Y183930D1*
X-229693Y182945D1*
X-229843Y181961D1*
X-229907Y180977D1*
X-229900Y179993D1*
X-229785Y179008D1*
X-229549Y178024D1*
X-229259Y177040D1*
X-228928Y176056D1*
X-228472Y175071D1*
X-227904Y174087D1*
X-227302Y173103D1*
X-226668Y172119D1*
X-226006Y171134D1*
X-225362Y170150D1*
X-224710Y169166D1*
X-224045Y168182D1*
X-223429Y167197D1*
X-222867Y166213D1*
X-222308Y165229D1*
X-221675Y164245D1*
X-220907Y163260D1*
X-220038Y162276D1*
X-219127Y161292D1*
X-218143Y187867D2*
X-216750Y186882D1*
X-215534Y185898D1*
X-214921Y184914D1*
X-214895Y183930D1*
X-215190Y182945D1*
X-188616Y187867D2*
X-190017Y186882D1*
X-191154Y185898D1*
X-192007Y184914D1*
X-192642Y183930D1*
X-193115Y182945D1*
X-193491Y181961D1*
X-193849Y180977D1*
X-194155Y179993D1*
X-194348Y179008D1*
X-194447Y178024D1*
X-194492Y177040D1*
X-194510Y176056D1*
X-194517Y175071D1*
X-194520Y174087D1*
X-194521Y173103D1*
Y172119D1*
Y171134D1*
X-194517Y170150D1*
X-194483Y169166D1*
X-194357Y168182D1*
X-194118Y167197D1*
X-193831Y166213D1*
X-193530Y165229D1*
X-193164Y164245D1*
X-192706Y163260D1*
X-192114Y162276D1*
X-191327Y161292D1*
X-190307Y160308D1*
X-189039Y159323D1*
X-187631Y158339D1*
X-182710Y187867D2*
X-181275Y186882D1*
X-180043Y185898D1*
X-179045Y184914D1*
X-178268Y183930D1*
X-177639Y182945D1*
X-177091Y181961D1*
X-176611Y180977D1*
X-176239Y179993D1*
X-176014Y179008D1*
X-175902Y178024D1*
X-175852Y177040D1*
X-175832Y176056D1*
X-175825Y175071D1*
X-175822Y174087D1*
X-175821Y173103D1*
Y172119D1*
X-175820Y171134D1*
Y170150D1*
Y169166D1*
X-175824Y168182D1*
X-175859Y167197D1*
X-175984Y166213D1*
X-176224Y165229D1*
X-176515Y164245D1*
X-176850Y163260D1*
X-177345Y162276D1*
X-178076Y161292D1*
X-179069Y160308D1*
X-180325Y159323D1*
X-181726Y158339D1*
X-164994Y187867D2*
Y186882D1*
Y185898D1*
Y184914D1*
Y183930D1*
Y182945D1*
Y181961D1*
Y180977D1*
Y179993D1*
Y179008D1*
Y178024D1*
Y177040D1*
Y176056D1*
Y175071D1*
Y174087D1*
Y173103D1*
Y172119D1*
Y171134D1*
Y170150D1*
Y169166D1*
Y168182D1*
Y167197D1*
Y166213D1*
Y165229D1*
Y164245D1*
Y163260D1*
Y162276D1*
Y161292D1*
Y160308D1*
Y159323D1*
Y158339D1*
X-164009Y187867D2*
X-163021Y186882D1*
X-161999Y185898D1*
X-160854Y184914D1*
X-159513Y183930D1*
X-158079Y182945D1*
X-156834Y181961D1*
X-155844Y180977D1*
X-155485Y179993D1*
X-155282Y179008D1*
X-155151Y178024D1*
X-94127Y187867D2*
Y186882D1*
Y185898D1*
Y184914D1*
Y183930D1*
Y182945D1*
Y181961D1*
Y180977D1*
Y179993D1*
Y179008D1*
Y178024D1*
Y177040D1*
Y176056D1*
Y175071D1*
Y174087D1*
Y173103D1*
Y172119D1*
Y171134D1*
Y170150D1*
Y169166D1*
Y168182D1*
Y167197D1*
Y166213D1*
Y165229D1*
Y164245D1*
Y163260D1*
Y162276D1*
Y161292D1*
Y160308D1*
Y159323D1*
Y158339D1*
X-93143Y187867D2*
X-92155Y186882D1*
X-91132Y185898D1*
X-89988Y184914D1*
X-88647Y183930D1*
X-87213Y182945D1*
X-85968Y181961D1*
X-84978Y180977D1*
X-84618Y179993D1*
X-84416Y179008D1*
X-84285Y178024D1*
X-55742Y187867D2*
Y186882D1*
Y185898D1*
Y184914D1*
Y183930D1*
Y182945D1*
Y181961D1*
Y180977D1*
Y179993D1*
Y179008D1*
Y178024D1*
Y177040D1*
Y176056D1*
Y175071D1*
Y174087D1*
Y173103D1*
Y172119D1*
Y171134D1*
Y170150D1*
Y169166D1*
Y168182D1*
Y167197D1*
Y166213D1*
Y165229D1*
Y164245D1*
Y163260D1*
Y162276D1*
Y161292D1*
Y160308D1*
Y159323D1*
Y158339D1*
X-54757Y187867D2*
X-53769Y186882D1*
X-52747Y185898D1*
X-51602Y184914D1*
X-50261Y183930D1*
X-48827Y182945D1*
X-47582Y181961D1*
X-46592Y180977D1*
X-46233Y179993D1*
X-46030Y179008D1*
X-45899Y178024D1*
X-40978Y187867D2*
X-40486Y186882D1*
X-40077Y185898D1*
X-39694Y184914D1*
X-39344Y183930D1*
X-39021Y182945D1*
X-38681Y181961D1*
X-38348Y180977D1*
X-38029Y179993D1*
X-37660Y179008D1*
X-37238Y178024D1*
X-36809Y177040D1*
X-36424Y176056D1*
X-36082Y175071D1*
X-35733Y174087D1*
X-35398Y173103D1*
X-35077Y172119D1*
X-34708Y171134D1*
X-34285Y170150D1*
X-33856Y169166D1*
X-33471Y168182D1*
X-33129Y167197D1*
X-32781Y166213D1*
X-32445Y165229D1*
X-32128Y164245D1*
X-31790Y163260D1*
X-31458Y162276D1*
X-31142Y161292D1*
X-30800Y160308D1*
X-30461Y159323D1*
X-30151Y158339D1*
X-37041Y187867D2*
X-36701Y186882D1*
X-36373Y185898D1*
X-36061Y184914D1*
X-35725Y183930D1*
X-35395Y182945D1*
X-35080Y181961D1*
X-34742Y180977D1*
X-34411Y179993D1*
X-34096Y179008D1*
X-33758Y178024D1*
X-33427Y177040D1*
X-33111Y176056D1*
X-32774Y175071D1*
X-32442Y174087D1*
X-32123Y173103D1*
X-31755Y172119D1*
X-31333Y171134D1*
X-30903Y170150D1*
X-30515Y169166D1*
X-30146Y168182D1*
X-29695Y167197D1*
X-29167Y166213D1*
X-21293Y187867D2*
X-21445Y186882D1*
X-21693Y185898D1*
X-21982Y184914D1*
X-22284Y183930D1*
X-22646Y182945D1*
X-23065Y181961D1*
X-23494Y180977D1*
X-23879Y179993D1*
X-24220Y179008D1*
X-24569Y178024D1*
X-24905Y177040D1*
X-25221Y176056D1*
X-25560Y175071D1*
X-25891Y174087D1*
X-26210Y173103D1*
X-26579Y172119D1*
X-27001Y171134D1*
X-27430Y170150D1*
X-27818Y169166D1*
X-28187Y168182D1*
X-28639Y167197D1*
X-29167Y166213D1*
X-17356Y187867D2*
X-17696Y186882D1*
X-18024Y185898D1*
X-18336Y184914D1*
X-18672Y183930D1*
X-19002Y182945D1*
X-19321Y181961D1*
X-19689Y180977D1*
X-20111Y179993D1*
X-20541Y179008D1*
X-20926Y178024D1*
X-21267Y177040D1*
X-21616Y176056D1*
X-21952Y175071D1*
X-22273Y174087D1*
X-22642Y173103D1*
X-23064Y172119D1*
X-23493Y171134D1*
X-23879Y170150D1*
X-24220Y169166D1*
X-24569Y168182D1*
X-24905Y167197D1*
X-25225Y166213D1*
X-25594Y165229D1*
X-26017Y164245D1*
X-26446Y163260D1*
X-26831Y162276D1*
X-27173Y161292D1*
X-27527Y160308D1*
X-27871Y159323D1*
X-28183Y158339D1*
X16109Y187867D2*
X14253Y186882D1*
X12834Y185898D1*
X11838Y184914D1*
X11147Y183930D1*
X10618Y182945D1*
X10561Y181961D1*
X10728Y180977D1*
X11098Y179993D1*
X11686Y179008D1*
X12573Y178024D1*
X13766Y177040D1*
X15125Y176056D1*
X13353Y175071D1*
X11832Y174087D1*
X10678Y173103D1*
X9899Y172119D1*
X9372Y171134D1*
X8948Y170150D1*
X8616Y169166D1*
X8417Y168182D1*
X8349Y167197D1*
X8432Y166213D1*
X8684Y165229D1*
X9058Y164245D1*
X9505Y163260D1*
X10051Y162276D1*
X10827Y161292D1*
X11983Y160308D1*
X13478Y159323D1*
X15125Y158339D1*
X26936Y187867D2*
Y186882D1*
Y185898D1*
Y184914D1*
Y183930D1*
Y182945D1*
Y181961D1*
Y180977D1*
Y179993D1*
Y179008D1*
Y178024D1*
Y177040D1*
Y176056D1*
Y175071D1*
Y174087D1*
Y173103D1*
Y172119D1*
Y171134D1*
Y170150D1*
Y169166D1*
Y168182D1*
Y167197D1*
Y166213D1*
Y165229D1*
Y164245D1*
Y163260D1*
Y162276D1*
Y161292D1*
Y160308D1*
Y159323D1*
Y158339D1*
X37762Y187867D2*
X37610Y186882D1*
X37366Y185898D1*
X37111Y184914D1*
X36935Y183930D1*
X36809Y182945D1*
X36642Y181961D1*
X36389Y180977D1*
X36130Y179993D1*
X35952Y179008D1*
X35825Y178024D1*
X35658Y177040D1*
X35405Y176056D1*
X35146Y175071D1*
X34968Y174087D1*
X34841Y173103D1*
X34673Y172119D1*
X34420Y171134D1*
X34161Y170150D1*
X33983Y169166D1*
X33857Y168182D1*
X33689Y167197D1*
X33436Y166213D1*
X33177Y165229D1*
X32999Y164245D1*
X32872Y163260D1*
X32705Y162276D1*
X32452Y161292D1*
X32190Y160308D1*
X32001Y159323D1*
X31857Y158339D1*
X38747Y187867D2*
X39238Y186882D1*
X39647Y185898D1*
X40026Y184914D1*
X40346Y183930D1*
X40578Y182945D1*
X40804Y181961D1*
X41089Y180977D1*
X41395Y179993D1*
X41699Y179008D1*
X42032Y178024D1*
X42362Y177040D1*
X42676Y176056D1*
X43014Y175071D1*
X43345Y174087D1*
X43660Y173103D1*
X43994Y172119D1*
X44299Y171134D1*
X44563Y170150D1*
X44862Y169166D1*
X45659Y168182D1*
X46621Y167197D1*
X53510Y187867D2*
X53358Y186882D1*
X53110Y185898D1*
X52821Y184914D1*
X52523Y183930D1*
X52192Y182945D1*
X51863Y181961D1*
X51549Y180977D1*
X51211Y179993D1*
X50880Y179008D1*
X50565Y178024D1*
X50227Y177040D1*
X49896Y176056D1*
X49581Y175071D1*
X49243Y174087D1*
X48912Y173103D1*
X48597Y172119D1*
X48255Y171134D1*
X47883Y170150D1*
X47389Y169166D1*
X46612Y168182D1*
X45636Y167197D1*
X55479Y187867D2*
X55483Y186882D1*
X55517Y185898D1*
X55643Y184914D1*
X55878Y183930D1*
X56131Y182945D1*
X56302Y181961D1*
X56398Y180977D1*
X56474Y179993D1*
X56617Y179008D1*
X56859Y178024D1*
X57114Y177040D1*
X57290Y176056D1*
X57416Y175071D1*
X57584Y174087D1*
X57837Y173103D1*
X58096Y172119D1*
X58274Y171134D1*
X58400Y170150D1*
X58568Y169166D1*
X58821Y168182D1*
X59080Y167197D1*
X59254Y166213D1*
X59350Y165229D1*
X59427Y164245D1*
X59569Y163260D1*
X59812Y162276D1*
X60067Y161292D1*
X60240Y160308D1*
X60337Y159323D1*
X60400Y158339D1*
X73195Y187867D2*
X73039Y186882D1*
X72761Y185898D1*
X72381Y184914D1*
X71969Y183930D1*
X71590Y182945D1*
X71251Y181961D1*
X70903Y180977D1*
X70568Y179993D1*
X70247Y179008D1*
X69878Y178024D1*
X69456Y177040D1*
X69026Y176056D1*
X68641Y175071D1*
X68296Y174087D1*
X67916Y173103D1*
X67490Y172119D1*
X67059Y171134D1*
X66673Y170150D1*
X66331Y169166D1*
X65982Y168182D1*
X65647Y167197D1*
X65326Y166213D1*
X64957Y165229D1*
X64535Y164245D1*
X64105Y163260D1*
X63720Y162276D1*
X63378Y161292D1*
X63024Y160308D1*
X62681Y159323D1*
X62369Y158339D1*
X74180Y187867D2*
X74554Y186882D1*
X74977Y185898D1*
X75434Y184914D1*
X75908Y183930D1*
X76363Y182945D1*
X76759Y181961D1*
X77108Y180977D1*
X77489Y179993D1*
X77917Y179008D1*
X78348Y178024D1*
X78734Y177040D1*
X79079Y176056D1*
X79459Y175071D1*
X79889Y174087D1*
X80351Y173103D1*
X80828Y172119D1*
X81283Y171134D1*
X81680Y170150D1*
X82029Y169166D1*
X82411Y168182D1*
X82838Y167197D1*
X83269Y166213D1*
X83655Y165229D1*
X84000Y164245D1*
X84380Y163260D1*
X84807Y162276D1*
X85234Y161292D1*
X85588Y160308D1*
X85821Y159323D1*
X85991Y158339D1*
X124376Y187867D2*
Y186882D1*
Y185898D1*
Y184914D1*
Y183930D1*
Y182945D1*
Y181961D1*
Y180977D1*
Y179993D1*
Y179008D1*
Y178024D1*
Y177040D1*
Y176056D1*
Y175071D1*
Y174087D1*
Y173103D1*
Y172119D1*
Y171134D1*
Y170150D1*
Y169166D1*
Y168182D1*
Y167197D1*
Y166213D1*
Y165229D1*
Y164245D1*
Y163260D1*
Y162276D1*
Y161292D1*
X128313Y187867D2*
Y186882D1*
Y185898D1*
Y184914D1*
Y183930D1*
Y182945D1*
Y181961D1*
Y180977D1*
Y179993D1*
Y179008D1*
Y178024D1*
Y177040D1*
Y176056D1*
Y175071D1*
Y174087D1*
Y173103D1*
Y172119D1*
Y171134D1*
Y170150D1*
Y169166D1*
Y168182D1*
Y167197D1*
Y166213D1*
Y165229D1*
Y164245D1*
Y163260D1*
Y162276D1*
Y161292D1*
Y160308D1*
Y159323D1*
Y158339D1*
X133235Y187867D2*
Y186882D1*
Y185898D1*
Y184914D1*
X150951Y187867D2*
Y186882D1*
Y185898D1*
Y184914D1*
Y183930D1*
Y182945D1*
Y181961D1*
Y180977D1*
Y179993D1*
Y179008D1*
Y178024D1*
Y177040D1*
Y176056D1*
Y175071D1*
Y174087D1*
Y173103D1*
Y172119D1*
Y171134D1*
Y170150D1*
Y169166D1*
Y168182D1*
Y167197D1*
Y166213D1*
Y165229D1*
Y164245D1*
Y163260D1*
Y162276D1*
Y161292D1*
Y160308D1*
Y159323D1*
Y158339D1*
X156857Y187867D2*
X157349Y186882D1*
X157925Y185898D1*
X158526Y184914D1*
X159160Y183930D1*
X159818Y182945D1*
X160430Y181961D1*
X160992Y180977D1*
X161546Y179993D1*
X162145Y179008D1*
X162788Y178024D1*
X163427Y177040D1*
X164108Y176056D1*
X164885Y175071D1*
X165715Y174087D1*
X165105Y173103D1*
X164540Y172119D1*
X163982Y171134D1*
X163381Y170150D1*
X162741Y169166D1*
X162136Y168182D1*
X161578Y167197D1*
X161025Y166213D1*
X160426Y165229D1*
X159784Y164245D1*
X159149Y163260D1*
X158500Y162276D1*
X157833Y161292D1*
X157192Y160308D1*
X156547Y159323D1*
X155873Y158339D1*
X159810Y187867D2*
X160642Y186882D1*
X161378Y185898D1*
X162073Y184914D1*
X162755Y183930D1*
X163378Y182945D1*
X163950Y181961D1*
X164585Y180977D1*
X165520Y179993D1*
X166945Y179008D1*
X168668Y178024D1*
X174573Y187867D2*
X173929Y186882D1*
X173273Y185898D1*
X172600Y184914D1*
X171952Y183930D1*
X171298Y182945D1*
X170621Y181961D1*
X169896Y180977D1*
X168907Y179993D1*
X167455Y179008D1*
X165715Y178024D1*
X177526Y187867D2*
X177034Y186882D1*
X176462Y185898D1*
X175891Y184914D1*
X175348Y183930D1*
X174801Y182945D1*
X174205Y181961D1*
X173567Y180977D1*
X172963Y179993D1*
X172405Y179008D1*
X171852Y178024D1*
X171257Y177040D1*
X170653Y176056D1*
X170182Y175071D1*
X169854Y174087D1*
X169935Y173103D1*
X170254Y172119D1*
X170759Y171134D1*
X171335Y170150D1*
X171960Y169166D1*
X172614Y168182D1*
X173226Y167197D1*
X173787Y166213D1*
X174341Y165229D1*
X174940Y164245D1*
X175579Y163260D1*
X176184Y162276D1*
X176741Y161292D1*
X177289Y160308D1*
X177876Y159323D1*
X178510Y158339D1*
X191306Y187867D2*
X191150Y186882D1*
X190871Y185898D1*
X190491Y184914D1*
X190079Y183930D1*
X189700Y182945D1*
X189361Y181961D1*
X189013Y180977D1*
X188678Y179993D1*
X188357Y179008D1*
X187988Y178024D1*
X187566Y177040D1*
X187137Y176056D1*
X186751Y175071D1*
X186406Y174087D1*
X186026Y173103D1*
X185600Y172119D1*
X185169Y171134D1*
X184783Y170150D1*
X184442Y169166D1*
X184093Y168182D1*
X183757Y167197D1*
X183436Y166213D1*
X183067Y165229D1*
X182645Y164245D1*
X182215Y163260D1*
X181830Y162276D1*
X181488Y161292D1*
X181134Y160308D1*
X180791Y159323D1*
X180479Y158339D1*
X192290Y187867D2*
X192664Y186882D1*
X193087Y185898D1*
X193544Y184914D1*
X194018Y183930D1*
X194473Y182945D1*
X194869Y181961D1*
X195218Y180977D1*
X195600Y179993D1*
X196027Y179008D1*
X196458Y178024D1*
X196844Y177040D1*
X197189Y176056D1*
X197569Y175071D1*
X197999Y174087D1*
X198461Y173103D1*
X198938Y172119D1*
X199393Y171134D1*
X199790Y170150D1*
X200140Y169166D1*
X200521Y168182D1*
X200948Y167197D1*
X201379Y166213D1*
X201765Y165229D1*
X202110Y164245D1*
X202490Y163260D1*
X202917Y162276D1*
X203344Y161292D1*
X203698Y160308D1*
X203931Y159323D1*
X204101Y158339D1*
X239534Y187867D2*
X239378Y186882D1*
X239099Y185898D1*
X238719Y184914D1*
X238307Y183930D1*
X237929Y182945D1*
X237590Y181961D1*
X237242Y180977D1*
X236906Y179993D1*
X236586Y179008D1*
X236217Y178024D1*
X235794Y177040D1*
X235365Y176056D1*
X234980Y175071D1*
X234635Y174087D1*
X234255Y173103D1*
X233828Y172119D1*
X233397Y171134D1*
X233012Y170150D1*
X232670Y169166D1*
X232321Y168182D1*
X231985Y167197D1*
X231665Y166213D1*
X231295Y165229D1*
X230873Y164245D1*
X230444Y163260D1*
X230058Y162276D1*
X229716Y161292D1*
X229363Y160308D1*
X229019Y159323D1*
X228707Y158339D1*
X240518Y187867D2*
X240892Y186882D1*
X241315Y185898D1*
X241772Y184914D1*
X242246Y183930D1*
X242701Y182945D1*
X243097Y181961D1*
X243447Y180977D1*
X243828Y179993D1*
X244255Y179008D1*
X244686Y178024D1*
X245072Y177040D1*
X245418Y176056D1*
X245797Y175071D1*
X246228Y174087D1*
X246690Y173103D1*
X247166Y172119D1*
X247622Y171134D1*
X248018Y170150D1*
X248368Y169166D1*
X248749Y168182D1*
X249176Y167197D1*
X249608Y166213D1*
X249993Y165229D1*
X250339Y164245D1*
X250719Y163260D1*
X251145Y162276D1*
X251573Y161292D1*
X251926Y160308D1*
X252159Y159323D1*
X252329Y158339D1*
X254298Y187867D2*
Y186882D1*
Y185898D1*
Y184914D1*
Y183930D1*
X265125D1*
Y182945D1*
Y181961D1*
Y180977D1*
Y179993D1*
Y179008D1*
Y178024D1*
Y177040D1*
Y176056D1*
Y175071D1*
Y174087D1*
Y173103D1*
Y172119D1*
Y171134D1*
Y170150D1*
Y169166D1*
Y168182D1*
Y167197D1*
Y166213D1*
Y165229D1*
Y164245D1*
Y163260D1*
Y162276D1*
Y161292D1*
Y160308D1*
Y159323D1*
Y158339D1*
X277920Y187867D2*
Y186882D1*
Y185898D1*
Y184914D1*
Y183930D1*
X268077D1*
Y182945D1*
Y181961D1*
Y180977D1*
Y179993D1*
Y179008D1*
Y178024D1*
Y177040D1*
Y176056D1*
Y175071D1*
Y174087D1*
Y173103D1*
Y172119D1*
Y171134D1*
Y170150D1*
Y169166D1*
Y168182D1*
Y167197D1*
Y166213D1*
Y165229D1*
Y164245D1*
Y163260D1*
Y162276D1*
Y161292D1*
Y160308D1*
Y159323D1*
Y158339D1*
X280873Y187867D2*
X281705Y186882D1*
X282441Y185898D1*
X283136Y184914D1*
X283822Y183930D1*
X284476Y182945D1*
X285131Y181961D1*
X285801Y180977D1*
X286448Y179993D1*
X287101Y179008D1*
X287769Y178024D1*
X288411Y177040D1*
X289056Y176056D1*
X289731Y175071D1*
X289121Y174087D1*
X288555Y173103D1*
X287997Y172119D1*
X287397Y171134D1*
X286757Y170150D1*
X286152Y169166D1*
X285594Y168182D1*
X285041Y167197D1*
X284442Y166213D1*
X283803Y165229D1*
X283199Y164245D1*
X282641Y163260D1*
X282088Y162276D1*
X281492Y161292D1*
X280877Y160308D1*
X280345Y159323D1*
X279888Y158339D1*
X284810Y187867D2*
X285642Y186882D1*
X286378Y185898D1*
X287073Y184914D1*
X287759Y183930D1*
X288413Y182945D1*
X289068Y181961D1*
X289738Y180977D1*
X290385Y179993D1*
X291038Y179008D1*
X291707Y178024D1*
X292353Y177040D1*
X293006Y176056D1*
X293675Y175071D1*
X294316Y174087D1*
X294962Y173103D1*
X295636Y172119D1*
X296621Y187867D2*
Y186882D1*
Y185898D1*
Y184914D1*
Y183930D1*
Y182945D1*
Y181961D1*
Y180977D1*
Y179993D1*
Y179008D1*
Y178024D1*
Y177040D1*
X296617Y176056D1*
X296579Y175071D1*
X296427Y174087D1*
X296091Y173103D1*
X295636Y172119D1*
X300558Y187867D2*
Y186882D1*
Y185898D1*
Y184914D1*
Y183930D1*
Y182945D1*
Y181961D1*
Y180977D1*
Y179993D1*
Y179008D1*
Y178024D1*
Y177040D1*
Y176056D1*
Y175071D1*
Y174087D1*
Y173103D1*
Y172119D1*
Y171134D1*
Y170150D1*
Y169166D1*
Y168182D1*
Y167197D1*
Y166213D1*
Y165229D1*
Y164245D1*
Y163260D1*
Y162276D1*
Y161292D1*
Y160308D1*
Y159323D1*
Y158339D1*
X305479Y187867D2*
Y186882D1*
Y185898D1*
Y184914D1*
X323195Y187867D2*
Y186882D1*
Y185898D1*
Y184914D1*
Y183930D1*
Y182945D1*
Y181961D1*
Y180977D1*
Y179993D1*
Y179008D1*
Y178024D1*
Y177040D1*
Y176056D1*
Y175071D1*
Y174087D1*
Y173103D1*
Y172119D1*
Y171134D1*
Y170150D1*
Y169166D1*
Y168182D1*
Y167197D1*
Y166213D1*
Y165229D1*
Y164245D1*
Y163260D1*
Y162276D1*
Y161292D1*
Y160308D1*
Y159323D1*
Y158339D1*
X328117Y187867D2*
Y186882D1*
Y185898D1*
Y184914D1*
X346817Y187867D2*
Y186882D1*
Y185898D1*
Y184914D1*
Y183930D1*
Y182945D1*
Y181961D1*
Y180977D1*
Y179993D1*
Y179008D1*
Y178024D1*
Y177040D1*
Y176056D1*
Y175071D1*
Y174087D1*
Y173103D1*
Y172119D1*
Y171134D1*
Y170150D1*
Y169166D1*
Y168182D1*
Y167197D1*
Y166213D1*
Y165229D1*
Y164245D1*
Y163260D1*
Y162276D1*
Y161292D1*
Y160308D1*
Y159323D1*
Y158339D1*
X351739Y187867D2*
Y186882D1*
Y185898D1*
Y184914D1*
X369455Y187867D2*
Y186882D1*
Y185898D1*
Y184914D1*
Y183930D1*
Y182945D1*
Y181961D1*
Y180977D1*
Y179993D1*
Y179008D1*
Y178024D1*
Y177040D1*
Y176056D1*
Y175071D1*
Y174087D1*
Y173103D1*
Y172119D1*
Y171134D1*
Y170150D1*
Y169166D1*
Y168182D1*
Y167197D1*
Y166213D1*
Y165229D1*
Y164245D1*
Y163260D1*
Y162276D1*
Y161292D1*
Y160308D1*
Y159323D1*
Y158339D1*
X-127592Y186882D2*
Y185898D1*
Y184914D1*
Y183930D1*
Y182945D1*
Y181961D1*
Y180977D1*
Y179993D1*
Y179008D1*
Y178024D1*
Y177040D1*
Y176056D1*
Y175071D1*
Y174087D1*
Y173103D1*
Y172119D1*
Y171134D1*
Y170150D1*
Y169166D1*
Y168182D1*
Y167197D1*
Y166213D1*
Y165229D1*
Y164245D1*
Y163260D1*
Y162276D1*
Y161292D1*
Y160308D1*
Y159323D1*
Y158339D1*
Y157355D1*
Y156371D1*
Y155386D1*
Y154402D1*
Y153418D1*
Y152434D1*
X-125624Y186882D2*
Y185898D1*
Y184914D1*
Y183930D1*
Y182945D1*
Y181961D1*
Y180977D1*
Y179993D1*
Y179008D1*
Y178024D1*
Y177040D1*
Y176056D1*
Y175071D1*
Y174087D1*
Y173103D1*
Y172119D1*
Y171134D1*
Y170150D1*
Y169166D1*
Y168182D1*
Y167197D1*
Y166213D1*
Y165229D1*
Y164245D1*
Y163260D1*
Y162276D1*
Y161292D1*
Y160308D1*
Y159323D1*
Y158339D1*
Y157355D1*
Y156371D1*
Y155386D1*
Y154402D1*
Y153418D1*
Y152434D1*
X-292946Y184914D2*
X-293893Y183930D1*
X-294747Y182945D1*
X-295457Y181961D1*
X-296025Y180977D1*
X-296434Y179993D1*
X-296641Y179008D1*
X-296630Y178024D1*
X-296408Y177040D1*
X-295994Y176056D1*
X-295437Y175071D1*
X-293791Y174087D1*
X-291214Y173103D1*
X-288025Y172119D1*
X-289009Y184914D2*
X-288063Y183930D1*
X-287208Y182945D1*
X-286498Y181961D1*
X-285930Y180977D1*
X-285521Y179993D1*
X-285315Y179008D1*
X-285325Y178024D1*
X-285547Y177040D1*
X-285962Y176056D1*
X-286519Y175071D1*
X-288164Y174087D1*
X-290741Y173103D1*
X-293931Y172119D1*
X-246687Y184914D2*
X-248306Y183930D1*
X-249583Y182945D1*
X-250478Y181961D1*
X-251054Y180977D1*
X-251399Y179993D1*
X-251670Y179008D1*
X-251969Y178024D1*
X-252246Y177040D1*
X-252426Y176056D1*
X-252521Y175071D1*
X-252564Y174087D1*
X-252578Y173103D1*
X-252550Y172119D1*
X-252427Y171134D1*
X-252192Y170150D1*
X-251940Y169166D1*
X-251765Y168182D1*
X-251635Y167197D1*
X-251429Y166213D1*
X-251100Y165229D1*
X-250214Y164245D1*
X-248761Y163260D1*
X-246497Y162276D1*
X-243734Y161292D1*
X-245702Y184914D2*
X-244083Y183930D1*
X-242806Y182945D1*
X-241907Y181961D1*
X-241300Y180977D1*
X-240865Y179993D1*
X-240483Y179008D1*
X-240168Y178024D1*
X-239971Y177040D1*
X-239871Y176056D1*
X-239826Y175071D1*
X-239808Y174087D1*
X-239801Y173103D1*
X-239798Y172119D1*
X-239801Y171134D1*
X-239835Y170150D1*
X-239961Y169166D1*
X-240200Y168182D1*
X-240487Y167197D1*
X-240792Y166213D1*
X-241211Y165229D1*
X-241771Y164245D1*
X-243520Y163260D1*
X-246268Y162276D1*
X-249639Y161292D1*
X-224049Y184914D2*
X-224877Y183930D1*
X-225575Y182945D1*
X-226106Y181961D1*
X-226499Y180977D1*
X-226421Y179993D1*
X-226232Y179008D1*
X-225979Y178024D1*
X-225637Y177040D1*
X-225221Y176056D1*
X-224761Y175071D1*
X-224251Y174087D1*
X-223671Y173103D1*
X-223035Y172119D1*
X-222402Y171134D1*
X-221754Y170150D1*
X-221087Y169166D1*
X-220442Y168182D1*
X-219789Y167197D1*
X-219120Y166213D1*
X-218473Y165229D1*
X-217820Y164245D1*
X-217151Y163260D1*
X-216505Y162276D1*
X-215855Y161292D1*
X-215213Y160308D1*
X-214669Y159323D1*
X-214206Y158339D1*
X-221096Y184914D2*
X-219127Y183930D1*
X-217159Y182945D1*
X-185663Y184914D2*
X-187282Y183930D1*
X-188559Y182945D1*
X-189455Y181961D1*
X-190031Y180977D1*
X-190375Y179993D1*
X-190647Y179008D1*
X-190945Y178024D1*
X-191222Y177040D1*
X-191403Y176056D1*
X-191497Y175071D1*
X-191540Y174087D1*
X-191554Y173103D1*
X-191526Y172119D1*
X-191403Y171134D1*
X-191168Y170150D1*
X-190916Y169166D1*
X-190741Y168182D1*
X-190611Y167197D1*
X-190406Y166213D1*
X-190077Y165229D1*
X-189191Y164245D1*
X-187737Y163260D1*
X-185473Y162276D1*
X-182710Y161292D1*
X-184679Y184914D2*
X-183060Y183930D1*
X-181782Y182945D1*
X-180883Y181961D1*
X-180276Y180977D1*
X-179841Y179993D1*
X-179459Y179008D1*
X-179144Y178024D1*
X-178948Y177040D1*
X-178847Y176056D1*
X-178802Y175071D1*
X-178784Y174087D1*
X-178777Y173103D1*
X-178774Y172119D1*
X-178777Y171134D1*
X-178812Y170150D1*
X-178937Y169166D1*
X-179177Y168182D1*
X-179464Y167197D1*
X-179768Y166213D1*
X-180188Y165229D1*
X-180748Y164245D1*
X-182496Y163260D1*
X-185244Y162276D1*
X-188616Y161292D1*
X16109Y184914D2*
X15318Y183930D1*
X14746Y182945D1*
X14362Y181961D1*
X14351Y180977D1*
X14787Y179993D1*
X16694Y179008D1*
X19909Y178024D1*
X23983Y177040D1*
Y184914D2*
Y183930D1*
Y182945D1*
Y181961D1*
Y180977D1*
Y179993D1*
Y179008D1*
Y178024D1*
X17093Y177040D1*
X147999Y184914D2*
Y183930D1*
Y182945D1*
Y181961D1*
Y180977D1*
Y179993D1*
Y179008D1*
Y178024D1*
Y177040D1*
Y176056D1*
X138156D1*
Y175071D1*
Y174087D1*
Y173103D1*
Y172119D1*
X147999D1*
Y171134D1*
Y170150D1*
Y169166D1*
Y168182D1*
Y167197D1*
Y166213D1*
Y165229D1*
Y164245D1*
Y163260D1*
Y162276D1*
Y161292D1*
X320243Y184914D2*
Y183930D1*
Y182945D1*
Y181961D1*
Y180977D1*
Y179993D1*
Y179008D1*
Y178024D1*
Y177040D1*
Y176056D1*
X310400D1*
Y175071D1*
Y174087D1*
Y173103D1*
Y172119D1*
X320243D1*
Y171134D1*
Y170150D1*
Y169166D1*
Y168182D1*
Y167197D1*
Y166213D1*
Y165229D1*
Y164245D1*
Y163260D1*
Y162276D1*
Y161292D1*
X342880Y184914D2*
Y183930D1*
Y182945D1*
Y181961D1*
Y180977D1*
Y179993D1*
Y179008D1*
Y178024D1*
Y177040D1*
Y176056D1*
X332054D1*
Y175071D1*
Y174087D1*
Y173103D1*
Y172119D1*
X342880D1*
Y171134D1*
Y170150D1*
Y169166D1*
Y168182D1*
Y167197D1*
Y166213D1*
Y165229D1*
Y164245D1*
Y163260D1*
Y162276D1*
Y161292D1*
Y160308D1*
Y159323D1*
Y158339D1*
X366502Y184914D2*
Y183930D1*
Y182945D1*
Y181961D1*
Y180977D1*
Y179993D1*
Y179008D1*
Y178024D1*
Y177040D1*
Y176056D1*
X356660D1*
Y175071D1*
Y174087D1*
Y173103D1*
Y172119D1*
X366502D1*
Y171134D1*
Y170150D1*
Y169166D1*
Y168182D1*
Y167197D1*
Y166213D1*
Y165229D1*
Y164245D1*
Y163260D1*
Y162276D1*
Y161292D1*
X-268340Y180977D2*
Y179993D1*
Y179008D1*
Y178024D1*
Y177040D1*
Y176056D1*
Y175071D1*
Y174087D1*
Y173103D1*
Y172119D1*
Y171134D1*
Y170150D1*
Y169166D1*
Y168182D1*
Y167197D1*
Y166213D1*
Y165229D1*
Y164245D1*
Y163260D1*
Y162276D1*
Y161292D1*
Y160308D1*
Y159323D1*
Y158339D1*
X-267356Y180977D2*
X-265387Y179993D1*
X-263419Y179008D1*
X-162041Y180977D2*
Y179993D1*
Y179008D1*
Y178024D1*
Y177040D1*
Y176056D1*
Y175071D1*
Y174087D1*
Y173103D1*
Y172119D1*
Y171134D1*
Y170150D1*
Y169166D1*
Y168182D1*
Y167197D1*
Y166213D1*
Y165229D1*
Y164245D1*
Y163260D1*
Y162276D1*
Y161292D1*
Y160308D1*
Y159323D1*
Y158339D1*
X-161057Y180977D2*
X-159088Y179993D1*
X-157120Y179008D1*
X-155151Y178024D1*
X-91175Y180977D2*
Y179993D1*
Y179008D1*
Y178024D1*
Y177040D1*
Y176056D1*
Y175071D1*
Y174087D1*
Y173103D1*
Y172119D1*
Y171134D1*
Y170150D1*
Y169166D1*
Y168182D1*
Y167197D1*
Y166213D1*
Y165229D1*
Y164245D1*
Y163260D1*
Y162276D1*
Y161292D1*
Y160308D1*
Y159323D1*
Y158339D1*
X-90190Y180977D2*
X-88222Y179993D1*
X-86253Y179008D1*
X-84285Y178024D1*
X-52789Y180977D2*
Y179993D1*
Y179008D1*
Y178024D1*
Y177040D1*
Y176056D1*
Y175071D1*
Y174087D1*
Y173103D1*
Y172119D1*
Y171134D1*
Y170150D1*
Y169166D1*
Y168182D1*
Y167197D1*
Y166213D1*
Y165229D1*
Y164245D1*
Y163260D1*
Y162276D1*
Y161292D1*
Y160308D1*
Y159323D1*
Y158339D1*
X-51805Y180977D2*
X-49836Y179993D1*
X-47868Y179008D1*
X-45899Y178024D1*
X73195Y179993D2*
X73043Y179008D1*
X72795Y178024D1*
X72506Y177040D1*
X72208Y176056D1*
X71877Y175071D1*
X71548Y174087D1*
X71234Y173103D1*
X70896Y172119D1*
X70562Y171134D1*
X70220Y170150D1*
X69780Y169166D1*
X69258Y168182D1*
X77132Y167197D1*
X75164Y179993D2*
X75316Y179008D1*
X75564Y178024D1*
X75853Y177040D1*
X76151Y176056D1*
X76482Y175071D1*
X76811Y174087D1*
X77129Y173103D1*
X77497Y172119D1*
X77920Y171134D1*
X78355Y170150D1*
X78751Y169166D1*
X79101Y168182D1*
X70243Y167197D1*
X191306Y179993D2*
X191154Y179008D1*
X190906Y178024D1*
X190616Y177040D1*
X190318Y176056D1*
X189987Y175071D1*
X189659Y174087D1*
X189344Y173103D1*
X189007Y172119D1*
X188673Y171134D1*
X188330Y170150D1*
X187890Y169166D1*
X187369Y168182D1*
X195243Y167197D1*
X193274Y179993D2*
X193426Y179008D1*
X193674Y178024D1*
X193964Y177040D1*
X194261Y176056D1*
X194592Y175071D1*
X194921Y174087D1*
X195239Y173103D1*
X195608Y172119D1*
X196030Y171134D1*
X196465Y170150D1*
X196861Y169166D1*
X197211Y168182D1*
X188353Y167197D1*
X239534Y179993D2*
X239382Y179008D1*
X239134Y178024D1*
X238845Y177040D1*
X238547Y176056D1*
X238216Y175071D1*
X237887Y174087D1*
X237573Y173103D1*
X237235Y172119D1*
X236901Y171134D1*
X236558Y170150D1*
X236118Y169166D1*
X235597Y168182D1*
X243471Y167197D1*
X241502Y179993D2*
X241655Y179008D1*
X241902Y178024D1*
X242192Y177040D1*
X242490Y176056D1*
X242821Y175071D1*
X243150Y174087D1*
X243468Y173103D1*
X243836Y172119D1*
X244259Y171134D1*
X244693Y170150D1*
X245090Y169166D1*
X245439Y168182D1*
X236581Y167197D1*
X37762Y177040D2*
Y176056D1*
Y175071D1*
X37758Y174087D1*
X37724Y173103D1*
X37598Y172119D1*
X37363Y171134D1*
X37110Y170150D1*
X36935Y169166D1*
X36809Y168182D1*
X36642Y167197D1*
X36389Y166213D1*
X36130Y165229D1*
X35952Y164245D1*
X35825Y163260D1*
X35658Y162276D1*
X35404Y161292D1*
X35143Y160308D1*
X34954Y159323D1*
X34810Y158339D1*
X39731Y177040D2*
X39883Y176056D1*
X40131Y175071D1*
X40420Y174087D1*
X40718Y173103D1*
X41049Y172119D1*
X41378Y171134D1*
X41692Y170150D1*
X42030Y169166D1*
X42361Y168182D1*
X42676Y167197D1*
X43014Y166213D1*
X43345Y165229D1*
X43660Y164245D1*
X43998Y163260D1*
X44329Y162276D1*
X44645Y161292D1*
X44988Y160308D1*
X45327Y159323D1*
X45636Y158339D1*
X52526Y177040D2*
X52374Y176056D1*
X52126Y175071D1*
X51837Y174087D1*
X51539Y173103D1*
X51208Y172119D1*
X50879Y171134D1*
X50565Y170150D1*
X50227Y169166D1*
X49896Y168182D1*
X49581Y167197D1*
X49243Y166213D1*
X48912Y165229D1*
X48597Y164245D1*
X48259Y163260D1*
X47928Y162276D1*
X47612Y161292D1*
X47269Y160308D1*
X46930Y159323D1*
X46621Y158339D1*
X54495Y177040D2*
Y176056D1*
X54498Y175071D1*
X54533Y174087D1*
X54658Y173103D1*
X54894Y172119D1*
X55147Y171134D1*
X55322Y170150D1*
X55448Y169166D1*
X55615Y168182D1*
X55868Y167197D1*
X56127Y166213D1*
X56301Y165229D1*
X56397Y164245D1*
X56474Y163260D1*
X56617Y162276D1*
X56859Y161292D1*
X57116Y160308D1*
X57304Y159323D1*
X57447Y158339D1*
X18077Y174087D2*
X16306Y173103D1*
X14785Y172119D1*
X13635Y171134D1*
X12761Y170150D1*
X12456Y169166D1*
X12296Y168182D1*
X12261Y167197D1*
X12316Y166213D1*
X12703Y165229D1*
X13605Y164245D1*
X16129Y163260D1*
X20086Y162276D1*
X24967Y161292D1*
X23983Y174087D2*
Y173103D1*
Y172119D1*
Y171134D1*
Y170150D1*
Y169166D1*
Y168182D1*
Y167197D1*
Y166213D1*
Y165229D1*
Y164245D1*
Y163260D1*
Y162276D1*
X17093Y161292D1*
X291699Y171134D2*
X290871Y170150D1*
X290165Y169166D1*
X289561Y168182D1*
X288989Y167197D1*
X288383Y166213D1*
X287742Y165229D1*
X287136Y164245D1*
X286578Y163260D1*
X286025Y162276D1*
X285429Y161292D1*
X284814Y160308D1*
X284282Y159323D1*
X283825Y158339D1*
X292684Y171134D2*
X293630Y170150D1*
X294485Y169166D1*
X295194Y168182D1*
X295762Y167197D1*
X296175Y166213D1*
X296416Y165229D1*
X296535Y164245D1*
X296587Y163260D1*
X296608Y162276D1*
X296616Y161292D1*
X296619Y160308D1*
X296620Y159323D1*
X296621Y158339D1*
X-296883Y170150D2*
X-295937Y169166D1*
X-295078Y168182D1*
X-294330Y167197D1*
X-293598Y166213D1*
X-292786Y165229D1*
X-291893Y164245D1*
X-290950Y163260D1*
X-289983Y162276D1*
X-289006Y161292D1*
X-288024Y160308D1*
X-287041Y159323D1*
X-288025Y158339D1*
X-293931Y170150D2*
X-292946Y169166D1*
X167684Y170150D2*
X166737Y169166D1*
X165883Y168182D1*
X165169Y167197D1*
X164562Y166213D1*
X163989Y165229D1*
X163383Y164245D1*
X162742Y163260D1*
X162136Y162276D1*
X161579Y161292D1*
X161031Y160308D1*
X160444Y159323D1*
X159810Y158339D1*
X168668Y170150D2*
X168857Y169166D1*
X169231Y168182D1*
X169757Y167197D1*
X170311Y166213D1*
X170848Y165229D1*
X171394Y164245D1*
X171989Y163260D1*
X172631Y162276D1*
X173270Y161292D1*
X173950Y160308D1*
X174727Y159323D1*
X175558Y158339D1*
X-205348Y163260D2*
X-205798Y162276D1*
X-206044Y161292D1*
X-206129Y160308D1*
X-205788Y159323D1*
X-205348Y158339D1*
X-202395Y163260D2*
X-201945Y162276D1*
X-201699Y161292D1*
X-201614Y160308D1*
X-201955Y159323D1*
X-202395Y158339D1*
X-73458Y163260D2*
X-73909Y162276D1*
X-74154Y161292D1*
X-74240Y160308D1*
X-73898Y159323D1*
X-73458Y158339D1*
X-70505Y163260D2*
X-70055Y162276D1*
X-69810Y161292D1*
X-69724Y160308D1*
X-70065Y159323D1*
X-70505Y158339D1*
X69258Y164245D2*
X68464Y163260D1*
X67853Y162276D1*
X67398Y161292D1*
X66994Y160308D1*
X66629Y159323D1*
X66306Y158339D1*
X81069Y164245D2*
X81107Y163260D1*
X81237Y162276D1*
X81510Y161292D1*
X81917Y160308D1*
X82441Y159323D1*
X83038Y158339D1*
X187369Y164245D2*
X186574Y163260D1*
X185964Y162276D1*
X185508Y161292D1*
X185104Y160308D1*
X184739Y159323D1*
X184416Y158339D1*
X199180Y164245D2*
X199217Y163260D1*
X199347Y162276D1*
X199621Y161292D1*
X200028Y160308D1*
X200551Y159323D1*
X201148Y158339D1*
X235597Y164245D2*
X234802Y163260D1*
X234192Y162276D1*
X233736Y161292D1*
X233332Y160308D1*
X232968Y159323D1*
X232644Y158339D1*
X247408Y164245D2*
X247445Y163260D1*
X247575Y162276D1*
X247849Y161292D1*
X248256Y160308D1*
X248779Y159323D1*
X249376Y158339D1*
X-231923Y161292D2*
Y160308D1*
Y159323D1*
Y158339D1*
X110597Y161292D2*
Y160308D1*
Y159323D1*
Y158339D1*
X133235Y161292D2*
Y160308D1*
Y159323D1*
Y158339D1*
X305479Y161292D2*
Y160308D1*
Y159323D1*
Y158339D1*
X351739Y161292D2*
Y160308D1*
Y159323D1*
Y158339D1*
X-15387Y154402D2*
Y153418D1*
Y152434D1*
X6266Y154402D2*
Y153418D1*
Y152434D1*
X87959Y154402D2*
Y153418D1*
Y152434D1*
X109613Y154402D2*
Y153418D1*
Y152434D1*
X206069Y154402D2*
Y153418D1*
Y152434D1*
X227723Y154402D2*
Y153418D1*
Y152434D1*
M02*
