G04 DipTrace 3.2.0.1*
G04 BottomSilk.gbr*
%MOIN*%
G04 #@! TF.FileFunction,Legend,Bot*
G04 #@! TF.Part,Single*
%ADD10C,0.009843*%
%ADD14C,0.001969*%
%ADD62C,0.003088*%
%FSLAX26Y26*%
G04*
G70*
G90*
G75*
G01*
G04 BotSilk*
%LPD*%
X-400375Y-480405D2*
D10*
X-141951Y-631222D1*
X-309094Y-323995D2*
X-50670Y-474813D1*
X-322179Y-526028D2*
X-230898Y-369619D1*
X241188Y-334200D2*
X263109Y-322639D1*
X263722Y-322534D2*
X275264Y-344470D1*
X119291Y479528D2*
X50787D1*
Y616929D1*
X119291D1*
Y479528D1*
X-52362D2*
X-120866D1*
Y616929D1*
X-52362D1*
Y479528D1*
X-27165Y393701D2*
X-164567D1*
Y325197D1*
X-27165D1*
Y393701D1*
X166535D2*
X29134D1*
Y325197D1*
X166535D1*
Y393701D1*
X25594Y539367D2*
X-25591D1*
Y562995D1*
X25594D1*
Y539367D1*
X-39370Y511809D2*
X-403551Y-1728D2*
G02X-403551Y-1728I439011J0D01*
G01*
X344525Y307311D2*
X-273606D1*
X344525Y-310768D2*
X-273606D1*
X-417276Y254195D2*
Y77024D1*
Y-80481D2*
Y-257652D1*
Y254195D2*
X-318929D1*
X-417276Y-257652D2*
X-318929D1*
X-112448Y-507400D2*
D14*
X-96699D1*
X-83904D2*
X-77999D1*
X-112444Y-508384D2*
X-96699D1*
X-85642D2*
X-76110D1*
X-112409Y-509368D2*
X-96699D1*
X-87076D2*
X-74595D1*
X-112284Y-510352D2*
X-96699D1*
X-88150D2*
X-73454D1*
X-112044Y-511337D2*
X-108358D1*
X-99652D2*
X-96699D1*
X-89003D2*
X-82723D1*
X-79180D2*
X-72617D1*
X-111757Y-512321D2*
X-108111D1*
X-99652D2*
X-96699D1*
X-89721D2*
X-84245D1*
X-77655D2*
X-71997D1*
X-111460Y-513305D2*
X-107821D1*
X-99652D2*
X-96699D1*
X-90245D2*
X-85408D1*
X-76470D2*
X-71561D1*
X-111133Y-514289D2*
X-107523D1*
X-99652D2*
X-96699D1*
X-90567D2*
X-86223D1*
X-75600D2*
X-71278D1*
X-110835Y-515274D2*
X-107192D1*
X-99652D2*
X-96699D1*
X-90794D2*
X-86857D1*
X-74963D2*
X-71032D1*
X-110612Y-516258D2*
X-106863D1*
X-74523D2*
X-70743D1*
X-110388Y-517242D2*
X-106549D1*
X-74271D2*
X-70469D1*
X-110104Y-518226D2*
X-106215D1*
X-74149D2*
X-70290D1*
X-109799Y-519211D2*
X-105915D1*
X-74095D2*
X-70196D1*
X-109495Y-520195D2*
X-105691D1*
X-74074D2*
X-70153D1*
X-109162Y-521179D2*
X-105467D1*
X-74066D2*
X-70135D1*
X-108832Y-522163D2*
X-105183D1*
X-74063D2*
X-70128D1*
X-108518Y-523148D2*
X-104878D1*
X-74062D2*
X-70126D1*
X-108184Y-524132D2*
X-104574D1*
X-74062D2*
X-70129D1*
X-107884Y-525116D2*
X-104241D1*
X-74066D2*
X-70163D1*
X-107659Y-526100D2*
X-103911D1*
X-74100D2*
X-70289D1*
X-107436Y-527085D2*
X-103596D1*
X-74229D2*
X-70524D1*
X-107152Y-528069D2*
X-103263D1*
X-74504D2*
X-70780D1*
X-106847Y-529053D2*
X-102962D1*
X-90794D2*
X-86857D1*
X-74924D2*
X-70987D1*
X-106543Y-530037D2*
X-102738D1*
X-90604D2*
X-86274D1*
X-75545D2*
X-71207D1*
X-106209Y-531022D2*
X-102514D1*
X-90230D2*
X-85499D1*
X-76367D2*
X-71523D1*
X-105880Y-532006D2*
X-102230D1*
X-89697D2*
X-83653D1*
X-78233D2*
X-71957D1*
X-105565Y-532990D2*
X-101925D1*
X-89070D2*
X-81058D1*
X-80839D2*
X-72542D1*
X-105231Y-533974D2*
X-101621D1*
X-88244D2*
X-73363D1*
X-104932Y-534959D2*
X-101283D1*
X-87063D2*
X-74533D1*
X-104727Y-535943D2*
X-100945D1*
X-85557D2*
X-76137D1*
X-104573Y-536927D2*
X-100636D1*
X-83904D2*
X-77999D1*
X324867Y-411634D2*
X338647D1*
X343568D2*
X347505D1*
X359316D2*
X362269D1*
X374080D2*
X378017D1*
X387860D2*
X395734D1*
X323130Y-412618D2*
X338647D1*
X343905D2*
X347543D1*
X359279D2*
X362421D1*
X374043D2*
X377681D1*
X386130D2*
X397471D1*
X321700Y-413602D2*
X338647D1*
X344202D2*
X347669D1*
X359153D2*
X362665D1*
X373916D2*
X377388D1*
X384585D2*
X398901D1*
X320657Y-414587D2*
X338647D1*
X344423D2*
X347905D1*
X358913D2*
X362924D1*
X373681D2*
X377197D1*
X383787D2*
X399941D1*
X319894Y-415571D2*
X326049D1*
X334710D2*
X338647D1*
X344645D2*
X348161D1*
X358626D2*
X363131D1*
X373424D2*
X377066D1*
X383675D2*
X388844D1*
X394552D2*
X400668D1*
X319287Y-416555D2*
X324528D1*
X334710D2*
X338647D1*
X344924D2*
X348367D1*
X358329D2*
X363348D1*
X373218D2*
X376897D1*
X383923D2*
X385891D1*
X396073D2*
X401151D1*
X318782Y-417539D2*
X323378D1*
X334710D2*
X338647D1*
X345198D2*
X348584D1*
X358002D2*
X363625D1*
X373001D2*
X376644D1*
X397220D2*
X401419D1*
X318401Y-418524D2*
X322504D1*
X334710D2*
X338647D1*
X345411D2*
X348862D1*
X357704D2*
X363899D1*
X372724D2*
X376381D1*
X398082D2*
X401548D1*
X318173Y-419508D2*
X322199D1*
X334710D2*
X338647D1*
X345630D2*
X349135D1*
X357480D2*
X364112D1*
X372454D2*
X376172D1*
X398335D2*
X401604D1*
X318060Y-420492D2*
X322035D1*
X334710D2*
X338647D1*
X345908D2*
X349348D1*
X357257D2*
X364331D1*
X372272D2*
X375954D1*
X398192D2*
X401622D1*
X318010Y-421476D2*
X321962D1*
X334710D2*
X338647D1*
X346182D2*
X349567D1*
X356977D2*
X364609D1*
X372144D2*
X375677D1*
X397680D2*
X401592D1*
X317990Y-422461D2*
X321932D1*
X334710D2*
X338647D1*
X346395D2*
X349845D1*
X356703D2*
X359312D1*
X361095D2*
X364883D1*
X371976D2*
X375403D1*
X396239D2*
X401431D1*
X317982Y-423445D2*
X321921D1*
X334710D2*
X338647D1*
X346614D2*
X350115D1*
X356490D2*
X359278D1*
X361705D2*
X365096D1*
X371722D2*
X375190D1*
X393975D2*
X401029D1*
X317979Y-424429D2*
X321917D1*
X334710D2*
X338647D1*
X346893D2*
X350297D1*
X356270D2*
X359152D1*
X362160D2*
X365315D1*
X371459D2*
X374971D1*
X391107D2*
X400327D1*
X317978Y-425413D2*
X321915D1*
X334710D2*
X338647D1*
X347166D2*
X350426D1*
X355992D2*
X358917D1*
X362556D2*
X365593D1*
X371251D2*
X374693D1*
X388327D2*
X399228D1*
X317978Y-426398D2*
X321915D1*
X334710D2*
X338647D1*
X347379D2*
X350594D1*
X355718D2*
X358660D1*
X362881D2*
X365867D1*
X371033D2*
X374419D1*
X386143D2*
X397468D1*
X317978Y-427382D2*
X321915D1*
X334710D2*
X338647D1*
X347598D2*
X350847D1*
X355505D2*
X358454D1*
X363115D2*
X366080D1*
X370755D2*
X374206D1*
X384617D2*
X394910D1*
X317978Y-428366D2*
X321915D1*
X334710D2*
X338647D1*
X347877D2*
X351110D1*
X355286D2*
X358237D1*
X363342D2*
X366299D1*
X370486D2*
X373987D1*
X383593D2*
X391956D1*
X317978Y-429350D2*
X321915D1*
X334710D2*
X338647D1*
X348151D2*
X351319D1*
X355008D2*
X357956D1*
X363623D2*
X366585D1*
X370300D2*
X373708D1*
X382893D2*
X389334D1*
X317978Y-430335D2*
X321915D1*
X334710D2*
X338647D1*
X348364D2*
X351540D1*
X354734D2*
X357652D1*
X363898D2*
X366930D1*
X370131D2*
X373435D1*
X382428D2*
X387455D1*
X317982Y-431319D2*
X321919D1*
X334710D2*
X338647D1*
X348583D2*
X351856D1*
X354518D2*
X357348D1*
X364111D2*
X367414D1*
X369899D2*
X373222D1*
X382168D2*
X386089D1*
X318016Y-432303D2*
X321957D1*
X334710D2*
X338647D1*
X348861D2*
X352280D1*
X354272D2*
X357019D1*
X364331D2*
X368185D1*
X369122D2*
X373003D1*
X382043D2*
X385537D1*
X318145Y-433287D2*
X322125D1*
X334710D2*
X338647D1*
X349131D2*
X352810D1*
X353891D2*
X356720D1*
X364613D2*
X372724D1*
X381992D2*
X385501D1*
X318416Y-434272D2*
X322443D1*
X334710D2*
X338647D1*
X349313D2*
X356496D1*
X364917D2*
X372450D1*
X382009D2*
X385822D1*
X318797Y-435256D2*
X323363D1*
X334710D2*
X338647D1*
X349442D2*
X356273D1*
X365221D2*
X372237D1*
X382165D2*
X386645D1*
X400655D2*
X401639D1*
X319247Y-436240D2*
X326059D1*
X334710D2*
X338647D1*
X349610D2*
X355993D1*
X365551D2*
X372018D1*
X382561D2*
X389177D1*
X397255D2*
X402165D1*
X319793Y-437224D2*
X330357D1*
X334710D2*
X338647D1*
X349863D2*
X355718D1*
X365850D2*
X371740D1*
X383220D2*
X393034D1*
X392880D2*
X402845D1*
X320570Y-438209D2*
X338647D1*
X350122D2*
X355502D1*
X366076D2*
X371470D1*
X384118D2*
X403608D1*
X321725Y-439193D2*
X338647D1*
X350297D2*
X355256D1*
X366327D2*
X371291D1*
X385337D2*
X401458D1*
X323221Y-440177D2*
X338647D1*
X350394D2*
X354875D1*
X366709D2*
X371192D1*
X386966D2*
X399144D1*
X324867Y-441161D2*
X338647D1*
X350458D2*
X354395D1*
X367190D2*
X371127D1*
X388844D2*
X396718D1*
X130110Y562354D2*
X134047D1*
X156685D2*
X171449D1*
X130484Y561370D2*
X134421D1*
X155250D2*
X171449D1*
X130907Y560386D2*
X134844D1*
X154022D2*
X171449D1*
X131364Y559402D2*
X135301D1*
X153055D2*
X171449D1*
X131842Y558417D2*
X135775D1*
X152372D2*
X158019D1*
X167512D2*
X171449D1*
X132328Y557433D2*
X136230D1*
X151888D2*
X156741D1*
X167512D2*
X171449D1*
X132819Y556449D2*
X136626D1*
X151482D2*
X155846D1*
X167512D2*
X171449D1*
X133309Y555465D2*
X136976D1*
X151161D2*
X155175D1*
X167512D2*
X171449D1*
X133802Y554480D2*
X137357D1*
X150995D2*
X154977D1*
X167512D2*
X171449D1*
X134293Y553496D2*
X137788D1*
X151019D2*
X154903D1*
X167512D2*
X171449D1*
X134786Y552512D2*
X138250D1*
X151213D2*
X155149D1*
X167512D2*
X171449D1*
X135277Y551528D2*
X138730D1*
X151485D2*
X155809D1*
X167512D2*
X171449D1*
X127157Y550543D2*
X130110D1*
X135766D2*
X139217D1*
X151813D2*
X158402D1*
X167512D2*
X171449D1*
X127157Y549559D2*
X130110D1*
X136227D2*
X139708D1*
X152305D2*
X162849D1*
X167512D2*
X171449D1*
X127157Y548575D2*
X130110D1*
X136625D2*
X140199D1*
X153029D2*
X171449D1*
X127157Y547591D2*
X130110D1*
X136975D2*
X140691D1*
X153953D2*
X171449D1*
X127157Y546606D2*
X130110D1*
X137357D2*
X141183D1*
X154911D2*
X171449D1*
X127157Y545622D2*
X130110D1*
X137788D2*
X141676D1*
X155754D2*
X171449D1*
X127150Y544638D2*
X130110D1*
X138253D2*
X142167D1*
X155957D2*
X160778D1*
X167512D2*
X171449D1*
X127081Y543654D2*
X130110D1*
X138759D2*
X142656D1*
X155686D2*
X160072D1*
X167512D2*
X171449D1*
X126919Y542669D2*
X130110D1*
X139328D2*
X143113D1*
X155232D2*
X159472D1*
X167512D2*
X171449D1*
X126381Y541685D2*
X130110D1*
X139953D2*
X143476D1*
X154656D2*
X158931D1*
X167512D2*
X171449D1*
X125859Y540701D2*
X143697D1*
X154076D2*
X158420D1*
X167512D2*
X171449D1*
X125512Y539717D2*
X143809D1*
X153532D2*
X157919D1*
X167512D2*
X171449D1*
X125328Y538732D2*
X143860D1*
X153012D2*
X157425D1*
X167512D2*
X171449D1*
X125240Y537748D2*
X143890D1*
X152509D2*
X156931D1*
X167512D2*
X171449D1*
X127157Y536764D2*
X130110D1*
X152012D2*
X156440D1*
X167512D2*
X171449D1*
X127157Y535780D2*
X130110D1*
X151516D2*
X155950D1*
X167512D2*
X171449D1*
X127157Y534795D2*
X130110D1*
X150997D2*
X155484D1*
X167512D2*
X171449D1*
X127157Y533811D2*
X130110D1*
X150422D2*
X155074D1*
X167512D2*
X171449D1*
X127157Y532827D2*
X130110D1*
X149795D2*
X154717D1*
X167512D2*
X171449D1*
X-174349Y557034D2*
X-159585D1*
X-145806D2*
X-131042D1*
X-174349Y556050D2*
X-159585D1*
X-147241D2*
X-131042D1*
X-174349Y555066D2*
X-159585D1*
X-148469D2*
X-131042D1*
X-174349Y554081D2*
X-159585D1*
X-149436D2*
X-131042D1*
X-163522Y553097D2*
X-159585D1*
X-150119D2*
X-144472D1*
X-134979D2*
X-131042D1*
X-163522Y552113D2*
X-159585D1*
X-150602D2*
X-145750D1*
X-134979D2*
X-131042D1*
X-163522Y551129D2*
X-159585D1*
X-151008D2*
X-146645D1*
X-134979D2*
X-131042D1*
X-163526Y550144D2*
X-159585D1*
X-151330D2*
X-147316D1*
X-134979D2*
X-131042D1*
X-163564Y549160D2*
X-159585D1*
X-151496D2*
X-147514D1*
X-134979D2*
X-131042D1*
X-163716Y548176D2*
X-159585D1*
X-151472D2*
X-147588D1*
X-134979D2*
X-131042D1*
X-170412Y547192D2*
X-165491D1*
X-164052D2*
X-159585D1*
X-151278D2*
X-147342D1*
X-134979D2*
X-131042D1*
X-171813Y546207D2*
X-159585D1*
X-151006D2*
X-146682D1*
X-134979D2*
X-131042D1*
X-172950Y545223D2*
X-159585D1*
X-150678D2*
X-144089D1*
X-134979D2*
X-131042D1*
X-173803Y544239D2*
X-159585D1*
X-150185D2*
X-139642D1*
X-134979D2*
X-131042D1*
X-174434Y543255D2*
X-169390D1*
X-165672D2*
X-159585D1*
X-149462D2*
X-131042D1*
X-174873Y542270D2*
X-170245D1*
X-164049D2*
X-159585D1*
X-148538D2*
X-131042D1*
X-175124Y541286D2*
X-170954D1*
X-162538D2*
X-159585D1*
X-147579D2*
X-131042D1*
X-175246Y540302D2*
X-171522D1*
X-146737D2*
X-131042D1*
X-175300Y539318D2*
X-171935D1*
X-146534D2*
X-141713D1*
X-134979D2*
X-131042D1*
X-175321Y538333D2*
X-172173D1*
X-146805D2*
X-142418D1*
X-134979D2*
X-131042D1*
X-175329Y537349D2*
X-172257D1*
X-147258D2*
X-143019D1*
X-134979D2*
X-131042D1*
X-175332Y536365D2*
X-172180D1*
X-147835D2*
X-143560D1*
X-134979D2*
X-131042D1*
X-175329Y535381D2*
X-171926D1*
X-148414D2*
X-144071D1*
X-134979D2*
X-131042D1*
X-175295Y534396D2*
X-171507D1*
X-162538D2*
X-159585D1*
X-148959D2*
X-144572D1*
X-134979D2*
X-131042D1*
X-175166Y533412D2*
X-170967D1*
X-163186D2*
X-159741D1*
X-149479D2*
X-145066D1*
X-134979D2*
X-131042D1*
X-174891Y532428D2*
X-169663D1*
X-164897D2*
X-160024D1*
X-149981D2*
X-145560D1*
X-134979D2*
X-131042D1*
X-174471Y531444D2*
X-167768D1*
X-167410D2*
X-160446D1*
X-150479D2*
X-146051D1*
X-134979D2*
X-131042D1*
X-173863Y530459D2*
X-161056D1*
X-150975D2*
X-146541D1*
X-134979D2*
X-131042D1*
X-172968Y529475D2*
X-161950D1*
X-151494D2*
X-147007D1*
X-134979D2*
X-131042D1*
X-171772Y528491D2*
X-163146D1*
X-152068D2*
X-147417D1*
X-134979D2*
X-131042D1*
X-170412Y527507D2*
X-164507D1*
X-152696D2*
X-147774D1*
X-134979D2*
X-131042D1*
X-222526Y366853D2*
X-206778D1*
X-193983D2*
X-179219D1*
X-222522Y365869D2*
X-206778D1*
X-195418D2*
X-179219D1*
X-222488Y364885D2*
X-206778D1*
X-196646D2*
X-179219D1*
X-222362Y363900D2*
X-206778D1*
X-197613D2*
X-179219D1*
X-222123Y362916D2*
X-218437D1*
X-209731D2*
X-206778D1*
X-198296D2*
X-192649D1*
X-183156D2*
X-179219D1*
X-221836Y361932D2*
X-218189D1*
X-209731D2*
X-206778D1*
X-198780D2*
X-193927D1*
X-183156D2*
X-179219D1*
X-221539Y360948D2*
X-217900D1*
X-209731D2*
X-206778D1*
X-199186D2*
X-194822D1*
X-183156D2*
X-179219D1*
X-221212Y359963D2*
X-217602D1*
X-209731D2*
X-206778D1*
X-199507D2*
X-195493D1*
X-183156D2*
X-179219D1*
X-220914Y358979D2*
X-217271D1*
X-209731D2*
X-206778D1*
X-199673D2*
X-195691D1*
X-183156D2*
X-179219D1*
X-220690Y357995D2*
X-216942D1*
X-199649D2*
X-195765D1*
X-183156D2*
X-179219D1*
X-220467Y357010D2*
X-216628D1*
X-199455D2*
X-195519D1*
X-183156D2*
X-179219D1*
X-220183Y356026D2*
X-216294D1*
X-199183D2*
X-194859D1*
X-183156D2*
X-179219D1*
X-219878Y355042D2*
X-215994D1*
X-198855D2*
X-192266D1*
X-183156D2*
X-179219D1*
X-219574Y354058D2*
X-215769D1*
X-198363D2*
X-187819D1*
X-183156D2*
X-179219D1*
X-219241Y353073D2*
X-215546D1*
X-197639D2*
X-179219D1*
X-218911Y352089D2*
X-215262D1*
X-196715D2*
X-179219D1*
X-218596Y351105D2*
X-214957D1*
X-195757D2*
X-179219D1*
X-218263Y350121D2*
X-214653D1*
X-194914D2*
X-179219D1*
X-217962Y349136D2*
X-214319D1*
X-194711D2*
X-189890D1*
X-183156D2*
X-179219D1*
X-217738Y348152D2*
X-213990D1*
X-194982D2*
X-190596D1*
X-183156D2*
X-179219D1*
X-217514Y347168D2*
X-213675D1*
X-195436D2*
X-191196D1*
X-183156D2*
X-179219D1*
X-217230Y346184D2*
X-213341D1*
X-196012D2*
X-191737D1*
X-183156D2*
X-179219D1*
X-216925Y345199D2*
X-213041D1*
X-196592D2*
X-192248D1*
X-183156D2*
X-179219D1*
X-216621Y344215D2*
X-212817D1*
X-197136D2*
X-192749D1*
X-183156D2*
X-179219D1*
X-216288Y343231D2*
X-212593D1*
X-197656D2*
X-193243D1*
X-183156D2*
X-179219D1*
X-215958Y342247D2*
X-212309D1*
X-198159D2*
X-193737D1*
X-183156D2*
X-179219D1*
X-215644Y341262D2*
X-212004D1*
X-198656D2*
X-194228D1*
X-183156D2*
X-179219D1*
X-215310Y340278D2*
X-211699D1*
X-199152D2*
X-194718D1*
X-183156D2*
X-179219D1*
X-215011Y339294D2*
X-211361D1*
X-199671D2*
X-195184D1*
X-183156D2*
X-179219D1*
X-214805Y338310D2*
X-211024D1*
X-200246D2*
X-195594D1*
X-183156D2*
X-179219D1*
X-214652Y337325D2*
X-210715D1*
X-200873D2*
X-195951D1*
X-183156D2*
X-179219D1*
X189209Y371966D2*
X192161D1*
X213815D2*
X228579D1*
X189583Y370982D2*
X192990D1*
X212380D2*
X228579D1*
X190006Y369997D2*
X193695D1*
X211152D2*
X228579D1*
X190463Y369013D2*
X194295D1*
X210184D2*
X228579D1*
X190941Y368029D2*
X194837D1*
X209502D2*
X215149D1*
X224642D2*
X228579D1*
X191426Y367045D2*
X195348D1*
X209018D2*
X213871D1*
X224642D2*
X228579D1*
X191917Y366060D2*
X195849D1*
X208612D2*
X212976D1*
X224642D2*
X228579D1*
X192407Y365076D2*
X196343D1*
X208291D2*
X212305D1*
X224642D2*
X228579D1*
X192897Y364092D2*
X196837D1*
X208125D2*
X212107D1*
X224642D2*
X228579D1*
X193363Y363108D2*
X197328D1*
X208148D2*
X212033D1*
X224642D2*
X228579D1*
X193773Y362123D2*
X197821D1*
X208342D2*
X212279D1*
X224642D2*
X228579D1*
X194130Y361139D2*
X198313D1*
X208615D2*
X212939D1*
X224642D2*
X228579D1*
X191328Y360155D2*
X198802D1*
X208943D2*
X215531D1*
X224642D2*
X228579D1*
X189217Y359171D2*
X199262D1*
X209435D2*
X219979D1*
X224642D2*
X228579D1*
X187699Y358186D2*
X199660D1*
X210159D2*
X228579D1*
X186625Y357202D2*
X200007D1*
X211083D2*
X228579D1*
X185819Y356218D2*
X191527D1*
X195077D2*
X200354D1*
X212041D2*
X228579D1*
X185537Y355234D2*
X190249D1*
X195931D2*
X200656D1*
X212884D2*
X228579D1*
X185384Y354249D2*
X189354D1*
X196641D2*
X200847D1*
X213087D2*
X217908D1*
X224642D2*
X228579D1*
X185316Y353265D2*
X188683D1*
X197205D2*
X200946D1*
X212816D2*
X217202D1*
X224642D2*
X228579D1*
X185288Y352281D2*
X188451D1*
X197583D2*
X200991D1*
X212362D2*
X216602D1*
X224642D2*
X228579D1*
X185277Y351297D2*
X188358D1*
X197791D2*
X201009D1*
X211786D2*
X216061D1*
X224642D2*
X228579D1*
X185277Y350312D2*
X188433D1*
X197564D2*
X201012D1*
X211206D2*
X215549D1*
X224642D2*
X228579D1*
X185311Y349328D2*
X188642D1*
X197170D2*
X200980D1*
X210661D2*
X215049D1*
X224642D2*
X228579D1*
X185440Y348344D2*
X189219D1*
X196647D2*
X200852D1*
X210142D2*
X214555D1*
X224642D2*
X228579D1*
X185714Y347360D2*
X190785D1*
X195347D2*
X200578D1*
X209639D2*
X214061D1*
X224642D2*
X228579D1*
X186134Y346375D2*
X193186D1*
X193454D2*
X200158D1*
X209142D2*
X213569D1*
X224642D2*
X228579D1*
X186742Y345391D2*
X199549D1*
X208646D2*
X213080D1*
X224642D2*
X228579D1*
X187637Y344407D2*
X198654D1*
X208127D2*
X212614D1*
X224642D2*
X228579D1*
X188833Y343423D2*
X197459D1*
X207552D2*
X212204D1*
X224642D2*
X228579D1*
X190193Y342438D2*
X196098D1*
X206925D2*
X211846D1*
X224642D2*
X228579D1*
X-34430Y478643D2*
X-19667D1*
X-4903D2*
X1003D1*
X21672D2*
X36436D1*
X-36167Y477659D2*
X-19667D1*
X-6640D2*
X2774D1*
X20237D2*
X36436D1*
X-37438Y476675D2*
X-19667D1*
X-8074D2*
X4299D1*
X19009D2*
X36436D1*
X-38325Y475690D2*
X-19667D1*
X-9148D2*
X5484D1*
X18041D2*
X36436D1*
X-38989Y474706D2*
X-34389D1*
X-23604D2*
X-19667D1*
X-10002D2*
X-3721D1*
X-179D2*
X6354D1*
X17359D2*
X23006D1*
X32499D2*
X36436D1*
X-39517Y473722D2*
X-35209D1*
X-23604D2*
X-19667D1*
X-10720D2*
X-5244D1*
X1346D2*
X6991D1*
X16875D2*
X21728D1*
X32499D2*
X36436D1*
X-39904Y472738D2*
X-35793D1*
X-23604D2*
X-19667D1*
X-11244D2*
X-6407D1*
X2531D2*
X7435D1*
X16469D2*
X20833D1*
X32499D2*
X36436D1*
X-40100Y471753D2*
X-36122D1*
X-23604D2*
X-19667D1*
X-11566D2*
X-7222D1*
X3401D2*
X7721D1*
X16148D2*
X20162D1*
X32499D2*
X36436D1*
X-40085Y470769D2*
X-36244D1*
X-23604D2*
X-19667D1*
X-11793D2*
X-7856D1*
X4038D2*
X7969D1*
X15982D2*
X19964D1*
X32499D2*
X36436D1*
X-39862Y469785D2*
X-36238D1*
X-23604D2*
X-19667D1*
X4479D2*
X8258D1*
X16005D2*
X19890D1*
X32499D2*
X36436D1*
X-39466Y468801D2*
X-35723D1*
X-23604D2*
X-19667D1*
X4730D2*
X8532D1*
X16199D2*
X20136D1*
X32499D2*
X36436D1*
X-38906Y467816D2*
X-33292D1*
X-23604D2*
X-19667D1*
X4852D2*
X8712D1*
X16472D2*
X20796D1*
X32499D2*
X36436D1*
X-38208Y466832D2*
X-29048D1*
X-23604D2*
X-19667D1*
X4906D2*
X8806D1*
X16800D2*
X23388D1*
X32499D2*
X36436D1*
X-37546Y465848D2*
X-19667D1*
X4927D2*
X8849D1*
X17292D2*
X27836D1*
X32499D2*
X36436D1*
X-37026Y464864D2*
X-19667D1*
X-12777D2*
X-2934D1*
X4935D2*
X8866D1*
X18016D2*
X36436D1*
X-37112Y463879D2*
X-19667D1*
X-12777D2*
X-2934D1*
X4938D2*
X8873D1*
X18940D2*
X36436D1*
X-37723Y462895D2*
X-19667D1*
X-12777D2*
X-2934D1*
X4939D2*
X8875D1*
X19898D2*
X36436D1*
X-38470Y461911D2*
X-34393D1*
X-23604D2*
X-19667D1*
X-12773D2*
X-2934D1*
X4939D2*
X8872D1*
X20740D2*
X36436D1*
X-39202Y460927D2*
X-35247D1*
X-23604D2*
X-19667D1*
X-12738D2*
X-8840D1*
X4940D2*
X8838D1*
X20944D2*
X25765D1*
X32499D2*
X36436D1*
X-39751Y459942D2*
X-35953D1*
X-23604D2*
X-19667D1*
X-12613D2*
X-8836D1*
X4936D2*
X8713D1*
X20673D2*
X25059D1*
X32499D2*
X36436D1*
X-40070Y458958D2*
X-36487D1*
X-23604D2*
X-19667D1*
X-12377D2*
X-8798D1*
X4901D2*
X8477D1*
X20219D2*
X24459D1*
X32499D2*
X36436D1*
X-40226Y457974D2*
X-36881D1*
X-23604D2*
X-19667D1*
X-12121D2*
X-8638D1*
X4772D2*
X8221D1*
X19643D2*
X23918D1*
X32499D2*
X36436D1*
X-40289Y456990D2*
X-36761D1*
X-23604D2*
X-19667D1*
X-11915D2*
X-8265D1*
X4490D2*
X8015D1*
X19063D2*
X23406D1*
X32499D2*
X36436D1*
X-40282Y456005D2*
X-36498D1*
X-23604D2*
X-19667D1*
X-11694D2*
X-7650D1*
X4097D2*
X7794D1*
X18518D2*
X22906D1*
X32499D2*
X36436D1*
X-40163Y455021D2*
X-35723D1*
X-23604D2*
X-19667D1*
X-11378D2*
X-6859D1*
X3257D2*
X7478D1*
X17999D2*
X22412D1*
X32499D2*
X36436D1*
X-39892Y454037D2*
X-32951D1*
X-23604D2*
X-19667D1*
X-10945D2*
X-4773D1*
X1054D2*
X7045D1*
X17496D2*
X21918D1*
X32499D2*
X36436D1*
X-39473Y453052D2*
X-28371D1*
X-23604D2*
X-19667D1*
X-10359D2*
X-1691D1*
X-2127D2*
X6459D1*
X16999D2*
X21426D1*
X32499D2*
X36436D1*
X-38865Y452068D2*
X-19667D1*
X-9539D2*
X5638D1*
X16503D2*
X20936D1*
X32499D2*
X36436D1*
X-37971Y451084D2*
X-19667D1*
X-8368D2*
X4468D1*
X15984D2*
X20471D1*
X32499D2*
X36436D1*
X-36775Y450100D2*
X-19667D1*
X-6765D2*
X2865D1*
X15409D2*
X20061D1*
X32499D2*
X36436D1*
X-35415Y449115D2*
X-19667D1*
X-4903D2*
X1003D1*
X14782D2*
X19703D1*
X32499D2*
X36436D1*
X-95248Y10054D2*
X-88358D1*
X-71626D2*
X-65720D1*
X-48988D2*
X-43083D1*
X-26350D2*
X-19461D1*
X-1744D2*
X13020D1*
X26799D2*
X32705D1*
X-96531Y9070D2*
X-86957D1*
X-73061D2*
X-64319D1*
X-50423D2*
X-41648D1*
X-27633D2*
X-18060D1*
X-3179D2*
X13020D1*
X25062D2*
X34594D1*
X-97519Y8085D2*
X-85820D1*
X-74289D2*
X-63182D1*
X-51651D2*
X-40419D1*
X-28621D2*
X-16923D1*
X-4407D2*
X13020D1*
X23628D2*
X36109D1*
X-98262Y7101D2*
X-84967D1*
X-75253D2*
X-62329D1*
X-52615D2*
X-39456D1*
X-29365D2*
X-16070D1*
X-5375D2*
X13020D1*
X22554D2*
X37250D1*
X-98863Y6117D2*
X-93045D1*
X-89689D2*
X-84336D1*
X-76009D2*
X-70292D1*
X-66705D2*
X-61698D1*
X-53371D2*
X-47769D1*
X-44302D2*
X-38700D1*
X-29966D2*
X-24147D1*
X-20791D2*
X-15438D1*
X-6057D2*
X-410D1*
X9083D2*
X13020D1*
X21701D2*
X27981D1*
X31523D2*
X38087D1*
X-99362Y5133D2*
X-94440D1*
X-88377D2*
X-83894D1*
X-76286D2*
X-71570D1*
X-65720D2*
X-61256D1*
X-53648D2*
X-49164D1*
X-42906D2*
X-38385D1*
X-30464D2*
X-25542D1*
X-19480D2*
X-14997D1*
X-6541D2*
X-1688D1*
X9083D2*
X13020D1*
X20982D2*
X26458D1*
X33048D2*
X38706D1*
X-99708Y4148D2*
X-95513D1*
X-87337D2*
X-83626D1*
X-76436D2*
X-72461D1*
X-64736D2*
X-60988D1*
X-53798D2*
X-50237D1*
X-41833D2*
X-38109D1*
X-30810D2*
X-26615D1*
X-18439D2*
X-14728D1*
X-6947D2*
X-2583D1*
X9083D2*
X13020D1*
X20458D2*
X25296D1*
X34233D2*
X39143D1*
X-99899Y3164D2*
X-95935D1*
X-86390D2*
X-83437D1*
X-76500D2*
X-73120D1*
X-63752D2*
X-60799D1*
X-53866D2*
X-50610D1*
X-41460D2*
X-37806D1*
X-31001D2*
X-27037D1*
X-17492D2*
X-14539D1*
X-7268D2*
X-3254D1*
X9083D2*
X13020D1*
X20136D2*
X24480D1*
X35103D2*
X39425D1*
X-99706Y2180D2*
X-95940D1*
X-76493D2*
X-73292D1*
X-53893D2*
X-50810D1*
X-41261D2*
X-37526D1*
X-30808D2*
X-27042D1*
X-7434D2*
X-3452D1*
X9083D2*
X13020D1*
X19909D2*
X23846D1*
X35740D2*
X39672D1*
X-99452Y1196D2*
X-95743D1*
X-76374D2*
X-73035D1*
X-53904D2*
X-50900D1*
X-41171D2*
X-37343D1*
X-30555D2*
X-26845D1*
X-7411D2*
X-3526D1*
X9083D2*
X13020D1*
X36181D2*
X39961D1*
X-99167Y211D2*
X-95393D1*
X-76100D2*
X-72610D1*
X-53908D2*
X-50936D1*
X-41135D2*
X-37248D1*
X-30270D2*
X-26495D1*
X-7217D2*
X-3280D1*
X9083D2*
X13020D1*
X36432D2*
X40234D1*
X-98809Y-773D2*
X-94960D1*
X-75647D2*
X-71503D1*
X-53909D2*
X-50949D1*
X-41122D2*
X-37205D1*
X-29911D2*
X-26062D1*
X-6944D2*
X-2620D1*
X9083D2*
X13020D1*
X36555D2*
X40414D1*
X-98357Y-1757D2*
X-94457D1*
X-74927D2*
X-70181D1*
X-53909D2*
X-50954D1*
X-41117D2*
X-37188D1*
X-29459D2*
X-25559D1*
X-6616D2*
X-28D1*
X9083D2*
X13020D1*
X36608D2*
X40508D1*
X-97804Y-2741D2*
X-93849D1*
X-73865D2*
X-68888D1*
X-53909D2*
X-50956D1*
X-41115D2*
X-37181D1*
X-28906D2*
X-24952D1*
X-6124D2*
X4420D1*
X9083D2*
X13020D1*
X36629D2*
X40551D1*
X-97180Y-3726D2*
X-93124D1*
X-72610D2*
X-68246D1*
X-53909D2*
X-50956D1*
X-41114D2*
X-37178D1*
X-28282D2*
X-24226D1*
X-5400D2*
X13020D1*
X36637D2*
X40568D1*
X-96548Y-4710D2*
X-92377D1*
X-73775D2*
X-68042D1*
X-53909D2*
X-50957D1*
X-41114D2*
X-37178D1*
X-27650D2*
X-23480D1*
X-4476D2*
X13020D1*
X36640D2*
X40575D1*
X-95871Y-5694D2*
X-91679D1*
X-74774D2*
X-69396D1*
X-53909D2*
X-50957D1*
X-41114D2*
X-37177D1*
X-26973D2*
X-22781D1*
X-3518D2*
X13020D1*
X36641D2*
X40577D1*
X-95114Y-6678D2*
X-90967D1*
X-75560D2*
X-70838D1*
X-53909D2*
X-50957D1*
X-41114D2*
X-37177D1*
X-26216D2*
X-22069D1*
X-2676D2*
X13020D1*
X36642D2*
X40574D1*
X-94354Y-7663D2*
X-90166D1*
X-76194D2*
X-72031D1*
X-53909D2*
X-50957D1*
X-41114D2*
X-37177D1*
X-25456D2*
X-21268D1*
X-2472D2*
X2349D1*
X9083D2*
X13020D1*
X36638D2*
X40540D1*
X-93650Y-8647D2*
X-89310D1*
X-76714D2*
X-72960D1*
X-53909D2*
X-50957D1*
X-41114D2*
X-37181D1*
X-24752D2*
X-20413D1*
X-2743D2*
X1643D1*
X9083D2*
X13020D1*
X36603D2*
X40415D1*
X-92940Y-9631D2*
X-88494D1*
X-77103D2*
X-73288D1*
X-53909D2*
X-50957D1*
X-41114D2*
X-37216D1*
X-24043D2*
X-19596D1*
X-3197D2*
X1043D1*
X9083D2*
X13020D1*
X36474D2*
X40179D1*
X-92169Y-10615D2*
X-87763D1*
X-77330D2*
X-73461D1*
X-53909D2*
X-50953D1*
X-41118D2*
X-37341D1*
X-23272D2*
X-18866D1*
X-3773D2*
X502D1*
X9083D2*
X13020D1*
X36200D2*
X39923D1*
X-91404Y-11600D2*
X-87042D1*
X-77410D2*
X-73498D1*
X-53909D2*
X-50911D1*
X-41160D2*
X-37577D1*
X-22507D2*
X-18144D1*
X-4353D2*
X-10D1*
X9083D2*
X13020D1*
X19909D2*
X23846D1*
X35780D2*
X39717D1*
X-90698Y-12584D2*
X-86266D1*
X-77331D2*
X-73434D1*
X-63752D2*
X-59815D1*
X-53906D2*
X-50807D1*
X-41264D2*
X-37833D1*
X-21801D2*
X-17369D1*
X-4898D2*
X-510D1*
X9083D2*
X13020D1*
X20099D2*
X24429D1*
X35158D2*
X39496D1*
X-89984Y-13568D2*
X-85503D1*
X-77081D2*
X-72897D1*
X-64400D2*
X-60193D1*
X-53867D2*
X-50263D1*
X-41808D2*
X-38043D1*
X-21086D2*
X-16606D1*
X-5417D2*
X-1004D1*
X9083D2*
X13020D1*
X20473D2*
X25205D1*
X34336D2*
X39180D1*
X-89179Y-14552D2*
X-84835D1*
X-76704D2*
X-71214D1*
X-66111D2*
X-60650D1*
X-53703D2*
X-48578D1*
X-43493D2*
X-38298D1*
X-20281D2*
X-15938D1*
X-5920D2*
X-1498D1*
X9083D2*
X13020D1*
X21006D2*
X27050D1*
X32471D2*
X38747D1*
X-88294Y-15537D2*
X-84285D1*
X-76222D2*
X-68715D1*
X-68624D2*
X-61241D1*
X-53300D2*
X-46078D1*
X-45993D2*
X-38743D1*
X-19396D2*
X-15387D1*
X-6417D2*
X-1990D1*
X9083D2*
X13020D1*
X21633D2*
X29646D1*
X29865D2*
X38161D1*
X-100169Y-16521D2*
X-83878D1*
X-75552D2*
X-62026D1*
X-52610D2*
X-39450D1*
X-31272D2*
X-14981D1*
X-6913D2*
X-2480D1*
X9083D2*
X13020D1*
X22460D2*
X37340D1*
X-100169Y-17505D2*
X-83639D1*
X-74546D2*
X-63045D1*
X-51635D2*
X-40432D1*
X-31272D2*
X-14741D1*
X-7432D2*
X-2945D1*
X9083D2*
X13020D1*
X23640D2*
X36170D1*
X-100169Y-18490D2*
X-83515D1*
X-73173D2*
X-64313D1*
X-50386D2*
X-41684D1*
X-31272D2*
X-14617D1*
X-8007D2*
X-3355D1*
X9083D2*
X13020D1*
X25147D2*
X34567D1*
X-100169Y-19474D2*
X-83437D1*
X-71626D2*
X-65720D1*
X-48988D2*
X-43083D1*
X-31272D2*
X-14539D1*
X-8634D2*
X-3713D1*
X9083D2*
X13020D1*
X26799D2*
X32705D1*
X-87618Y-341445D2*
X-80728D1*
X-50217D2*
X-43327D1*
X-8878D2*
X-1988D1*
X13760D2*
X20650D1*
X49193D2*
X52146D1*
X-87618Y-342429D2*
X-80728D1*
X-50217D2*
X-43327D1*
X-8878D2*
X-1988D1*
X13760D2*
X20650D1*
X49193D2*
X53699D1*
X-87618Y-343413D2*
X-80728D1*
X-50217D2*
X-43327D1*
X-8878D2*
X-1988D1*
X13760D2*
X20650D1*
X49193D2*
X55084D1*
X-87618Y-344398D2*
X-80728D1*
X-50217D2*
X-43327D1*
X-8878D2*
X-1988D1*
X13760D2*
X20650D1*
X49193D2*
X56226D1*
X-87618Y-345382D2*
X-80728D1*
X-50217D2*
X-43327D1*
X-8878D2*
X-1988D1*
X13760D2*
X20650D1*
X49201D2*
X57155D1*
X-87618Y-346366D2*
X-80728D1*
X-50217D2*
X-43327D1*
X-8878D2*
X-1988D1*
X13760D2*
X20650D1*
X49274D2*
X57921D1*
X-87618Y-347350D2*
X-80728D1*
X-50217D2*
X-43327D1*
X-8878D2*
X-1988D1*
X13760D2*
X20650D1*
X49447D2*
X58466D1*
X-87618Y-348335D2*
X-80728D1*
X-50217D2*
X-43327D1*
X-8878D2*
X-1988D1*
X13760D2*
X20650D1*
X50128D2*
X58777D1*
X-194902Y-349319D2*
X-189980D1*
X-182106D2*
X-177185D1*
X-160453D2*
X-153563D1*
X-134862D2*
X-128957D1*
X-94508D2*
X-89587D1*
X-87618D2*
X-80728D1*
X-68917D2*
X-62028D1*
X-50217D2*
X-43327D1*
X-30531D2*
X-23642D1*
X-12815D2*
X-1988D1*
X1949D2*
X9823D1*
X13760D2*
X20650D1*
X31476D2*
X38366D1*
X50889D2*
X58929D1*
X69862D2*
X76752D1*
X105295D2*
X112185D1*
X116122D2*
X123012D1*
X125965D2*
X132854D1*
X138760D2*
X145650D1*
X149587D2*
X156476D1*
X159429D2*
X166319D1*
X172224D2*
X179114D1*
X183051D2*
X189941D1*
X192894D2*
X199783D1*
X-196303Y-350303D2*
X-186628D1*
X-185459D2*
X-175750D1*
X-161891D2*
X-151792D1*
X-136755D2*
X-127185D1*
X-96245D2*
X-89587D1*
X-87618D2*
X-80728D1*
X-70655D2*
X-60256D1*
X-50217D2*
X-43327D1*
X-32269D2*
X-21871D1*
X-12815D2*
X-1988D1*
X2559D2*
X10197D1*
X13760D2*
X20650D1*
X30038D2*
X40137D1*
X51490D2*
X58994D1*
X68424D2*
X78523D1*
X105295D2*
X112185D1*
X116122D2*
X123012D1*
X125965D2*
X132854D1*
X138760D2*
X145650D1*
X149587D2*
X156476D1*
X159429D2*
X166319D1*
X172224D2*
X179114D1*
X183051D2*
X189941D1*
X192894D2*
X199783D1*
X-197440Y-351287D2*
X-174522D1*
X-163154D2*
X-150266D1*
X-138301D2*
X-125660D1*
X-97679D2*
X-89587D1*
X-87618D2*
X-80728D1*
X-72085D2*
X-58731D1*
X-50217D2*
X-43327D1*
X-33699D2*
X-20345D1*
X-12815D2*
X-1988D1*
X3120D2*
X10620D1*
X13756D2*
X20650D1*
X28775D2*
X41663D1*
X51846D2*
X59020D1*
X67161D2*
X80048D1*
X105295D2*
X112185D1*
X116122D2*
X123012D1*
X125965D2*
X132854D1*
X138760D2*
X145650D1*
X149587D2*
X156476D1*
X159429D2*
X166319D1*
X172224D2*
X179114D1*
X183051D2*
X189941D1*
X192894D2*
X199783D1*
X-198293Y-352272D2*
X-173558D1*
X-164247D2*
X-149082D1*
X-139533D2*
X-124476D1*
X-98753D2*
X-89587D1*
X-87618D2*
X-80728D1*
X-73128D2*
X-57546D1*
X-50217D2*
X-43327D1*
X-34742D2*
X-19161D1*
X-12815D2*
X-1988D1*
X3648D2*
X11080D1*
X13719D2*
X20650D1*
X27686D2*
X42847D1*
X52021D2*
X59030D1*
X66072D2*
X81233D1*
X105295D2*
X112185D1*
X116122D2*
X123012D1*
X125965D2*
X132854D1*
X138760D2*
X145650D1*
X149587D2*
X156476D1*
X159429D2*
X166319D1*
X172224D2*
X179114D1*
X183051D2*
X189941D1*
X192894D2*
X199783D1*
X-198924Y-353256D2*
X-172802D1*
X-165166D2*
X-148212D1*
X-140472D2*
X-123606D1*
X-99607D2*
X-89602D1*
X-87618D2*
X-80728D1*
X-73891D2*
X-56677D1*
X-50217D2*
X-43327D1*
X-35505D2*
X-18291D1*
X-12815D2*
X-1988D1*
X4157D2*
X11584D1*
X13566D2*
X20650D1*
X26798D2*
X43717D1*
X52100D2*
X59034D1*
X65184D2*
X82103D1*
X105295D2*
X112185D1*
X116122D2*
X123012D1*
X125965D2*
X132854D1*
X138760D2*
X145650D1*
X149587D2*
X156476D1*
X159429D2*
X166319D1*
X172224D2*
X179114D1*
X183051D2*
X189941D1*
X192894D2*
X199783D1*
X-199363Y-354240D2*
X-172525D1*
X-165901D2*
X-147571D1*
X-141191D2*
X-122969D1*
X-100324D2*
X-89648D1*
X-87618D2*
X-80728D1*
X-74498D2*
X-56039D1*
X-50217D2*
X-43327D1*
X-36112D2*
X-17654D1*
X-12815D2*
X-1988D1*
X4681D2*
X12152D1*
X13230D2*
X20650D1*
X26153D2*
X44358D1*
X49193D2*
X59035D1*
X64539D2*
X82744D1*
X105295D2*
X112185D1*
X116122D2*
X123012D1*
X125965D2*
X132854D1*
X138760D2*
X145650D1*
X149587D2*
X156476D1*
X159429D2*
X166319D1*
X172224D2*
X179114D1*
X183051D2*
X189941D1*
X192894D2*
X199783D1*
X-199613Y-355224D2*
X-172375D1*
X-166479D2*
X-147096D1*
X-141492D2*
X-122528D1*
X-100845D2*
X-90079D1*
X-87618D2*
X-80728D1*
X-75002D2*
X-55595D1*
X-50217D2*
X-43327D1*
X-36617D2*
X-17209D1*
X-12815D2*
X-1988D1*
X5258D2*
X20650D1*
X25686D2*
X32461D1*
X37188D2*
X44833D1*
X49193D2*
X59035D1*
X64072D2*
X70846D1*
X75574D2*
X83219D1*
X105295D2*
X112185D1*
X116122D2*
X123012D1*
X125965D2*
X132854D1*
X138760D2*
X145650D1*
X149587D2*
X156476D1*
X159429D2*
X166319D1*
X172224D2*
X179114D1*
X183051D2*
X189941D1*
X192894D2*
X199783D1*
X-199736Y-356209D2*
X-172307D1*
X-166896D2*
X-146719D1*
X-140714D2*
X-122277D1*
X-101146D2*
X-91298D1*
X-87622D2*
X-80728D1*
X-75384D2*
X-55306D1*
X-50217D2*
X-43327D1*
X-36998D2*
X-16920D1*
X-12815D2*
X-1988D1*
X5886D2*
X20650D1*
X25286D2*
X31476D1*
X37764D2*
X45210D1*
X49193D2*
X59035D1*
X63672D2*
X69862D1*
X76150D2*
X83596D1*
X105295D2*
X112185D1*
X116122D2*
X123012D1*
X125965D2*
X132854D1*
X138760D2*
X145650D1*
X149587D2*
X156476D1*
X159429D2*
X166319D1*
X172224D2*
X179114D1*
X183051D2*
X189941D1*
X192894D2*
X199783D1*
X-199789Y-357193D2*
X-192933D1*
X-190174D2*
X-182106D1*
X-179154D2*
X-172280D1*
X-167138D2*
X-159271D1*
X-154745D2*
X-146365D1*
X-139783D2*
X-134862D1*
X-130138D2*
X-122154D1*
X-101293D2*
X-92578D1*
X-87657D2*
X-80728D1*
X-75611D2*
X-67740D1*
X-63209D2*
X-55031D1*
X-50217D2*
X-43327D1*
X-37226D2*
X-29354D1*
X-24823D2*
X-16645D1*
X-8878D2*
X-1988D1*
X5394D2*
X20650D1*
X24963D2*
X36398D1*
X38094D2*
X45565D1*
X49193D2*
X59035D1*
X63349D2*
X74783D1*
X76480D2*
X83950D1*
X105295D2*
X112185D1*
X116118D2*
X123012D1*
X125965D2*
X132854D1*
X138760D2*
X145650D1*
X149583D2*
X156476D1*
X159429D2*
X166319D1*
X172224D2*
X179114D1*
X183047D2*
X189941D1*
X192894D2*
X199783D1*
X-199810Y-358177D2*
X-192933D1*
X-189598D2*
X-182106D1*
X-179154D2*
X-172269D1*
X-167257D2*
X-159925D1*
X-154091D2*
X-146094D1*
X-129484D2*
X-122101D1*
X-101357D2*
X-93535D1*
X-87797D2*
X-80732D1*
X-75725D2*
X-68315D1*
X-62555D2*
X-54639D1*
X-50217D2*
X-43327D1*
X-37339D2*
X-29929D1*
X-24169D2*
X-16254D1*
X-9109D2*
X-1988D1*
X4981D2*
X11754D1*
X13760D2*
X20650D1*
X24763D2*
X36398D1*
X38250D2*
X45836D1*
X49193D2*
X59035D1*
X63148D2*
X74783D1*
X76636D2*
X84221D1*
X105295D2*
X112193D1*
X116072D2*
X123020D1*
X125957D2*
X132854D1*
X138760D2*
X145657D1*
X149537D2*
X156484D1*
X159421D2*
X166319D1*
X172224D2*
X179122D1*
X183001D2*
X189949D1*
X192886D2*
X199783D1*
X-199818Y-359161D2*
X-192933D1*
X-189268D2*
X-182106D1*
X-179154D2*
X-172266D1*
X-167305D2*
X-160051D1*
X-153965D2*
X-145945D1*
X-129359D2*
X-122079D1*
X-101383D2*
X-94236D1*
X-88058D2*
X-80767D1*
X-75775D2*
X-68645D1*
X-62414D2*
X-54154D1*
X-50217D2*
X-43327D1*
X-37389D2*
X-30259D1*
X-24028D2*
X-15768D1*
X-9509D2*
X-1992D1*
X4568D2*
X11624D1*
X13760D2*
X20650D1*
X24655D2*
X36398D1*
X38265D2*
X45984D1*
X49193D2*
X59035D1*
X63041D2*
X74783D1*
X76651D2*
X84370D1*
X105295D2*
X112268D1*
X115957D2*
X123094D1*
X125882D2*
X132854D1*
X138760D2*
X145732D1*
X149421D2*
X156559D1*
X159346D2*
X166319D1*
X172224D2*
X179197D1*
X182886D2*
X190024D1*
X192811D2*
X199783D1*
X-199821Y-360146D2*
X-192933D1*
X-189109D2*
X-182106D1*
X-179154D2*
X-172264D1*
X-167292D2*
X-159765D1*
X-154251D2*
X-146146D1*
X-142736D2*
X-135846D1*
X-129645D2*
X-122075D1*
X-113209D2*
X-109272D1*
X-101389D2*
X-93416D1*
X-88819D2*
X-80892D1*
X-75795D2*
X-68805D1*
X-62959D2*
X-54612D1*
X-50217D2*
X-43327D1*
X-37409D2*
X-30419D1*
X-24573D2*
X-16226D1*
X-10459D2*
X-2027D1*
X4123D2*
X11353D1*
X13760D2*
X20650D1*
X24587D2*
X36398D1*
X38161D2*
X45783D1*
X49193D2*
X59035D1*
X62972D2*
X74783D1*
X76547D2*
X84169D1*
X92500D2*
X96437D1*
X105295D2*
X112446D1*
X115348D2*
X123273D1*
X125703D2*
X132854D1*
X138760D2*
X145911D1*
X148813D2*
X156738D1*
X159168D2*
X166319D1*
X172224D2*
X179376D1*
X182277D2*
X190202D1*
X192632D2*
X199783D1*
X-199822Y-361130D2*
X-192933D1*
X-189040D2*
X-182106D1*
X-179154D2*
X-172264D1*
X-167170D2*
X-157314D1*
X-156702D2*
X-146403D1*
X-142396D2*
X-133017D1*
X-132096D2*
X-122111D1*
X-114269D2*
X-108481D1*
X-101354D2*
X-91216D1*
X-90522D2*
X-81132D1*
X-75803D2*
X-68874D1*
X-64262D2*
X-54929D1*
X-50217D2*
X-43327D1*
X-37417D2*
X-30488D1*
X-25876D2*
X-16543D1*
X-11397D2*
X-2156D1*
X3655D2*
X10976D1*
X13760D2*
X20650D1*
X37373D2*
X45526D1*
X49193D2*
X59035D1*
X75759D2*
X83912D1*
X91439D2*
X97228D1*
X105299D2*
X113214D1*
X113885D2*
X124040D1*
X124936D2*
X132854D1*
X138764D2*
X146678D1*
X147349D2*
X157505D1*
X158401D2*
X166319D1*
X172228D2*
X180143D1*
X180814D2*
X190969D1*
X191865D2*
X199783D1*
X-199823Y-362114D2*
X-192933D1*
X-189012D2*
X-182106D1*
X-179154D2*
X-172264D1*
X-166899D2*
X-146690D1*
X-142065D2*
X-122270D1*
X-115079D2*
X-107905D1*
X-101195D2*
X-81423D1*
X-75806D2*
X-68901D1*
X-65460D2*
X-55201D1*
X-50217D2*
X-43327D1*
X-37420D2*
X-30516D1*
X-27074D2*
X-16816D1*
X-12198D2*
X-2430D1*
X3176D2*
X10564D1*
X13760D2*
X20650D1*
X35577D2*
X45239D1*
X52146D2*
X59035D1*
X73962D2*
X83625D1*
X90630D2*
X97803D1*
X105334D2*
X132850D1*
X138798D2*
X166315D1*
X172263D2*
X199780D1*
X-199823Y-363098D2*
X-192933D1*
X-189002D2*
X-182106D1*
X-179154D2*
X-172264D1*
X-166484D2*
X-147049D1*
X-141714D2*
X-122634D1*
X-115616D2*
X-107576D1*
X-100826D2*
X-81758D1*
X-75807D2*
X-68912D1*
X-66381D2*
X-55539D1*
X-50217D2*
X-43327D1*
X-37421D2*
X-30526D1*
X-27995D2*
X-17153D1*
X-12514D2*
X-2846D1*
X2720D2*
X10186D1*
X13760D2*
X20650D1*
X33697D2*
X44880D1*
X52146D2*
X59035D1*
X72083D2*
X83266D1*
X90093D2*
X98133D1*
X105463D2*
X132812D1*
X138928D2*
X166277D1*
X172392D2*
X199741D1*
X-199823Y-364083D2*
X-192933D1*
X-188998D2*
X-182106D1*
X-179154D2*
X-172264D1*
X-165913D2*
X-147509D1*
X-141218D2*
X-123165D1*
X-115965D2*
X-107420D1*
X-100265D2*
X-82249D1*
X-75807D2*
X-68915D1*
X-66680D2*
X-55985D1*
X-50217D2*
X-43327D1*
X-37421D2*
X-30530D1*
X-28294D2*
X-17599D1*
X-12687D2*
X-3418D1*
X2323D2*
X9847D1*
X13760D2*
X20650D1*
X32122D2*
X44420D1*
X52146D2*
X59035D1*
X70508D2*
X82806D1*
X89743D2*
X98289D1*
X105737D2*
X132648D1*
X139202D2*
X166113D1*
X172666D2*
X199577D1*
X-199823Y-365067D2*
X-192933D1*
X-188997D2*
X-182106D1*
X-179154D2*
X-172264D1*
X-165166D2*
X-148135D1*
X-140515D2*
X-123791D1*
X-115911D2*
X-107389D1*
X-99548D2*
X-82950D1*
X-75807D2*
X-68917D1*
X-66837D2*
X-56604D1*
X-50217D2*
X-43327D1*
X-37421D2*
X-30531D1*
X-28452D2*
X-18218D1*
X-12765D2*
X-4165D1*
X1973D2*
X9499D1*
X13760D2*
X20650D1*
X30968D2*
X43794D1*
X52146D2*
X59035D1*
X69354D2*
X82180D1*
X89797D2*
X98320D1*
X106157D2*
X132245D1*
X139622D2*
X165709D1*
X173086D2*
X199174D1*
X-199823Y-366051D2*
X-192933D1*
X-188996D2*
X-182106D1*
X-179154D2*
X-172264D1*
X-164263D2*
X-149048D1*
X-139599D2*
X-124617D1*
X-115646D2*
X-107525D1*
X-98612D2*
X-83866D1*
X-75807D2*
X-68917D1*
X-66906D2*
X-57515D1*
X-50217D2*
X-43327D1*
X-37421D2*
X-30531D1*
X-28520D2*
X-19129D1*
X-12796D2*
X-5068D1*
X1589D2*
X9161D1*
X13760D2*
X20650D1*
X30119D2*
X42881D1*
X52146D2*
X59035D1*
X68505D2*
X81267D1*
X90063D2*
X98184D1*
X106766D2*
X131555D1*
X140231D2*
X165020D1*
X173695D2*
X198484D1*
X-199823Y-367035D2*
X-192933D1*
X-188996D2*
X-182106D1*
X-179154D2*
X-172264D1*
X-163179D2*
X-150312D1*
X-138373D2*
X-125798D1*
X-115107D2*
X-107911D1*
X-97421D2*
X-85092D1*
X-75807D2*
X-68917D1*
X-66933D2*
X-58777D1*
X-50217D2*
X-43327D1*
X-37421D2*
X-30531D1*
X-28548D2*
X-20391D1*
X-12808D2*
X-6152D1*
X1132D2*
X8817D1*
X13760D2*
X20650D1*
X29776D2*
X41617D1*
X52146D2*
X59035D1*
X68162D2*
X80003D1*
X90601D2*
X97798D1*
X107661D2*
X130580D1*
X141125D2*
X164044D1*
X174590D2*
X197509D1*
X-199823Y-368020D2*
X-192933D1*
X-188996D2*
X-182106D1*
X-179154D2*
X-172264D1*
X-161880D2*
X-151872D1*
X-136741D2*
X-127304D1*
X-114256D2*
X-108536D1*
X-96021D2*
X-86723D1*
X-75807D2*
X-68917D1*
X-66944D2*
X-60337D1*
X-50217D2*
X-43327D1*
X-37421D2*
X-30531D1*
X-28558D2*
X-21951D1*
X-12813D2*
X-7451D1*
X589D2*
X8376D1*
X13760D2*
X20650D1*
X30550D2*
X40057D1*
X52146D2*
X59035D1*
X68936D2*
X78443D1*
X91453D2*
X97172D1*
X108856D2*
X118091D1*
X121043D2*
X129331D1*
X142321D2*
X151555D1*
X154508D2*
X162795D1*
X175786D2*
X185020D1*
X187972D2*
X196260D1*
X-199823Y-369004D2*
X-192933D1*
X-188996D2*
X-182106D1*
X-179154D2*
X-172264D1*
X-160453D2*
X-153563D1*
X-134862D2*
X-128957D1*
X-113209D2*
X-109272D1*
X-94508D2*
X-88602D1*
X-75807D2*
X-68917D1*
X-66949D2*
X-62028D1*
X-50217D2*
X-43327D1*
X-37421D2*
X-30531D1*
X-28563D2*
X-23642D1*
X-12815D2*
X-8878D1*
X-20D2*
X7854D1*
X13760D2*
X20650D1*
X31476D2*
X38366D1*
X52146D2*
X59035D1*
X69862D2*
X76752D1*
X92500D2*
X96437D1*
X110217D2*
X116122D1*
X123012D2*
X127933D1*
X143681D2*
X149587D1*
X156476D2*
X161398D1*
X177146D2*
X183051D1*
X189941D2*
X194862D1*
X-293930Y187866D2*
X-288025D1*
X-271293D2*
X-270308D1*
X-249639D2*
X-243734D1*
X-225033D2*
X-218143D1*
X-187631D2*
X-186647D1*
X-164993D2*
X-164009D1*
X-93143D2*
X-87238D1*
X-55741D2*
X-54757D1*
X-40978D2*
X-37041D1*
X-21293D2*
X-17356D1*
X16109D2*
X26936D1*
X37762D2*
X38747D1*
X53510D2*
X55479D1*
X73196D2*
X74180D1*
X124377D2*
X128314D1*
X133235D2*
X150951D1*
X156857D2*
X159810D1*
X174573D2*
X177526D1*
X191306D2*
X192290D1*
X239534D2*
X240518D1*
X254298D2*
X277920D1*
X280873D2*
X284810D1*
X296621D2*
X300558D1*
X305479D2*
X323196D1*
X328117D2*
X346818D1*
X351739D2*
X369455D1*
X-295365Y186882D2*
X-286590D1*
X-271293D2*
X-269320D1*
X-251040D2*
X-242299D1*
X-226468D2*
X-216750D1*
X-187631D2*
X-185659D1*
X-164993D2*
X-163021D1*
X-127592D2*
X-125623D1*
X-94762D2*
X-85992D1*
X-55741D2*
X-53769D1*
X-40486D2*
X-36700D1*
X-21445D2*
X-17696D1*
X14253D2*
X26936D1*
X37610D2*
X39239D1*
X53358D2*
X55483D1*
X73040D2*
X74554D1*
X124377D2*
X128314D1*
X133235D2*
X150951D1*
X157349D2*
X160642D1*
X173930D2*
X177034D1*
X191150D2*
X192664D1*
X239378D2*
X240892D1*
X254298D2*
X277920D1*
X281705D2*
X285642D1*
X296621D2*
X300558D1*
X305479D2*
X323196D1*
X328117D2*
X346818D1*
X351739D2*
X369455D1*
X-296594Y185898D2*
X-285358D1*
X-271293D2*
X-268298D1*
X-252177D2*
X-241067D1*
X-227696D2*
X-215534D1*
X-187631D2*
X-184636D1*
X-164993D2*
X-161998D1*
X-127592D2*
X-125623D1*
X-96040D2*
X-84989D1*
X-55741D2*
X-52746D1*
X-40077D2*
X-36373D1*
X-21693D2*
X-18024D1*
X12834D2*
X26936D1*
X37366D2*
X39647D1*
X53111D2*
X55517D1*
X72761D2*
X74977D1*
X124377D2*
X128314D1*
X133235D2*
X150951D1*
X157925D2*
X161378D1*
X173273D2*
X176462D1*
X190871D2*
X193087D1*
X239100D2*
X241315D1*
X254298D2*
X277920D1*
X282441D2*
X286378D1*
X296621D2*
X300558D1*
X305479D2*
X323196D1*
X328117D2*
X346818D1*
X351739D2*
X369455D1*
X-297561Y184913D2*
X-284360D1*
X-271293D2*
X-267153D1*
X-253030D2*
X-240068D1*
X-228659D2*
X-214921D1*
X-187631D2*
X-183492D1*
X-164993D2*
X-160854D1*
X-127592D2*
X-125623D1*
X-96935D2*
X-84592D1*
X-55741D2*
X-51602D1*
X-39694D2*
X-36061D1*
X-21982D2*
X-18336D1*
X11838D2*
X26936D1*
X37112D2*
X40026D1*
X52821D2*
X55643D1*
X72381D2*
X75434D1*
X124377D2*
X128314D1*
X133235D2*
X150951D1*
X158526D2*
X162073D1*
X172601D2*
X175892D1*
X190491D2*
X193544D1*
X238719D2*
X241772D1*
X254298D2*
X277920D1*
X283136D2*
X287073D1*
X296621D2*
X300558D1*
X305479D2*
X323196D1*
X328117D2*
X346818D1*
X351739D2*
X369455D1*
X-298244Y183929D2*
X-293893D1*
X-288062D2*
X-283586D1*
X-271293D2*
X-265812D1*
X-253665D2*
X-248305D1*
X-244083D2*
X-239291D1*
X-229416D2*
X-224877D1*
X-219127D2*
X-214895D1*
X-187631D2*
X-182150D1*
X-164993D2*
X-159513D1*
X-127592D2*
X-125623D1*
X-97606D2*
X-93102D1*
X-86253D2*
X-84285D1*
X-55741D2*
X-50261D1*
X-39344D2*
X-35725D1*
X-22284D2*
X-18672D1*
X11147D2*
X15318D1*
X23983D2*
X26936D1*
X36935D2*
X40346D1*
X52523D2*
X55879D1*
X71969D2*
X75908D1*
X124377D2*
X128314D1*
X147999D2*
X150951D1*
X159160D2*
X162756D1*
X171952D2*
X175349D1*
X190079D2*
X194018D1*
X238307D2*
X242247D1*
X265125D2*
X268077D1*
X283822D2*
X287759D1*
X296621D2*
X300558D1*
X320243D2*
X323196D1*
X342881D2*
X346818D1*
X366503D2*
X369455D1*
X-298727Y182945D2*
X-294747D1*
X-287208D2*
X-282993D1*
X-271293D2*
X-264378D1*
X-254139D2*
X-249583D1*
X-242806D2*
X-238663D1*
X-229693D2*
X-225575D1*
X-217159D2*
X-215190D1*
X-187631D2*
X-180716D1*
X-164993D2*
X-158079D1*
X-127592D2*
X-125623D1*
X-97841D2*
X-93921D1*
X-55741D2*
X-48827D1*
X-39021D2*
X-35394D1*
X-22646D2*
X-19002D1*
X10619D2*
X14746D1*
X23983D2*
X26936D1*
X36809D2*
X40578D1*
X52192D2*
X56131D1*
X71590D2*
X76363D1*
X124377D2*
X128314D1*
X147999D2*
X150951D1*
X159818D2*
X163378D1*
X171299D2*
X174801D1*
X189701D2*
X194473D1*
X237929D2*
X242701D1*
X265125D2*
X268077D1*
X284476D2*
X288413D1*
X296621D2*
X300558D1*
X320243D2*
X323196D1*
X342881D2*
X346818D1*
X366503D2*
X369455D1*
X-299133Y181961D2*
X-295457D1*
X-286498D2*
X-282570D1*
X-271293D2*
X-263133D1*
X-254515D2*
X-250478D1*
X-241907D2*
X-238115D1*
X-229843D2*
X-226106D1*
X-187631D2*
X-179472D1*
X-164993D2*
X-156834D1*
X-127592D2*
X-125623D1*
X-97965D2*
X-94502D1*
X-55741D2*
X-47582D1*
X-38680D2*
X-35079D1*
X-23065D2*
X-19321D1*
X10561D2*
X14362D1*
X23983D2*
X26936D1*
X36642D2*
X40804D1*
X51863D2*
X56303D1*
X71251D2*
X76759D1*
X124377D2*
X128314D1*
X147999D2*
X150951D1*
X160431D2*
X163950D1*
X170621D2*
X174205D1*
X189362D2*
X194869D1*
X237590D2*
X243097D1*
X265125D2*
X268077D1*
X285131D2*
X289068D1*
X296621D2*
X300558D1*
X320243D2*
X323196D1*
X342881D2*
X346818D1*
X366503D2*
X369455D1*
X-299458Y180976D2*
X-296025D1*
X-285930D2*
X-282325D1*
X-271293D2*
X-262142D1*
X-254873D2*
X-251054D1*
X-241300D2*
X-237634D1*
X-229907D2*
X-226499D1*
X-187631D2*
X-178482D1*
X-164993D2*
X-155844D1*
X-127592D2*
X-125623D1*
X-97989D2*
X-94890D1*
X-55741D2*
X-46592D1*
X-38348D2*
X-34742D1*
X-23494D2*
X-19689D1*
X10728D2*
X14351D1*
X23983D2*
X26936D1*
X36389D2*
X41089D1*
X51549D2*
X56398D1*
X70903D2*
X77108D1*
X124377D2*
X128314D1*
X147999D2*
X150951D1*
X160992D2*
X164585D1*
X169896D2*
X173567D1*
X189014D2*
X195219D1*
X237242D2*
X243447D1*
X265125D2*
X268077D1*
X285801D2*
X289738D1*
X296621D2*
X300558D1*
X320243D2*
X323196D1*
X342881D2*
X346818D1*
X366503D2*
X369455D1*
X-299659Y179992D2*
X-296434D1*
X-285521D2*
X-282205D1*
X-271293D2*
X-268340D1*
X-265387D2*
X-261752D1*
X-255179D2*
X-251399D1*
X-240864D2*
X-237262D1*
X-229900D2*
X-226420D1*
X-187631D2*
X-184678D1*
X-181726D2*
X-178122D1*
X-164993D2*
X-162041D1*
X-159088D2*
X-155484D1*
X-127592D2*
X-125623D1*
X-97883D2*
X-94886D1*
X-55741D2*
X-52789D1*
X-49836D2*
X-46232D1*
X-38029D2*
X-34411D1*
X-23879D2*
X-20111D1*
X11098D2*
X14788D1*
X23983D2*
X26936D1*
X36130D2*
X41395D1*
X51212D2*
X56474D1*
X70568D2*
X77490D1*
X124377D2*
X128314D1*
X147999D2*
X150951D1*
X161546D2*
X165520D1*
X168907D2*
X172963D1*
X188678D2*
X195600D1*
X236906D2*
X243828D1*
X265125D2*
X268077D1*
X286448D2*
X290385D1*
X296621D2*
X300558D1*
X320243D2*
X323196D1*
X342881D2*
X346818D1*
X366503D2*
X369455D1*
X-299761Y179008D2*
X-296641D1*
X-285315D2*
X-282153D1*
X-271293D2*
X-268340D1*
X-263419D2*
X-261450D1*
X-255372D2*
X-251670D1*
X-240482D2*
X-237038D1*
X-229785D2*
X-226232D1*
X-187631D2*
X-184678D1*
X-179757D2*
X-177919D1*
X-164993D2*
X-162041D1*
X-157119D2*
X-155282D1*
X-127592D2*
X-125623D1*
X-97614D2*
X-94422D1*
X-55741D2*
X-52789D1*
X-47867D2*
X-46030D1*
X-37660D2*
X-34095D1*
X-24220D2*
X-20540D1*
X11686D2*
X16694D1*
X23983D2*
X26936D1*
X35952D2*
X41699D1*
X50880D2*
X56617D1*
X70247D2*
X73043D1*
X75316D2*
X77917D1*
X124377D2*
X128314D1*
X147999D2*
X150951D1*
X162145D2*
X166945D1*
X167455D2*
X172405D1*
X188358D2*
X191154D1*
X193426D2*
X196027D1*
X236586D2*
X239382D1*
X241655D2*
X244255D1*
X265125D2*
X268077D1*
X287101D2*
X291038D1*
X296621D2*
X300558D1*
X320243D2*
X323196D1*
X342881D2*
X346818D1*
X366503D2*
X369455D1*
X-299806Y178024D2*
X-296630D1*
X-285325D2*
X-282136D1*
X-271293D2*
X-268340D1*
X-255471D2*
X-251968D1*
X-240168D2*
X-236925D1*
X-229549D2*
X-225978D1*
X-187631D2*
X-184678D1*
X-177789D2*
D3*
X-164993D2*
X-162041D1*
X-155151D2*
D3*
X-127592D2*
X-125623D1*
X-97163D2*
X-93202D1*
X-55741D2*
X-52789D1*
X-45899D2*
D3*
X-37238D2*
X-33758D1*
X-24569D2*
X-20926D1*
X12573D2*
X19910D1*
X23983D2*
X26936D1*
X35825D2*
X42032D1*
X50565D2*
X56859D1*
X69878D2*
X72796D1*
X75564D2*
X78348D1*
X124377D2*
X128314D1*
X147999D2*
X150951D1*
X162788D2*
X171852D1*
X187988D2*
X190906D1*
X193674D2*
X196458D1*
X236217D2*
X239134D1*
X241903D2*
X244686D1*
X265125D2*
X268077D1*
X287769D2*
X291707D1*
X296621D2*
X300558D1*
X320243D2*
X323196D1*
X342881D2*
X346818D1*
X366503D2*
X369455D1*
X-299825Y177039D2*
X-296408D1*
X-285547D2*
X-282162D1*
X-271293D2*
X-268340D1*
X-255516D2*
X-252245D1*
X-239971D2*
X-236876D1*
X-229259D2*
X-225637D1*
X-187631D2*
X-184678D1*
X-164993D2*
X-162041D1*
X-127592D2*
X-125623D1*
X-96444D2*
X-91792D1*
X-55741D2*
X-52789D1*
X-36809D2*
X-33426D1*
X-24904D2*
X-21267D1*
X13766D2*
X26936D1*
X35658D2*
X42362D1*
X50227D2*
X57114D1*
X69456D2*
X72506D1*
X75853D2*
X78734D1*
X124377D2*
X128314D1*
X147999D2*
X150951D1*
X163427D2*
X171257D1*
X187566D2*
X190616D1*
X193964D2*
X196844D1*
X235795D2*
X238845D1*
X242192D2*
X245072D1*
X265125D2*
X268077D1*
X288411D2*
X292353D1*
X296621D2*
X300558D1*
X320243D2*
X323196D1*
X342881D2*
X346818D1*
X366503D2*
X369455D1*
X-299832Y176055D2*
X-295994D1*
X-285962D2*
X-282289D1*
X-271293D2*
X-268340D1*
X-255534D2*
X-252426D1*
X-239871D2*
X-236856D1*
X-228928D2*
X-225221D1*
X-187631D2*
X-184678D1*
X-164993D2*
X-162041D1*
X-127592D2*
X-125623D1*
X-95382D2*
X-90437D1*
X-55741D2*
X-52789D1*
X-36423D2*
X-33111D1*
X-25221D2*
X-21616D1*
X15125D2*
X26936D1*
X35405D2*
X37762D1*
X39883D2*
X42677D1*
X49896D2*
X52374D1*
X54495D2*
X57290D1*
X69027D2*
X72208D1*
X76151D2*
X79079D1*
X124377D2*
X128314D1*
X138156D2*
X150951D1*
X164108D2*
X170653D1*
X187137D2*
X190319D1*
X194262D2*
X197189D1*
X235365D2*
X238547D1*
X242490D2*
X245418D1*
X265125D2*
X268077D1*
X289056D2*
X293006D1*
X296617D2*
X300558D1*
X310400D2*
X323196D1*
X332054D2*
X346818D1*
X356660D2*
X369455D1*
X-299835Y175071D2*
X-295437D1*
X-286518D2*
X-282558D1*
X-271293D2*
X-268340D1*
X-255541D2*
X-252521D1*
X-239826D2*
X-236848D1*
X-228472D2*
X-224760D1*
X-187631D2*
X-184678D1*
X-164993D2*
X-162041D1*
X-127592D2*
X-125623D1*
X-94127D2*
X-89760D1*
X-55741D2*
X-52789D1*
X-36082D2*
X-32773D1*
X-25560D2*
X-21952D1*
X13353D2*
X26936D1*
X35146D2*
X37762D1*
X40131D2*
X43014D1*
X49581D2*
X52126D1*
X54499D2*
X57416D1*
X68641D2*
X71877D1*
X76482D2*
X79459D1*
X124377D2*
X128314D1*
X138156D2*
X150951D1*
X164885D2*
X170182D1*
X186752D2*
X189987D1*
X194593D2*
X197569D1*
X234980D2*
X238216D1*
X242821D2*
X245798D1*
X265125D2*
X268077D1*
X289731D2*
X293675D1*
X296579D2*
X300558D1*
X310400D2*
X323196D1*
X332054D2*
X346818D1*
X356660D2*
X369455D1*
X-299832Y174087D2*
X-293791D1*
X-288164D2*
X-282943D1*
X-271293D2*
X-268340D1*
X-255543D2*
X-252564D1*
X-239807D2*
X-236845D1*
X-227904D2*
X-224251D1*
X-187631D2*
X-184678D1*
X-164993D2*
X-162041D1*
X-127592D2*
X-125623D1*
X-95562D2*
X-89500D1*
X-55741D2*
X-52789D1*
X-35733D2*
X-32442D1*
X-25891D2*
X-22272D1*
X11832D2*
X26936D1*
X34968D2*
X37759D1*
X40420D2*
X43345D1*
X49243D2*
X51837D1*
X54533D2*
X57584D1*
X68296D2*
X71548D1*
X76811D2*
X79889D1*
X124377D2*
X128314D1*
X138156D2*
X150951D1*
X165715D2*
X169854D1*
X186406D2*
X189659D1*
X194921D2*
X198000D1*
X234635D2*
X237887D1*
X243150D2*
X246228D1*
X265125D2*
X268077D1*
X289121D2*
X294317D1*
X296427D2*
X300558D1*
X310400D2*
X323196D1*
X332054D2*
X346818D1*
X356660D2*
X369455D1*
X-299797Y173102D2*
X-291214D1*
X-290741D2*
X-283427D1*
X-271293D2*
X-268340D1*
X-255544D2*
X-252578D1*
X-239800D2*
X-236844D1*
X-227302D2*
X-223671D1*
X-187631D2*
X-184678D1*
X-164993D2*
X-162041D1*
X-127592D2*
X-125623D1*
X-96791D2*
X-90704D1*
X-55741D2*
X-52789D1*
X-35397D2*
X-32123D1*
X-26210D2*
X-22641D1*
X10678D2*
X16306D1*
X23983D2*
X26936D1*
X34841D2*
X37724D1*
X40718D2*
X43660D1*
X48912D2*
X51539D1*
X54659D2*
X57837D1*
X67916D2*
X71234D1*
X77129D2*
X80351D1*
X124377D2*
X128314D1*
X138156D2*
X150951D1*
X165105D2*
X169935D1*
X186027D2*
X189344D1*
X195240D2*
X198461D1*
X234255D2*
X237573D1*
X243468D2*
X246690D1*
X265125D2*
X268077D1*
X288556D2*
X294962D1*
X296091D2*
X300558D1*
X310400D2*
X323196D1*
X332054D2*
X346818D1*
X356660D2*
X369455D1*
X-299672Y172118D2*
X-284098D1*
X-271293D2*
X-268340D1*
X-255544D2*
X-252550D1*
X-239798D2*
X-236844D1*
X-226668D2*
X-223035D1*
X-187631D2*
X-184678D1*
X-164993D2*
X-162041D1*
X-127592D2*
X-125623D1*
X-97754D2*
X-92149D1*
X-55741D2*
X-52789D1*
X-35077D2*
X-31755D1*
X-26579D2*
X-23064D1*
X9899D2*
X14785D1*
X23983D2*
X26936D1*
X34674D2*
X37599D1*
X41049D2*
X43994D1*
X48597D2*
X51208D1*
X54894D2*
X58096D1*
X67490D2*
X70897D1*
X77498D2*
X80828D1*
X124377D2*
X128314D1*
X147999D2*
X150951D1*
X164540D2*
X170254D1*
X185600D2*
X189007D1*
X195608D2*
X198938D1*
X233828D2*
X237235D1*
X243836D2*
X247166D1*
X265125D2*
X268077D1*
X287998D2*
X300558D1*
X320243D2*
X323196D1*
X342881D2*
X346818D1*
X366503D2*
X369455D1*
X-299432Y171134D2*
X-285105D1*
X-271293D2*
X-268340D1*
X-255545D2*
X-252427D1*
X-239801D2*
X-236844D1*
X-226006D2*
X-222402D1*
X-187631D2*
X-184678D1*
X-164993D2*
X-162041D1*
X-127592D2*
X-125623D1*
X-98510D2*
X-93542D1*
X-55741D2*
X-52789D1*
X-34708D2*
X-31332D1*
X-27001D2*
X-23493D1*
X9372D2*
X13635D1*
X23983D2*
X26936D1*
X34420D2*
X37363D1*
X41378D2*
X44299D1*
X48255D2*
X50879D1*
X55147D2*
X58274D1*
X67059D2*
X70563D1*
X77920D2*
X81283D1*
X124377D2*
X128314D1*
X147999D2*
X150951D1*
X163982D2*
X170759D1*
X185169D2*
X188673D1*
X196031D2*
X199394D1*
X233397D2*
X236901D1*
X244259D2*
X247622D1*
X265125D2*
X268077D1*
X287397D2*
X300558D1*
X320243D2*
X323196D1*
X342881D2*
X346818D1*
X366503D2*
X369455D1*
X-299142Y170150D2*
X-286478D1*
X-271293D2*
X-268340D1*
X-255541D2*
X-252192D1*
X-239835D2*
X-236844D1*
X-225362D2*
X-221754D1*
X-187631D2*
X-184678D1*
X-164993D2*
X-162041D1*
X-127592D2*
X-125623D1*
X-98824D2*
X-94650D1*
X-55741D2*
X-52789D1*
X-34285D2*
X-30903D1*
X-27430D2*
X-23878D1*
X8948D2*
X12761D1*
X23983D2*
X26936D1*
X34161D2*
X37110D1*
X41692D2*
X44564D1*
X47883D2*
X50565D1*
X55322D2*
X58400D1*
X66673D2*
X70220D1*
X78355D2*
X81680D1*
X124377D2*
X128314D1*
X147999D2*
X150951D1*
X163381D2*
X171335D1*
X184783D2*
X188330D1*
X196465D2*
X199790D1*
X233012D2*
X236559D1*
X244693D2*
X248018D1*
X265125D2*
X268077D1*
X286757D2*
X290871D1*
X293630D2*
X300558D1*
X320243D2*
X323196D1*
X342881D2*
X346818D1*
X366503D2*
X369455D1*
X-298810Y169165D2*
X-295936D1*
X-292946D2*
X-288025D1*
X-271293D2*
X-268340D1*
X-255506D2*
X-251940D1*
X-239961D2*
X-236844D1*
X-224710D2*
X-221087D1*
X-187631D2*
X-184678D1*
X-164993D2*
X-162041D1*
X-127592D2*
X-125623D1*
X-99097D2*
X-95507D1*
X-55741D2*
X-52789D1*
X-33856D2*
X-30515D1*
X-27818D2*
X-24220D1*
X8616D2*
X12457D1*
X23983D2*
X26936D1*
X33984D2*
X36935D1*
X42030D2*
X44862D1*
X47389D2*
X50227D1*
X55448D2*
X58568D1*
X66332D2*
X69780D1*
X78751D2*
X82029D1*
X124377D2*
X128314D1*
X147999D2*
X150951D1*
X162741D2*
X166737D1*
X168858D2*
X171960D1*
X184442D2*
X187890D1*
X196862D2*
X200140D1*
X232670D2*
X236119D1*
X245090D2*
X248368D1*
X265125D2*
X268077D1*
X286152D2*
X290166D1*
X294485D2*
X300558D1*
X320243D2*
X323196D1*
X342881D2*
X346818D1*
X366503D2*
X369455D1*
X-298354Y168181D2*
X-295078D1*
X-271293D2*
X-268340D1*
X-255381D2*
X-251764D1*
X-240200D2*
X-236848D1*
X-224045D2*
X-220441D1*
X-187631D2*
X-184678D1*
X-164993D2*
X-162041D1*
X-127592D2*
X-125623D1*
X-99366D2*
X-95807D1*
X-55741D2*
X-52789D1*
X-33471D2*
X-30146D1*
X-28187D2*
X-24569D1*
X8417D2*
X12296D1*
X23983D2*
X26936D1*
X33857D2*
X36809D1*
X42361D2*
X45659D1*
X46612D2*
X49896D1*
X55615D2*
X58821D1*
X65982D2*
X69259D1*
X79101D2*
X82411D1*
X124377D2*
X128314D1*
X147999D2*
X150951D1*
X162136D2*
X165883D1*
X169232D2*
X172614D1*
X184093D2*
X187369D1*
X197211D2*
X200521D1*
X232321D2*
X235597D1*
X245440D2*
X248749D1*
X265125D2*
X268077D1*
X285594D2*
X289562D1*
X295195D2*
X300558D1*
X320243D2*
X323196D1*
X342881D2*
X346818D1*
X366503D2*
X369455D1*
X-297785Y167197D2*
X-294330D1*
X-271293D2*
X-268340D1*
X-255141D2*
X-251635D1*
X-240487D2*
X-236882D1*
X-223429D2*
X-219789D1*
X-187631D2*
X-184678D1*
X-164993D2*
X-162041D1*
X-127592D2*
X-125623D1*
X-99521D2*
X-95937D1*
X-55741D2*
X-52789D1*
X-33129D2*
X-29695D1*
X-28639D2*
X-24904D1*
X8349D2*
X12261D1*
X23983D2*
X26936D1*
X33689D2*
X36642D1*
X42676D2*
X49581D1*
X55868D2*
X59080D1*
X65647D2*
X82838D1*
X124377D2*
X128314D1*
X147999D2*
X150951D1*
X161578D2*
X165169D1*
X169757D2*
X173226D1*
X183757D2*
X200948D1*
X231985D2*
X249177D1*
X265125D2*
X268077D1*
X285041D2*
X288989D1*
X295763D2*
X300558D1*
X320243D2*
X323196D1*
X342881D2*
X346818D1*
X366503D2*
X369455D1*
X-297184Y166213D2*
X-293598D1*
X-271293D2*
X-268340D1*
X-254854D2*
X-251429D1*
X-240792D2*
X-237008D1*
X-222867D2*
X-219120D1*
X-187631D2*
X-184678D1*
X-164993D2*
X-162041D1*
X-127592D2*
X-125623D1*
X-99463D2*
X-95877D1*
X-55741D2*
X-52789D1*
X-32780D2*
X-25225D1*
X8432D2*
X12316D1*
X23983D2*
X26936D1*
X33436D2*
X36389D1*
X43014D2*
X49243D1*
X56127D2*
X59254D1*
X65326D2*
X83269D1*
X124377D2*
X128314D1*
X147999D2*
X150951D1*
X161025D2*
X164563D1*
X170311D2*
X173787D1*
X183436D2*
X201379D1*
X231665D2*
X249608D1*
X265125D2*
X268077D1*
X284442D2*
X288383D1*
X296176D2*
X300558D1*
X320243D2*
X323196D1*
X342881D2*
X346818D1*
X366503D2*
X369455D1*
X-296550Y165228D2*
X-292786D1*
X-271293D2*
X-268340D1*
X-254553D2*
X-251100D1*
X-241211D2*
X-237247D1*
X-222308D2*
X-218473D1*
X-187631D2*
X-184678D1*
X-164993D2*
X-162041D1*
X-127592D2*
X-125623D1*
X-99271D2*
X-95677D1*
X-55741D2*
X-52789D1*
X-32445D2*
X-25594D1*
X8684D2*
X12704D1*
X23983D2*
X26936D1*
X33177D2*
X36130D1*
X43345D2*
X48912D1*
X56301D2*
X59350D1*
X64957D2*
X83655D1*
X124377D2*
X128314D1*
X147999D2*
X150951D1*
X160427D2*
X163990D1*
X170848D2*
X174342D1*
X183067D2*
X201765D1*
X231296D2*
X249994D1*
X265125D2*
X268077D1*
X283804D2*
X287742D1*
X296417D2*
X300558D1*
X320243D2*
X323196D1*
X342881D2*
X346818D1*
X366503D2*
X369455D1*
X-295888Y164244D2*
X-291893D1*
X-271293D2*
X-268340D1*
X-254188D2*
X-250214D1*
X-241771D2*
X-237538D1*
X-221675D2*
X-217820D1*
X-187631D2*
X-184678D1*
X-164993D2*
X-162041D1*
X-127592D2*
X-125623D1*
X-99013D2*
X-95054D1*
X-55741D2*
X-52789D1*
X-32128D2*
X-26016D1*
X9059D2*
X13606D1*
X23983D2*
X26936D1*
X32999D2*
X35952D1*
X43660D2*
X48597D1*
X56397D2*
X59427D1*
X64535D2*
X84000D1*
X124377D2*
X128314D1*
X147999D2*
X150951D1*
X159784D2*
X163384D1*
X171394D2*
X174941D1*
X182645D2*
X202111D1*
X230873D2*
X250339D1*
X265125D2*
X268077D1*
X283199D2*
X287137D1*
X296535D2*
X300558D1*
X320243D2*
X323196D1*
X342881D2*
X346818D1*
X366503D2*
X369455D1*
X-295236Y163260D2*
X-290950D1*
X-271293D2*
X-268340D1*
X-253730D2*
X-248761D1*
X-243520D2*
X-237874D1*
X-220907D2*
X-217151D1*
X-205348D2*
X-202395D1*
X-187631D2*
X-184678D1*
X-164993D2*
X-162041D1*
X-127592D2*
X-125623D1*
X-98665D2*
X-92974D1*
X-73458D2*
X-70505D1*
X-55741D2*
X-52789D1*
X-31789D2*
X-26446D1*
X9506D2*
X16129D1*
X23983D2*
X26936D1*
X32873D2*
X35825D1*
X43998D2*
X48259D1*
X56474D2*
X59570D1*
X64105D2*
X68464D1*
X81107D2*
X84380D1*
X124377D2*
X128314D1*
X147999D2*
X150951D1*
X159149D2*
X162742D1*
X171990D2*
X175580D1*
X182215D2*
X186574D1*
X199217D2*
X202490D1*
X230444D2*
X234802D1*
X247446D2*
X250719D1*
X265125D2*
X268077D1*
X282641D2*
X286579D1*
X296588D2*
X300558D1*
X320243D2*
X323196D1*
X342881D2*
X346818D1*
X366503D2*
X369455D1*
X-294511Y162276D2*
X-289983D1*
X-271293D2*
X-268340D1*
X-253137D2*
X-246496D1*
X-246268D2*
X-238368D1*
X-220038D2*
X-216505D1*
X-205798D2*
X-201945D1*
X-187631D2*
X-184678D1*
X-164993D2*
X-162041D1*
X-127592D2*
X-125623D1*
X-98207D2*
X-89549D1*
X-86253D2*
X-84285D1*
X-73908D2*
X-70055D1*
X-55741D2*
X-52789D1*
X-31458D2*
X-26831D1*
X10051D2*
X20086D1*
X23983D2*
X26936D1*
X32705D2*
X35658D1*
X44329D2*
X47928D1*
X56617D2*
X59812D1*
X63720D2*
X67854D1*
X81237D2*
X84807D1*
X124377D2*
X128314D1*
X147999D2*
X150951D1*
X158500D2*
X162137D1*
X172631D2*
X176184D1*
X181830D2*
X185964D1*
X199347D2*
X202917D1*
X230059D2*
X234192D1*
X247576D2*
X251145D1*
X265125D2*
X268077D1*
X282088D2*
X286025D1*
X296609D2*
X300558D1*
X320243D2*
X323196D1*
X342881D2*
X346818D1*
X366503D2*
X369455D1*
X-293553Y161291D2*
X-289005D1*
X-271293D2*
X-268340D1*
X-252350D2*
X-239100D1*
X-231923D2*
X-215855D1*
X-206043D2*
X-201699D1*
X-187631D2*
X-184678D1*
X-164993D2*
X-162041D1*
X-127592D2*
X-125623D1*
X-97546D2*
X-83808D1*
X-74154D2*
X-69810D1*
X-55741D2*
X-52789D1*
X-31142D2*
X-27173D1*
X10827D2*
X26936D1*
X32452D2*
X35405D1*
X44645D2*
X47612D1*
X56859D2*
X60067D1*
X63378D2*
X67398D1*
X81511D2*
X85234D1*
X110597D2*
X128314D1*
X133235D2*
X150951D1*
X157834D2*
X161579D1*
X173270D2*
X176741D1*
X181488D2*
X185508D1*
X199621D2*
X203344D1*
X229717D2*
X233736D1*
X247849D2*
X251573D1*
X265125D2*
X268077D1*
X281493D2*
X285430D1*
X296616D2*
X300558D1*
X305479D2*
X323196D1*
X342881D2*
X346818D1*
X351739D2*
X369455D1*
X-292271Y160307D2*
X-288024D1*
X-271293D2*
X-268340D1*
X-251330D2*
X-240092D1*
X-231923D2*
X-215213D1*
X-206129D2*
X-201614D1*
X-187631D2*
X-184678D1*
X-164993D2*
X-162041D1*
X-127592D2*
X-125623D1*
X-96493D2*
X-84460D1*
X-74239D2*
X-69724D1*
X-55741D2*
X-52789D1*
X-30800D2*
X-27527D1*
X11983D2*
X26936D1*
X32190D2*
X35143D1*
X44988D2*
X47269D1*
X57117D2*
X60240D1*
X63024D2*
X66994D1*
X81918D2*
X85588D1*
X110597D2*
X128314D1*
X133235D2*
X150951D1*
X157192D2*
X161031D1*
X173950D2*
X177289D1*
X181135D2*
X185104D1*
X200028D2*
X203698D1*
X229363D2*
X233332D1*
X248256D2*
X251927D1*
X265125D2*
X268077D1*
X280877D2*
X284814D1*
X296619D2*
X300558D1*
X305479D2*
X323196D1*
X342881D2*
X346818D1*
X351739D2*
X369455D1*
X-290703Y159323D2*
X-287041D1*
X-271293D2*
X-268340D1*
X-250063D2*
X-241348D1*
X-231923D2*
X-214669D1*
X-205788D2*
X-201955D1*
X-187631D2*
X-184678D1*
X-164993D2*
X-162041D1*
X-127592D2*
X-125623D1*
X-94959D2*
X-85779D1*
X-73898D2*
X-70065D1*
X-55741D2*
X-52789D1*
X-30461D2*
X-27870D1*
X13478D2*
X26936D1*
X32001D2*
X34954D1*
X45327D2*
X46930D1*
X57304D2*
X60337D1*
X62681D2*
X66629D1*
X82441D2*
X85821D1*
X110597D2*
X128314D1*
X133235D2*
X150951D1*
X156547D2*
X160444D1*
X174728D2*
X177876D1*
X180791D2*
X184739D1*
X200551D2*
X203931D1*
X229019D2*
X232968D1*
X248779D2*
X252159D1*
X265125D2*
X268077D1*
X280345D2*
X284282D1*
X296620D2*
X300558D1*
X305479D2*
X323196D1*
X342881D2*
X346818D1*
X351739D2*
X369455D1*
X-289009Y158339D2*
X-288025D1*
X-271293D2*
X-268340D1*
X-248655D2*
X-242749D1*
X-231923D2*
X-214206D1*
X-205348D2*
X-202395D1*
X-187631D2*
X-184678D1*
X-164993D2*
X-162041D1*
X-127592D2*
X-125623D1*
X-93143D2*
X-87238D1*
X-73458D2*
X-70505D1*
X-55741D2*
X-52789D1*
X-30151D2*
X-28182D1*
X15125D2*
X26936D1*
X31857D2*
X34810D1*
X45636D2*
X46621D1*
X57448D2*
X60400D1*
X62369D2*
X66306D1*
X83038D2*
X85991D1*
X110597D2*
X128314D1*
X133235D2*
X150951D1*
X155873D2*
X159810D1*
X175558D2*
X178510D1*
X180479D2*
X184416D1*
X201148D2*
X204101D1*
X228707D2*
X232644D1*
X249377D2*
X252329D1*
X265125D2*
X268077D1*
X279888D2*
X283825D1*
X296621D2*
X300558D1*
X305479D2*
X323196D1*
X342881D2*
X346818D1*
X351739D2*
X369455D1*
X-127592Y157354D2*
X-125623D1*
X-127592Y156370D2*
X-125623D1*
X-127592Y155386D2*
X-125623D1*
X-127592Y154402D2*
X-125623D1*
X-15387D2*
X6266D1*
X87959D2*
X109613D1*
X206070D2*
X227723D1*
X-127592Y153417D2*
X-125623D1*
X-15387D2*
X6266D1*
X87959D2*
X109613D1*
X206070D2*
X227723D1*
X-127592Y152433D2*
X-125623D1*
X-15387D2*
X6266D1*
X87959D2*
X109613D1*
X206070D2*
X227723D1*
X-112448Y-507400D2*
X-112444Y-508384D1*
X-112409Y-509368D1*
X-112284Y-510352D1*
X-112044Y-511337D1*
X-111757Y-512321D1*
X-111460Y-513305D1*
X-111133Y-514289D1*
X-110835Y-515274D1*
X-110612Y-516258D1*
X-110388Y-517242D1*
X-110104Y-518226D1*
X-109799Y-519211D1*
X-109495Y-520195D1*
X-109162Y-521179D1*
X-108832Y-522163D1*
X-108518Y-523148D1*
X-108184Y-524132D1*
X-107884Y-525116D1*
X-107659Y-526100D1*
X-107436Y-527085D1*
X-107152Y-528069D1*
X-106847Y-529053D1*
X-106543Y-530037D1*
X-106209Y-531022D1*
X-105880Y-532006D1*
X-105565Y-532990D1*
X-105231Y-533974D1*
X-104932Y-534959D1*
X-104727Y-535943D1*
X-104573Y-536927D1*
X-96699Y-507400D2*
Y-508384D1*
Y-509368D1*
Y-510352D1*
Y-511337D1*
Y-512321D1*
Y-513305D1*
Y-514289D1*
Y-515274D1*
X-83904Y-507400D2*
X-85642Y-508384D1*
X-87076Y-509368D1*
X-88150Y-510352D1*
X-89003Y-511337D1*
X-89721Y-512321D1*
X-90245Y-513305D1*
X-90567Y-514289D1*
X-90794Y-515274D1*
X-77999Y-507400D2*
X-76110Y-508384D1*
X-74595Y-509368D1*
X-73454Y-510352D1*
X-72617Y-511337D1*
X-71997Y-512321D1*
X-71561Y-513305D1*
X-71278Y-514289D1*
X-71032Y-515274D1*
X-70743Y-516258D1*
X-70469Y-517242D1*
X-70290Y-518226D1*
X-70196Y-519211D1*
X-70153Y-520195D1*
X-70135Y-521179D1*
X-70128Y-522163D1*
X-70126Y-523148D1*
X-70129Y-524132D1*
X-70163Y-525116D1*
X-70289Y-526100D1*
X-70524Y-527085D1*
X-70780Y-528069D1*
X-70987Y-529053D1*
X-71207Y-530037D1*
X-71523Y-531022D1*
X-71957Y-532006D1*
X-72542Y-532990D1*
X-73363Y-533974D1*
X-74533Y-534959D1*
X-76137Y-535943D1*
X-77999Y-536927D1*
X-108510Y-510352D2*
X-108358Y-511337D1*
X-108111Y-512321D1*
X-107821Y-513305D1*
X-107523Y-514289D1*
X-107192Y-515274D1*
X-106863Y-516258D1*
X-106549Y-517242D1*
X-106215Y-518226D1*
X-105915Y-519211D1*
X-105691Y-520195D1*
X-105467Y-521179D1*
X-105183Y-522163D1*
X-104878Y-523148D1*
X-104574Y-524132D1*
X-104241Y-525116D1*
X-103911Y-526100D1*
X-103596Y-527085D1*
X-103263Y-528069D1*
X-102962Y-529053D1*
X-102738Y-530037D1*
X-102514Y-531022D1*
X-102230Y-532006D1*
X-101925Y-532990D1*
X-101621Y-533974D1*
X-101283Y-534959D1*
X-100945Y-535943D1*
X-100636Y-536927D1*
X-99652Y-510352D2*
Y-511337D1*
Y-512321D1*
Y-513305D1*
Y-514289D1*
Y-515274D1*
X-80951Y-510352D2*
X-82723Y-511337D1*
X-84245Y-512321D1*
X-85408Y-513305D1*
X-86223Y-514289D1*
X-86857Y-515274D1*
X-80951Y-510352D2*
X-79180Y-511337D1*
X-77655Y-512321D1*
X-76470Y-513305D1*
X-75600Y-514289D1*
X-74963Y-515274D1*
X-74523Y-516258D1*
X-74271Y-517242D1*
X-74149Y-518226D1*
X-74095Y-519211D1*
X-74074Y-520195D1*
X-74066Y-521179D1*
X-74063Y-522163D1*
X-74062Y-523148D1*
Y-524132D1*
X-74066Y-525116D1*
X-74100Y-526100D1*
X-74229Y-527085D1*
X-74504Y-528069D1*
X-74924Y-529053D1*
X-75545Y-530037D1*
X-76367Y-531022D1*
X-78233Y-532006D1*
X-80839Y-532990D1*
X-83904Y-533974D1*
X-90794Y-529053D2*
X-90604Y-530037D1*
X-90230Y-531022D1*
X-89697Y-532006D1*
X-89070Y-532990D1*
X-88244Y-533974D1*
X-87063Y-534959D1*
X-85557Y-535943D1*
X-83904Y-536927D1*
X-86857Y-529053D2*
X-86274Y-530037D1*
X-85499Y-531022D1*
X-83653Y-532006D1*
X-81058Y-532990D1*
X-77999Y-533974D1*
X324867Y-411634D2*
X323130Y-412618D1*
X321700Y-413602D1*
X320657Y-414587D1*
X319894Y-415571D1*
X319287Y-416555D1*
X318782Y-417539D1*
X318401Y-418524D1*
X318173Y-419508D1*
X318060Y-420492D1*
X318010Y-421476D1*
X317990Y-422461D1*
X317982Y-423445D1*
X317979Y-424429D1*
X317978Y-425413D1*
Y-426398D1*
Y-427382D1*
Y-428366D1*
Y-429350D1*
Y-430335D1*
X317982Y-431319D1*
X318016Y-432303D1*
X318145Y-433287D1*
X318416Y-434272D1*
X318797Y-435256D1*
X319247Y-436240D1*
X319793Y-437224D1*
X320570Y-438209D1*
X321725Y-439193D1*
X323221Y-440177D1*
X324867Y-441161D1*
X338647Y-411634D2*
Y-412618D1*
Y-413602D1*
Y-414587D1*
Y-415571D1*
Y-416555D1*
Y-417539D1*
Y-418524D1*
Y-419508D1*
Y-420492D1*
Y-421476D1*
Y-422461D1*
Y-423445D1*
Y-424429D1*
Y-425413D1*
Y-426398D1*
Y-427382D1*
Y-428366D1*
Y-429350D1*
Y-430335D1*
Y-431319D1*
Y-432303D1*
Y-433287D1*
Y-434272D1*
Y-435256D1*
Y-436240D1*
Y-437224D1*
Y-438209D1*
Y-439193D1*
Y-440177D1*
Y-441161D1*
X343568Y-411634D2*
X343905Y-412618D1*
X344202Y-413602D1*
X344423Y-414587D1*
X344645Y-415571D1*
X344924Y-416555D1*
X345198Y-417539D1*
X345411Y-418524D1*
X345630Y-419508D1*
X345908Y-420492D1*
X346182Y-421476D1*
X346395Y-422461D1*
X346614Y-423445D1*
X346893Y-424429D1*
X347166Y-425413D1*
X347379Y-426398D1*
X347598Y-427382D1*
X347877Y-428366D1*
X348151Y-429350D1*
X348364Y-430335D1*
X348583Y-431319D1*
X348861Y-432303D1*
X349131Y-433287D1*
X349313Y-434272D1*
X349442Y-435256D1*
X349610Y-436240D1*
X349863Y-437224D1*
X350122Y-438209D1*
X350297Y-439193D1*
X350394Y-440177D1*
X350458Y-441161D1*
X347505Y-411634D2*
X347543Y-412618D1*
X347669Y-413602D1*
X347905Y-414587D1*
X348161Y-415571D1*
X348367Y-416555D1*
X348584Y-417539D1*
X348862Y-418524D1*
X349135Y-419508D1*
X349348Y-420492D1*
X349567Y-421476D1*
X349845Y-422461D1*
X350115Y-423445D1*
X350297Y-424429D1*
X350426Y-425413D1*
X350594Y-426398D1*
X350847Y-427382D1*
X351110Y-428366D1*
X351319Y-429350D1*
X351540Y-430335D1*
X351856Y-431319D1*
X352280Y-432303D1*
X352810Y-433287D1*
X353411Y-434272D1*
X359316Y-411634D2*
X359279Y-412618D1*
X359153Y-413602D1*
X358913Y-414587D1*
X358626Y-415571D1*
X358329Y-416555D1*
X358002Y-417539D1*
X357704Y-418524D1*
X357480Y-419508D1*
X357257Y-420492D1*
X356977Y-421476D1*
X356703Y-422461D1*
X356490Y-423445D1*
X356270Y-424429D1*
X355992Y-425413D1*
X355718Y-426398D1*
X355505Y-427382D1*
X355286Y-428366D1*
X355008Y-429350D1*
X354734Y-430335D1*
X354518Y-431319D1*
X354272Y-432303D1*
X353891Y-433287D1*
X353411Y-434272D1*
X362269Y-411634D2*
X362421Y-412618D1*
X362665Y-413602D1*
X362924Y-414587D1*
X363131Y-415571D1*
X363348Y-416555D1*
X363625Y-417539D1*
X363899Y-418524D1*
X364112Y-419508D1*
X364331Y-420492D1*
X364609Y-421476D1*
X364883Y-422461D1*
X365096Y-423445D1*
X365315Y-424429D1*
X365593Y-425413D1*
X365867Y-426398D1*
X366080Y-427382D1*
X366299Y-428366D1*
X366585Y-429350D1*
X366930Y-430335D1*
X367414Y-431319D1*
X368185Y-432303D1*
X369159Y-433287D1*
X374080Y-411634D2*
X374043Y-412618D1*
X373916Y-413602D1*
X373681Y-414587D1*
X373424Y-415571D1*
X373218Y-416555D1*
X373001Y-417539D1*
X372724Y-418524D1*
X372454Y-419508D1*
X372272Y-420492D1*
X372144Y-421476D1*
X371976Y-422461D1*
X371722Y-423445D1*
X371459Y-424429D1*
X371251Y-425413D1*
X371033Y-426398D1*
X370755Y-427382D1*
X370486Y-428366D1*
X370300Y-429350D1*
X370131Y-430335D1*
X369899Y-431319D1*
X369122Y-432303D1*
X368175Y-433287D1*
X378017Y-411634D2*
X377681Y-412618D1*
X377388Y-413602D1*
X377197Y-414587D1*
X377066Y-415571D1*
X376897Y-416555D1*
X376644Y-417539D1*
X376381Y-418524D1*
X376172Y-419508D1*
X375954Y-420492D1*
X375677Y-421476D1*
X375403Y-422461D1*
X375190Y-423445D1*
X374971Y-424429D1*
X374693Y-425413D1*
X374419Y-426398D1*
X374206Y-427382D1*
X373987Y-428366D1*
X373708Y-429350D1*
X373435Y-430335D1*
X373222Y-431319D1*
X373003Y-432303D1*
X372724Y-433287D1*
X372450Y-434272D1*
X372237Y-435256D1*
X372018Y-436240D1*
X371740Y-437224D1*
X371470Y-438209D1*
X371291Y-439193D1*
X371192Y-440177D1*
X371127Y-441161D1*
X387860Y-411634D2*
X386130Y-412618D1*
X384585Y-413602D1*
X383787Y-414587D1*
X383675Y-415571D1*
X383923Y-416555D1*
X395734Y-411634D2*
X397471Y-412618D1*
X398901Y-413602D1*
X399941Y-414587D1*
X400668Y-415571D1*
X401151Y-416555D1*
X401419Y-417539D1*
X401548Y-418524D1*
X401604Y-419508D1*
X401622Y-420492D1*
X401592Y-421476D1*
X401431Y-422461D1*
X401029Y-423445D1*
X400327Y-424429D1*
X399228Y-425413D1*
X397468Y-426398D1*
X394910Y-427382D1*
X391956Y-428366D1*
X389334Y-429350D1*
X387455Y-430335D1*
X386089Y-431319D1*
X385537Y-432303D1*
X385501Y-433287D1*
X385822Y-434272D1*
X386645Y-435256D1*
X389177Y-436240D1*
X393034Y-437224D1*
X397702Y-438209D1*
X327820Y-414587D2*
X326049Y-415571D1*
X324528Y-416555D1*
X323378Y-417539D1*
X322504Y-418524D1*
X322199Y-419508D1*
X322035Y-420492D1*
X321962Y-421476D1*
X321932Y-422461D1*
X321921Y-423445D1*
X321917Y-424429D1*
X321915Y-425413D1*
Y-426398D1*
Y-427382D1*
Y-428366D1*
Y-429350D1*
Y-430335D1*
X321919Y-431319D1*
X321957Y-432303D1*
X322125Y-433287D1*
X322443Y-434272D1*
X323363Y-435256D1*
X326059Y-436240D1*
X330357Y-437224D1*
X335694Y-438209D1*
X334710Y-414587D2*
Y-415571D1*
Y-416555D1*
Y-417539D1*
Y-418524D1*
Y-419508D1*
Y-420492D1*
Y-421476D1*
Y-422461D1*
Y-423445D1*
Y-424429D1*
Y-425413D1*
Y-426398D1*
Y-427382D1*
Y-428366D1*
Y-429350D1*
Y-430335D1*
Y-431319D1*
Y-432303D1*
Y-433287D1*
Y-434272D1*
Y-435256D1*
Y-436240D1*
Y-437224D1*
X326836Y-438209D1*
X391797Y-414587D2*
X388844Y-415571D1*
X385891Y-416555D1*
X392781Y-414587D2*
X394552Y-415571D1*
X396073Y-416555D1*
X397220Y-417539D1*
X398082Y-418524D1*
X398335Y-419508D1*
X398192Y-420492D1*
X397680Y-421476D1*
X396239Y-422461D1*
X393975Y-423445D1*
X391107Y-424429D1*
X388327Y-425413D1*
X386143Y-426398D1*
X384617Y-427382D1*
X383593Y-428366D1*
X382893Y-429350D1*
X382428Y-430335D1*
X382168Y-431319D1*
X382043Y-432303D1*
X381992Y-433287D1*
X382009Y-434272D1*
X382165Y-435256D1*
X382561Y-436240D1*
X383220Y-437224D1*
X384118Y-438209D1*
X385337Y-439193D1*
X386966Y-440177D1*
X388844Y-441161D1*
X359316Y-421476D2*
X359312Y-422461D1*
X359278Y-423445D1*
X359152Y-424429D1*
X358917Y-425413D1*
X358660Y-426398D1*
X358454Y-427382D1*
X358237Y-428366D1*
X357956Y-429350D1*
X357652Y-430335D1*
X357348Y-431319D1*
X357019Y-432303D1*
X356720Y-433287D1*
X356496Y-434272D1*
X356273Y-435256D1*
X355993Y-436240D1*
X355718Y-437224D1*
X355502Y-438209D1*
X355256Y-439193D1*
X354875Y-440177D1*
X354395Y-441161D1*
X360301Y-421476D2*
X361095Y-422461D1*
X361705Y-423445D1*
X362160Y-424429D1*
X362556Y-425413D1*
X362881Y-426398D1*
X363115Y-427382D1*
X363342Y-428366D1*
X363623Y-429350D1*
X363898Y-430335D1*
X364111Y-431319D1*
X364331Y-432303D1*
X364613Y-433287D1*
X364917Y-434272D1*
X365221Y-435256D1*
X365551Y-436240D1*
X365850Y-437224D1*
X366076Y-438209D1*
X366327Y-439193D1*
X366709Y-440177D1*
X367190Y-441161D1*
X400655Y-435256D2*
X397255Y-436240D1*
X392880Y-437224D1*
X387860Y-438209D1*
X401639Y-435256D2*
X402165Y-436240D1*
X402845Y-437224D1*
X403608Y-438209D1*
X401458Y-439193D1*
X399144Y-440177D1*
X396718Y-441161D1*
X130110Y562354D2*
X130484Y561370D1*
X130907Y560386D1*
X131364Y559402D1*
X131842Y558417D1*
X132328Y557433D1*
X132819Y556449D1*
X133309Y555465D1*
X133802Y554480D1*
X134293Y553496D1*
X134786Y552512D1*
X135277Y551528D1*
X135766Y550543D1*
X136227Y549559D1*
X136625Y548575D1*
X136975Y547591D1*
X137357Y546606D1*
X137788Y545622D1*
X138253Y544638D1*
X138759Y543654D1*
X139328Y542669D1*
X139953Y541685D1*
X132079Y540701D1*
X134047Y562354D2*
X134421Y561370D1*
X134844Y560386D1*
X135301Y559402D1*
X135775Y558417D1*
X136230Y557433D1*
X136626Y556449D1*
X136976Y555465D1*
X137357Y554480D1*
X137788Y553496D1*
X138250Y552512D1*
X138730Y551528D1*
X139217Y550543D1*
X139708Y549559D1*
X140199Y548575D1*
X140691Y547591D1*
X141183Y546606D1*
X141676Y545622D1*
X142167Y544638D1*
X142656Y543654D1*
X143113Y542669D1*
X143476Y541685D1*
X143697Y540701D1*
X143809Y539717D1*
X143860Y538732D1*
X143890Y537748D1*
X156685Y562354D2*
X155250Y561370D1*
X154022Y560386D1*
X153055Y559402D1*
X152372Y558417D1*
X151888Y557433D1*
X151482Y556449D1*
X151161Y555465D1*
X150995Y554480D1*
X151019Y553496D1*
X151213Y552512D1*
X151485Y551528D1*
X151813Y550543D1*
X152305Y549559D1*
X153029Y548575D1*
X153953Y547591D1*
X154911Y546606D1*
X155754Y545622D1*
X155957Y544638D1*
X155686Y543654D1*
X155232Y542669D1*
X154656Y541685D1*
X154076Y540701D1*
X153532Y539717D1*
X153012Y538732D1*
X152509Y537748D1*
X152012Y536764D1*
X151516Y535780D1*
X150997Y534795D1*
X150422Y533811D1*
X149795Y532827D1*
X171449Y562354D2*
Y561370D1*
Y560386D1*
Y559402D1*
Y558417D1*
Y557433D1*
Y556449D1*
Y555465D1*
Y554480D1*
Y553496D1*
Y552512D1*
Y551528D1*
Y550543D1*
Y549559D1*
Y548575D1*
Y547591D1*
Y546606D1*
Y545622D1*
Y544638D1*
Y543654D1*
Y542669D1*
Y541685D1*
Y540701D1*
Y539717D1*
Y538732D1*
Y537748D1*
Y536764D1*
Y535780D1*
Y534795D1*
Y533811D1*
Y532827D1*
X159638Y559402D2*
X158019Y558417D1*
X156741Y557433D1*
X155846Y556449D1*
X155175Y555465D1*
X154977Y554480D1*
X154903Y553496D1*
X155149Y552512D1*
X155809Y551528D1*
X158402Y550543D1*
X162849Y549559D1*
X168496Y548575D1*
X167512Y559402D2*
Y558417D1*
Y557433D1*
Y556449D1*
Y555465D1*
Y554480D1*
Y553496D1*
Y552512D1*
Y551528D1*
Y550543D1*
Y549559D1*
X158654Y548575D1*
X127157Y550543D2*
Y549559D1*
Y548575D1*
Y547591D1*
Y546606D1*
Y545622D1*
X127150Y544638D1*
X127081Y543654D1*
X126919Y542669D1*
X126381Y541685D1*
X125859Y540701D1*
X125512Y539717D1*
X125328Y538732D1*
X125240Y537748D1*
X125189Y536764D1*
X127157D1*
Y535780D1*
Y534795D1*
Y533811D1*
Y532827D1*
X130110Y550543D2*
Y549559D1*
Y548575D1*
Y547591D1*
Y546606D1*
Y545622D1*
Y544638D1*
Y543654D1*
Y542669D1*
Y541685D1*
X138969Y540701D1*
X161606Y545622D2*
X160778Y544638D1*
X160072Y543654D1*
X159472Y542669D1*
X158931Y541685D1*
X158420Y540701D1*
X157919Y539717D1*
X157425Y538732D1*
X156931Y537748D1*
X156440Y536764D1*
X155950Y535780D1*
X155484Y534795D1*
X155074Y533811D1*
X154717Y532827D1*
X167512Y545622D2*
Y544638D1*
Y543654D1*
Y542669D1*
Y541685D1*
Y540701D1*
Y539717D1*
Y538732D1*
Y537748D1*
Y536764D1*
Y535780D1*
Y534795D1*
Y533811D1*
Y532827D1*
X130110Y537748D2*
Y536764D1*
Y535780D1*
Y534795D1*
Y533811D1*
Y532827D1*
X-174349Y557034D2*
Y556050D1*
Y555066D1*
Y554081D1*
Y553097D1*
X-163522D1*
Y552113D1*
Y551129D1*
X-163526Y550144D1*
X-163564Y549160D1*
X-163716Y548176D1*
X-164052Y547192D1*
X-164507Y546207D1*
X-159585Y557034D2*
Y556050D1*
Y555066D1*
Y554081D1*
Y553097D1*
Y552113D1*
Y551129D1*
Y550144D1*
Y549160D1*
Y548176D1*
Y547192D1*
Y546207D1*
Y545223D1*
Y544239D1*
Y543255D1*
Y542270D1*
Y541286D1*
X-145806Y557034D2*
X-147241Y556050D1*
X-148469Y555066D1*
X-149436Y554081D1*
X-150119Y553097D1*
X-150602Y552113D1*
X-151008Y551129D1*
X-151330Y550144D1*
X-151496Y549160D1*
X-151472Y548176D1*
X-151278Y547192D1*
X-151006Y546207D1*
X-150678Y545223D1*
X-150185Y544239D1*
X-149462Y543255D1*
X-148538Y542270D1*
X-147579Y541286D1*
X-146737Y540302D1*
X-146534Y539318D1*
X-146805Y538333D1*
X-147258Y537349D1*
X-147835Y536365D1*
X-148414Y535381D1*
X-148959Y534396D1*
X-149479Y533412D1*
X-149981Y532428D1*
X-150479Y531444D1*
X-150975Y530459D1*
X-151494Y529475D1*
X-152068Y528491D1*
X-152696Y527507D1*
X-131042Y557034D2*
Y556050D1*
Y555066D1*
Y554081D1*
Y553097D1*
Y552113D1*
Y551129D1*
Y550144D1*
Y549160D1*
Y548176D1*
Y547192D1*
Y546207D1*
Y545223D1*
Y544239D1*
Y543255D1*
Y542270D1*
Y541286D1*
Y540302D1*
Y539318D1*
Y538333D1*
Y537349D1*
Y536365D1*
Y535381D1*
Y534396D1*
Y533412D1*
Y532428D1*
Y531444D1*
Y530459D1*
Y529475D1*
Y528491D1*
Y527507D1*
X-142853Y554081D2*
X-144472Y553097D1*
X-145750Y552113D1*
X-146645Y551129D1*
X-147316Y550144D1*
X-147514Y549160D1*
X-147588Y548176D1*
X-147342Y547192D1*
X-146682Y546207D1*
X-144089Y545223D1*
X-139642Y544239D1*
X-133995Y543255D1*
X-134979Y554081D2*
Y553097D1*
Y552113D1*
Y551129D1*
Y550144D1*
Y549160D1*
Y548176D1*
Y547192D1*
Y546207D1*
Y545223D1*
Y544239D1*
X-143837Y543255D1*
X-170412Y547192D2*
X-171813Y546207D1*
X-172950Y545223D1*
X-173803Y544239D1*
X-174434Y543255D1*
X-174873Y542270D1*
X-175124Y541286D1*
X-175246Y540302D1*
X-175300Y539318D1*
X-175321Y538333D1*
X-175329Y537349D1*
X-175332Y536365D1*
X-175329Y535381D1*
X-175295Y534396D1*
X-175166Y533412D1*
X-174891Y532428D1*
X-174471Y531444D1*
X-173863Y530459D1*
X-172968Y529475D1*
X-171772Y528491D1*
X-170412Y527507D1*
X-165491Y547192D2*
X-164507Y546207D1*
X-168444Y544239D2*
X-169390Y543255D1*
X-170245Y542270D1*
X-170954Y541286D1*
X-171522Y540302D1*
X-171935Y539318D1*
X-172173Y538333D1*
X-172257Y537349D1*
X-172180Y536365D1*
X-171926Y535381D1*
X-171507Y534396D1*
X-170967Y533412D1*
X-169663Y532428D1*
X-167768Y531444D1*
X-165491Y530459D1*
X-167459Y544239D2*
X-165672Y543255D1*
X-164049Y542270D1*
X-162538Y541286D1*
X-140885Y540302D2*
X-141713Y539318D1*
X-142418Y538333D1*
X-143019Y537349D1*
X-143560Y536365D1*
X-144071Y535381D1*
X-144572Y534396D1*
X-145066Y533412D1*
X-145560Y532428D1*
X-146051Y531444D1*
X-146541Y530459D1*
X-147007Y529475D1*
X-147417Y528491D1*
X-147774Y527507D1*
X-134979Y540302D2*
Y539318D1*
Y538333D1*
Y537349D1*
Y536365D1*
Y535381D1*
Y534396D1*
Y533412D1*
Y532428D1*
Y531444D1*
Y530459D1*
Y529475D1*
Y528491D1*
Y527507D1*
X-162538Y534396D2*
X-163186Y533412D1*
X-164897Y532428D1*
X-167410Y531444D1*
X-170412Y530459D1*
X-159585Y534396D2*
X-159741Y533412D1*
X-160024Y532428D1*
X-160446Y531444D1*
X-161056Y530459D1*
X-161950Y529475D1*
X-163146Y528491D1*
X-164507Y527507D1*
X-222526Y366853D2*
X-222522Y365869D1*
X-222488Y364885D1*
X-222362Y363900D1*
X-222123Y362916D1*
X-221836Y361932D1*
X-221539Y360948D1*
X-221212Y359963D1*
X-220914Y358979D1*
X-220690Y357995D1*
X-220467Y357010D1*
X-220183Y356026D1*
X-219878Y355042D1*
X-219574Y354058D1*
X-219241Y353073D1*
X-218911Y352089D1*
X-218596Y351105D1*
X-218263Y350121D1*
X-217962Y349136D1*
X-217738Y348152D1*
X-217514Y347168D1*
X-217230Y346184D1*
X-216925Y345199D1*
X-216621Y344215D1*
X-216288Y343231D1*
X-215958Y342247D1*
X-215644Y341262D1*
X-215310Y340278D1*
X-215011Y339294D1*
X-214805Y338310D1*
X-214652Y337325D1*
X-206778Y366853D2*
Y365869D1*
Y364885D1*
Y363900D1*
Y362916D1*
Y361932D1*
Y360948D1*
Y359963D1*
Y358979D1*
X-193983Y366853D2*
X-195418Y365869D1*
X-196646Y364885D1*
X-197613Y363900D1*
X-198296Y362916D1*
X-198780Y361932D1*
X-199186Y360948D1*
X-199507Y359963D1*
X-199673Y358979D1*
X-199649Y357995D1*
X-199455Y357010D1*
X-199183Y356026D1*
X-198855Y355042D1*
X-198363Y354058D1*
X-197639Y353073D1*
X-196715Y352089D1*
X-195757Y351105D1*
X-194914Y350121D1*
X-194711Y349136D1*
X-194982Y348152D1*
X-195436Y347168D1*
X-196012Y346184D1*
X-196592Y345199D1*
X-197136Y344215D1*
X-197656Y343231D1*
X-198159Y342247D1*
X-198656Y341262D1*
X-199152Y340278D1*
X-199671Y339294D1*
X-200246Y338310D1*
X-200873Y337325D1*
X-179219Y366853D2*
Y365869D1*
Y364885D1*
Y363900D1*
Y362916D1*
Y361932D1*
Y360948D1*
Y359963D1*
Y358979D1*
Y357995D1*
Y357010D1*
Y356026D1*
Y355042D1*
Y354058D1*
Y353073D1*
Y352089D1*
Y351105D1*
Y350121D1*
Y349136D1*
Y348152D1*
Y347168D1*
Y346184D1*
Y345199D1*
Y344215D1*
Y343231D1*
Y342247D1*
Y341262D1*
Y340278D1*
Y339294D1*
Y338310D1*
Y337325D1*
X-218589Y363900D2*
X-218437Y362916D1*
X-218189Y361932D1*
X-217900Y360948D1*
X-217602Y359963D1*
X-217271Y358979D1*
X-216942Y357995D1*
X-216628Y357010D1*
X-216294Y356026D1*
X-215994Y355042D1*
X-215769Y354058D1*
X-215546Y353073D1*
X-215262Y352089D1*
X-214957Y351105D1*
X-214653Y350121D1*
X-214319Y349136D1*
X-213990Y348152D1*
X-213675Y347168D1*
X-213341Y346184D1*
X-213041Y345199D1*
X-212817Y344215D1*
X-212593Y343231D1*
X-212309Y342247D1*
X-212004Y341262D1*
X-211699Y340278D1*
X-211361Y339294D1*
X-211024Y338310D1*
X-210715Y337325D1*
X-209731Y363900D2*
Y362916D1*
Y361932D1*
Y360948D1*
Y359963D1*
Y358979D1*
X-191030Y363900D2*
X-192649Y362916D1*
X-193927Y361932D1*
X-194822Y360948D1*
X-195493Y359963D1*
X-195691Y358979D1*
X-195765Y357995D1*
X-195519Y357010D1*
X-194859Y356026D1*
X-192266Y355042D1*
X-187819Y354058D1*
X-182172Y353073D1*
X-183156Y363900D2*
Y362916D1*
Y361932D1*
Y360948D1*
Y359963D1*
Y358979D1*
Y357995D1*
Y357010D1*
Y356026D1*
Y355042D1*
Y354058D1*
X-192014Y353073D1*
X-189062Y350121D2*
X-189890Y349136D1*
X-190596Y348152D1*
X-191196Y347168D1*
X-191737Y346184D1*
X-192248Y345199D1*
X-192749Y344215D1*
X-193243Y343231D1*
X-193737Y342247D1*
X-194228Y341262D1*
X-194718Y340278D1*
X-195184Y339294D1*
X-195594Y338310D1*
X-195951Y337325D1*
X-183156Y350121D2*
Y349136D1*
Y348152D1*
Y347168D1*
Y346184D1*
Y345199D1*
Y344215D1*
Y343231D1*
Y342247D1*
Y341262D1*
Y340278D1*
Y339294D1*
Y338310D1*
Y337325D1*
X189209Y371966D2*
X189583Y370982D1*
X190006Y369997D1*
X190463Y369013D1*
X190941Y368029D1*
X191426Y367045D1*
X191917Y366060D1*
X192407Y365076D1*
X192897Y364092D1*
X193363Y363108D1*
X193773Y362123D1*
X194130Y361139D1*
X191328Y360155D1*
X189217Y359171D1*
X187699Y358186D1*
X186625Y357202D1*
X185819Y356218D1*
X185537Y355234D1*
X185384Y354249D1*
X185316Y353265D1*
X185288Y352281D1*
X185277Y351297D1*
Y350312D1*
X185311Y349328D1*
X185440Y348344D1*
X185714Y347360D1*
X186134Y346375D1*
X186742Y345391D1*
X187637Y344407D1*
X188833Y343423D1*
X190193Y342438D1*
X192161Y371966D2*
X192990Y370982D1*
X193695Y369997D1*
X194295Y369013D1*
X194837Y368029D1*
X195348Y367045D1*
X195849Y366060D1*
X196343Y365076D1*
X196837Y364092D1*
X197328Y363108D1*
X197821Y362123D1*
X198313Y361139D1*
X198802Y360155D1*
X199262Y359171D1*
X199660Y358186D1*
X200007Y357202D1*
X200354Y356218D1*
X200656Y355234D1*
X200847Y354249D1*
X200946Y353265D1*
X200991Y352281D1*
X201009Y351297D1*
X201012Y350312D1*
X200980Y349328D1*
X200852Y348344D1*
X200578Y347360D1*
X200158Y346375D1*
X199549Y345391D1*
X198654Y344407D1*
X197459Y343423D1*
X196098Y342438D1*
X213815Y371966D2*
X212380Y370982D1*
X211152Y369997D1*
X210184Y369013D1*
X209502Y368029D1*
X209018Y367045D1*
X208612Y366060D1*
X208291Y365076D1*
X208125Y364092D1*
X208148Y363108D1*
X208342Y362123D1*
X208615Y361139D1*
X208943Y360155D1*
X209435Y359171D1*
X210159Y358186D1*
X211083Y357202D1*
X212041Y356218D1*
X212884Y355234D1*
X213087Y354249D1*
X212816Y353265D1*
X212362Y352281D1*
X211786Y351297D1*
X211206Y350312D1*
X210661Y349328D1*
X210142Y348344D1*
X209639Y347360D1*
X209142Y346375D1*
X208646Y345391D1*
X208127Y344407D1*
X207552Y343423D1*
X206925Y342438D1*
X228579Y371966D2*
Y370982D1*
Y369997D1*
Y369013D1*
Y368029D1*
Y367045D1*
Y366060D1*
Y365076D1*
Y364092D1*
Y363108D1*
Y362123D1*
Y361139D1*
Y360155D1*
Y359171D1*
Y358186D1*
Y357202D1*
Y356218D1*
Y355234D1*
Y354249D1*
Y353265D1*
Y352281D1*
Y351297D1*
Y350312D1*
Y349328D1*
Y348344D1*
Y347360D1*
Y346375D1*
Y345391D1*
Y344407D1*
Y343423D1*
Y342438D1*
X216768Y369013D2*
X215149Y368029D1*
X213871Y367045D1*
X212976Y366060D1*
X212305Y365076D1*
X212107Y364092D1*
X212033Y363108D1*
X212279Y362123D1*
X212939Y361139D1*
X215531Y360155D1*
X219979Y359171D1*
X225626Y358186D1*
X224642Y369013D2*
Y368029D1*
Y367045D1*
Y366060D1*
Y365076D1*
Y364092D1*
Y363108D1*
Y362123D1*
Y361139D1*
Y360155D1*
Y359171D1*
X215783Y358186D1*
X193146Y357202D2*
X191527Y356218D1*
X190249Y355234D1*
X189354Y354249D1*
X188683Y353265D1*
X188451Y352281D1*
X188358Y351297D1*
X188433Y350312D1*
X188642Y349328D1*
X189219Y348344D1*
X190785Y347360D1*
X193186Y346375D1*
X196098Y345391D1*
X194130Y357202D2*
X195077Y356218D1*
X195931Y355234D1*
X196641Y354249D1*
X197205Y353265D1*
X197583Y352281D1*
X197791Y351297D1*
X197564Y350312D1*
X197170Y349328D1*
X196647Y348344D1*
X195347Y347360D1*
X193454Y346375D1*
X191177Y345391D1*
X218736Y355234D2*
X217908Y354249D1*
X217202Y353265D1*
X216602Y352281D1*
X216061Y351297D1*
X215549Y350312D1*
X215049Y349328D1*
X214555Y348344D1*
X214061Y347360D1*
X213569Y346375D1*
X213080Y345391D1*
X212614Y344407D1*
X212204Y343423D1*
X211846Y342438D1*
X224642Y355234D2*
Y354249D1*
Y353265D1*
Y352281D1*
Y351297D1*
Y350312D1*
Y349328D1*
Y348344D1*
Y347360D1*
Y346375D1*
Y345391D1*
Y344407D1*
Y343423D1*
Y342438D1*
X-34430Y478643D2*
X-36167Y477659D1*
X-37438Y476675D1*
X-38325Y475690D1*
X-38989Y474706D1*
X-39517Y473722D1*
X-39904Y472738D1*
X-40100Y471753D1*
X-40085Y470769D1*
X-39862Y469785D1*
X-39466Y468801D1*
X-38906Y467816D1*
X-38208Y466832D1*
X-37546Y465848D1*
X-37026Y464864D1*
X-37112Y463879D1*
X-37723Y462895D1*
X-38470Y461911D1*
X-39202Y460927D1*
X-39751Y459942D1*
X-40070Y458958D1*
X-40226Y457974D1*
X-40289Y456990D1*
X-40282Y456005D1*
X-40163Y455021D1*
X-39892Y454037D1*
X-39473Y453052D1*
X-38865Y452068D1*
X-37971Y451084D1*
X-36775Y450100D1*
X-35415Y449115D1*
X-19667Y478643D2*
Y477659D1*
Y476675D1*
Y475690D1*
Y474706D1*
Y473722D1*
Y472738D1*
Y471753D1*
Y470769D1*
Y469785D1*
Y468801D1*
Y467816D1*
Y466832D1*
Y465848D1*
Y464864D1*
Y463879D1*
Y462895D1*
Y461911D1*
Y460927D1*
Y459942D1*
Y458958D1*
Y457974D1*
Y456990D1*
Y456005D1*
Y455021D1*
Y454037D1*
Y453052D1*
Y452068D1*
Y451084D1*
Y450100D1*
Y449115D1*
X-4903Y478643D2*
X-6640Y477659D1*
X-8074Y476675D1*
X-9148Y475690D1*
X-10002Y474706D1*
X-10720Y473722D1*
X-11244Y472738D1*
X-11566Y471753D1*
X-11793Y470769D1*
X1003Y478643D2*
X2774Y477659D1*
X4299Y476675D1*
X5484Y475690D1*
X6354Y474706D1*
X6991Y473722D1*
X7435Y472738D1*
X7721Y471753D1*
X7969Y470769D1*
X8258Y469785D1*
X8532Y468801D1*
X8712Y467816D1*
X8806Y466832D1*
X8849Y465848D1*
X8866Y464864D1*
X8873Y463879D1*
X8875Y462895D1*
X8872Y461911D1*
X8838Y460927D1*
X8713Y459942D1*
X8477Y458958D1*
X8221Y457974D1*
X8015Y456990D1*
X7794Y456005D1*
X7478Y455021D1*
X7045Y454037D1*
X6459Y453052D1*
X5638Y452068D1*
X4468Y451084D1*
X2865Y450100D1*
X1003Y449115D1*
X21672Y478643D2*
X20237Y477659D1*
X19009Y476675D1*
X18041Y475690D1*
X17359Y474706D1*
X16875Y473722D1*
X16469Y472738D1*
X16148Y471753D1*
X15982Y470769D1*
X16005Y469785D1*
X16199Y468801D1*
X16472Y467816D1*
X16800Y466832D1*
X17292Y465848D1*
X18016Y464864D1*
X18940Y463879D1*
X19898Y462895D1*
X20740Y461911D1*
X20944Y460927D1*
X20673Y459942D1*
X20219Y458958D1*
X19643Y457974D1*
X19063Y456990D1*
X18518Y456005D1*
X17999Y455021D1*
X17496Y454037D1*
X16999Y453052D1*
X16503Y452068D1*
X15984Y451084D1*
X15409Y450100D1*
X14782Y449115D1*
X36436Y478643D2*
Y477659D1*
Y476675D1*
Y475690D1*
Y474706D1*
Y473722D1*
Y472738D1*
Y471753D1*
Y470769D1*
Y469785D1*
Y468801D1*
Y467816D1*
Y466832D1*
Y465848D1*
Y464864D1*
Y463879D1*
Y462895D1*
Y461911D1*
Y460927D1*
Y459942D1*
Y458958D1*
Y457974D1*
Y456990D1*
Y456005D1*
Y455021D1*
Y454037D1*
Y453052D1*
Y452068D1*
Y451084D1*
Y450100D1*
Y449115D1*
X-33446Y475690D2*
X-34389Y474706D1*
X-35209Y473722D1*
X-35793Y472738D1*
X-36122Y471753D1*
X-36244Y470769D1*
X-36238Y469785D1*
X-35723Y468801D1*
X-33292Y467816D1*
X-29048Y466832D1*
X-23604Y465848D1*
Y475690D2*
Y474706D1*
Y473722D1*
Y472738D1*
Y471753D1*
Y470769D1*
Y469785D1*
Y468801D1*
Y467816D1*
Y466832D1*
X-33446Y465848D1*
X-1950Y475690D2*
X-3721Y474706D1*
X-5244Y473722D1*
X-6407Y472738D1*
X-7222Y471753D1*
X-7856Y470769D1*
X-1950Y475690D2*
X-179Y474706D1*
X1346Y473722D1*
X2531Y472738D1*
X3401Y471753D1*
X4038Y470769D1*
X4479Y469785D1*
X4730Y468801D1*
X4852Y467816D1*
X4906Y466832D1*
X4927Y465848D1*
X4935Y464864D1*
X4938Y463879D1*
X4939Y462895D1*
Y461911D1*
X4940Y460927D1*
X4936Y459942D1*
X4901Y458958D1*
X4772Y457974D1*
X4490Y456990D1*
X4097Y456005D1*
X3257Y455021D1*
X1054Y454037D1*
X-2127Y453052D1*
X-5887Y452068D1*
X24625Y475690D2*
X23006Y474706D1*
X21728Y473722D1*
X20833Y472738D1*
X20162Y471753D1*
X19964Y470769D1*
X19890Y469785D1*
X20136Y468801D1*
X20796Y467816D1*
X23388Y466832D1*
X27836Y465848D1*
X33483Y464864D1*
X32499Y475690D2*
Y474706D1*
Y473722D1*
Y472738D1*
Y471753D1*
Y470769D1*
Y469785D1*
Y468801D1*
Y467816D1*
Y466832D1*
Y465848D1*
X23640Y464864D1*
X-12777D2*
Y463879D1*
Y462895D1*
X-12773Y461911D1*
X-12738Y460927D1*
X-12613Y459942D1*
X-12377Y458958D1*
X-12121Y457974D1*
X-11915Y456990D1*
X-11694Y456005D1*
X-11378Y455021D1*
X-10945Y454037D1*
X-10359Y453052D1*
X-9539Y452068D1*
X-8368Y451084D1*
X-6765Y450100D1*
X-4903Y449115D1*
X-2934Y464864D2*
Y463879D1*
Y462895D1*
Y461911D1*
Y460927D1*
X-8840D1*
X-8836Y459942D1*
X-8798Y458958D1*
X-8638Y457974D1*
X-8265Y456990D1*
X-7650Y456005D1*
X-6859Y455021D1*
X-4773Y454037D1*
X-1691Y453052D1*
X1987Y452068D1*
X-33446Y462895D2*
X-34393Y461911D1*
X-35247Y460927D1*
X-35953Y459942D1*
X-36487Y458958D1*
X-36881Y457974D1*
X-36761Y456990D1*
X-36498Y456005D1*
X-35723Y455021D1*
X-32951Y454037D1*
X-28371Y453052D1*
X-22619Y452068D1*
X-23604Y462895D2*
Y461911D1*
Y460927D1*
Y459942D1*
Y458958D1*
Y457974D1*
Y456990D1*
Y456005D1*
Y455021D1*
Y454037D1*
Y453052D1*
X-32462Y452068D1*
X26593Y461911D2*
X25765Y460927D1*
X25059Y459942D1*
X24459Y458958D1*
X23918Y457974D1*
X23406Y456990D1*
X22906Y456005D1*
X22412Y455021D1*
X21918Y454037D1*
X21426Y453052D1*
X20936Y452068D1*
X20471Y451084D1*
X20061Y450100D1*
X19703Y449115D1*
X32499Y461911D2*
Y460927D1*
Y459942D1*
Y458958D1*
Y457974D1*
Y456990D1*
Y456005D1*
Y455021D1*
Y454037D1*
Y453052D1*
Y452068D1*
Y451084D1*
Y450100D1*
Y449115D1*
X-95248Y10054D2*
X-96531Y9070D1*
X-97519Y8085D1*
X-98262Y7101D1*
X-98863Y6117D1*
X-99362Y5133D1*
X-99708Y4148D1*
X-99899Y3164D1*
X-99706Y2180D1*
X-99452Y1196D1*
X-99167Y211D1*
X-98809Y-773D1*
X-98357Y-1757D1*
X-97804Y-2741D1*
X-97180Y-3726D1*
X-96548Y-4710D1*
X-95871Y-5694D1*
X-95114Y-6678D1*
X-94354Y-7663D1*
X-93650Y-8647D1*
X-92940Y-9631D1*
X-92169Y-10615D1*
X-91404Y-11600D1*
X-90698Y-12584D1*
X-89984Y-13568D1*
X-89179Y-14552D1*
X-88294Y-15537D1*
X-87374Y-16521D1*
X-88358Y10054D2*
X-86957Y9070D1*
X-85820Y8085D1*
X-84967Y7101D1*
X-84336Y6117D1*
X-83894Y5133D1*
X-83626Y4148D1*
X-83437Y3164D1*
X-71626Y10054D2*
X-73061Y9070D1*
X-74289Y8085D1*
X-75253Y7101D1*
X-76009Y6117D1*
X-76286Y5133D1*
X-76436Y4148D1*
X-76500Y3164D1*
X-76493Y2180D1*
X-76374Y1196D1*
X-76100Y211D1*
X-75647Y-773D1*
X-74927Y-1757D1*
X-73865Y-2741D1*
X-72610Y-3726D1*
X-73775Y-4710D1*
X-74774Y-5694D1*
X-75560Y-6678D1*
X-76194Y-7663D1*
X-76714Y-8647D1*
X-77103Y-9631D1*
X-77330Y-10615D1*
X-77410Y-11600D1*
X-77331Y-12584D1*
X-77081Y-13568D1*
X-76704Y-14552D1*
X-76222Y-15537D1*
X-75552Y-16521D1*
X-74546Y-17505D1*
X-73173Y-18490D1*
X-71626Y-19474D1*
X-65720Y10054D2*
X-64319Y9070D1*
X-63182Y8085D1*
X-62329Y7101D1*
X-61698Y6117D1*
X-61256Y5133D1*
X-60988Y4148D1*
X-60799Y3164D1*
X-48988Y10054D2*
X-50423Y9070D1*
X-51651Y8085D1*
X-52615Y7101D1*
X-53371Y6117D1*
X-53648Y5133D1*
X-53798Y4148D1*
X-53866Y3164D1*
X-53893Y2180D1*
X-53904Y1196D1*
X-53908Y211D1*
X-53909Y-773D1*
Y-1757D1*
Y-2741D1*
Y-3726D1*
Y-4710D1*
Y-5694D1*
Y-6678D1*
Y-7663D1*
Y-8647D1*
Y-9631D1*
Y-10615D1*
Y-11600D1*
X-53906Y-12584D1*
X-53867Y-13568D1*
X-53703Y-14552D1*
X-53300Y-15537D1*
X-52610Y-16521D1*
X-51635Y-17505D1*
X-50386Y-18490D1*
X-48988Y-19474D1*
X-43083Y10054D2*
X-41648Y9070D1*
X-40419Y8085D1*
X-39456Y7101D1*
X-38700Y6117D1*
X-38385Y5133D1*
X-38109Y4148D1*
X-37806Y3164D1*
X-37526Y2180D1*
X-37343Y1196D1*
X-37248Y211D1*
X-37205Y-773D1*
X-37188Y-1757D1*
X-37181Y-2741D1*
X-37178Y-3726D1*
Y-4710D1*
X-37177Y-5694D1*
Y-6678D1*
Y-7663D1*
X-37181Y-8647D1*
X-37216Y-9631D1*
X-37341Y-10615D1*
X-37577Y-11600D1*
X-37833Y-12584D1*
X-38043Y-13568D1*
X-38298Y-14552D1*
X-38743Y-15537D1*
X-39450Y-16521D1*
X-40432Y-17505D1*
X-41684Y-18490D1*
X-43083Y-19474D1*
X-26350Y10054D2*
X-27633Y9070D1*
X-28621Y8085D1*
X-29365Y7101D1*
X-29966Y6117D1*
X-30464Y5133D1*
X-30810Y4148D1*
X-31001Y3164D1*
X-30808Y2180D1*
X-30555Y1196D1*
X-30270Y211D1*
X-29911Y-773D1*
X-29459Y-1757D1*
X-28906Y-2741D1*
X-28282Y-3726D1*
X-27650Y-4710D1*
X-26973Y-5694D1*
X-26216Y-6678D1*
X-25456Y-7663D1*
X-24752Y-8647D1*
X-24043Y-9631D1*
X-23272Y-10615D1*
X-22507Y-11600D1*
X-21801Y-12584D1*
X-21086Y-13568D1*
X-20281Y-14552D1*
X-19396Y-15537D1*
X-18476Y-16521D1*
X-19461Y10054D2*
X-18060Y9070D1*
X-16923Y8085D1*
X-16070Y7101D1*
X-15438Y6117D1*
X-14997Y5133D1*
X-14728Y4148D1*
X-14539Y3164D1*
X-1744Y10054D2*
X-3179Y9070D1*
X-4407Y8085D1*
X-5375Y7101D1*
X-6057Y6117D1*
X-6541Y5133D1*
X-6947Y4148D1*
X-7268Y3164D1*
X-7434Y2180D1*
X-7411Y1196D1*
X-7217Y211D1*
X-6944Y-773D1*
X-6616Y-1757D1*
X-6124Y-2741D1*
X-5400Y-3726D1*
X-4476Y-4710D1*
X-3518Y-5694D1*
X-2676Y-6678D1*
X-2472Y-7663D1*
X-2743Y-8647D1*
X-3197Y-9631D1*
X-3773Y-10615D1*
X-4353Y-11600D1*
X-4898Y-12584D1*
X-5417Y-13568D1*
X-5920Y-14552D1*
X-6417Y-15537D1*
X-6913Y-16521D1*
X-7432Y-17505D1*
X-8007Y-18490D1*
X-8634Y-19474D1*
X13020Y10054D2*
Y9070D1*
Y8085D1*
Y7101D1*
Y6117D1*
Y5133D1*
Y4148D1*
Y3164D1*
Y2180D1*
Y1196D1*
Y211D1*
Y-773D1*
Y-1757D1*
Y-2741D1*
Y-3726D1*
Y-4710D1*
Y-5694D1*
Y-6678D1*
Y-7663D1*
Y-8647D1*
Y-9631D1*
Y-10615D1*
Y-11600D1*
Y-12584D1*
Y-13568D1*
Y-14552D1*
Y-15537D1*
Y-16521D1*
Y-17505D1*
Y-18490D1*
Y-19474D1*
X26799Y10054D2*
X25062Y9070D1*
X23628Y8085D1*
X22554Y7101D1*
X21701Y6117D1*
X20982Y5133D1*
X20458Y4148D1*
X20136Y3164D1*
X19909Y2180D1*
X32705Y10054D2*
X34594Y9070D1*
X36109Y8085D1*
X37250Y7101D1*
X38087Y6117D1*
X38706Y5133D1*
X39143Y4148D1*
X39425Y3164D1*
X39672Y2180D1*
X39961Y1196D1*
X40234Y211D1*
X40414Y-773D1*
X40508Y-1757D1*
X40551Y-2741D1*
X40568Y-3726D1*
X40575Y-4710D1*
X40577Y-5694D1*
X40574Y-6678D1*
X40540Y-7663D1*
X40415Y-8647D1*
X40179Y-9631D1*
X39923Y-10615D1*
X39717Y-11600D1*
X39496Y-12584D1*
X39180Y-13568D1*
X38747Y-14552D1*
X38161Y-15537D1*
X37340Y-16521D1*
X36170Y-17505D1*
X34567Y-18490D1*
X32705Y-19474D1*
X-91311Y7101D2*
X-93045Y6117D1*
X-94440Y5133D1*
X-95513Y4148D1*
X-95935Y3164D1*
X-95940Y2180D1*
X-95743Y1196D1*
X-95393Y211D1*
X-94960Y-773D1*
X-94457Y-1757D1*
X-93849Y-2741D1*
X-93124Y-3726D1*
X-92377Y-4710D1*
X-91679Y-5694D1*
X-90967Y-6678D1*
X-90166Y-7663D1*
X-89310Y-8647D1*
X-88494Y-9631D1*
X-87763Y-10615D1*
X-87042Y-11600D1*
X-86266Y-12584D1*
X-85503Y-13568D1*
X-84835Y-14552D1*
X-84285Y-15537D1*
X-83878Y-16521D1*
X-83639Y-17505D1*
X-83515Y-18490D1*
X-83437Y-19474D1*
X-91311Y7101D2*
X-89689Y6117D1*
X-88377Y5133D1*
X-87337Y4148D1*
X-86390Y3164D1*
X-68673Y7101D2*
X-70292Y6117D1*
X-71570Y5133D1*
X-72461Y4148D1*
X-73120Y3164D1*
X-73292Y2180D1*
X-73035Y1196D1*
X-72610Y211D1*
X-71503Y-773D1*
X-70181Y-1757D1*
X-68888Y-2741D1*
X-68246Y-3726D1*
X-68042Y-4710D1*
X-69396Y-5694D1*
X-70838Y-6678D1*
X-72031Y-7663D1*
X-72960Y-8647D1*
X-73288Y-9631D1*
X-73461Y-10615D1*
X-73498Y-11600D1*
X-73434Y-12584D1*
X-72897Y-13568D1*
X-71214Y-14552D1*
X-68715Y-15537D1*
X-65720Y-16521D1*
X-67689Y7101D2*
X-66705Y6117D1*
X-65720Y5133D1*
X-64736Y4148D1*
X-63752Y3164D1*
X-46035Y7101D2*
X-47769Y6117D1*
X-49164Y5133D1*
X-50237Y4148D1*
X-50610Y3164D1*
X-50810Y2180D1*
X-50900Y1196D1*
X-50936Y211D1*
X-50949Y-773D1*
X-50954Y-1757D1*
X-50956Y-2741D1*
Y-3726D1*
X-50957Y-4710D1*
Y-5694D1*
Y-6678D1*
Y-7663D1*
Y-8647D1*
Y-9631D1*
X-50953Y-10615D1*
X-50911Y-11600D1*
X-50807Y-12584D1*
X-50263Y-13568D1*
X-48578Y-14552D1*
X-46078Y-15537D1*
X-43083Y-16521D1*
X-46035Y7101D2*
X-44302Y6117D1*
X-42906Y5133D1*
X-41833Y4148D1*
X-41460Y3164D1*
X-41261Y2180D1*
X-41171Y1196D1*
X-41135Y211D1*
X-41122Y-773D1*
X-41117Y-1757D1*
X-41115Y-2741D1*
X-41114Y-3726D1*
Y-4710D1*
Y-5694D1*
Y-6678D1*
Y-7663D1*
Y-8647D1*
Y-9631D1*
X-41118Y-10615D1*
X-41160Y-11600D1*
X-41264Y-12584D1*
X-41808Y-13568D1*
X-43493Y-14552D1*
X-45993Y-15537D1*
X-48988Y-16521D1*
X-22413Y7101D2*
X-24147Y6117D1*
X-25542Y5133D1*
X-26615Y4148D1*
X-27037Y3164D1*
X-27042Y2180D1*
X-26845Y1196D1*
X-26495Y211D1*
X-26062Y-773D1*
X-25559Y-1757D1*
X-24952Y-2741D1*
X-24226Y-3726D1*
X-23480Y-4710D1*
X-22781Y-5694D1*
X-22069Y-6678D1*
X-21268Y-7663D1*
X-20413Y-8647D1*
X-19596Y-9631D1*
X-18866Y-10615D1*
X-18144Y-11600D1*
X-17369Y-12584D1*
X-16606Y-13568D1*
X-15938Y-14552D1*
X-15387Y-15537D1*
X-14981Y-16521D1*
X-14741Y-17505D1*
X-14617Y-18490D1*
X-14539Y-19474D1*
X-22413Y7101D2*
X-20791Y6117D1*
X-19480Y5133D1*
X-18439Y4148D1*
X-17492Y3164D1*
X1209Y7101D2*
X-410Y6117D1*
X-1688Y5133D1*
X-2583Y4148D1*
X-3254Y3164D1*
X-3452Y2180D1*
X-3526Y1196D1*
X-3280Y211D1*
X-2620Y-773D1*
X-28Y-1757D1*
X4420Y-2741D1*
X10067Y-3726D1*
X9083Y7101D2*
Y6117D1*
Y5133D1*
Y4148D1*
Y3164D1*
Y2180D1*
Y1196D1*
Y211D1*
Y-773D1*
Y-1757D1*
Y-2741D1*
X224Y-3726D1*
X29752Y7101D2*
X27981Y6117D1*
X26458Y5133D1*
X25296Y4148D1*
X24480Y3164D1*
X23846Y2180D1*
X29752Y7101D2*
X31523Y6117D1*
X33048Y5133D1*
X34233Y4148D1*
X35103Y3164D1*
X35740Y2180D1*
X36181Y1196D1*
X36432Y211D1*
X36555Y-773D1*
X36608Y-1757D1*
X36629Y-2741D1*
X36637Y-3726D1*
X36640Y-4710D1*
X36641Y-5694D1*
X36642Y-6678D1*
X36638Y-7663D1*
X36603Y-8647D1*
X36474Y-9631D1*
X36200Y-10615D1*
X35780Y-11600D1*
X35158Y-12584D1*
X34336Y-13568D1*
X32471Y-14552D1*
X29865Y-15537D1*
X26799Y-16521D1*
X3177Y-6678D2*
X2349Y-7663D1*
X1643Y-8647D1*
X1043Y-9631D1*
X502Y-10615D1*
X-10Y-11600D1*
X-510Y-12584D1*
X-1004Y-13568D1*
X-1498Y-14552D1*
X-1990Y-15537D1*
X-2480Y-16521D1*
X-2945Y-17505D1*
X-3355Y-18490D1*
X-3713Y-19474D1*
X9083Y-6678D2*
Y-7663D1*
Y-8647D1*
Y-9631D1*
Y-10615D1*
Y-11600D1*
Y-12584D1*
Y-13568D1*
Y-14552D1*
Y-15537D1*
Y-16521D1*
Y-17505D1*
Y-18490D1*
Y-19474D1*
X19909Y-11600D2*
X20099Y-12584D1*
X20473Y-13568D1*
X21006Y-14552D1*
X21633Y-15537D1*
X22460Y-16521D1*
X23640Y-17505D1*
X25147Y-18490D1*
X26799Y-19474D1*
X23846Y-11600D2*
X24429Y-12584D1*
X25205Y-13568D1*
X27050Y-14552D1*
X29646Y-15537D1*
X32705Y-16521D1*
X-63752Y-12584D2*
X-64400Y-13568D1*
X-66111Y-14552D1*
X-68624Y-15537D1*
X-71626Y-16521D1*
X-59815Y-12584D2*
X-60193Y-13568D1*
X-60650Y-14552D1*
X-61241Y-15537D1*
X-62026Y-16521D1*
X-63045Y-17505D1*
X-64313Y-18490D1*
X-65720Y-19474D1*
X-100169Y-16521D2*
Y-17505D1*
Y-18490D1*
Y-19474D1*
X-31272Y-16521D2*
Y-17505D1*
Y-18490D1*
Y-19474D1*
X-87618Y-341445D2*
Y-342429D1*
Y-343413D1*
Y-344398D1*
Y-345382D1*
Y-346366D1*
Y-347350D1*
Y-348335D1*
Y-349319D1*
Y-350303D1*
Y-351287D1*
Y-352272D1*
Y-353256D1*
Y-354240D1*
Y-355224D1*
X-87622Y-356209D1*
X-87657Y-357193D1*
X-87797Y-358177D1*
X-88058Y-359161D1*
X-88819Y-360146D1*
X-90522Y-361130D1*
X-92539Y-362114D1*
X-80728Y-341445D2*
Y-342429D1*
Y-343413D1*
Y-344398D1*
Y-345382D1*
Y-346366D1*
Y-347350D1*
Y-348335D1*
Y-349319D1*
Y-350303D1*
Y-351287D1*
Y-352272D1*
Y-353256D1*
Y-354240D1*
Y-355224D1*
Y-356209D1*
Y-357193D1*
X-80732Y-358177D1*
X-80767Y-359161D1*
X-80892Y-360146D1*
X-81132Y-361130D1*
X-81423Y-362114D1*
X-81758Y-363098D1*
X-82249Y-364083D1*
X-82950Y-365067D1*
X-83866Y-366051D1*
X-85092Y-367035D1*
X-86723Y-368020D1*
X-88602Y-369004D1*
X-50217Y-341445D2*
Y-342429D1*
Y-343413D1*
Y-344398D1*
Y-345382D1*
Y-346366D1*
Y-347350D1*
Y-348335D1*
Y-349319D1*
Y-350303D1*
Y-351287D1*
Y-352272D1*
Y-353256D1*
Y-354240D1*
Y-355224D1*
Y-356209D1*
Y-357193D1*
Y-358177D1*
Y-359161D1*
Y-360146D1*
Y-361130D1*
Y-362114D1*
Y-363098D1*
Y-364083D1*
Y-365067D1*
Y-366051D1*
Y-367035D1*
Y-368020D1*
Y-369004D1*
X-43327Y-341445D2*
Y-342429D1*
Y-343413D1*
Y-344398D1*
Y-345382D1*
Y-346366D1*
Y-347350D1*
Y-348335D1*
Y-349319D1*
Y-350303D1*
Y-351287D1*
Y-352272D1*
Y-353256D1*
Y-354240D1*
Y-355224D1*
Y-356209D1*
Y-357193D1*
Y-358177D1*
Y-359161D1*
Y-360146D1*
Y-361130D1*
Y-362114D1*
Y-363098D1*
Y-364083D1*
Y-365067D1*
Y-366051D1*
Y-367035D1*
Y-368020D1*
Y-369004D1*
X-8878Y-341445D2*
Y-342429D1*
Y-343413D1*
Y-344398D1*
Y-345382D1*
Y-346366D1*
Y-347350D1*
Y-348335D1*
Y-349319D1*
X-12815D1*
Y-350303D1*
Y-351287D1*
Y-352272D1*
Y-353256D1*
Y-354240D1*
Y-355224D1*
Y-356209D1*
Y-357193D1*
X-8878D1*
X-9109Y-358177D1*
X-9509Y-359161D1*
X-10459Y-360146D1*
X-11397Y-361130D1*
X-12198Y-362114D1*
X-12514Y-363098D1*
X-12687Y-364083D1*
X-12765Y-365067D1*
X-12796Y-366051D1*
X-12808Y-367035D1*
X-12813Y-368020D1*
X-12815Y-369004D1*
X-1988Y-341445D2*
Y-342429D1*
Y-343413D1*
Y-344398D1*
Y-345382D1*
Y-346366D1*
Y-347350D1*
Y-348335D1*
Y-349319D1*
Y-350303D1*
Y-351287D1*
Y-352272D1*
Y-353256D1*
Y-354240D1*
Y-355224D1*
Y-356209D1*
Y-357193D1*
Y-358177D1*
X-1992Y-359161D1*
X-2027Y-360146D1*
X-2156Y-361130D1*
X-2430Y-362114D1*
X-2846Y-363098D1*
X-3418Y-364083D1*
X-4165Y-365067D1*
X-5068Y-366051D1*
X-6152Y-367035D1*
X-7451Y-368020D1*
X-8878Y-369004D1*
X13760Y-341445D2*
Y-342429D1*
Y-343413D1*
Y-344398D1*
Y-345382D1*
Y-346366D1*
Y-347350D1*
Y-348335D1*
Y-349319D1*
Y-350303D1*
X13756Y-351287D1*
X13719Y-352272D1*
X13566Y-353256D1*
X13230Y-354240D1*
X12776Y-355224D1*
X20650Y-341445D2*
Y-342429D1*
Y-343413D1*
Y-344398D1*
Y-345382D1*
Y-346366D1*
Y-347350D1*
Y-348335D1*
Y-349319D1*
Y-350303D1*
Y-351287D1*
Y-352272D1*
Y-353256D1*
Y-354240D1*
Y-355224D1*
Y-356209D1*
Y-357193D1*
Y-358177D1*
Y-359161D1*
Y-360146D1*
Y-361130D1*
Y-362114D1*
Y-363098D1*
Y-364083D1*
Y-365067D1*
Y-366051D1*
Y-367035D1*
Y-368020D1*
Y-369004D1*
X49193Y-341445D2*
Y-342429D1*
Y-343413D1*
Y-344398D1*
X49201Y-345382D1*
X49274Y-346366D1*
X49447Y-347350D1*
X50128Y-348335D1*
X50889Y-349319D1*
X51490Y-350303D1*
X51846Y-351287D1*
X52021Y-352272D1*
X52100Y-353256D1*
X52146Y-354240D1*
X49193D1*
Y-355224D1*
Y-356209D1*
Y-357193D1*
Y-358177D1*
Y-359161D1*
Y-360146D1*
Y-361130D1*
Y-362114D1*
X52146D1*
Y-363098D1*
Y-364083D1*
Y-365067D1*
Y-366051D1*
Y-367035D1*
Y-368020D1*
Y-369004D1*
Y-341445D2*
X53699Y-342429D1*
X55084Y-343413D1*
X56226Y-344398D1*
X57155Y-345382D1*
X57921Y-346366D1*
X58466Y-347350D1*
X58777Y-348335D1*
X58929Y-349319D1*
X58994Y-350303D1*
X59020Y-351287D1*
X59030Y-352272D1*
X59034Y-353256D1*
X59035Y-354240D1*
Y-355224D1*
Y-356209D1*
Y-357193D1*
Y-358177D1*
Y-359161D1*
Y-360146D1*
Y-361130D1*
Y-362114D1*
Y-363098D1*
Y-364083D1*
Y-365067D1*
Y-366051D1*
Y-367035D1*
Y-368020D1*
Y-369004D1*
X-194902Y-349319D2*
X-196303Y-350303D1*
X-197440Y-351287D1*
X-198293Y-352272D1*
X-198924Y-353256D1*
X-199363Y-354240D1*
X-199613Y-355224D1*
X-199736Y-356209D1*
X-199789Y-357193D1*
X-199810Y-358177D1*
X-199818Y-359161D1*
X-199821Y-360146D1*
X-199822Y-361130D1*
X-199823Y-362114D1*
Y-363098D1*
Y-364083D1*
Y-365067D1*
Y-366051D1*
Y-367035D1*
Y-368020D1*
Y-369004D1*
X-189980Y-349319D2*
X-186628Y-350303D1*
X-183091Y-351287D1*
X-182106Y-349319D2*
X-185459Y-350303D1*
X-188996Y-351287D1*
X-177185Y-349319D2*
X-175750Y-350303D1*
X-174522Y-351287D1*
X-173558Y-352272D1*
X-172802Y-353256D1*
X-172525Y-354240D1*
X-172375Y-355224D1*
X-172307Y-356209D1*
X-172280Y-357193D1*
X-172269Y-358177D1*
X-172266Y-359161D1*
X-172264Y-360146D1*
Y-361130D1*
Y-362114D1*
Y-363098D1*
Y-364083D1*
Y-365067D1*
Y-366051D1*
Y-367035D1*
Y-368020D1*
Y-369004D1*
X-160453Y-349319D2*
X-161891Y-350303D1*
X-163154Y-351287D1*
X-164247Y-352272D1*
X-165166Y-353256D1*
X-165901Y-354240D1*
X-166479Y-355224D1*
X-166896Y-356209D1*
X-167138Y-357193D1*
X-167257Y-358177D1*
X-167305Y-359161D1*
X-167292Y-360146D1*
X-167170Y-361130D1*
X-166899Y-362114D1*
X-166484Y-363098D1*
X-165913Y-364083D1*
X-165166Y-365067D1*
X-164263Y-366051D1*
X-163179Y-367035D1*
X-161880Y-368020D1*
X-160453Y-369004D1*
X-153563Y-349319D2*
X-151792Y-350303D1*
X-150266Y-351287D1*
X-149082Y-352272D1*
X-148212Y-353256D1*
X-147571Y-354240D1*
X-147096Y-355224D1*
X-146719Y-356209D1*
X-146365Y-357193D1*
X-146094Y-358177D1*
X-145945Y-359161D1*
X-146146Y-360146D1*
X-146403Y-361130D1*
X-146690Y-362114D1*
X-147049Y-363098D1*
X-147509Y-364083D1*
X-148135Y-365067D1*
X-149048Y-366051D1*
X-150312Y-367035D1*
X-151872Y-368020D1*
X-153563Y-369004D1*
X-134862Y-349319D2*
X-136755Y-350303D1*
X-138301Y-351287D1*
X-139533Y-352272D1*
X-140472Y-353256D1*
X-141191Y-354240D1*
X-141492Y-355224D1*
X-140714Y-356209D1*
X-139783Y-357193D1*
X-128957Y-349319D2*
X-127185Y-350303D1*
X-125660Y-351287D1*
X-124476Y-352272D1*
X-123606Y-353256D1*
X-122969Y-354240D1*
X-122528Y-355224D1*
X-122277Y-356209D1*
X-122154Y-357193D1*
X-122101Y-358177D1*
X-122079Y-359161D1*
X-122075Y-360146D1*
X-122111Y-361130D1*
X-122270Y-362114D1*
X-122634Y-363098D1*
X-123165Y-364083D1*
X-123791Y-365067D1*
X-124617Y-366051D1*
X-125798Y-367035D1*
X-127304Y-368020D1*
X-128957Y-369004D1*
X-94508Y-349319D2*
X-96245Y-350303D1*
X-97679Y-351287D1*
X-98753Y-352272D1*
X-99607Y-353256D1*
X-100324Y-354240D1*
X-100845Y-355224D1*
X-101146Y-356209D1*
X-101293Y-357193D1*
X-101357Y-358177D1*
X-101383Y-359161D1*
X-101389Y-360146D1*
X-101354Y-361130D1*
X-101195Y-362114D1*
X-100826Y-363098D1*
X-100265Y-364083D1*
X-99548Y-365067D1*
X-98612Y-366051D1*
X-97421Y-367035D1*
X-96021Y-368020D1*
X-94508Y-369004D1*
X-89587Y-349319D2*
Y-350303D1*
Y-351287D1*
Y-352272D1*
X-89602Y-353256D1*
X-89648Y-354240D1*
X-90079Y-355224D1*
X-91298Y-356209D1*
X-92578Y-357193D1*
X-93535Y-358177D1*
X-94236Y-359161D1*
X-93416Y-360146D1*
X-91216Y-361130D1*
X-88602Y-362114D1*
X-68917Y-349319D2*
X-70655Y-350303D1*
X-72085Y-351287D1*
X-73128Y-352272D1*
X-73891Y-353256D1*
X-74498Y-354240D1*
X-75002Y-355224D1*
X-75384Y-356209D1*
X-75611Y-357193D1*
X-75725Y-358177D1*
X-75775Y-359161D1*
X-75795Y-360146D1*
X-75803Y-361130D1*
X-75806Y-362114D1*
X-75807Y-363098D1*
Y-364083D1*
Y-365067D1*
Y-366051D1*
Y-367035D1*
Y-368020D1*
Y-369004D1*
X-62028Y-349319D2*
X-60256Y-350303D1*
X-58731Y-351287D1*
X-57546Y-352272D1*
X-56677Y-353256D1*
X-56039Y-354240D1*
X-55595Y-355224D1*
X-55306Y-356209D1*
X-55031Y-357193D1*
X-54639Y-358177D1*
X-54154Y-359161D1*
X-54612Y-360146D1*
X-54929Y-361130D1*
X-55201Y-362114D1*
X-55539Y-363098D1*
X-55985Y-364083D1*
X-56604Y-365067D1*
X-57515Y-366051D1*
X-58777Y-367035D1*
X-60337Y-368020D1*
X-62028Y-369004D1*
X-30531Y-349319D2*
X-32269Y-350303D1*
X-33699Y-351287D1*
X-34742Y-352272D1*
X-35505Y-353256D1*
X-36112Y-354240D1*
X-36617Y-355224D1*
X-36998Y-356209D1*
X-37226Y-357193D1*
X-37339Y-358177D1*
X-37389Y-359161D1*
X-37409Y-360146D1*
X-37417Y-361130D1*
X-37420Y-362114D1*
X-37421Y-363098D1*
Y-364083D1*
Y-365067D1*
Y-366051D1*
Y-367035D1*
Y-368020D1*
Y-369004D1*
X-23642Y-349319D2*
X-21871Y-350303D1*
X-20345Y-351287D1*
X-19161Y-352272D1*
X-18291Y-353256D1*
X-17654Y-354240D1*
X-17209Y-355224D1*
X-16920Y-356209D1*
X-16645Y-357193D1*
X-16254Y-358177D1*
X-15768Y-359161D1*
X-16226Y-360146D1*
X-16543Y-361130D1*
X-16816Y-362114D1*
X-17153Y-363098D1*
X-17599Y-364083D1*
X-18218Y-365067D1*
X-19129Y-366051D1*
X-20391Y-367035D1*
X-21951Y-368020D1*
X-23642Y-369004D1*
X1949Y-349319D2*
X2559Y-350303D1*
X3120Y-351287D1*
X3648Y-352272D1*
X4157Y-353256D1*
X4681Y-354240D1*
X5258Y-355224D1*
X5886Y-356209D1*
X5394Y-357193D1*
X4981Y-358177D1*
X4568Y-359161D1*
X4123Y-360146D1*
X3655Y-361130D1*
X3176Y-362114D1*
X2720Y-363098D1*
X2323Y-364083D1*
X1973Y-365067D1*
X1589Y-366051D1*
X1132Y-367035D1*
X589Y-368020D1*
X-20Y-369004D1*
X9823Y-349319D2*
X10197Y-350303D1*
X10620Y-351287D1*
X11080Y-352272D1*
X11584Y-353256D1*
X12152Y-354240D1*
X12776Y-355224D1*
X31476Y-349319D2*
X30038Y-350303D1*
X28775Y-351287D1*
X27686Y-352272D1*
X26798Y-353256D1*
X26153Y-354240D1*
X25686Y-355224D1*
X25286Y-356209D1*
X24963Y-357193D1*
X24763Y-358177D1*
X24655Y-359161D1*
X24587Y-360146D1*
X38366Y-349319D2*
X40137Y-350303D1*
X41663Y-351287D1*
X42847Y-352272D1*
X43717Y-353256D1*
X44358Y-354240D1*
X44833Y-355224D1*
X45210Y-356209D1*
X45565Y-357193D1*
X45836Y-358177D1*
X45984Y-359161D1*
X45783Y-360146D1*
X45526Y-361130D1*
X45239Y-362114D1*
X44880Y-363098D1*
X44420Y-364083D1*
X43794Y-365067D1*
X42881Y-366051D1*
X41617Y-367035D1*
X40057Y-368020D1*
X38366Y-369004D1*
X69862Y-349319D2*
X68424Y-350303D1*
X67161Y-351287D1*
X66072Y-352272D1*
X65184Y-353256D1*
X64539Y-354240D1*
X64072Y-355224D1*
X63672Y-356209D1*
X63349Y-357193D1*
X63148Y-358177D1*
X63041Y-359161D1*
X62972Y-360146D1*
X76752Y-349319D2*
X78523Y-350303D1*
X80048Y-351287D1*
X81233Y-352272D1*
X82103Y-353256D1*
X82744Y-354240D1*
X83219Y-355224D1*
X83596Y-356209D1*
X83950Y-357193D1*
X84221Y-358177D1*
X84370Y-359161D1*
X84169Y-360146D1*
X83912Y-361130D1*
X83625Y-362114D1*
X83266Y-363098D1*
X82806Y-364083D1*
X82180Y-365067D1*
X81267Y-366051D1*
X80003Y-367035D1*
X78443Y-368020D1*
X76752Y-369004D1*
X105295Y-349319D2*
Y-350303D1*
Y-351287D1*
Y-352272D1*
Y-353256D1*
Y-354240D1*
Y-355224D1*
Y-356209D1*
Y-357193D1*
Y-358177D1*
Y-359161D1*
Y-360146D1*
X105299Y-361130D1*
X105334Y-362114D1*
X105463Y-363098D1*
X105737Y-364083D1*
X106157Y-365067D1*
X106766Y-366051D1*
X107661Y-367035D1*
X108856Y-368020D1*
X110217Y-369004D1*
X112185Y-349319D2*
Y-350303D1*
Y-351287D1*
Y-352272D1*
Y-353256D1*
Y-354240D1*
Y-355224D1*
Y-356209D1*
Y-357193D1*
X112193Y-358177D1*
X112268Y-359161D1*
X112446Y-360146D1*
X113214Y-361130D1*
X114154Y-362114D1*
X116122Y-349319D2*
Y-350303D1*
Y-351287D1*
Y-352272D1*
Y-353256D1*
Y-354240D1*
Y-355224D1*
Y-356209D1*
X116118Y-357193D1*
X116072Y-358177D1*
X115957Y-359161D1*
X115348Y-360146D1*
X113885Y-361130D1*
X112185Y-362114D1*
X123012Y-349319D2*
Y-350303D1*
Y-351287D1*
Y-352272D1*
Y-353256D1*
Y-354240D1*
Y-355224D1*
Y-356209D1*
Y-357193D1*
X123020Y-358177D1*
X123094Y-359161D1*
X123273Y-360146D1*
X124040Y-361130D1*
X124980Y-362114D1*
X125965Y-349319D2*
Y-350303D1*
Y-351287D1*
Y-352272D1*
Y-353256D1*
Y-354240D1*
Y-355224D1*
Y-356209D1*
Y-357193D1*
X125957Y-358177D1*
X125882Y-359161D1*
X125703Y-360146D1*
X124936Y-361130D1*
X123996Y-362114D1*
X132854Y-349319D2*
Y-350303D1*
Y-351287D1*
Y-352272D1*
Y-353256D1*
Y-354240D1*
Y-355224D1*
Y-356209D1*
Y-357193D1*
Y-358177D1*
Y-359161D1*
Y-360146D1*
Y-361130D1*
X132850Y-362114D1*
X132812Y-363098D1*
X132648Y-364083D1*
X132245Y-365067D1*
X131555Y-366051D1*
X130580Y-367035D1*
X129331Y-368020D1*
X127933Y-369004D1*
X138760Y-349319D2*
Y-350303D1*
Y-351287D1*
Y-352272D1*
Y-353256D1*
Y-354240D1*
Y-355224D1*
Y-356209D1*
Y-357193D1*
Y-358177D1*
Y-359161D1*
Y-360146D1*
X138764Y-361130D1*
X138798Y-362114D1*
X138928Y-363098D1*
X139202Y-364083D1*
X139622Y-365067D1*
X140231Y-366051D1*
X141125Y-367035D1*
X142321Y-368020D1*
X143681Y-369004D1*
X145650Y-349319D2*
Y-350303D1*
Y-351287D1*
Y-352272D1*
Y-353256D1*
Y-354240D1*
Y-355224D1*
Y-356209D1*
Y-357193D1*
X145657Y-358177D1*
X145732Y-359161D1*
X145911Y-360146D1*
X146678Y-361130D1*
X147618Y-362114D1*
X149587Y-349319D2*
Y-350303D1*
Y-351287D1*
Y-352272D1*
Y-353256D1*
Y-354240D1*
Y-355224D1*
Y-356209D1*
X149583Y-357193D1*
X149537Y-358177D1*
X149421Y-359161D1*
X148813Y-360146D1*
X147349Y-361130D1*
X145650Y-362114D1*
X156476Y-349319D2*
Y-350303D1*
Y-351287D1*
Y-352272D1*
Y-353256D1*
Y-354240D1*
Y-355224D1*
Y-356209D1*
Y-357193D1*
X156484Y-358177D1*
X156559Y-359161D1*
X156738Y-360146D1*
X157505Y-361130D1*
X158445Y-362114D1*
X159429Y-349319D2*
Y-350303D1*
Y-351287D1*
Y-352272D1*
Y-353256D1*
Y-354240D1*
Y-355224D1*
Y-356209D1*
Y-357193D1*
X159421Y-358177D1*
X159346Y-359161D1*
X159168Y-360146D1*
X158401Y-361130D1*
X157461Y-362114D1*
X166319Y-349319D2*
Y-350303D1*
Y-351287D1*
Y-352272D1*
Y-353256D1*
Y-354240D1*
Y-355224D1*
Y-356209D1*
Y-357193D1*
Y-358177D1*
Y-359161D1*
Y-360146D1*
Y-361130D1*
X166315Y-362114D1*
X166277Y-363098D1*
X166113Y-364083D1*
X165709Y-365067D1*
X165020Y-366051D1*
X164044Y-367035D1*
X162795Y-368020D1*
X161398Y-369004D1*
X172224Y-349319D2*
Y-350303D1*
Y-351287D1*
Y-352272D1*
Y-353256D1*
Y-354240D1*
Y-355224D1*
Y-356209D1*
Y-357193D1*
Y-358177D1*
Y-359161D1*
Y-360146D1*
X172228Y-361130D1*
X172263Y-362114D1*
X172392Y-363098D1*
X172666Y-364083D1*
X173086Y-365067D1*
X173695Y-366051D1*
X174590Y-367035D1*
X175786Y-368020D1*
X177146Y-369004D1*
X179114Y-349319D2*
Y-350303D1*
Y-351287D1*
Y-352272D1*
Y-353256D1*
Y-354240D1*
Y-355224D1*
Y-356209D1*
Y-357193D1*
X179122Y-358177D1*
X179197Y-359161D1*
X179376Y-360146D1*
X180143Y-361130D1*
X181083Y-362114D1*
X183051Y-349319D2*
Y-350303D1*
Y-351287D1*
Y-352272D1*
Y-353256D1*
Y-354240D1*
Y-355224D1*
Y-356209D1*
X183047Y-357193D1*
X183001Y-358177D1*
X182886Y-359161D1*
X182277Y-360146D1*
X180814Y-361130D1*
X179114Y-362114D1*
X189941Y-349319D2*
Y-350303D1*
Y-351287D1*
Y-352272D1*
Y-353256D1*
Y-354240D1*
Y-355224D1*
Y-356209D1*
Y-357193D1*
X189949Y-358177D1*
X190024Y-359161D1*
X190202Y-360146D1*
X190969Y-361130D1*
X191909Y-362114D1*
X192894Y-349319D2*
Y-350303D1*
Y-351287D1*
Y-352272D1*
Y-353256D1*
Y-354240D1*
Y-355224D1*
Y-356209D1*
Y-357193D1*
X192886Y-358177D1*
X192811Y-359161D1*
X192632Y-360146D1*
X191865Y-361130D1*
X190925Y-362114D1*
X199783Y-349319D2*
Y-350303D1*
Y-351287D1*
Y-352272D1*
Y-353256D1*
Y-354240D1*
Y-355224D1*
Y-356209D1*
Y-357193D1*
Y-358177D1*
Y-359161D1*
Y-360146D1*
Y-361130D1*
X199780Y-362114D1*
X199741Y-363098D1*
X199577Y-364083D1*
X199174Y-365067D1*
X198484Y-366051D1*
X197509Y-367035D1*
X196260Y-368020D1*
X194862Y-369004D1*
X33445Y-354240D2*
X32461Y-355224D1*
X31476Y-356209D1*
X36398Y-357193D1*
Y-358177D1*
Y-359161D1*
Y-360146D1*
Y-354240D2*
X37188Y-355224D1*
X37764Y-356209D1*
X38094Y-357193D1*
X38250Y-358177D1*
X38265Y-359161D1*
X38161Y-360146D1*
X37373Y-361130D1*
X35577Y-362114D1*
X33697Y-363098D1*
X32122Y-364083D1*
X30968Y-365067D1*
X30119Y-366051D1*
X29776Y-367035D1*
X30550Y-368020D1*
X31476Y-369004D1*
X71831Y-354240D2*
X70846Y-355224D1*
X69862Y-356209D1*
X74783Y-357193D1*
Y-358177D1*
Y-359161D1*
Y-360146D1*
Y-354240D2*
X75574Y-355224D1*
X76150Y-356209D1*
X76480Y-357193D1*
X76636Y-358177D1*
X76651Y-359161D1*
X76547Y-360146D1*
X75759Y-361130D1*
X73962Y-362114D1*
X72083Y-363098D1*
X70508Y-364083D1*
X69354Y-365067D1*
X68505Y-366051D1*
X68162Y-367035D1*
X68936Y-368020D1*
X69862Y-369004D1*
X-192933Y-356209D2*
Y-357193D1*
Y-358177D1*
Y-359161D1*
Y-360146D1*
Y-361130D1*
Y-362114D1*
Y-363098D1*
Y-364083D1*
Y-365067D1*
Y-366051D1*
Y-367035D1*
Y-368020D1*
Y-369004D1*
X-190965Y-356209D2*
X-190174Y-357193D1*
X-189598Y-358177D1*
X-189268Y-359161D1*
X-189109Y-360146D1*
X-189040Y-361130D1*
X-189012Y-362114D1*
X-189002Y-363098D1*
X-188998Y-364083D1*
X-188997Y-365067D1*
X-188996Y-366051D1*
Y-367035D1*
Y-368020D1*
Y-369004D1*
X-182106Y-356209D2*
Y-357193D1*
Y-358177D1*
Y-359161D1*
Y-360146D1*
Y-361130D1*
Y-362114D1*
Y-363098D1*
Y-364083D1*
Y-365067D1*
Y-366051D1*
Y-367035D1*
Y-368020D1*
Y-369004D1*
X-179154Y-356209D2*
Y-357193D1*
Y-358177D1*
Y-359161D1*
Y-360146D1*
Y-361130D1*
Y-362114D1*
Y-363098D1*
Y-364083D1*
Y-365067D1*
Y-366051D1*
Y-367035D1*
Y-368020D1*
Y-369004D1*
X-158484Y-356209D2*
X-159271Y-357193D1*
X-159925Y-358177D1*
X-160051Y-359161D1*
X-159765Y-360146D1*
X-157314Y-361130D1*
X-154547Y-362114D1*
X-155531Y-356209D2*
X-154745Y-357193D1*
X-154091Y-358177D1*
X-153965Y-359161D1*
X-154251Y-360146D1*
X-156702Y-361130D1*
X-159469Y-362114D1*
X-133878Y-356209D2*
X-134862Y-357193D1*
X-130925Y-356209D2*
X-130138Y-357193D1*
X-129484Y-358177D1*
X-129359Y-359161D1*
X-129645Y-360146D1*
X-132096Y-361130D1*
X-134862Y-362114D1*
X-66949Y-356209D2*
X-67740Y-357193D1*
X-68315Y-358177D1*
X-68645Y-359161D1*
X-68805Y-360146D1*
X-68874Y-361130D1*
X-68901Y-362114D1*
X-68912Y-363098D1*
X-68915Y-364083D1*
X-68917Y-365067D1*
Y-366051D1*
Y-367035D1*
Y-368020D1*
Y-369004D1*
X-63996Y-356209D2*
X-63209Y-357193D1*
X-62555Y-358177D1*
X-62414Y-359161D1*
X-62959Y-360146D1*
X-64262Y-361130D1*
X-65460Y-362114D1*
X-66381Y-363098D1*
X-66680Y-364083D1*
X-66837Y-365067D1*
X-66906Y-366051D1*
X-66933Y-367035D1*
X-66944Y-368020D1*
X-66949Y-369004D1*
X-28563Y-356209D2*
X-29354Y-357193D1*
X-29929Y-358177D1*
X-30259Y-359161D1*
X-30419Y-360146D1*
X-30488Y-361130D1*
X-30516Y-362114D1*
X-30526Y-363098D1*
X-30530Y-364083D1*
X-30531Y-365067D1*
Y-366051D1*
Y-367035D1*
Y-368020D1*
Y-369004D1*
X-25610Y-356209D2*
X-24823Y-357193D1*
X-24169Y-358177D1*
X-24028Y-359161D1*
X-24573Y-360146D1*
X-25876Y-361130D1*
X-27074Y-362114D1*
X-27995Y-363098D1*
X-28294Y-364083D1*
X-28452Y-365067D1*
X-28520Y-366051D1*
X-28548Y-367035D1*
X-28558Y-368020D1*
X-28563Y-369004D1*
X11791Y-357193D2*
X11754Y-358177D1*
X11624Y-359161D1*
X11353Y-360146D1*
X10976Y-361130D1*
X10564Y-362114D1*
X10186Y-363098D1*
X9847Y-364083D1*
X9499Y-365067D1*
X9161Y-366051D1*
X8817Y-367035D1*
X8376Y-368020D1*
X7854Y-369004D1*
X13760Y-357193D2*
Y-358177D1*
Y-359161D1*
Y-360146D1*
Y-361130D1*
Y-362114D1*
Y-363098D1*
Y-364083D1*
Y-365067D1*
Y-366051D1*
Y-367035D1*
Y-368020D1*
Y-369004D1*
X-142736Y-360146D2*
X-142396Y-361130D1*
X-142065Y-362114D1*
X-141714Y-363098D1*
X-141218Y-364083D1*
X-140515Y-365067D1*
X-139599Y-366051D1*
X-138373Y-367035D1*
X-136741Y-368020D1*
X-134862Y-369004D1*
X-135846Y-360146D2*
X-133017Y-361130D1*
X-129941Y-362114D1*
X-113209Y-360146D2*
X-114269Y-361130D1*
X-115079Y-362114D1*
X-115616Y-363098D1*
X-115965Y-364083D1*
X-115911Y-365067D1*
X-115646Y-366051D1*
X-115107Y-367035D1*
X-114256Y-368020D1*
X-113209Y-369004D1*
X-109272Y-360146D2*
X-108481Y-361130D1*
X-107905Y-362114D1*
X-107576Y-363098D1*
X-107420Y-364083D1*
X-107389Y-365067D1*
X-107525Y-366051D1*
X-107911Y-367035D1*
X-108536Y-368020D1*
X-109272Y-369004D1*
X92500Y-360146D2*
X91439Y-361130D1*
X90630Y-362114D1*
X90093Y-363098D1*
X89743Y-364083D1*
X89797Y-365067D1*
X90063Y-366051D1*
X90601Y-367035D1*
X91453Y-368020D1*
X92500Y-369004D1*
X96437Y-360146D2*
X97228Y-361130D1*
X97803Y-362114D1*
X98133Y-363098D1*
X98289Y-364083D1*
X98320Y-365067D1*
X98184Y-366051D1*
X97798Y-367035D1*
X97172Y-368020D1*
X96437Y-369004D1*
X120059Y-367035D2*
X118091Y-368020D1*
X116122Y-369004D1*
X119075Y-367035D2*
X121043Y-368020D1*
X123012Y-369004D1*
X153524Y-367035D2*
X151555Y-368020D1*
X149587Y-369004D1*
X152539Y-367035D2*
X154508Y-368020D1*
X156476Y-369004D1*
X186988Y-367035D2*
X185020Y-368020D1*
X183051Y-369004D1*
X186004Y-367035D2*
X187972Y-368020D1*
X189941Y-369004D1*
X-293930Y187866D2*
X-295365Y186882D1*
X-296594Y185898D1*
X-297561Y184913D1*
X-298244Y183929D1*
X-298727Y182945D1*
X-299133Y181961D1*
X-299458Y180976D1*
X-299659Y179992D1*
X-299761Y179008D1*
X-299806Y178024D1*
X-299825Y177039D1*
X-299832Y176055D1*
X-299835Y175071D1*
X-299832Y174087D1*
X-299797Y173102D1*
X-299672Y172118D1*
X-299432Y171134D1*
X-299142Y170150D1*
X-298810Y169165D1*
X-298354Y168181D1*
X-297785Y167197D1*
X-297184Y166213D1*
X-296550Y165228D1*
X-295888Y164244D1*
X-295236Y163260D1*
X-294511Y162276D1*
X-293553Y161291D1*
X-292271Y160307D1*
X-290703Y159323D1*
X-289009Y158339D1*
X-288025Y187866D2*
X-286590Y186882D1*
X-285358Y185898D1*
X-284360Y184913D1*
X-283586Y183929D1*
X-282993Y182945D1*
X-282570Y181961D1*
X-282325Y180976D1*
X-282205Y179992D1*
X-282153Y179008D1*
X-282136Y178024D1*
X-282162Y177039D1*
X-282289Y176055D1*
X-282558Y175071D1*
X-282943Y174087D1*
X-283427Y173102D1*
X-284098Y172118D1*
X-285105Y171134D1*
X-286478Y170150D1*
X-288025Y169165D1*
X-271293Y187866D2*
Y186882D1*
Y185898D1*
Y184913D1*
Y183929D1*
Y182945D1*
Y181961D1*
Y180976D1*
Y179992D1*
Y179008D1*
Y178024D1*
Y177039D1*
Y176055D1*
Y175071D1*
Y174087D1*
Y173102D1*
Y172118D1*
Y171134D1*
Y170150D1*
Y169165D1*
Y168181D1*
Y167197D1*
Y166213D1*
Y165228D1*
Y164244D1*
Y163260D1*
Y162276D1*
Y161291D1*
Y160307D1*
Y159323D1*
Y158339D1*
X-270308Y187866D2*
X-269320Y186882D1*
X-268298Y185898D1*
X-267153Y184913D1*
X-265812Y183929D1*
X-264378Y182945D1*
X-263133Y181961D1*
X-262142Y180976D1*
X-261752Y179992D1*
X-261450Y179008D1*
X-249639Y187866D2*
X-251040Y186882D1*
X-252177Y185898D1*
X-253030Y184913D1*
X-253665Y183929D1*
X-254139Y182945D1*
X-254515Y181961D1*
X-254873Y180976D1*
X-255179Y179992D1*
X-255372Y179008D1*
X-255471Y178024D1*
X-255516Y177039D1*
X-255534Y176055D1*
X-255541Y175071D1*
X-255543Y174087D1*
X-255544Y173102D1*
Y172118D1*
X-255545Y171134D1*
X-255541Y170150D1*
X-255506Y169165D1*
X-255381Y168181D1*
X-255141Y167197D1*
X-254854Y166213D1*
X-254553Y165228D1*
X-254188Y164244D1*
X-253730Y163260D1*
X-253137Y162276D1*
X-252350Y161291D1*
X-251330Y160307D1*
X-250063Y159323D1*
X-248655Y158339D1*
X-243734Y187866D2*
X-242299Y186882D1*
X-241067Y185898D1*
X-240068Y184913D1*
X-239291Y183929D1*
X-238663Y182945D1*
X-238115Y181961D1*
X-237634Y180976D1*
X-237262Y179992D1*
X-237038Y179008D1*
X-236925Y178024D1*
X-236876Y177039D1*
X-236856Y176055D1*
X-236848Y175071D1*
X-236845Y174087D1*
X-236844Y173102D1*
Y172118D1*
Y171134D1*
Y170150D1*
Y169165D1*
X-236848Y168181D1*
X-236882Y167197D1*
X-237008Y166213D1*
X-237247Y165228D1*
X-237538Y164244D1*
X-237874Y163260D1*
X-238368Y162276D1*
X-239100Y161291D1*
X-240092Y160307D1*
X-241348Y159323D1*
X-242749Y158339D1*
X-225033Y187866D2*
X-226468Y186882D1*
X-227696Y185898D1*
X-228659Y184913D1*
X-229416Y183929D1*
X-229693Y182945D1*
X-229843Y181961D1*
X-229907Y180976D1*
X-229900Y179992D1*
X-229785Y179008D1*
X-229549Y178024D1*
X-229259Y177039D1*
X-228928Y176055D1*
X-228472Y175071D1*
X-227904Y174087D1*
X-227302Y173102D1*
X-226668Y172118D1*
X-226006Y171134D1*
X-225362Y170150D1*
X-224710Y169165D1*
X-224045Y168181D1*
X-223429Y167197D1*
X-222867Y166213D1*
X-222308Y165228D1*
X-221675Y164244D1*
X-220907Y163260D1*
X-220038Y162276D1*
X-219127Y161291D1*
X-218143Y187866D2*
X-216750Y186882D1*
X-215534Y185898D1*
X-214921Y184913D1*
X-214895Y183929D1*
X-215190Y182945D1*
X-187631Y187866D2*
Y186882D1*
Y185898D1*
Y184913D1*
Y183929D1*
Y182945D1*
Y181961D1*
Y180976D1*
Y179992D1*
Y179008D1*
Y178024D1*
Y177039D1*
Y176055D1*
Y175071D1*
Y174087D1*
Y173102D1*
Y172118D1*
Y171134D1*
Y170150D1*
Y169165D1*
Y168181D1*
Y167197D1*
Y166213D1*
Y165228D1*
Y164244D1*
Y163260D1*
Y162276D1*
Y161291D1*
Y160307D1*
Y159323D1*
Y158339D1*
X-186647Y187866D2*
X-185659Y186882D1*
X-184636Y185898D1*
X-183492Y184913D1*
X-182150Y183929D1*
X-180716Y182945D1*
X-179472Y181961D1*
X-178482Y180976D1*
X-178122Y179992D1*
X-177919Y179008D1*
X-177789Y178024D1*
X-164993Y187866D2*
Y186882D1*
Y185898D1*
Y184913D1*
Y183929D1*
Y182945D1*
Y181961D1*
Y180976D1*
Y179992D1*
Y179008D1*
Y178024D1*
Y177039D1*
Y176055D1*
Y175071D1*
Y174087D1*
Y173102D1*
Y172118D1*
Y171134D1*
Y170150D1*
Y169165D1*
Y168181D1*
Y167197D1*
Y166213D1*
Y165228D1*
Y164244D1*
Y163260D1*
Y162276D1*
Y161291D1*
Y160307D1*
Y159323D1*
Y158339D1*
X-164009Y187866D2*
X-163021Y186882D1*
X-161998Y185898D1*
X-160854Y184913D1*
X-159513Y183929D1*
X-158079Y182945D1*
X-156834Y181961D1*
X-155844Y180976D1*
X-155484Y179992D1*
X-155282Y179008D1*
X-155151Y178024D1*
X-93143Y187866D2*
X-94762Y186882D1*
X-96040Y185898D1*
X-96935Y184913D1*
X-97606Y183929D1*
X-97841Y182945D1*
X-97965Y181961D1*
X-97989Y180976D1*
X-97883Y179992D1*
X-97614Y179008D1*
X-97163Y178024D1*
X-96444Y177039D1*
X-95382Y176055D1*
X-94127Y175071D1*
X-95562Y174087D1*
X-96791Y173102D1*
X-97754Y172118D1*
X-98510Y171134D1*
X-98824Y170150D1*
X-99097Y169165D1*
X-99366Y168181D1*
X-99521Y167197D1*
X-99463Y166213D1*
X-99271Y165228D1*
X-99013Y164244D1*
X-98665Y163260D1*
X-98207Y162276D1*
X-97546Y161291D1*
X-96493Y160307D1*
X-94959Y159323D1*
X-93143Y158339D1*
X-87238Y187866D2*
X-85992Y186882D1*
X-84989Y185898D1*
X-84592Y184913D1*
X-84285Y183929D1*
X-55741Y187866D2*
Y186882D1*
Y185898D1*
Y184913D1*
Y183929D1*
Y182945D1*
Y181961D1*
Y180976D1*
Y179992D1*
Y179008D1*
Y178024D1*
Y177039D1*
Y176055D1*
Y175071D1*
Y174087D1*
Y173102D1*
Y172118D1*
Y171134D1*
Y170150D1*
Y169165D1*
Y168181D1*
Y167197D1*
Y166213D1*
Y165228D1*
Y164244D1*
Y163260D1*
Y162276D1*
Y161291D1*
Y160307D1*
Y159323D1*
Y158339D1*
X-54757Y187866D2*
X-53769Y186882D1*
X-52746Y185898D1*
X-51602Y184913D1*
X-50261Y183929D1*
X-48827Y182945D1*
X-47582Y181961D1*
X-46592Y180976D1*
X-46232Y179992D1*
X-46030Y179008D1*
X-45899Y178024D1*
X-40978Y187866D2*
X-40486Y186882D1*
X-40077Y185898D1*
X-39694Y184913D1*
X-39344Y183929D1*
X-39021Y182945D1*
X-38680Y181961D1*
X-38348Y180976D1*
X-38029Y179992D1*
X-37660Y179008D1*
X-37238Y178024D1*
X-36809Y177039D1*
X-36423Y176055D1*
X-36082Y175071D1*
X-35733Y174087D1*
X-35397Y173102D1*
X-35077Y172118D1*
X-34708Y171134D1*
X-34285Y170150D1*
X-33856Y169165D1*
X-33471Y168181D1*
X-33129Y167197D1*
X-32780Y166213D1*
X-32445Y165228D1*
X-32128Y164244D1*
X-31789Y163260D1*
X-31458Y162276D1*
X-31142Y161291D1*
X-30800Y160307D1*
X-30461Y159323D1*
X-30151Y158339D1*
X-37041Y187866D2*
X-36700Y186882D1*
X-36373Y185898D1*
X-36061Y184913D1*
X-35725Y183929D1*
X-35394Y182945D1*
X-35079Y181961D1*
X-34742Y180976D1*
X-34411Y179992D1*
X-34095Y179008D1*
X-33758Y178024D1*
X-33426Y177039D1*
X-33111Y176055D1*
X-32773Y175071D1*
X-32442Y174087D1*
X-32123Y173102D1*
X-31755Y172118D1*
X-31332Y171134D1*
X-30903Y170150D1*
X-30515Y169165D1*
X-30146Y168181D1*
X-29695Y167197D1*
X-29167Y166213D1*
X-21293Y187866D2*
X-21445Y186882D1*
X-21693Y185898D1*
X-21982Y184913D1*
X-22284Y183929D1*
X-22646Y182945D1*
X-23065Y181961D1*
X-23494Y180976D1*
X-23879Y179992D1*
X-24220Y179008D1*
X-24569Y178024D1*
X-24904Y177039D1*
X-25221Y176055D1*
X-25560Y175071D1*
X-25891Y174087D1*
X-26210Y173102D1*
X-26579Y172118D1*
X-27001Y171134D1*
X-27430Y170150D1*
X-27818Y169165D1*
X-28187Y168181D1*
X-28639Y167197D1*
X-29167Y166213D1*
X-17356Y187866D2*
X-17696Y186882D1*
X-18024Y185898D1*
X-18336Y184913D1*
X-18672Y183929D1*
X-19002Y182945D1*
X-19321Y181961D1*
X-19689Y180976D1*
X-20111Y179992D1*
X-20540Y179008D1*
X-20926Y178024D1*
X-21267Y177039D1*
X-21616Y176055D1*
X-21952Y175071D1*
X-22272Y174087D1*
X-22641Y173102D1*
X-23064Y172118D1*
X-23493Y171134D1*
X-23878Y170150D1*
X-24220Y169165D1*
X-24569Y168181D1*
X-24904Y167197D1*
X-25225Y166213D1*
X-25594Y165228D1*
X-26016Y164244D1*
X-26446Y163260D1*
X-26831Y162276D1*
X-27173Y161291D1*
X-27527Y160307D1*
X-27870Y159323D1*
X-28182Y158339D1*
X16109Y187866D2*
X14253Y186882D1*
X12834Y185898D1*
X11838Y184913D1*
X11147Y183929D1*
X10619Y182945D1*
X10561Y181961D1*
X10728Y180976D1*
X11098Y179992D1*
X11686Y179008D1*
X12573Y178024D1*
X13766Y177039D1*
X15125Y176055D1*
X13353Y175071D1*
X11832Y174087D1*
X10678Y173102D1*
X9899Y172118D1*
X9372Y171134D1*
X8948Y170150D1*
X8616Y169165D1*
X8417Y168181D1*
X8349Y167197D1*
X8432Y166213D1*
X8684Y165228D1*
X9059Y164244D1*
X9506Y163260D1*
X10051Y162276D1*
X10827Y161291D1*
X11983Y160307D1*
X13478Y159323D1*
X15125Y158339D1*
X26936Y187866D2*
Y186882D1*
Y185898D1*
Y184913D1*
Y183929D1*
Y182945D1*
Y181961D1*
Y180976D1*
Y179992D1*
Y179008D1*
Y178024D1*
Y177039D1*
Y176055D1*
Y175071D1*
Y174087D1*
Y173102D1*
Y172118D1*
Y171134D1*
Y170150D1*
Y169165D1*
Y168181D1*
Y167197D1*
Y166213D1*
Y165228D1*
Y164244D1*
Y163260D1*
Y162276D1*
Y161291D1*
Y160307D1*
Y159323D1*
Y158339D1*
X37762Y187866D2*
X37610Y186882D1*
X37366Y185898D1*
X37112Y184913D1*
X36935Y183929D1*
X36809Y182945D1*
X36642Y181961D1*
X36389Y180976D1*
X36130Y179992D1*
X35952Y179008D1*
X35825Y178024D1*
X35658Y177039D1*
X35405Y176055D1*
X35146Y175071D1*
X34968Y174087D1*
X34841Y173102D1*
X34674Y172118D1*
X34420Y171134D1*
X34161Y170150D1*
X33984Y169165D1*
X33857Y168181D1*
X33689Y167197D1*
X33436Y166213D1*
X33177Y165228D1*
X32999Y164244D1*
X32873Y163260D1*
X32705Y162276D1*
X32452Y161291D1*
X32190Y160307D1*
X32001Y159323D1*
X31857Y158339D1*
X38747Y187866D2*
X39239Y186882D1*
X39647Y185898D1*
X40026Y184913D1*
X40346Y183929D1*
X40578Y182945D1*
X40804Y181961D1*
X41089Y180976D1*
X41395Y179992D1*
X41699Y179008D1*
X42032Y178024D1*
X42362Y177039D1*
X42677Y176055D1*
X43014Y175071D1*
X43345Y174087D1*
X43660Y173102D1*
X43994Y172118D1*
X44299Y171134D1*
X44564Y170150D1*
X44862Y169165D1*
X45659Y168181D1*
X46621Y167197D1*
X53510Y187866D2*
X53358Y186882D1*
X53111Y185898D1*
X52821Y184913D1*
X52523Y183929D1*
X52192Y182945D1*
X51863Y181961D1*
X51549Y180976D1*
X51212Y179992D1*
X50880Y179008D1*
X50565Y178024D1*
X50227Y177039D1*
X49896Y176055D1*
X49581Y175071D1*
X49243Y174087D1*
X48912Y173102D1*
X48597Y172118D1*
X48255Y171134D1*
X47883Y170150D1*
X47389Y169165D1*
X46612Y168181D1*
X45636Y167197D1*
X55479Y187866D2*
X55483Y186882D1*
X55517Y185898D1*
X55643Y184913D1*
X55879Y183929D1*
X56131Y182945D1*
X56303Y181961D1*
X56398Y180976D1*
X56474Y179992D1*
X56617Y179008D1*
X56859Y178024D1*
X57114Y177039D1*
X57290Y176055D1*
X57416Y175071D1*
X57584Y174087D1*
X57837Y173102D1*
X58096Y172118D1*
X58274Y171134D1*
X58400Y170150D1*
X58568Y169165D1*
X58821Y168181D1*
X59080Y167197D1*
X59254Y166213D1*
X59350Y165228D1*
X59427Y164244D1*
X59570Y163260D1*
X59812Y162276D1*
X60067Y161291D1*
X60240Y160307D1*
X60337Y159323D1*
X60400Y158339D1*
X73196Y187866D2*
X73040Y186882D1*
X72761Y185898D1*
X72381Y184913D1*
X71969Y183929D1*
X71590Y182945D1*
X71251Y181961D1*
X70903Y180976D1*
X70568Y179992D1*
X70247Y179008D1*
X69878Y178024D1*
X69456Y177039D1*
X69027Y176055D1*
X68641Y175071D1*
X68296Y174087D1*
X67916Y173102D1*
X67490Y172118D1*
X67059Y171134D1*
X66673Y170150D1*
X66332Y169165D1*
X65982Y168181D1*
X65647Y167197D1*
X65326Y166213D1*
X64957Y165228D1*
X64535Y164244D1*
X64105Y163260D1*
X63720Y162276D1*
X63378Y161291D1*
X63024Y160307D1*
X62681Y159323D1*
X62369Y158339D1*
X74180Y187866D2*
X74554Y186882D1*
X74977Y185898D1*
X75434Y184913D1*
X75908Y183929D1*
X76363Y182945D1*
X76759Y181961D1*
X77108Y180976D1*
X77490Y179992D1*
X77917Y179008D1*
X78348Y178024D1*
X78734Y177039D1*
X79079Y176055D1*
X79459Y175071D1*
X79889Y174087D1*
X80351Y173102D1*
X80828Y172118D1*
X81283Y171134D1*
X81680Y170150D1*
X82029Y169165D1*
X82411Y168181D1*
X82838Y167197D1*
X83269Y166213D1*
X83655Y165228D1*
X84000Y164244D1*
X84380Y163260D1*
X84807Y162276D1*
X85234Y161291D1*
X85588Y160307D1*
X85821Y159323D1*
X85991Y158339D1*
X124377Y187866D2*
Y186882D1*
Y185898D1*
Y184913D1*
Y183929D1*
Y182945D1*
Y181961D1*
Y180976D1*
Y179992D1*
Y179008D1*
Y178024D1*
Y177039D1*
Y176055D1*
Y175071D1*
Y174087D1*
Y173102D1*
Y172118D1*
Y171134D1*
Y170150D1*
Y169165D1*
Y168181D1*
Y167197D1*
Y166213D1*
Y165228D1*
Y164244D1*
Y163260D1*
Y162276D1*
Y161291D1*
X128314Y187866D2*
Y186882D1*
Y185898D1*
Y184913D1*
Y183929D1*
Y182945D1*
Y181961D1*
Y180976D1*
Y179992D1*
Y179008D1*
Y178024D1*
Y177039D1*
Y176055D1*
Y175071D1*
Y174087D1*
Y173102D1*
Y172118D1*
Y171134D1*
Y170150D1*
Y169165D1*
Y168181D1*
Y167197D1*
Y166213D1*
Y165228D1*
Y164244D1*
Y163260D1*
Y162276D1*
Y161291D1*
Y160307D1*
Y159323D1*
Y158339D1*
X133235Y187866D2*
Y186882D1*
Y185898D1*
Y184913D1*
X150951Y187866D2*
Y186882D1*
Y185898D1*
Y184913D1*
Y183929D1*
Y182945D1*
Y181961D1*
Y180976D1*
Y179992D1*
Y179008D1*
Y178024D1*
Y177039D1*
Y176055D1*
Y175071D1*
Y174087D1*
Y173102D1*
Y172118D1*
Y171134D1*
Y170150D1*
Y169165D1*
Y168181D1*
Y167197D1*
Y166213D1*
Y165228D1*
Y164244D1*
Y163260D1*
Y162276D1*
Y161291D1*
Y160307D1*
Y159323D1*
Y158339D1*
X156857Y187866D2*
X157349Y186882D1*
X157925Y185898D1*
X158526Y184913D1*
X159160Y183929D1*
X159818Y182945D1*
X160431Y181961D1*
X160992Y180976D1*
X161546Y179992D1*
X162145Y179008D1*
X162788Y178024D1*
X163427Y177039D1*
X164108Y176055D1*
X164885Y175071D1*
X165715Y174087D1*
X165105Y173102D1*
X164540Y172118D1*
X163982Y171134D1*
X163381Y170150D1*
X162741Y169165D1*
X162136Y168181D1*
X161578Y167197D1*
X161025Y166213D1*
X160427Y165228D1*
X159784Y164244D1*
X159149Y163260D1*
X158500Y162276D1*
X157834Y161291D1*
X157192Y160307D1*
X156547Y159323D1*
X155873Y158339D1*
X159810Y187866D2*
X160642Y186882D1*
X161378Y185898D1*
X162073Y184913D1*
X162756Y183929D1*
X163378Y182945D1*
X163950Y181961D1*
X164585Y180976D1*
X165520Y179992D1*
X166945Y179008D1*
X168668Y178024D1*
X174573Y187866D2*
X173930Y186882D1*
X173273Y185898D1*
X172601Y184913D1*
X171952Y183929D1*
X171299Y182945D1*
X170621Y181961D1*
X169896Y180976D1*
X168907Y179992D1*
X167455Y179008D1*
X165715Y178024D1*
X177526Y187866D2*
X177034Y186882D1*
X176462Y185898D1*
X175892Y184913D1*
X175349Y183929D1*
X174801Y182945D1*
X174205Y181961D1*
X173567Y180976D1*
X172963Y179992D1*
X172405Y179008D1*
X171852Y178024D1*
X171257Y177039D1*
X170653Y176055D1*
X170182Y175071D1*
X169854Y174087D1*
X169935Y173102D1*
X170254Y172118D1*
X170759Y171134D1*
X171335Y170150D1*
X171960Y169165D1*
X172614Y168181D1*
X173226Y167197D1*
X173787Y166213D1*
X174342Y165228D1*
X174941Y164244D1*
X175580Y163260D1*
X176184Y162276D1*
X176741Y161291D1*
X177289Y160307D1*
X177876Y159323D1*
X178510Y158339D1*
X191306Y187866D2*
X191150Y186882D1*
X190871Y185898D1*
X190491Y184913D1*
X190079Y183929D1*
X189701Y182945D1*
X189362Y181961D1*
X189014Y180976D1*
X188678Y179992D1*
X188358Y179008D1*
X187988Y178024D1*
X187566Y177039D1*
X187137Y176055D1*
X186752Y175071D1*
X186406Y174087D1*
X186027Y173102D1*
X185600Y172118D1*
X185169Y171134D1*
X184783Y170150D1*
X184442Y169165D1*
X184093Y168181D1*
X183757Y167197D1*
X183436Y166213D1*
X183067Y165228D1*
X182645Y164244D1*
X182215Y163260D1*
X181830Y162276D1*
X181488Y161291D1*
X181135Y160307D1*
X180791Y159323D1*
X180479Y158339D1*
X192290Y187866D2*
X192664Y186882D1*
X193087Y185898D1*
X193544Y184913D1*
X194018Y183929D1*
X194473Y182945D1*
X194869Y181961D1*
X195219Y180976D1*
X195600Y179992D1*
X196027Y179008D1*
X196458Y178024D1*
X196844Y177039D1*
X197189Y176055D1*
X197569Y175071D1*
X198000Y174087D1*
X198461Y173102D1*
X198938Y172118D1*
X199394Y171134D1*
X199790Y170150D1*
X200140Y169165D1*
X200521Y168181D1*
X200948Y167197D1*
X201379Y166213D1*
X201765Y165228D1*
X202111Y164244D1*
X202490Y163260D1*
X202917Y162276D1*
X203344Y161291D1*
X203698Y160307D1*
X203931Y159323D1*
X204101Y158339D1*
X239534Y187866D2*
X239378Y186882D1*
X239100Y185898D1*
X238719Y184913D1*
X238307Y183929D1*
X237929Y182945D1*
X237590Y181961D1*
X237242Y180976D1*
X236906Y179992D1*
X236586Y179008D1*
X236217Y178024D1*
X235795Y177039D1*
X235365Y176055D1*
X234980Y175071D1*
X234635Y174087D1*
X234255Y173102D1*
X233828Y172118D1*
X233397Y171134D1*
X233012Y170150D1*
X232670Y169165D1*
X232321Y168181D1*
X231985Y167197D1*
X231665Y166213D1*
X231296Y165228D1*
X230873Y164244D1*
X230444Y163260D1*
X230059Y162276D1*
X229717Y161291D1*
X229363Y160307D1*
X229019Y159323D1*
X228707Y158339D1*
X240518Y187866D2*
X240892Y186882D1*
X241315Y185898D1*
X241772Y184913D1*
X242247Y183929D1*
X242701Y182945D1*
X243097Y181961D1*
X243447Y180976D1*
X243828Y179992D1*
X244255Y179008D1*
X244686Y178024D1*
X245072Y177039D1*
X245418Y176055D1*
X245798Y175071D1*
X246228Y174087D1*
X246690Y173102D1*
X247166Y172118D1*
X247622Y171134D1*
X248018Y170150D1*
X248368Y169165D1*
X248749Y168181D1*
X249177Y167197D1*
X249608Y166213D1*
X249994Y165228D1*
X250339Y164244D1*
X250719Y163260D1*
X251145Y162276D1*
X251573Y161291D1*
X251927Y160307D1*
X252159Y159323D1*
X252329Y158339D1*
X254298Y187866D2*
Y186882D1*
Y185898D1*
Y184913D1*
Y183929D1*
X265125D1*
Y182945D1*
Y181961D1*
Y180976D1*
Y179992D1*
Y179008D1*
Y178024D1*
Y177039D1*
Y176055D1*
Y175071D1*
Y174087D1*
Y173102D1*
Y172118D1*
Y171134D1*
Y170150D1*
Y169165D1*
Y168181D1*
Y167197D1*
Y166213D1*
Y165228D1*
Y164244D1*
Y163260D1*
Y162276D1*
Y161291D1*
Y160307D1*
Y159323D1*
Y158339D1*
X277920Y187866D2*
Y186882D1*
Y185898D1*
Y184913D1*
Y183929D1*
X268077D1*
Y182945D1*
Y181961D1*
Y180976D1*
Y179992D1*
Y179008D1*
Y178024D1*
Y177039D1*
Y176055D1*
Y175071D1*
Y174087D1*
Y173102D1*
Y172118D1*
Y171134D1*
Y170150D1*
Y169165D1*
Y168181D1*
Y167197D1*
Y166213D1*
Y165228D1*
Y164244D1*
Y163260D1*
Y162276D1*
Y161291D1*
Y160307D1*
Y159323D1*
Y158339D1*
X280873Y187866D2*
X281705Y186882D1*
X282441Y185898D1*
X283136Y184913D1*
X283822Y183929D1*
X284476Y182945D1*
X285131Y181961D1*
X285801Y180976D1*
X286448Y179992D1*
X287101Y179008D1*
X287769Y178024D1*
X288411Y177039D1*
X289056Y176055D1*
X289731Y175071D1*
X289121Y174087D1*
X288556Y173102D1*
X287998Y172118D1*
X287397Y171134D1*
X286757Y170150D1*
X286152Y169165D1*
X285594Y168181D1*
X285041Y167197D1*
X284442Y166213D1*
X283804Y165228D1*
X283199Y164244D1*
X282641Y163260D1*
X282088Y162276D1*
X281493Y161291D1*
X280877Y160307D1*
X280345Y159323D1*
X279888Y158339D1*
X284810Y187866D2*
X285642Y186882D1*
X286378Y185898D1*
X287073Y184913D1*
X287759Y183929D1*
X288413Y182945D1*
X289068Y181961D1*
X289738Y180976D1*
X290385Y179992D1*
X291038Y179008D1*
X291707Y178024D1*
X292353Y177039D1*
X293006Y176055D1*
X293675Y175071D1*
X294317Y174087D1*
X294962Y173102D1*
X295636Y172118D1*
X296621Y187866D2*
Y186882D1*
Y185898D1*
Y184913D1*
Y183929D1*
Y182945D1*
Y181961D1*
Y180976D1*
Y179992D1*
Y179008D1*
Y178024D1*
Y177039D1*
X296617Y176055D1*
X296579Y175071D1*
X296427Y174087D1*
X296091Y173102D1*
X295636Y172118D1*
X300558Y187866D2*
Y186882D1*
Y185898D1*
Y184913D1*
Y183929D1*
Y182945D1*
Y181961D1*
Y180976D1*
Y179992D1*
Y179008D1*
Y178024D1*
Y177039D1*
Y176055D1*
Y175071D1*
Y174087D1*
Y173102D1*
Y172118D1*
Y171134D1*
Y170150D1*
Y169165D1*
Y168181D1*
Y167197D1*
Y166213D1*
Y165228D1*
Y164244D1*
Y163260D1*
Y162276D1*
Y161291D1*
Y160307D1*
Y159323D1*
Y158339D1*
X305479Y187866D2*
Y186882D1*
Y185898D1*
Y184913D1*
X323196Y187866D2*
Y186882D1*
Y185898D1*
Y184913D1*
Y183929D1*
Y182945D1*
Y181961D1*
Y180976D1*
Y179992D1*
Y179008D1*
Y178024D1*
Y177039D1*
Y176055D1*
Y175071D1*
Y174087D1*
Y173102D1*
Y172118D1*
Y171134D1*
Y170150D1*
Y169165D1*
Y168181D1*
Y167197D1*
Y166213D1*
Y165228D1*
Y164244D1*
Y163260D1*
Y162276D1*
Y161291D1*
Y160307D1*
Y159323D1*
Y158339D1*
X328117Y187866D2*
Y186882D1*
Y185898D1*
Y184913D1*
X346818Y187866D2*
Y186882D1*
Y185898D1*
Y184913D1*
Y183929D1*
Y182945D1*
Y181961D1*
Y180976D1*
Y179992D1*
Y179008D1*
Y178024D1*
Y177039D1*
Y176055D1*
Y175071D1*
Y174087D1*
Y173102D1*
Y172118D1*
Y171134D1*
Y170150D1*
Y169165D1*
Y168181D1*
Y167197D1*
Y166213D1*
Y165228D1*
Y164244D1*
Y163260D1*
Y162276D1*
Y161291D1*
Y160307D1*
Y159323D1*
Y158339D1*
X351739Y187866D2*
Y186882D1*
Y185898D1*
Y184913D1*
X369455Y187866D2*
Y186882D1*
Y185898D1*
Y184913D1*
Y183929D1*
Y182945D1*
Y181961D1*
Y180976D1*
Y179992D1*
Y179008D1*
Y178024D1*
Y177039D1*
Y176055D1*
Y175071D1*
Y174087D1*
Y173102D1*
Y172118D1*
Y171134D1*
Y170150D1*
Y169165D1*
Y168181D1*
Y167197D1*
Y166213D1*
Y165228D1*
Y164244D1*
Y163260D1*
Y162276D1*
Y161291D1*
Y160307D1*
Y159323D1*
Y158339D1*
X-127592Y186882D2*
Y185898D1*
Y184913D1*
Y183929D1*
Y182945D1*
Y181961D1*
Y180976D1*
Y179992D1*
Y179008D1*
Y178024D1*
Y177039D1*
Y176055D1*
Y175071D1*
Y174087D1*
Y173102D1*
Y172118D1*
Y171134D1*
Y170150D1*
Y169165D1*
Y168181D1*
Y167197D1*
Y166213D1*
Y165228D1*
Y164244D1*
Y163260D1*
Y162276D1*
Y161291D1*
Y160307D1*
Y159323D1*
Y158339D1*
Y157354D1*
Y156370D1*
Y155386D1*
Y154402D1*
Y153417D1*
Y152433D1*
X-125623Y186882D2*
Y185898D1*
Y184913D1*
Y183929D1*
Y182945D1*
Y181961D1*
Y180976D1*
Y179992D1*
Y179008D1*
Y178024D1*
Y177039D1*
Y176055D1*
Y175071D1*
Y174087D1*
Y173102D1*
Y172118D1*
Y171134D1*
Y170150D1*
Y169165D1*
Y168181D1*
Y167197D1*
Y166213D1*
Y165228D1*
Y164244D1*
Y163260D1*
Y162276D1*
Y161291D1*
Y160307D1*
Y159323D1*
Y158339D1*
Y157354D1*
Y156370D1*
Y155386D1*
Y154402D1*
Y153417D1*
Y152433D1*
X-292946Y184913D2*
X-293893Y183929D1*
X-294747Y182945D1*
X-295457Y181961D1*
X-296025Y180976D1*
X-296434Y179992D1*
X-296641Y179008D1*
X-296630Y178024D1*
X-296408Y177039D1*
X-295994Y176055D1*
X-295437Y175071D1*
X-293791Y174087D1*
X-291214Y173102D1*
X-288025Y172118D1*
X-289009Y184913D2*
X-288062Y183929D1*
X-287208Y182945D1*
X-286498Y181961D1*
X-285930Y180976D1*
X-285521Y179992D1*
X-285315Y179008D1*
X-285325Y178024D1*
X-285547Y177039D1*
X-285962Y176055D1*
X-286518Y175071D1*
X-288164Y174087D1*
X-290741Y173102D1*
X-293930Y172118D1*
X-246686Y184913D2*
X-248305Y183929D1*
X-249583Y182945D1*
X-250478Y181961D1*
X-251054Y180976D1*
X-251399Y179992D1*
X-251670Y179008D1*
X-251968Y178024D1*
X-252245Y177039D1*
X-252426Y176055D1*
X-252521Y175071D1*
X-252564Y174087D1*
X-252578Y173102D1*
X-252550Y172118D1*
X-252427Y171134D1*
X-252192Y170150D1*
X-251940Y169165D1*
X-251764Y168181D1*
X-251635Y167197D1*
X-251429Y166213D1*
X-251100Y165228D1*
X-250214Y164244D1*
X-248761Y163260D1*
X-246496Y162276D1*
X-243734Y161291D1*
X-245702Y184913D2*
X-244083Y183929D1*
X-242806Y182945D1*
X-241907Y181961D1*
X-241300Y180976D1*
X-240864Y179992D1*
X-240482Y179008D1*
X-240168Y178024D1*
X-239971Y177039D1*
X-239871Y176055D1*
X-239826Y175071D1*
X-239807Y174087D1*
X-239800Y173102D1*
X-239798Y172118D1*
X-239801Y171134D1*
X-239835Y170150D1*
X-239961Y169165D1*
X-240200Y168181D1*
X-240487Y167197D1*
X-240792Y166213D1*
X-241211Y165228D1*
X-241771Y164244D1*
X-243520Y163260D1*
X-246268Y162276D1*
X-249639Y161291D1*
X-224049Y184913D2*
X-224877Y183929D1*
X-225575Y182945D1*
X-226106Y181961D1*
X-226499Y180976D1*
X-226420Y179992D1*
X-226232Y179008D1*
X-225978Y178024D1*
X-225637Y177039D1*
X-225221Y176055D1*
X-224760Y175071D1*
X-224251Y174087D1*
X-223671Y173102D1*
X-223035Y172118D1*
X-222402Y171134D1*
X-221754Y170150D1*
X-221087Y169165D1*
X-220441Y168181D1*
X-219789Y167197D1*
X-219120Y166213D1*
X-218473Y165228D1*
X-217820Y164244D1*
X-217151Y163260D1*
X-216505Y162276D1*
X-215855Y161291D1*
X-215213Y160307D1*
X-214669Y159323D1*
X-214206Y158339D1*
X-221096Y184913D2*
X-219127Y183929D1*
X-217159Y182945D1*
X-92159Y184913D2*
X-93102Y183929D1*
X-93921Y182945D1*
X-94502Y181961D1*
X-94890Y180976D1*
X-94886Y179992D1*
X-94422Y179008D1*
X-93202Y178024D1*
X-91792Y177039D1*
X-90437Y176055D1*
X-89760Y175071D1*
X-89500Y174087D1*
X-90704Y173102D1*
X-92149Y172118D1*
X-93542Y171134D1*
X-94650Y170150D1*
X-95507Y169165D1*
X-95807Y168181D1*
X-95937Y167197D1*
X-95877Y166213D1*
X-95677Y165228D1*
X-95054Y164244D1*
X-92974Y163260D1*
X-89549Y162276D1*
X-85269Y161291D1*
X-87238Y184913D2*
X-86253Y183929D1*
X16109Y184913D2*
X15318Y183929D1*
X14746Y182945D1*
X14362Y181961D1*
X14351Y180976D1*
X14788Y179992D1*
X16694Y179008D1*
X19910Y178024D1*
X23983Y177039D1*
Y184913D2*
Y183929D1*
Y182945D1*
Y181961D1*
Y180976D1*
Y179992D1*
Y179008D1*
Y178024D1*
X17093Y177039D1*
X147999Y184913D2*
Y183929D1*
Y182945D1*
Y181961D1*
Y180976D1*
Y179992D1*
Y179008D1*
Y178024D1*
Y177039D1*
Y176055D1*
X138156D1*
Y175071D1*
Y174087D1*
Y173102D1*
Y172118D1*
X147999D1*
Y171134D1*
Y170150D1*
Y169165D1*
Y168181D1*
Y167197D1*
Y166213D1*
Y165228D1*
Y164244D1*
Y163260D1*
Y162276D1*
Y161291D1*
X320243Y184913D2*
Y183929D1*
Y182945D1*
Y181961D1*
Y180976D1*
Y179992D1*
Y179008D1*
Y178024D1*
Y177039D1*
Y176055D1*
X310400D1*
Y175071D1*
Y174087D1*
Y173102D1*
Y172118D1*
X320243D1*
Y171134D1*
Y170150D1*
Y169165D1*
Y168181D1*
Y167197D1*
Y166213D1*
Y165228D1*
Y164244D1*
Y163260D1*
Y162276D1*
Y161291D1*
X342881Y184913D2*
Y183929D1*
Y182945D1*
Y181961D1*
Y180976D1*
Y179992D1*
Y179008D1*
Y178024D1*
Y177039D1*
Y176055D1*
X332054D1*
Y175071D1*
Y174087D1*
Y173102D1*
Y172118D1*
X342881D1*
Y171134D1*
Y170150D1*
Y169165D1*
Y168181D1*
Y167197D1*
Y166213D1*
Y165228D1*
Y164244D1*
Y163260D1*
Y162276D1*
Y161291D1*
Y160307D1*
Y159323D1*
Y158339D1*
X366503Y184913D2*
Y183929D1*
Y182945D1*
Y181961D1*
Y180976D1*
Y179992D1*
Y179008D1*
Y178024D1*
Y177039D1*
Y176055D1*
X356660D1*
Y175071D1*
Y174087D1*
Y173102D1*
Y172118D1*
X366503D1*
Y171134D1*
Y170150D1*
Y169165D1*
Y168181D1*
Y167197D1*
Y166213D1*
Y165228D1*
Y164244D1*
Y163260D1*
Y162276D1*
Y161291D1*
X-268340Y180976D2*
Y179992D1*
Y179008D1*
Y178024D1*
Y177039D1*
Y176055D1*
Y175071D1*
Y174087D1*
Y173102D1*
Y172118D1*
Y171134D1*
Y170150D1*
Y169165D1*
Y168181D1*
Y167197D1*
Y166213D1*
Y165228D1*
Y164244D1*
Y163260D1*
Y162276D1*
Y161291D1*
Y160307D1*
Y159323D1*
Y158339D1*
X-267356Y180976D2*
X-265387Y179992D1*
X-263419Y179008D1*
X-184678Y180976D2*
Y179992D1*
Y179008D1*
Y178024D1*
Y177039D1*
Y176055D1*
Y175071D1*
Y174087D1*
Y173102D1*
Y172118D1*
Y171134D1*
Y170150D1*
Y169165D1*
Y168181D1*
Y167197D1*
Y166213D1*
Y165228D1*
Y164244D1*
Y163260D1*
Y162276D1*
Y161291D1*
Y160307D1*
Y159323D1*
Y158339D1*
X-183694Y180976D2*
X-181726Y179992D1*
X-179757Y179008D1*
X-177789Y178024D1*
X-162041Y180976D2*
Y179992D1*
Y179008D1*
Y178024D1*
Y177039D1*
Y176055D1*
Y175071D1*
Y174087D1*
Y173102D1*
Y172118D1*
Y171134D1*
Y170150D1*
Y169165D1*
Y168181D1*
Y167197D1*
Y166213D1*
Y165228D1*
Y164244D1*
Y163260D1*
Y162276D1*
Y161291D1*
Y160307D1*
Y159323D1*
Y158339D1*
X-161056Y180976D2*
X-159088Y179992D1*
X-157119Y179008D1*
X-155151Y178024D1*
X-52789Y180976D2*
Y179992D1*
Y179008D1*
Y178024D1*
Y177039D1*
Y176055D1*
Y175071D1*
Y174087D1*
Y173102D1*
Y172118D1*
Y171134D1*
Y170150D1*
Y169165D1*
Y168181D1*
Y167197D1*
Y166213D1*
Y165228D1*
Y164244D1*
Y163260D1*
Y162276D1*
Y161291D1*
Y160307D1*
Y159323D1*
Y158339D1*
X-51804Y180976D2*
X-49836Y179992D1*
X-47867Y179008D1*
X-45899Y178024D1*
X73196Y179992D2*
X73043Y179008D1*
X72796Y178024D1*
X72506Y177039D1*
X72208Y176055D1*
X71877Y175071D1*
X71548Y174087D1*
X71234Y173102D1*
X70897Y172118D1*
X70563Y171134D1*
X70220Y170150D1*
X69780Y169165D1*
X69259Y168181D1*
X77133Y167197D1*
X75164Y179992D2*
X75316Y179008D1*
X75564Y178024D1*
X75853Y177039D1*
X76151Y176055D1*
X76482Y175071D1*
X76811Y174087D1*
X77129Y173102D1*
X77498Y172118D1*
X77920Y171134D1*
X78355Y170150D1*
X78751Y169165D1*
X79101Y168181D1*
X70243Y167197D1*
X191306Y179992D2*
X191154Y179008D1*
X190906Y178024D1*
X190616Y177039D1*
X190319Y176055D1*
X189987Y175071D1*
X189659Y174087D1*
X189344Y173102D1*
X189007Y172118D1*
X188673Y171134D1*
X188330Y170150D1*
X187890Y169165D1*
X187369Y168181D1*
X195243Y167197D1*
X193274Y179992D2*
X193426Y179008D1*
X193674Y178024D1*
X193964Y177039D1*
X194262Y176055D1*
X194593Y175071D1*
X194921Y174087D1*
X195240Y173102D1*
X195608Y172118D1*
X196031Y171134D1*
X196465Y170150D1*
X196862Y169165D1*
X197211Y168181D1*
X188353Y167197D1*
X239534Y179992D2*
X239382Y179008D1*
X239134Y178024D1*
X238845Y177039D1*
X238547Y176055D1*
X238216Y175071D1*
X237887Y174087D1*
X237573Y173102D1*
X237235Y172118D1*
X236901Y171134D1*
X236559Y170150D1*
X236119Y169165D1*
X235597Y168181D1*
X243471Y167197D1*
X241503Y179992D2*
X241655Y179008D1*
X241903Y178024D1*
X242192Y177039D1*
X242490Y176055D1*
X242821Y175071D1*
X243150Y174087D1*
X243468Y173102D1*
X243836Y172118D1*
X244259Y171134D1*
X244693Y170150D1*
X245090Y169165D1*
X245440Y168181D1*
X236581Y167197D1*
X37762Y177039D2*
Y176055D1*
Y175071D1*
X37759Y174087D1*
X37724Y173102D1*
X37599Y172118D1*
X37363Y171134D1*
X37110Y170150D1*
X36935Y169165D1*
X36809Y168181D1*
X36642Y167197D1*
X36389Y166213D1*
X36130Y165228D1*
X35952Y164244D1*
X35825Y163260D1*
X35658Y162276D1*
X35405Y161291D1*
X35143Y160307D1*
X34954Y159323D1*
X34810Y158339D1*
X39731Y177039D2*
X39883Y176055D1*
X40131Y175071D1*
X40420Y174087D1*
X40718Y173102D1*
X41049Y172118D1*
X41378Y171134D1*
X41692Y170150D1*
X42030Y169165D1*
X42361Y168181D1*
X42676Y167197D1*
X43014Y166213D1*
X43345Y165228D1*
X43660Y164244D1*
X43998Y163260D1*
X44329Y162276D1*
X44645Y161291D1*
X44988Y160307D1*
X45327Y159323D1*
X45636Y158339D1*
X52526Y177039D2*
X52374Y176055D1*
X52126Y175071D1*
X51837Y174087D1*
X51539Y173102D1*
X51208Y172118D1*
X50879Y171134D1*
X50565Y170150D1*
X50227Y169165D1*
X49896Y168181D1*
X49581Y167197D1*
X49243Y166213D1*
X48912Y165228D1*
X48597Y164244D1*
X48259Y163260D1*
X47928Y162276D1*
X47612Y161291D1*
X47269Y160307D1*
X46930Y159323D1*
X46621Y158339D1*
X54495Y177039D2*
Y176055D1*
X54499Y175071D1*
X54533Y174087D1*
X54659Y173102D1*
X54894Y172118D1*
X55147Y171134D1*
X55322Y170150D1*
X55448Y169165D1*
X55615Y168181D1*
X55868Y167197D1*
X56127Y166213D1*
X56301Y165228D1*
X56397Y164244D1*
X56474Y163260D1*
X56617Y162276D1*
X56859Y161291D1*
X57117Y160307D1*
X57304Y159323D1*
X57448Y158339D1*
X18077Y174087D2*
X16306Y173102D1*
X14785Y172118D1*
X13635Y171134D1*
X12761Y170150D1*
X12457Y169165D1*
X12296Y168181D1*
X12261Y167197D1*
X12316Y166213D1*
X12704Y165228D1*
X13606Y164244D1*
X16129Y163260D1*
X20086Y162276D1*
X24967Y161291D1*
X23983Y174087D2*
Y173102D1*
Y172118D1*
Y171134D1*
Y170150D1*
Y169165D1*
Y168181D1*
Y167197D1*
Y166213D1*
Y165228D1*
Y164244D1*
Y163260D1*
Y162276D1*
X17093Y161291D1*
X291699Y171134D2*
X290871Y170150D1*
X290166Y169165D1*
X289562Y168181D1*
X288989Y167197D1*
X288383Y166213D1*
X287742Y165228D1*
X287137Y164244D1*
X286579Y163260D1*
X286025Y162276D1*
X285430Y161291D1*
X284814Y160307D1*
X284282Y159323D1*
X283825Y158339D1*
X292684Y171134D2*
X293630Y170150D1*
X294485Y169165D1*
X295195Y168181D1*
X295763Y167197D1*
X296176Y166213D1*
X296417Y165228D1*
X296535Y164244D1*
X296588Y163260D1*
X296609Y162276D1*
X296616Y161291D1*
X296619Y160307D1*
X296620Y159323D1*
X296621Y158339D1*
X-296883Y170150D2*
X-295936Y169165D1*
X-295078Y168181D1*
X-294330Y167197D1*
X-293598Y166213D1*
X-292786Y165228D1*
X-291893Y164244D1*
X-290950Y163260D1*
X-289983Y162276D1*
X-289005Y161291D1*
X-288024Y160307D1*
X-287041Y159323D1*
X-288025Y158339D1*
X-293930Y170150D2*
X-292946Y169165D1*
X167684Y170150D2*
X166737Y169165D1*
X165883Y168181D1*
X165169Y167197D1*
X164563Y166213D1*
X163990Y165228D1*
X163384Y164244D1*
X162742Y163260D1*
X162137Y162276D1*
X161579Y161291D1*
X161031Y160307D1*
X160444Y159323D1*
X159810Y158339D1*
X168668Y170150D2*
X168858Y169165D1*
X169232Y168181D1*
X169757Y167197D1*
X170311Y166213D1*
X170848Y165228D1*
X171394Y164244D1*
X171990Y163260D1*
X172631Y162276D1*
X173270Y161291D1*
X173950Y160307D1*
X174728Y159323D1*
X175558Y158339D1*
X-205348Y163260D2*
X-205798Y162276D1*
X-206043Y161291D1*
X-206129Y160307D1*
X-205788Y159323D1*
X-205348Y158339D1*
X-202395Y163260D2*
X-201945Y162276D1*
X-201699Y161291D1*
X-201614Y160307D1*
X-201955Y159323D1*
X-202395Y158339D1*
X-73458Y163260D2*
X-73908Y162276D1*
X-74154Y161291D1*
X-74239Y160307D1*
X-73898Y159323D1*
X-73458Y158339D1*
X-70505Y163260D2*
X-70055Y162276D1*
X-69810Y161291D1*
X-69724Y160307D1*
X-70065Y159323D1*
X-70505Y158339D1*
X69259Y164244D2*
X68464Y163260D1*
X67854Y162276D1*
X67398Y161291D1*
X66994Y160307D1*
X66629Y159323D1*
X66306Y158339D1*
X81070Y164244D2*
X81107Y163260D1*
X81237Y162276D1*
X81511Y161291D1*
X81918Y160307D1*
X82441Y159323D1*
X83038Y158339D1*
X187369Y164244D2*
X186574Y163260D1*
X185964Y162276D1*
X185508Y161291D1*
X185104Y160307D1*
X184739Y159323D1*
X184416Y158339D1*
X199180Y164244D2*
X199217Y163260D1*
X199347Y162276D1*
X199621Y161291D1*
X200028Y160307D1*
X200551Y159323D1*
X201148Y158339D1*
X235597Y164244D2*
X234802Y163260D1*
X234192Y162276D1*
X233736Y161291D1*
X233332Y160307D1*
X232968Y159323D1*
X232644Y158339D1*
X247408Y164244D2*
X247446Y163260D1*
X247576Y162276D1*
X247849Y161291D1*
X248256Y160307D1*
X248779Y159323D1*
X249377Y158339D1*
X-86253Y162276D2*
X-87238Y161291D1*
X-84285Y162276D2*
X-83808Y161291D1*
X-84460Y160307D1*
X-85779Y159323D1*
X-87238Y158339D1*
X-231923Y161291D2*
Y160307D1*
Y159323D1*
Y158339D1*
X110597Y161291D2*
Y160307D1*
Y159323D1*
Y158339D1*
X133235Y161291D2*
Y160307D1*
Y159323D1*
Y158339D1*
X305479Y161291D2*
Y160307D1*
Y159323D1*
Y158339D1*
X351739Y161291D2*
Y160307D1*
Y159323D1*
Y158339D1*
X-15387Y154402D2*
Y153417D1*
Y152433D1*
X6266Y154402D2*
Y153417D1*
Y152433D1*
X87959Y154402D2*
Y153417D1*
Y152433D1*
X109613Y154402D2*
Y153417D1*
Y152433D1*
X206070Y154402D2*
Y153417D1*
Y152433D1*
X227723Y154402D2*
Y153417D1*
Y152433D1*
X96557Y-199398D2*
D62*
Y-214696D1*
X97508Y-217570D1*
X98481Y-218521D1*
X100382Y-219494D1*
X102305D1*
X104206Y-218521D1*
X105157Y-217570D1*
X106130Y-214696D1*
Y-212795D1*
X90381Y-199398D2*
Y-219494D1*
X78908D1*
X58384Y-204173D2*
X59334Y-202272D1*
X61258Y-200348D1*
X63159Y-199398D1*
X66984D1*
X68907Y-200348D1*
X70808Y-202272D1*
X71781Y-204173D1*
X72732Y-207047D1*
Y-211844D1*
X71781Y-214696D1*
X70808Y-216620D1*
X68907Y-218521D1*
X66984Y-219494D1*
X63159D1*
X61258Y-218521D1*
X59334Y-216620D1*
X58384Y-214696D1*
X42635Y-199398D2*
Y-214696D1*
X43586Y-217570D1*
X44559Y-218521D1*
X46460Y-219494D1*
X48383D1*
X50285Y-218521D1*
X51235Y-217570D1*
X52208Y-214696D1*
Y-212795D1*
X36460Y-199398D2*
Y-219494D1*
X24986D1*
X4462Y-204173D2*
X5413Y-202272D1*
X7336Y-200348D1*
X9237Y-199398D1*
X13062D1*
X14985Y-200348D1*
X16887Y-202272D1*
X17859Y-204173D1*
X18810Y-207047D1*
Y-211844D1*
X17859Y-214696D1*
X16887Y-216620D1*
X14985Y-218521D1*
X13062Y-219494D1*
X9237D1*
X7336Y-218521D1*
X5413Y-216620D1*
X4462Y-214696D1*
X-11286Y-199398D2*
Y-214696D1*
X-10336Y-217570D1*
X-9363Y-218521D1*
X-7462Y-219494D1*
X-5538D1*
X-3637Y-218521D1*
X-2686Y-217570D1*
X-1714Y-214696D1*
Y-212795D1*
X-17462Y-199398D2*
Y-219494D1*
X-28936D1*
X-49460Y-204173D2*
X-48509Y-202272D1*
X-46586Y-200348D1*
X-44684Y-199398D1*
X-40860D1*
X-38936Y-200348D1*
X-37035Y-202272D1*
X-36062Y-204173D1*
X-35112Y-207047D1*
Y-211844D1*
X-36062Y-214696D1*
X-37035Y-216620D1*
X-38936Y-218521D1*
X-40860Y-219494D1*
X-44684D1*
X-46586Y-218521D1*
X-48509Y-216620D1*
X-49460Y-214696D1*
X-65208Y-199398D2*
Y-214696D1*
X-64257Y-217570D1*
X-63285Y-218521D1*
X-61383Y-219494D1*
X-59460D1*
X-57559Y-218521D1*
X-56608Y-217570D1*
X-55635Y-214696D1*
Y-212795D1*
X-71384Y-199398D2*
Y-219494D1*
X-82858D1*
X-103381Y-204173D2*
X-102431Y-202272D1*
X-100507Y-200348D1*
X-98606Y-199398D1*
X-94781D1*
X-92858Y-200348D1*
X-90957Y-202272D1*
X-89984Y-204173D1*
X-89033Y-207047D1*
Y-211844D1*
X-89984Y-214696D1*
X-90957Y-216620D1*
X-92858Y-218521D1*
X-94781Y-219494D1*
X-98606D1*
X-100507Y-218521D1*
X-102431Y-216620D1*
X-103381Y-214696D1*
M02*
