M48
INCH
T01C0.0118
T02C0.0591
%
T01
X+002373Y-004368
X+002645Y-004915
X+001962Y+000051
X-001624Y-000051
X+002605Y+003355
X+002035Y+003362
X+002289Y+004248
X+000006Y+003677
X+000104Y+004232
X-001235Y+004561
X+001529Y+005898
X-001609Y+005881
X-001872Y+004406
X+000595Y-003461
X-001604Y-003455
X+002911Y-004377
X+002863Y-001867
X-001193Y-004945
X-002768Y-003650
X-003031Y-002092
X-004641Y-001249
X+000831Y-005677
X+000812Y-004725
X+001047Y-001466
X-003347Y-000178
X-002939Y-002858
X-000452Y+000654
X-000134Y-003374
X-000893Y-003375
X-000891Y+000315
T02
X-004488Y+003543
X+004488Y-003543
X-004488Y-003543
X+004488Y+003543
T01
X-001623Y-001055
X-003768Y-001092
T00
M30
