G04 DipTrace 3.2.0.1*
G04 TopPaste.gbr*
%MOIN*%
G04 #@! TF.FileFunction,Paste,Top*
G04 #@! TF.Part,Single*
%ADD38R,0.031496X0.062992*%
%ADD40R,0.003937X0.004921*%
%ADD42R,0.004921X0.003937*%
%ADD44R,0.017717X0.045276*%
%ADD46R,0.023622X0.003937*%
%ADD48R,0.059055X0.023622*%
%ADD50R,0.023622X0.059055*%
%ADD60R,0.031496X0.035433*%
%FSLAX26Y26*%
G04*
G70*
G90*
G75*
G01*
G04 TopPaste*
%LPD*%
D60*
X171260Y-445669D3*
Y-512598D3*
D50*
X-94488Y287402D3*
X-44488D3*
X5512D3*
X55512D3*
X105512D3*
X155512D3*
X205512D3*
X255512D3*
X-94488Y-248031D3*
X-44488D3*
X5512D3*
X55512D3*
X105512D3*
X155512D3*
X205512D3*
X255512D3*
X305512D3*
X355512D3*
D48*
X-208661Y44685D3*
Y-5315D3*
X-208268Y94685D3*
X-208661Y-55315D3*
Y144685D3*
Y-105315D3*
Y194685D3*
Y-155315D3*
D46*
X-45276Y-446850D3*
Y-472441D3*
Y-498031D3*
X45276D3*
Y-472441D3*
Y-446850D3*
D44*
X0Y-472441D3*
D60*
X-171260Y-503465D3*
Y-436535D3*
D42*
X-421171Y-149310D3*
Y-168995D3*
Y-188680D3*
Y-208365D3*
D40*
X-401486D3*
X-381801D3*
D42*
X-362115D3*
Y-188680D3*
Y-168995D3*
Y-149310D3*
D40*
X-381801D3*
X-401486D3*
D60*
X-441541Y-30126D3*
Y36803D3*
X-372499Y-30732D3*
Y36197D3*
X-290902Y-60400D3*
Y-127329D3*
X-313780Y437795D3*
Y504724D3*
X-244488Y437795D3*
Y504724D3*
D38*
X-404482Y166406D3*
X-306056D3*
D60*
X-313780Y272441D3*
Y339370D3*
X-244488Y272441D3*
Y339370D3*
M02*
