G04 DipTrace 3.2.0.1*
G04 Верхний.gbr*
%MOIN*%
G04 #@! TF.FileFunction,Copper,L1,Top*
G04 #@! TF.Part,Single*
%ADD34C,0.011811*%
G04 #@! TA.AperFunction,CopperBalancing*
%ADD10C,0.009843*%
G04 #@! TA.AperFunction,ViaPad*
%ADD14C,0.023622*%
G04 #@! TA.AperFunction,CopperBalancing*
%ADD15C,0.019685*%
G04 #@! TA.AperFunction,Conductor*
%ADD16C,0.01378*%
%ADD17C,0.015748*%
%ADD19R,0.03937X0.043307*%
%ADD24R,0.031496X0.066929*%
%ADD25R,0.066929X0.031496*%
%ADD27R,0.031496X0.011811*%
%ADD28R,0.025591X0.05315*%
%ADD31R,0.012795X0.011811*%
%ADD32R,0.011811X0.012795*%
%ADD33R,0.03937X0.070866*%
%FSLAX26Y26*%
G04*
G70*
G90*
G75*
G01*
G04 Top*
%LPD*%
X-162354Y-5085D2*
D15*
X-208661D1*
Y-5315D1*
X-123454Y456072D2*
D10*
X-22442D1*
X10446Y423184D1*
X59495Y-346148D2*
D16*
X37517Y-368126D1*
X-137789D1*
X-160371Y-345543D1*
X-45276Y-446850D2*
D10*
X-160945D1*
X-171260Y-436535D1*
D16*
X-201400D1*
X-205269D1*
X-276787Y-365017D1*
X-201400Y-436535D2*
X-220781Y-455916D1*
Y-527630D1*
X-197387Y-551024D1*
X-80987D1*
X-66757Y-536794D1*
X150504D1*
X161013Y-526285D1*
Y-522845D1*
X171260Y-512598D1*
X-421171Y-168995D2*
D10*
X-464083D1*
Y-124857D1*
X-362115Y-149310D2*
Y-129909D1*
X-352640Y-120434D1*
Y-95007D1*
X-368014Y-79633D1*
X-394362D1*
X-441541Y-32454D1*
Y-30126D1*
X-334739Y-17765D2*
D17*
X-359531D1*
D10*
X-372499Y-30732D1*
D17*
X-441541D1*
Y-30126D1*
X-372499Y-30732D2*
D10*
Y-37789D1*
X-332643Y-77644D1*
Y-102982D1*
X-313155Y-122470D1*
X-295761D1*
X-290902Y-127329D1*
X-362115Y-168995D2*
X-332567D1*
X-290902Y-127329D1*
X-123454Y456072D2*
Y457930D1*
X-169214Y503690D1*
X-243454D1*
X-244488Y504724D1*
X-313780D1*
X-162345Y-105454D2*
D15*
X-208661Y-105315D1*
X-421171Y-188680D2*
D10*
X-459362D1*
X-464083Y-183959D1*
Y-168995D1*
X255512Y-248031D2*
Y-379218D1*
X235636Y-399093D1*
Y-435125D1*
X237304Y-436793D1*
X205512Y-248031D2*
X210850D1*
Y-460396D1*
X241924Y-491470D1*
X264450D1*
X-208661Y-55315D2*
D15*
X-125150D1*
X135822D1*
X196241Y5105D1*
X152938Y589760D2*
D10*
X-159171D1*
X-160852Y588079D1*
X-45276Y-472441D2*
X-97301D1*
X-119341Y-494482D1*
X-45276Y-498031D2*
X-115791D1*
X-119341Y-494482D1*
D17*
X-162277D1*
D10*
X-171260Y-503465D1*
X-125150Y-55315D2*
D16*
Y-181073D1*
X-152913Y-208837D1*
X-302984D1*
X-322844D1*
D10*
Y-208365D1*
X-362115D1*
Y-188680D2*
X-302984D1*
Y-208837D1*
Y-228391D1*
X-312640Y-238047D1*
X-381801D1*
Y-208365D1*
X-303067Y-209196D2*
X-302984Y-208837D1*
X-208661Y-55315D2*
D15*
Y-59239D1*
X-289740D1*
D10*
X-290902Y-60400D1*
D15*
X-285735D1*
Y15223D1*
X-304323Y33811D1*
X-370113D1*
X-372499Y36197D1*
X-441541Y36803D2*
X-372499D1*
Y36197D1*
D10*
Y36803D1*
X-125150Y-55315D2*
Y190990D1*
X-150955Y216795D1*
Y299846D1*
X-190479Y339370D1*
X-244488D1*
X-313780D1*
X-381801Y-238047D2*
X-396177D1*
X-401486Y-232739D1*
Y-208365D1*
X5512Y287402D2*
Y326491D1*
X-9640Y341643D1*
X-18959D1*
X-102484Y425168D1*
X-137236D1*
X-152626Y440558D1*
X-187240D1*
X260538Y335492D2*
Y292428D1*
X255512Y287402D1*
X-421171Y-149310D2*
Y-118970D1*
X-445634Y-94507D1*
X-482490D1*
X-492243Y-104260D1*
Y-202339D1*
X-248202Y-446379D1*
Y-533900D1*
X-208062Y-574041D1*
X-58734D1*
X-50343Y-565650D1*
X83083D1*
Y-567714D1*
X81161Y-472538D2*
X45373D1*
X45276Y-472441D1*
X-89286Y-337463D2*
X-13375D1*
Y-337438D1*
X-89113Y31471D2*
Y282026D1*
X-94488Y287402D1*
X-313780Y437795D2*
X-303724D1*
Y411118D1*
X-284970Y392364D1*
X-228344D1*
X-213182Y377202D1*
X-132573D1*
X-95777Y340406D1*
Y288690D1*
X-94488Y287402D1*
X355512Y-248031D2*
X345365D1*
Y-383505D1*
X291138Y-437732D1*
X203539Y336154D2*
Y289374D1*
X205512Y287402D1*
X55512D2*
Y349001D1*
X38696Y365818D1*
X2458D1*
X568Y367707D1*
X305512Y-248031D2*
Y-205955D1*
X286266Y-186710D1*
X45276Y-498031D2*
X112201D1*
X120709Y-489524D1*
Y-385465D1*
X138243Y-367930D1*
X158081Y-348092D1*
Y-250601D1*
X155512Y-248031D1*
X171260Y-445669D2*
Y-400948D1*
X138243Y-367930D1*
X-421171Y-208365D2*
Y-241615D1*
X-397235Y-265551D1*
X-314720D1*
X-294148Y-286123D1*
X-187360Y-392912D1*
X49329D1*
X74916Y-418499D1*
Y-441308D1*
X69374Y-446850D1*
X45276D1*
X-293861Y-285835D2*
X-294148Y-286123D1*
X-45203Y65382D2*
Y286686D1*
X-44488Y287402D1*
X-244488Y437795D2*
X-236469D1*
X-199192Y400518D1*
X-118175D1*
X-46892Y329236D1*
Y289806D1*
X-44488Y287402D1*
X104684Y-146621D2*
Y-247203D1*
X105512Y-248031D1*
X-376833Y-109175D2*
Y-106900D1*
X-381801D1*
Y-149310D1*
X-208268Y94685D2*
Y86062D1*
X-471857D1*
X-492475Y65444D1*
Y-57223D1*
X-477572Y-72126D1*
X-434969D1*
X-401486Y-105609D1*
Y-149310D1*
X-244488Y272441D2*
Y253602D1*
X-317655Y180436D1*
Y178004D1*
X-306056Y166406D1*
X-208661Y194685D2*
X-246290D1*
X-274570Y166406D1*
X-306056D1*
X-313780Y272441D2*
Y267395D1*
X-409626Y171549D1*
X-404482Y166406D1*
X-208661Y144685D2*
X-239913D1*
X-278412Y106186D1*
X-406552D1*
X-413417Y113051D1*
Y157470D1*
X-404482Y166406D1*
X-94488Y-248031D2*
X-88058D1*
Y-149383D1*
X-44885Y-106210D1*
X137147D1*
X332297Y88940D1*
Y341925D1*
X250572Y423650D1*
X230104D1*
X228940Y424814D1*
D14*
X-376833Y-109175D3*
X237304Y-436793D3*
X264450Y-491470D3*
X196241Y5105D3*
X-162354Y-5085D3*
X260538Y335492D3*
X203539Y336154D3*
X228940Y424814D3*
X568Y367707D3*
X10446Y423184D3*
X-123454Y456072D3*
X152938Y589760D3*
X-160852Y588079D3*
X-187240Y440558D3*
X59495Y-346148D3*
X-160371Y-345543D3*
X291138Y-437732D3*
X286266Y-186710D3*
X-119341Y-494482D3*
X-276787Y-365017D3*
X-303067Y-209196D3*
X-464083Y-124857D3*
X83083Y-567714D3*
X81161Y-472538D3*
X104684Y-146621D3*
X-334739Y-17765D3*
X-293861Y-285835D3*
X-45203Y65382D3*
X-13375Y-337438D3*
X-89286Y-337463D3*
X-89113Y31471D3*
X-162345Y-105454D3*
X-143451Y616685D2*
D15*
X134446D1*
X-209622Y597131D2*
X202196D1*
X-253042Y577577D2*
X244324D1*
X-293017Y558024D2*
X278665D1*
X-161572Y538470D2*
X312970D1*
X-132650Y518916D2*
X340781D1*
X-375012Y499362D2*
X-365743D1*
X-113093D2*
X364356D1*
X-397619Y479808D2*
X-365744D1*
X5612D2*
X387932D1*
X-419257Y460255D2*
X-365744D1*
X32417D2*
X204205D1*
X253678D2*
X410827D1*
X-436554Y440701D2*
X-365744D1*
X50718D2*
X187950D1*
X285329D2*
X427764D1*
X-429520Y421147D2*
X-365744D1*
X54486D2*
X185007D1*
X304886D2*
X444736D1*
X-396542Y401593D2*
X-365744D1*
X48601D2*
X191825D1*
X324442D2*
X402106D1*
X-383625Y382039D2*
X-365744D1*
X74259D2*
X240377D1*
X344000D2*
X387969D1*
X-378314Y362486D2*
X-365715D1*
X90047D2*
X168680D1*
X362874D2*
X380647D1*
X-378780Y342932D2*
X-365734D1*
X-385167Y323378D2*
X-365744D1*
X-192505D2*
X-142508D1*
X-399808Y303824D2*
X-365744D1*
X-192505D2*
X-142508D1*
X-489661Y284270D2*
X-365744D1*
X-192505D2*
X-142508D1*
X-489661Y264717D2*
X-368256D1*
X-192505D2*
X-142508D1*
X-489661Y245163D2*
X-387812D1*
X-192505D2*
X-142508D1*
X-489661Y225609D2*
X-456459D1*
X-489661Y206055D2*
X-456459D1*
X-142913D2*
X-126324D1*
X-7988D2*
X295100D1*
X-489661Y186501D2*
X-456459D1*
X-142913D2*
X-126324D1*
X-7988D2*
X295100D1*
X-489661Y166948D2*
X-456459D1*
X-142913D2*
X-126324D1*
X-7988D2*
X295100D1*
X-489661Y147394D2*
X-456459D1*
X-142913D2*
X-126324D1*
X-7988D2*
X295100D1*
X-489661Y127840D2*
X-456459D1*
X-142518D2*
X-126324D1*
X-7988D2*
X295100D1*
X-142518Y108286D2*
X-126324D1*
X-7988D2*
X295100D1*
X-142518Y88732D2*
X-126324D1*
X-7988D2*
X280280D1*
X-142518Y69178D2*
X-126324D1*
X-1278D2*
X260723D1*
X-142518Y49625D2*
X-129088D1*
X-4185D2*
X241165D1*
X344789D2*
X362885D1*
X-320539Y30071D2*
X-274419D1*
X-20261D2*
X221644D1*
X325232D2*
X362849D1*
X-301556Y10517D2*
X-274419D1*
X-50583D2*
X202088D1*
X305676D2*
X362814D1*
X-118440Y-9037D2*
X-102640D1*
X-75594D2*
X182531D1*
X286118D2*
X362814D1*
X-125437Y-28591D2*
X162974D1*
X266562D2*
X362777D1*
X-142913Y-48144D2*
X143417D1*
X247005D2*
X362741D1*
X-141693Y-67698D2*
X123861D1*
X227448D2*
X362741D1*
X-122387Y-87252D2*
X-77738D1*
X207891D2*
X362706D1*
X-118261Y-106806D2*
X-97294D1*
X188333D2*
X362669D1*
X-123786Y-126360D2*
X-116707D1*
X168812D2*
X362634D1*
X-142913Y-145913D2*
X-125104D1*
X-32785D2*
X60597D1*
X148790D2*
X273785D1*
X298749D2*
X362634D1*
X-142913Y-165467D2*
X-125248D1*
X-50870D2*
X65046D1*
X144340D2*
X247912D1*
X324622D2*
X362598D1*
X-296785Y-185021D2*
X-274419D1*
X-320504Y-204575D2*
X-142508D1*
X-320504Y-224129D2*
X-142508D1*
X-284799Y-243682D2*
X-142508D1*
X-489661Y-263236D2*
X-483167D1*
X-256343D2*
X-142508D1*
X-489661Y-282790D2*
X-463600D1*
X-245685D2*
X-142508D1*
X-226129Y-302344D2*
X-142508D1*
X-206571Y-321898D2*
X-197196D1*
X95896D2*
X120882D1*
X292720D2*
X308161D1*
X103324Y-341451D2*
X112916D1*
X292720D2*
X308161D1*
X292720Y-361005D2*
X308161D1*
X-387285Y-380559D2*
X-365815D1*
X-400597Y-400113D2*
X-346259D1*
X378412D2*
X395181D1*
X-450584Y-419667D2*
X-326702D1*
X361009D2*
X424570D1*
X-434257Y-439220D2*
X-307144D1*
X341451D2*
X432715D1*
X-417749Y-458774D2*
X-287623D1*
X329610D2*
X413446D1*
X-395538Y-478328D2*
X-285399D1*
X306429D2*
X394211D1*
X-373361Y-497882D2*
X-285399D1*
X-119301D2*
X-93311D1*
X308043D2*
X374942D1*
X-351185Y-517436D2*
X-285399D1*
X299575D2*
X347957D1*
X-320361Y-536990D2*
X-285256D1*
X223214D2*
X320685D1*
X-287885Y-556543D2*
X-277181D1*
X223214D2*
X292373D1*
X165799Y-576097D2*
X252433D1*
X120693Y-595651D2*
X208727D1*
X-138894Y-615205D2*
X61996D1*
X100167D2*
X145139D1*
X12251Y-634759D2*
X29808D1*
X306446Y-494776D2*
X305412Y-501304D1*
X303370Y-507591D1*
X300369Y-513480D1*
X296483Y-518828D1*
X291808Y-523503D1*
X286461Y-527388D1*
X280571Y-530390D1*
X274285Y-532432D1*
X267756Y-533466D1*
X261144D1*
X254615Y-532432D1*
X248329Y-530390D1*
X242440Y-527388D1*
X241419Y-526706D1*
X236412Y-526273D1*
X231035Y-524982D1*
X225927Y-522866D1*
X223504Y-521508D1*
X221260Y-524934D1*
Y-564567D1*
X175364D1*
X160437Y-579315D1*
X155714Y-582745D1*
X150512Y-585396D1*
X144959Y-587201D1*
X139193Y-588114D1*
X121597Y-588228D1*
X120004Y-592837D1*
X117003Y-598727D1*
X113117Y-604075D1*
X108442Y-608749D1*
X103094Y-612635D1*
X97205Y-615636D1*
X90919Y-617678D1*
X84390Y-618713D1*
X77778D1*
X71249Y-617678D1*
X64963Y-615636D1*
X59073Y-612635D1*
X58052Y-611953D1*
X-155500D1*
X-70573Y-630829D1*
X26123Y-635529D1*
X124957Y-622021D1*
X220824Y-592537D1*
X297690Y-554903D1*
X376295Y-498518D1*
X442286Y-431480D1*
X436543Y-422264D1*
X427488Y-419982D1*
X417480Y-415836D1*
X408244Y-410176D1*
X400008Y-403142D1*
X392974Y-394906D1*
X387314Y-385669D1*
X383168Y-375661D1*
X380640Y-365129D1*
X380492Y-386270D1*
X379627Y-391731D1*
X377919Y-396990D1*
X375408Y-401916D1*
X372159Y-406390D1*
X332398Y-446304D1*
X330058Y-453853D1*
X327056Y-459743D1*
X323171Y-465091D1*
X318496Y-469765D1*
X313148Y-473651D1*
X307259Y-476652D1*
X304289Y-477747D1*
X306058Y-484879D1*
X306576Y-491470D1*
X306446Y-494776D1*
X-120358Y-8391D2*
X-121392Y-14920D1*
X-123434Y-21206D1*
X-126436Y-27096D1*
X-130322Y-32444D1*
X-134996Y-37118D1*
X-140344Y-41004D1*
X-144885Y-43383D1*
X-144882Y-67110D1*
X-140335Y-69535D1*
X-134987Y-73421D1*
X-130312Y-78096D1*
X-126427Y-83444D1*
X-123425Y-89333D1*
X-121383Y-95619D1*
X-120349Y-102148D1*
Y-108760D1*
X-121383Y-115289D1*
X-123425Y-121575D1*
X-126427Y-127465D1*
X-130312Y-132812D1*
X-134987Y-137487D1*
X-140335Y-141373D1*
X-144875Y-143752D1*
X-144882Y-201378D1*
X-272441D1*
Y-179310D1*
X-293041Y-179298D1*
X-309525Y-195631D1*
X-313999Y-198881D1*
X-318925Y-201391D1*
X-321531Y-202352D1*
X-322470Y-206042D1*
Y-230318D1*
X-311955Y-230424D1*
X-306495Y-231289D1*
X-301236Y-232997D1*
X-296310Y-235508D1*
X-291836Y-238757D1*
X-285974Y-244467D1*
X-280844Y-245770D1*
X-274736Y-248301D1*
X-269100Y-251755D1*
X-264073Y-256047D1*
X-259781Y-261073D1*
X-256327Y-266710D1*
X-253797Y-272818D1*
X-252518Y-277915D1*
X-199783Y-330656D1*
X-196290Y-323533D1*
X-192404Y-318185D1*
X-187730Y-313510D1*
X-182382Y-309625D1*
X-176492Y-306623D1*
X-170206Y-304581D1*
X-163677Y-303547D1*
X-157066D1*
X-150537Y-304581D1*
X-144251Y-306623D1*
X-140559Y-308394D1*
X-140551Y-184252D1*
X-123291D1*
X-123185Y-146618D1*
X-122320Y-141157D1*
X-120612Y-135899D1*
X-118101Y-130972D1*
X-114852Y-126499D1*
X-73999Y-85493D1*
X-67769Y-79416D1*
X-63295Y-76167D1*
X-58369Y-73656D1*
X-53110Y-71948D1*
X-47650Y-71083D1*
X10234Y-70974D1*
X122587D1*
X297080Y103555D1*
X297060Y223613D1*
X109449Y223657D1*
X-3543Y223622D1*
X-9966D1*
X-9967Y88497D1*
X-6283Y81503D1*
X-4241Y75217D1*
X-3207Y68688D1*
Y62076D1*
X-4241Y55547D1*
X-6283Y49261D1*
X-9285Y43371D1*
X-13171Y38024D1*
X-17845Y33349D1*
X-23193Y29463D1*
X-29083Y26462D1*
X-35369Y24420D1*
X-41898Y23386D1*
X-47773Y23357D1*
X-49049Y18454D1*
X-51579Y12346D1*
X-55033Y6710D1*
X-59325Y1684D1*
X-64352Y-2609D1*
X-69988Y-6063D1*
X-76096Y-8593D1*
X-82522Y-10136D1*
X-89113Y-10655D1*
X-95703Y-10136D1*
X-102130Y-8593D1*
X-108238Y-6063D1*
X-113874Y-2609D1*
X-118900Y1684D1*
X-121282Y4285D1*
X-120358Y-1780D1*
Y-8391D1*
X-144885Y33213D2*
X-140344Y30833D1*
X-134996Y26948D1*
X-130185Y22101D1*
X-131109Y28165D1*
Y34777D1*
X-130075Y41306D1*
X-128033Y47592D1*
X-125031Y53482D1*
X-124349Y54503D1*
Y223631D1*
X-140551Y223622D1*
Y335329D1*
X-147157Y341955D1*
X-194474Y341966D1*
X-194488Y240764D1*
X-144882Y240748D1*
Y140761D1*
X-144488Y140748D1*
Y48622D1*
X-144883D1*
X-144882Y33248D1*
X90655Y351181D2*
X164172D1*
X167621Y358164D1*
X171507Y363512D1*
X176181Y368186D1*
X181529Y372072D1*
X187419Y375073D1*
X193705Y377115D1*
X200234Y378150D1*
X206845D1*
X213374Y377115D1*
X219660Y375073D1*
X225550Y372072D1*
X230898Y368186D1*
X232369Y366827D1*
X238528Y371411D1*
X244417Y374412D1*
X248552Y375848D1*
X240165Y384224D1*
X235530Y383206D1*
X228940Y382688D1*
X222349Y383206D1*
X215923Y384749D1*
X209815Y387280D1*
X204178Y390734D1*
X199152Y395026D1*
X194860Y400052D1*
X191406Y405689D1*
X188875Y411797D1*
X187332Y418223D1*
X186814Y424814D1*
X187332Y431404D1*
X188875Y437831D1*
X191406Y443938D1*
X194860Y449575D1*
X199152Y454601D1*
X204178Y458894D1*
X209815Y462348D1*
X215923Y464878D1*
X222349Y466421D1*
X228940Y466940D1*
X235530Y466421D1*
X241957Y464878D1*
X248064Y462348D1*
X253913Y458726D1*
X258798Y457912D1*
X264056Y456203D1*
X268983Y453693D1*
X273457Y450444D1*
X314462Y409591D1*
X359091Y364810D1*
X362340Y360336D1*
X364850Y355409D1*
X366562Y350140D1*
X367573Y348759D1*
X384487Y364176D1*
X385525Y369526D1*
X388682Y379240D1*
X393319Y388341D1*
X399323Y396605D1*
X406545Y403827D1*
X414808Y409831D1*
X423909Y414467D1*
X433623Y417625D1*
X443711Y419222D1*
X445367Y419287D1*
X441681Y426945D1*
X411022Y462277D1*
X328425Y530801D1*
X219988Y592564D1*
X107257Y625096D1*
X-2719Y636206D1*
X-95740Y629932D1*
X-201219Y601801D1*
X-287047Y563140D1*
X-297084Y556684D1*
X-194488Y556693D1*
Y538930D1*
X-166449Y538818D1*
X-160988Y537953D1*
X-155730Y536244D1*
X-150803Y533734D1*
X-146329Y530484D1*
X-112403Y496711D1*
X-107333Y494992D1*
X-101444Y491991D1*
X-100423Y491308D1*
X-19677Y491199D1*
X-14217Y490335D1*
X-8958Y488626D1*
X-4031Y486115D1*
X442Y482866D1*
X19043Y464419D1*
X23463Y463248D1*
X29571Y460718D1*
X35207Y457264D1*
X40234Y452971D1*
X44526Y447945D1*
X47980Y442308D1*
X50510Y436201D1*
X52054Y429774D1*
X52572Y423184D1*
X52054Y416593D1*
X50510Y410167D1*
X47980Y404059D1*
X45798Y400324D1*
X52180Y398371D1*
X57106Y395861D1*
X61580Y392612D1*
X80428Y373917D1*
X84018Y369713D1*
X86908Y364999D1*
X89024Y359890D1*
X90315Y354513D1*
X90640Y351755D1*
X-52814Y-184252D2*
X69483D1*
X69448Y-169730D1*
X65764Y-162741D1*
X63722Y-156455D1*
X62688Y-149927D1*
Y-143315D1*
X62908Y-141455D1*
X-30324Y-141446D1*
X-52828Y-163986D1*
X-52822Y-184227D1*
X-122669Y-311811D2*
X-135157D1*
X-130584Y-315756D1*
X-127354Y-319433D1*
X-123366Y-312702D1*
X-122671Y-311819D1*
X35081Y-311811D2*
X20083D1*
X24159Y-318314D1*
X25517Y-321259D1*
X29707Y-316361D1*
X35110Y-311816D1*
X139937Y-184252D2*
X244243D1*
X244659Y-180119D1*
X246202Y-173693D1*
X248732Y-167585D1*
X252186Y-161949D1*
X256479Y-156923D1*
X261505Y-152630D1*
X267142Y-149176D1*
X273249Y-146646D1*
X279676Y-145102D1*
X286266Y-144584D1*
X292857Y-145102D1*
X299283Y-146646D1*
X305391Y-149176D1*
X311028Y-152630D1*
X316054Y-156923D1*
X320346Y-161949D1*
X323801Y-167585D1*
X326331Y-173693D1*
X327469Y-178080D1*
X332312Y-183080D1*
X342126Y-184252D1*
X364531D1*
X364850Y75455D1*
X362340Y70529D1*
X359091Y66055D1*
X318238Y25050D1*
X160031Y-133004D1*
X155558Y-136253D1*
X150631Y-138764D1*
X148025Y-139724D1*
X146680Y-143315D1*
Y-149927D1*
X145646Y-156455D1*
X143604Y-162741D1*
X140602Y-168631D1*
X139920Y-169652D1*
Y-184264D1*
X109483Y-311811D2*
X83933D1*
X89282Y-316361D1*
X93575Y-321387D1*
X97029Y-327024D1*
X99559Y-333131D1*
X101102Y-339558D1*
X101621Y-346148D1*
X101102Y-352739D1*
X100479Y-355869D1*
X122843Y-333500D1*
X122845Y-311812D1*
X109449Y-311776D1*
X309483Y-311811D2*
X290752D1*
X290639Y-381983D1*
X289772Y-387454D1*
X292205Y-386833D1*
X310144Y-368894D1*
X310129Y-311845D1*
X309449Y-311776D1*
X-272409Y-1378D2*
X-272572Y45374D1*
X-322487D1*
X-322499Y22547D1*
X-315614Y19769D1*
X-309978Y16315D1*
X-304951Y12022D1*
X-300659Y6996D1*
X-297205Y1360D1*
X-294675Y-4748D1*
X-293678Y-8425D1*
X-272441Y-8432D1*
Y-1391D1*
X-25218Y396430D2*
X-23236Y397877D1*
X-27088Y404059D1*
X-29618Y410167D1*
X-30756Y414554D1*
X-37028Y420825D1*
X-49606Y420836D1*
X-25261Y396469D1*
X-91337Y-483071D2*
X-91339Y-482102D1*
X-121243Y-482087D1*
X-121260Y-513812D1*
X-91349Y-513819D1*
X-91339Y-483076D1*
X-307987Y-336757D2*
X-304146Y-332984D1*
X-300119Y-329982D1*
X-303696Y-326797D1*
X-309982Y-324755D1*
X-315871Y-321753D1*
X-321219Y-317867D1*
X-325894Y-313193D1*
X-329780Y-307845D1*
X-332781Y-301955D1*
X-333214Y-300780D1*
X-343908Y-300841D1*
X-308004Y-336745D1*
X-363780Y391316D2*
Y510781D1*
X-417927Y463963D1*
X-454077Y423163D1*
X-443403Y423147D1*
X-432705Y421453D1*
X-422403Y418105D1*
X-412752Y413188D1*
X-403988Y406820D1*
X-396329Y399161D1*
X-389962Y390398D1*
X-385045Y380747D1*
X-381697Y370445D1*
X-380003Y359747D1*
Y348915D1*
X-381697Y338217D1*
X-385045Y327915D1*
X-389962Y318264D1*
X-396329Y309500D1*
X-403988Y301841D1*
X-412752Y295474D1*
X-422403Y290556D1*
X-432705Y287209D1*
X-443403Y285514D1*
X-454235D1*
X-464933Y287209D1*
X-475235Y290556D1*
X-484886Y295474D1*
X-491638Y300255D1*
X-491648Y112773D1*
X-485534Y114873D1*
X-480073Y115738D1*
X-454450Y115846D1*
X-454482Y232154D1*
X-398825D1*
X-363774Y267232D1*
X-363773Y391339D1*
X380602Y-343848D2*
X382416Y-335669D1*
X380601Y-339895D1*
Y-343806D1*
X-384038Y-360370D2*
X-385525Y-369526D1*
X-388682Y-379240D1*
X-393319Y-388341D1*
X-399323Y-396605D1*
X-406545Y-403827D1*
X-414808Y-409831D1*
X-423909Y-414467D1*
X-433623Y-417625D1*
X-443711Y-419222D1*
X-452869Y-419264D1*
X-420539Y-458035D1*
X-349639Y-520537D1*
X-267062Y-570265D1*
X-257816Y-574109D1*
X-274996Y-556785D1*
X-278245Y-552311D1*
X-280756Y-547385D1*
X-282465Y-542126D1*
X-283329Y-536665D1*
X-283438Y-478782D1*
Y-460948D1*
X-384028Y-360385D1*
X-491635Y-305336D2*
X-487079Y-301671D1*
X-478370Y-296333D1*
X-468933Y-292425D1*
X-459001Y-290041D1*
X-454999Y-289415D1*
X-491664Y-252749D1*
X-491648Y-305349D1*
X367093Y348150D2*
X367573Y348759D1*
X-208661Y-55315D2*
D10*
X-144917D1*
X-171260Y-503465D2*
X-121295D1*
X-372499Y36197D2*
X-322534D1*
X-290902Y-8467D2*
Y-60400D1*
X-363744Y339370D2*
X-313780D1*
X-244488D2*
X-194524D1*
D19*
X171260Y-445669D3*
Y-512598D3*
D24*
X-94488Y287402D3*
X-44488D3*
X5512D3*
X55512D3*
X105512D3*
X155512D3*
X205512D3*
X255512D3*
X-94488Y-248031D3*
X-44488D3*
X5512D3*
X55512D3*
X105512D3*
X155512D3*
X205512D3*
X255512D3*
X305512D3*
X355512D3*
D25*
X-208661Y44685D3*
Y-5315D3*
X-208268Y94685D3*
X-208661Y-55315D3*
Y144685D3*
Y-105315D3*
Y194685D3*
Y-155315D3*
D27*
X-45276Y-446850D3*
Y-472441D3*
Y-498031D3*
X45276D3*
Y-472441D3*
Y-446850D3*
D28*
X0Y-472441D3*
D19*
X-171260Y-503465D3*
Y-436535D3*
D31*
X-421171Y-149310D3*
Y-168995D3*
Y-188680D3*
Y-208365D3*
D32*
X-401486D3*
X-381801D3*
D31*
X-362115D3*
Y-188680D3*
Y-168995D3*
Y-149310D3*
D32*
X-381801D3*
X-401486D3*
D19*
X-441541Y-30126D3*
Y36803D3*
X-372499Y-30732D3*
Y36197D3*
X-290902Y-60400D3*
Y-127329D3*
X-313780Y437795D3*
Y504724D3*
X-244488Y437795D3*
Y504724D3*
D33*
X-404482Y166406D3*
X-306056D3*
D19*
X-313780Y272441D3*
Y339370D3*
X-244488Y272441D3*
Y339370D3*
G04 Top Clear*
%LPC*%
D34*
X-376833Y-109175D3*
X237304Y-436793D3*
X264450Y-491470D3*
X196241Y5105D3*
X-162354Y-5085D3*
X260538Y335492D3*
X203539Y336154D3*
X228940Y424814D3*
X568Y367707D3*
X10446Y423184D3*
X-123454Y456072D3*
X152938Y589760D3*
X-160852Y588079D3*
X-187240Y440558D3*
X59495Y-346148D3*
X-160371Y-345543D3*
X291138Y-437732D3*
X286266Y-186710D3*
X-119341Y-494482D3*
X-276787Y-365017D3*
X-303067Y-209196D3*
X-464083Y-124857D3*
X83083Y-567714D3*
X81161Y-472538D3*
X104684Y-146621D3*
X-334739Y-17765D3*
X-293861Y-285835D3*
X-45203Y65382D3*
X-13375Y-337438D3*
X-89286Y-337463D3*
X-89113Y31471D3*
X-162345Y-105454D3*
M02*
