G04 DipTrace 3.2.0.1*
G04 Нижний.gbr*
%MOIN*%
G04 #@! TF.FileFunction,Copper,L2,Bot*
G04 #@! TF.Part,Single*
%AMOUTLINE0*
4,1,4,
-0.020391,0.066601,
0.068017,0.015007,
0.020391,-0.066601,
-0.068017,-0.015007,
-0.020391,0.066601,
0*%
%AMOUTLINE3*
4,1,4,
0.026837,-0.019226,
0.000722,-0.033005,
-0.026837,0.019226,
-0.000722,0.033005,
0.026837,-0.019226,
0*%
%AMOUTLINE6*
4,1,4,
-0.025639,0.001192,
0.011937,0.02272,
0.025639,-0.001192,
-0.011937,-0.02272,
-0.025639,0.001192,
0*%
%AMOUTLINE9*
4,1,4,
-0.012394,0.022475,
0.025609,0.001709,
0.012394,-0.022475,
-0.025609,-0.001709,
-0.012394,0.022475,
0*%
%ADD35C,0.011811*%
G04 #@! TA.AperFunction,CopperBalancing*
%ADD10C,0.009843*%
G04 #@! TA.AperFunction,ViaPad*
%ADD15C,0.023622*%
G04 #@! TA.AperFunction,CopperBalancing*
%ADD16C,0.019685*%
G04 #@! TA.AperFunction,Conductor*
%ADD17C,0.01378*%
%ADD20R,0.03937X0.043307*%
%ADD21R,0.043307X0.03937*%
%ADD22R,0.023622X0.03937*%
%ADD23R,0.23622X0.082677*%
%ADD24R,0.161417X0.133858*%
%ADD63OUTLINE0*%
%ADD66OUTLINE3*%
%ADD69OUTLINE6*%
%ADD72OUTLINE9*%
%FSLAX26Y26*%
G04*
G70*
G90*
G75*
G01*
G04 Bottom*
%LPD*%
X-432250Y-1728D2*
D15*
X-491070D1*
Y-123646D1*
Y-225560D1*
X-474354Y-242276D1*
X-412799D1*
X-351848Y-303227D1*
Y-405807D1*
X-334339D1*
Y-414105D1*
Y-405807D2*
D16*
X-316021D1*
X-275134Y-364920D1*
Y-362850D1*
X-258781Y-346497D1*
X-162354D1*
Y-105041D1*
Y-5085D1*
X-130315Y360236D2*
D10*
Y312976D1*
X-206925Y236366D1*
X-340898D1*
X-396732Y180531D1*
Y-1728D1*
X-432250D1*
X-17717Y509843D2*
Y451346D1*
X10446Y423184D1*
X-123454Y456072D2*
Y367097D1*
X-130315Y360236D1*
X-160371Y-345543D2*
X-162354Y-346497D1*
X259316Y-374930D2*
Y-360488D1*
X244976Y-346148D1*
D17*
X59495D1*
X-276787Y-365017D2*
D10*
Y-362850D1*
X-275134D1*
X-464083Y-124857D2*
D15*
X-491070Y-123646D1*
X-334739Y-17765D2*
X-416214D1*
D10*
X-432250Y-1728D1*
X-162345Y-105454D2*
D16*
X-162354Y-105041D1*
X237304Y-436793D2*
D10*
X230640D1*
Y-413811D1*
X215094Y-398265D1*
X264450Y-491470D2*
X269730D1*
Y-514902D1*
X284364Y-529535D1*
X17717Y592520D2*
Y623192D1*
X29978Y635453D1*
X73946D1*
X84206Y625193D1*
Y584298D1*
X85827Y582677D1*
X196241Y5105D2*
D15*
X335719D1*
D10*
X342553Y-1728D1*
X343951Y486155D2*
X389374D1*
X399793Y475736D1*
Y421547D1*
X370766Y392521D1*
Y109535D1*
X342553Y81322D1*
Y-1728D1*
X343951Y486155D2*
X287820Y518425D1*
X200575Y564503D1*
X328584Y-506202D2*
D16*
Y-144010D1*
X341919Y-130676D1*
Y-2363D1*
X342553Y-1728D1*
X-116706Y-541113D2*
Y-451668D1*
X-52446Y-387408D1*
Y-307469D1*
X-35929Y-290951D1*
X7115D1*
X48177Y-249890D1*
X165138D1*
X271017Y-144010D1*
X328584D1*
X200575Y564503D2*
D10*
X161483D1*
X152938Y573047D1*
Y589760D1*
X-160852Y588079D2*
X-155886D1*
Y573276D1*
X-163636Y565525D1*
X-202127D1*
X-343891Y484298D2*
X-271113Y527734D1*
X-202127Y565525D1*
X-119341Y-494482D2*
D16*
X-125003D1*
Y-514188D1*
X-143631D1*
D10*
X-116706Y-541113D1*
X-301810Y410853D2*
X-242917Y445131D1*
X-231748Y451336D1*
X-207343Y464987D1*
X-160046Y492080D1*
X-187240Y440558D2*
Y442226D1*
X-207343Y464987D1*
X-17717Y592520D2*
Y628919D1*
X-26449Y637651D1*
X-72615D1*
X-79944Y630323D1*
Y588560D1*
X-85827Y582677D1*
X85827Y515748D2*
X84433Y530650D1*
G02X196623Y520172I44394J-130533D01*
G01*
X347713Y435213D1*
Y371122D1*
X313585Y336995D1*
X260538D1*
Y335492D1*
X83083Y-567714D2*
Y-474459D1*
X81161Y-472538D1*
Y-470937D1*
X-12348Y-377428D1*
Y-338466D1*
X-13375Y-337438D1*
X-89286Y-337463D2*
Y31471D1*
X-89113D1*
X170873Y-421600D2*
Y-435684D1*
X203974Y-468785D1*
X247462D1*
X274349Y-441898D1*
X286972D1*
X291138Y-437732D1*
X17717Y509843D2*
Y475125D1*
X60825Y432016D1*
Y362797D1*
X63386Y360236D1*
X130315D2*
X179457D1*
X203539Y336154D1*
X568Y367707D2*
Y379656D1*
X-78348Y458572D1*
Y508269D1*
X-85827Y515748D1*
X240140Y-552870D2*
Y-541816D1*
X210963Y-512639D1*
X181596D1*
X24822Y-355865D1*
Y-321895D1*
X56329Y-290387D1*
X245197D1*
X286266Y-249318D1*
Y-186710D1*
X-293861Y-285835D2*
X-261522D1*
X-201121Y-225433D1*
Y15891D1*
X-151630Y65382D1*
X-45203D1*
X104684Y-146621D2*
X107312D1*
Y-2458D1*
X4862Y99992D1*
X-163504D1*
X-234343Y29154D1*
Y-28482D1*
X-315035Y-109175D1*
X-376833D1*
X303362Y411875D2*
X245971Y443001D1*
X234882Y449016D1*
X224738Y454597D1*
X159986Y490223D1*
X-63386Y360236D2*
Y330176D1*
X-30010Y296801D1*
X215782D1*
X232364Y313382D1*
Y429394D1*
X245971Y443001D1*
X228940Y424814D2*
X232364Y429394D1*
D15*
X-376833Y-109175D3*
X237304Y-436793D3*
X264450Y-491470D3*
X196241Y5105D3*
X-162354Y-5085D3*
X260538Y335492D3*
X203539Y336154D3*
X228940Y424814D3*
X568Y367707D3*
X10446Y423184D3*
X-123454Y456072D3*
X152938Y589760D3*
X-160852Y588079D3*
X-187240Y440558D3*
X59495Y-346148D3*
X-160371Y-345543D3*
X291138Y-437732D3*
X286266Y-186710D3*
X-119341Y-494482D3*
X-276787Y-365017D3*
X-303067Y-209196D3*
X-464083Y-124857D3*
X83083Y-567714D3*
X81161Y-472538D3*
X104684Y-146621D3*
X-334739Y-17765D3*
X-293861Y-285835D3*
X-45203Y65382D3*
X-13375Y-337438D3*
X-89286Y-337463D3*
X-89113Y31471D3*
X-162345Y-105454D3*
X-147475Y616776D2*
D16*
X-137799D1*
X137804D2*
X143740D1*
X-158420Y597222D2*
X-137812D1*
X137804D2*
X157264D1*
X-147295Y577668D2*
X-137777D1*
X137804D2*
X146570D1*
X-289325Y558114D2*
X-258814D1*
X-144856D2*
X-137772D1*
X257370D2*
X288959D1*
X-322769Y538560D2*
X-248550D1*
X247573D2*
X320717D1*
X-301920Y519007D2*
X-234807D1*
X272550D2*
X300728D1*
X-290724Y499453D2*
X-220022D1*
X-286131Y479899D2*
X-254866D1*
X-417144Y460345D2*
X-392016D1*
X84301D2*
X120734D1*
X391039D2*
X415845D1*
X-435051Y440791D2*
X-379850D1*
X96932D2*
X156546D1*
X384472D2*
X433322D1*
X-429883Y421238D2*
X-358320D1*
X98045D2*
X185003D1*
X384903D2*
X444875D1*
X-396619Y401684D2*
X-357890D1*
X-244972D2*
X-205454D1*
X184239D2*
X191783D1*
X384903D2*
X402173D1*
X-383664Y382130D2*
X-347232D1*
X-261264D2*
X-184245D1*
X-378318Y362576D2*
X-332017D1*
X-295390D2*
X-184245D1*
X-378748Y343022D2*
X-184245D1*
X-385100Y323469D2*
X-184245D1*
X351853D2*
X364207D1*
X-399705Y303915D2*
X-191172D1*
X327703D2*
X364207D1*
X-489487Y284361D2*
X-210728D1*
X-107140D2*
X-69381D1*
X255146D2*
X364207D1*
X-489522Y264807D2*
X-363667D1*
X-126698D2*
X-46738D1*
X232503D2*
X364244D1*
X-489522Y245253D2*
X-383798D1*
X-146255D2*
X364244D1*
X-489559Y225699D2*
X-403354D1*
X-165776D2*
X364280D1*
X-489594Y206146D2*
X-422912D1*
X-186840D2*
X364280D1*
X-489594Y186592D2*
X-433425D1*
X-338881D2*
X364280D1*
X-489631Y167038D2*
X-433928D1*
X-358438D2*
X364316D1*
X-489631Y147484D2*
X-433928D1*
X-359514D2*
X364316D1*
X-489667Y127930D2*
X-433928D1*
X-359514D2*
X-186937D1*
X28286D2*
X364316D1*
X-489667Y108377D2*
X-433928D1*
X-359514D2*
X-206925D1*
X48273D2*
X364352D1*
X-319252Y88823D2*
X-226482D1*
X67831D2*
X364352D1*
X-319252Y69269D2*
X-246038D1*
X87387D2*
X192143D1*
X-319252Y49715D2*
X-264913D1*
X-4118D2*
X3357D1*
X106944D2*
X192143D1*
X-319252Y30161D2*
X-271516D1*
X-20122D2*
X22878D1*
X126501D2*
X192143D1*
X-301634Y10608D2*
X-271552D1*
X-50551D2*
X42434D1*
X142003D2*
X192143D1*
X-291585Y-8946D2*
X-271552D1*
X-52094D2*
X61991D1*
X144514D2*
X192143D1*
X-52094Y-28500D2*
X70101D1*
X144514D2*
X192143D1*
X-52094Y-48054D2*
X70101D1*
X144514D2*
X192143D1*
X-52094Y-67608D2*
X70101D1*
X144514D2*
X192143D1*
X-52094Y-87161D2*
X70101D1*
X144514D2*
X364459D1*
X-260761Y-106715D2*
X-238323D1*
X-52094D2*
X70101D1*
X144514D2*
X364495D1*
X-280318Y-126269D2*
X-238323D1*
X-52094D2*
X65831D1*
X144514D2*
X364495D1*
X-425577Y-145823D2*
X-399587D1*
X-354096D2*
X-238323D1*
X-52094D2*
X60592D1*
X148785D2*
X274175D1*
X298386D2*
X364495D1*
X-446965Y-165377D2*
X-238323D1*
X-52094D2*
X65005D1*
X144371D2*
X247979D1*
X324546D2*
X364531D1*
X-446965Y-184930D2*
X-238323D1*
X-52094D2*
X85209D1*
X124168D2*
X242202D1*
X330323D2*
X364531D1*
X-392205Y-204484D2*
X-238323D1*
X-52094D2*
X246113D1*
X326412D2*
X364567D1*
X-369491Y-224038D2*
X-251529D1*
X-52094D2*
X249055D1*
X323470D2*
X364567D1*
X-349933Y-243592D2*
X-271085D1*
X-52094D2*
X240192D1*
X323470D2*
X364567D1*
X-52094Y-263146D2*
X32028D1*
X320634D2*
X364602D1*
X-52094Y-282699D2*
X12220D1*
X304702D2*
X364602D1*
X-226133Y-302253D2*
X-204484D1*
X-52094D2*
X-38520D1*
X285144D2*
X364602D1*
X283243Y-321807D2*
X371134D1*
X294546Y-341361D2*
X379064D1*
X304845Y-360915D2*
X378131D1*
X-134844Y-380469D2*
X-49429D1*
X315180D2*
X382975D1*
X-234063Y-400022D2*
X-41356D1*
X317871D2*
X395104D1*
X-452849Y-419576D2*
X-433102D1*
X-241205D2*
X-22013D1*
X331113D2*
X424314D1*
X-252615Y-439130D2*
X-2457D1*
X335203D2*
X435008D1*
X-264026Y-458684D2*
X-164904D1*
X-102117D2*
X17100D1*
X356446D2*
X415881D1*
X-397875Y-478238D2*
X-380281D1*
X-275438D2*
X-176352D1*
X-68601D2*
X36657D1*
X366781D2*
X395248D1*
X-375626Y-497791D2*
X-346765D1*
X-286921D2*
X-187762D1*
X-35085D2*
X45484D1*
X-350436Y-517345D2*
X-199173D1*
X-17718D2*
X45879D1*
X120293D2*
X134513D1*
X-323845Y-536899D2*
X-210585D1*
X-18399D2*
X45879D1*
X120293D2*
X154070D1*
X-290545Y-556453D2*
X-217008D1*
X-29344D2*
X40533D1*
X125639D2*
X189093D1*
X-254122Y-576007D2*
X-209580D1*
X-40756D2*
X39815D1*
X126357D2*
X199428D1*
X-210990Y-595560D2*
X-179259D1*
X-52167D2*
X49504D1*
X116668D2*
X207394D1*
X-63577Y-615114D2*
X148652D1*
X-244769Y-422312D2*
X-289045Y-497992D1*
X-292055Y-501676D1*
X-295605Y-504843D1*
X-299606Y-507415D1*
X-303962Y-509328D1*
X-308562Y-510538D1*
X-313295Y-511013D1*
X-318045Y-510743D1*
X-322693Y-509731D1*
X-327126Y-508007D1*
X-392699Y-469845D1*
X-419642Y-454013D1*
X-423325Y-451003D1*
X-426492Y-447453D1*
X-429064Y-443451D1*
X-430979Y-439097D1*
X-432188Y-434496D1*
X-432663Y-429762D1*
X-432392Y-425013D1*
X-431382Y-420365D1*
X-430602Y-418106D1*
X-433623Y-417625D1*
X-443711Y-419222D1*
X-453927D1*
X-455215Y-419070D1*
X-448990Y-427077D1*
X-412986Y-466682D1*
X-370340Y-504160D1*
X-321349Y-540181D1*
X-265070Y-571930D1*
X-211122Y-596386D1*
X-151319Y-614402D1*
X-141745Y-616302D1*
X-201686Y-581245D1*
X-205950Y-577764D1*
X-209513Y-573570D1*
X-212260Y-568799D1*
X-214098Y-563612D1*
X-214969Y-558176D1*
X-214843Y-552673D1*
X-213723Y-547285D1*
X-211647Y-542186D1*
X-162307Y-457675D1*
X-158846Y-453394D1*
X-154669Y-449810D1*
X-149913Y-447039D1*
X-144735Y-445175D1*
X-139304Y-444278D1*
X-133801Y-444377D1*
X-128406Y-445470D1*
X-123291Y-447524D1*
X-31727Y-500982D1*
X-27463Y-504463D1*
X-23900Y-508657D1*
X-21154Y-513428D1*
X-19315Y-518615D1*
X-18445Y-524051D1*
X-18571Y-529554D1*
X-19690Y-534942D1*
X-21766Y-540041D1*
X-71190Y-624677D1*
X-74677Y-628945D1*
X-25745Y-633892D1*
X27501D1*
X93873Y-627400D1*
X163730Y-612277D1*
X211315Y-594839D1*
X186542Y-547886D1*
X178831Y-547766D1*
X173370Y-546902D1*
X168112Y-545193D1*
X163185Y-542682D1*
X158711Y-539433D1*
X118340Y-499215D1*
X118319Y-544613D1*
X122003Y-551593D1*
X124045Y-557879D1*
X125079Y-564408D1*
Y-571020D1*
X124045Y-577549D1*
X122003Y-583835D1*
X119001Y-589724D1*
X115115Y-595072D1*
X110441Y-599747D1*
X105093Y-603633D1*
X99203Y-606634D1*
X92917Y-608676D1*
X86388Y-609710D1*
X79777D1*
X73248Y-608676D1*
X66962Y-606634D1*
X61072Y-603633D1*
X55724Y-599747D1*
X51050Y-595072D1*
X47164Y-589724D1*
X44163Y-583835D1*
X42121Y-577549D1*
X41087Y-571020D1*
Y-564408D1*
X42121Y-557879D1*
X44163Y-551593D1*
X47164Y-545703D1*
X47846Y-544682D1*
Y-498350D1*
X43627Y-491663D1*
X41097Y-485555D1*
X39562Y-479167D1*
X-39142Y-400312D1*
X-42391Y-395839D1*
X-44902Y-390912D1*
X-46610Y-385654D1*
X-47475Y-380193D1*
X-47584Y-362034D1*
X-51304Y-355706D1*
X-55206Y-362224D1*
X-59499Y-367251D1*
X-64525Y-371543D1*
X-70161Y-374997D1*
X-76269Y-377528D1*
X-82696Y-379071D1*
X-89286Y-379589D1*
X-95877Y-379071D1*
X-102303Y-377528D1*
X-108411Y-374997D1*
X-114047Y-371543D1*
X-119073Y-367251D1*
X-122303Y-363573D1*
X-126291Y-370304D1*
X-130584Y-375331D1*
X-135610Y-379623D1*
X-141247Y-383077D1*
X-147354Y-385608D1*
X-153781Y-387151D1*
X-160371Y-387669D1*
X-166962Y-387151D1*
X-171541Y-386655D1*
X-238680D1*
X-237003Y-391388D1*
X-236157Y-396070D1*
X-236055Y-400825D1*
X-236698Y-405539D1*
X-238071Y-410094D1*
X-240139Y-414378D1*
X-244769Y-422312D1*
X289693Y-335903D2*
X313992Y-382156D1*
X315528Y-386659D1*
X316339Y-391346D1*
X316406Y-396104D1*
X315727Y-400820D1*
X315899Y-403652D1*
X320925Y-407945D1*
X325218Y-412971D1*
X328672Y-418608D1*
X331202Y-424715D1*
X332745Y-431142D1*
X333264Y-437732D1*
X332865Y-443308D1*
X337033Y-444302D1*
X342106Y-446437D1*
X346710Y-449453D1*
X350693Y-453252D1*
X353923Y-457710D1*
X375496Y-498512D1*
X383294Y-491441D1*
X418575Y-457991D1*
X442636Y-433349D1*
X435612Y-422097D1*
X427488Y-419982D1*
X417480Y-415836D1*
X408244Y-410176D1*
X400008Y-403142D1*
X392974Y-394906D1*
X387314Y-385669D1*
X383168Y-375661D1*
X380640Y-365129D1*
X379790Y-354331D1*
X380640Y-343533D1*
X382209Y-336403D1*
X367369Y-312360D1*
X366627Y-309371D1*
X366433Y-73382D1*
X194127D1*
Y69925D1*
X366336D1*
X366133Y339710D1*
X336470Y310201D1*
X331996Y306951D1*
X327070Y304441D1*
X321811Y302732D1*
X316350Y301867D1*
X285776Y301759D1*
X279663Y297958D1*
X273555Y295428D1*
X267129Y293885D1*
X261377Y293399D1*
X257272Y288459D1*
X238667Y270007D1*
X234193Y266757D1*
X229266Y264247D1*
X224008Y262538D1*
X218547Y261673D1*
X160664Y261564D1*
X-32776Y261673D1*
X-38236Y262538D1*
X-43495Y264247D1*
X-48421Y266757D1*
X-52895Y270007D1*
X-88302Y305260D1*
X-91899Y309474D1*
X-95188Y310211D1*
X-96052Y304751D1*
X-97761Y299492D1*
X-100272Y294566D1*
X-103521Y290092D1*
X-144374Y249087D1*
X-184041Y209572D1*
X-188514Y206323D1*
X-193441Y203812D1*
X-198699Y202104D1*
X-204160Y201239D1*
X-262043Y201130D1*
X-326312D1*
X-361478Y165955D1*
X-361496Y95522D1*
X-321227Y95516D1*
Y22133D1*
X-315614Y19769D1*
X-309978Y16316D1*
X-304951Y12022D1*
X-300657Y6996D1*
X-297205Y1360D1*
X-294675Y-4748D1*
X-293131Y-11175D1*
X-292613Y-17765D1*
X-293131Y-24356D1*
X-294675Y-30782D1*
X-297205Y-36890D1*
X-300657Y-42526D1*
X-304951Y-47552D1*
X-309978Y-51846D1*
X-315614Y-55299D1*
X-318630Y-56689D1*
X-321227Y-60652D1*
Y-65568D1*
X-269589Y-13896D1*
X-269470Y31919D1*
X-268605Y37379D1*
X-266896Y42638D1*
X-264386Y47564D1*
X-261136Y52038D1*
X-220283Y93043D1*
X-186388Y126786D1*
X-181915Y130035D1*
X-176988Y132546D1*
X-171730Y134255D1*
X-166269Y135119D1*
X-108386Y135228D1*
X7627Y135119D1*
X13088Y134255D1*
X18346Y132546D1*
X23273Y130035D1*
X27747Y126786D1*
X68752Y85933D1*
X134106Y20427D1*
X137356Y15953D1*
X139866Y11026D1*
X141575Y5768D1*
X142440Y307D1*
X142549Y-57576D1*
Y-128160D1*
X144748Y-133604D1*
X146291Y-140030D1*
X146810Y-146621D1*
X146291Y-153211D1*
X144748Y-159638D1*
X142218Y-165745D1*
X138764Y-171382D1*
X134471Y-176408D1*
X129445Y-180701D1*
X123808Y-184155D1*
X117701Y-186685D1*
X111274Y-188228D1*
X104684Y-188747D1*
X98093Y-188228D1*
X91667Y-186685D1*
X85559Y-184155D1*
X79923Y-180701D1*
X74896Y-176408D1*
X70604Y-171382D1*
X67150Y-165745D1*
X64619Y-159638D1*
X63076Y-153211D1*
X62558Y-146621D1*
X63076Y-140030D1*
X64619Y-133604D1*
X67150Y-127496D1*
X70604Y-121860D1*
X72083Y-119983D1*
X72076Y-17043D1*
X-3596Y58618D1*
X-5139Y52365D1*
X-7669Y46257D1*
X-11123Y40621D1*
X-15416Y35594D1*
X-20442Y31302D1*
X-26079Y27848D1*
X-32186Y25318D1*
X-38613Y23774D1*
X-45203Y23256D1*
X-47773Y23357D1*
X-49049Y18454D1*
X-51579Y12346D1*
X-54049Y8182D1*
X-54050Y-314345D1*
X-51357Y-319196D1*
X-47455Y-312677D1*
X-43163Y-307651D1*
X-38136Y-303358D1*
X-32500Y-299904D1*
X-26392Y-297374D1*
X-19966Y-295831D1*
X-13375Y-295312D1*
X-6785Y-295831D1*
X-445Y-297349D1*
X33445Y-263593D1*
X37919Y-260344D1*
X42845Y-257833D1*
X48104Y-256125D1*
X53564Y-255260D1*
X111448Y-255151D1*
X230619D1*
X251009Y-234744D1*
X251030Y-209810D1*
X247346Y-202831D1*
X245304Y-196545D1*
X244270Y-190016D1*
Y-183404D1*
X245304Y-176875D1*
X247346Y-170589D1*
X250348Y-164699D1*
X254234Y-159352D1*
X258908Y-154677D1*
X264256Y-150791D1*
X270146Y-147790D1*
X276432Y-145748D1*
X282961Y-144714D1*
X289572D1*
X296101Y-145748D1*
X302387Y-147790D1*
X308277Y-150791D1*
X313625Y-154677D1*
X318299Y-159352D1*
X322185Y-164699D1*
X325186Y-170589D1*
X327228Y-176875D1*
X328262Y-183404D1*
Y-190016D1*
X327228Y-196545D1*
X325186Y-202831D1*
X322185Y-208720D1*
X321503Y-209741D1*
X321394Y-252083D1*
X320529Y-257543D1*
X318820Y-262802D1*
X316310Y-267728D1*
X313060Y-272202D1*
X272207Y-313207D1*
X271102Y-314312D1*
X276062Y-317148D1*
X279722Y-320185D1*
X282864Y-323759D1*
X285407Y-327778D1*
X289693Y-335903D1*
X115071Y-393428D2*
X116831Y-388999D1*
X119264Y-384900D1*
X116367Y-383353D1*
X102122D1*
X114466Y-395678D1*
X-137948Y29232D2*
X-132567Y24702D1*
X-130185Y22101D1*
X-131109Y28165D1*
X-131186Y30142D1*
X116844Y463780D2*
X78878D1*
X87619Y454900D1*
X90869Y450427D1*
X93379Y445500D1*
X95088Y440241D1*
X95953Y434781D1*
X96062Y410234D1*
X182283Y410236D1*
Y395344D1*
X187682Y394499D1*
X192941Y392790D1*
X195463Y391627D1*
X197127Y396059D1*
X196907Y397455D1*
X193021Y402803D1*
X190020Y408693D1*
X187978Y414979D1*
X186944Y421508D1*
Y428119D1*
X187970Y434610D1*
X180682Y438618D1*
X176255Y437682D1*
X171504Y437446D1*
X166774Y437955D1*
X162182Y439199D1*
X157843Y441146D1*
X117790Y463140D1*
X135827Y619395D2*
Y573033D1*
X146126Y572115D1*
X148364Y577331D1*
X163531Y604625D1*
X167129Y608791D1*
X168495Y610030D1*
X168520Y610648D1*
X135836Y619417D1*
X-135827Y542545D2*
Y620025D1*
X-170736Y611496D1*
X-166853Y607594D1*
X-163887Y603318D1*
X-148497Y575974D1*
X-146854Y570720D1*
X-146188Y565257D1*
X-146520Y559762D1*
X-147840Y554420D1*
X-150105Y549403D1*
X-153244Y544873D1*
X-147215Y545102D1*
X-142486Y544589D1*
X-137886Y543340D1*
X-88190Y410236D2*
X-79865D1*
X-88214Y418606D1*
X-182283Y310846D2*
Y398690D1*
X-190546Y398562D1*
X-197075Y399596D1*
X-203361Y401638D1*
X-209251Y404639D1*
X-214598Y408525D1*
X-219273Y413199D1*
X-221816Y416538D1*
X-246808Y402096D1*
X-248517Y397239D1*
X-250801Y393067D1*
X-253710Y389302D1*
X-257171Y386039D1*
X-261100Y383358D1*
X-300785Y360728D1*
X-305231Y359038D1*
X-309887Y358064D1*
X-314639Y357831D1*
X-319369Y358344D1*
X-323959Y359589D1*
X-328298Y361538D1*
X-332280Y364142D1*
X-335804Y367337D1*
X-338786Y371043D1*
X-353752Y396972D1*
X-355786Y401273D1*
X-357122Y405839D1*
X-357727Y410556D1*
X-357588Y415311D1*
X-356705Y419986D1*
X-355102Y424465D1*
X-352819Y428638D1*
X-351433Y430584D1*
X-351245Y431610D1*
X-356739Y431276D1*
X-362203Y431941D1*
X-367457Y433581D1*
X-372328Y436146D1*
X-376654Y439549D1*
X-380294Y443677D1*
X-384871Y451287D1*
X-397462Y473709D1*
X-399134Y478961D1*
X-401067Y479312D1*
X-403844Y477049D1*
X-453064Y423234D1*
X-443403Y423147D1*
X-432705Y421453D1*
X-422403Y418105D1*
X-412752Y413188D1*
X-403988Y406820D1*
X-396329Y399161D1*
X-389962Y390398D1*
X-385045Y380747D1*
X-381697Y370445D1*
X-380003Y359747D1*
Y348915D1*
X-381697Y338217D1*
X-385045Y327915D1*
X-389962Y318264D1*
X-396329Y309500D1*
X-403988Y301841D1*
X-412752Y295474D1*
X-422403Y290556D1*
X-432705Y287209D1*
X-443403Y285514D1*
X-454235D1*
X-464933Y287209D1*
X-475235Y290556D1*
X-484886Y295474D1*
X-491438Y300097D1*
X-491656Y95550D1*
X-431997Y95516D1*
X-431860Y183297D1*
X-430995Y188757D1*
X-429286Y194016D1*
X-426776Y198942D1*
X-423526Y203416D1*
X-382673Y244421D1*
X-363782Y263160D1*
X-359308Y266409D1*
X-354382Y268920D1*
X-349123Y270629D1*
X-343663Y271493D1*
X-285780Y271602D1*
X-221510D1*
X-182286Y310837D1*
X-241281Y529327D2*
X-255698Y554936D1*
X-257369Y560180D1*
X-258063Y565640D1*
X-257757Y571136D1*
X-256462Y576493D1*
X-260421Y575505D1*
X-264706Y573635D1*
X-327386Y536987D1*
X-322042Y535667D1*
X-317025Y533403D1*
X-312500Y530268D1*
X-308617Y526367D1*
X-305651Y522091D1*
X-290261Y494747D1*
X-288618Y489493D1*
X-287951Y484030D1*
X-288283Y478535D1*
X-289604Y473193D1*
X-291869Y468176D1*
X-295008Y463646D1*
X-288980Y463875D1*
X-284243Y463361D1*
X-279839Y464412D1*
X-248903Y482114D1*
X-214924Y501252D1*
X-213339Y505694D1*
X-211055Y509866D1*
X-209668Y511814D1*
X-209482Y512837D1*
X-214975Y512503D1*
X-220440Y513167D1*
X-225693Y514808D1*
X-230564Y517373D1*
X-234890Y520776D1*
X-238530Y524904D1*
X-241281Y529327D1*
X398307Y478241D2*
X396927Y474823D1*
X381224Y446101D1*
X382516Y440724D1*
X382949Y435213D1*
X382840Y368357D1*
X382513Y365600D1*
X383122Y364226D1*
X384701Y365638D1*
X386913Y374445D1*
X390822Y383882D1*
X396159Y392591D1*
X402793Y400357D1*
X410559Y406991D1*
X419268Y412328D1*
X428705Y416236D1*
X438636Y418621D1*
X444734Y419358D1*
X450109Y424168D1*
X415770Y462633D1*
X398361Y478345D1*
X305025Y523291D2*
X308117Y527853D1*
X311979Y531776D1*
X316487Y534934D1*
X321492Y537226D1*
X323249Y537783D1*
X311808Y546252D1*
X287203Y560205D1*
X255627Y577923D1*
X254117Y577991D1*
X255786Y572745D1*
X256480Y567285D1*
X256175Y561789D1*
X254881Y556440D1*
X252786Y551675D1*
X243311Y534336D1*
X295123Y505209D1*
X304911Y523085D1*
X283743Y372348D2*
X267602Y381168D1*
X270373Y376454D1*
X276659Y374412D1*
X281094Y372224D1*
X-417719Y-98972D2*
X-430853D1*
X-427214Y-104479D1*
X-424479Y-110497D1*
X-422720Y-116869D1*
X-421980Y-123438D1*
X-422277Y-130042D1*
X-423602Y-136518D1*
X-425925Y-142707D1*
X-429188Y-148457D1*
X-433308Y-153625D1*
X-438188Y-158084D1*
X-443705Y-161726D1*
X-446672Y-163217D1*
X-448944Y-169577D1*
Y-200115D1*
X-409493Y-200280D1*
X-402965Y-201314D1*
X-396678Y-203356D1*
X-390789Y-206357D1*
X-385441Y-210243D1*
X-357029Y-238471D1*
X-330462Y-265038D1*
X-327941Y-261073D1*
X-323648Y-256047D1*
X-318622Y-251755D1*
X-312986Y-248301D1*
X-306878Y-245770D1*
X-300451Y-244227D1*
X-293861Y-243709D1*
X-287270Y-244227D1*
X-280844Y-245770D1*
X-274139Y-248635D1*
X-236375Y-210856D1*
X-236357Y-80353D1*
X-292151Y-135969D1*
X-296625Y-139218D1*
X-301551Y-141728D1*
X-306810Y-143437D1*
X-312270Y-144302D1*
X-353755Y-144411D1*
X-357709Y-146709D1*
X-363816Y-149239D1*
X-370243Y-150782D1*
X-376833Y-151301D1*
X-383424Y-150782D1*
X-389850Y-149239D1*
X-395958Y-146709D1*
X-401594Y-143255D1*
X-406621Y-138962D1*
X-410913Y-133936D1*
X-414367Y-128299D1*
X-416898Y-122192D1*
X-418441Y-115765D1*
X-418959Y-109175D1*
X-418441Y-102584D1*
X-417694Y-98980D1*
X-309644Y-338703D2*
X-306575Y-335230D1*
X-301549Y-330937D1*
X-296907Y-327833D1*
X-303696Y-326797D1*
X-309727Y-324848D1*
X-309722Y-338644D1*
X-492046Y-305715D2*
X-487079Y-301671D1*
X-478370Y-296333D1*
X-468933Y-292425D1*
X-459001Y-290041D1*
X-448819Y-289239D1*
X-438636Y-290041D1*
X-428705Y-292425D1*
X-419268Y-296333D1*
X-417091Y-297552D1*
X-430227Y-284424D1*
X-477660Y-284272D1*
X-484189Y-283238D1*
X-490487Y-281189D1*
X-492031Y-283064D1*
X-492054Y-305707D1*
X-232190Y-306340D2*
X-202478D1*
X-202512Y-276631D1*
X-232205Y-306349D1*
X-116707Y-451310D2*
D10*
Y-541113D1*
X-211084D2*
X-22329D1*
X328584Y-442888D2*
Y-506202D1*
X379558D1*
X-202127Y565525D2*
Y514937D1*
X-258075Y565525D2*
X-146180D1*
X-343891Y484298D2*
Y433710D1*
X-399839Y484298D2*
X-287944D1*
X343951Y486155D2*
X399797D1*
X144730Y564503D2*
X256420D1*
X342552Y69890D2*
Y-73346D1*
X194164Y-1728D2*
X342552D1*
D63*
X-334339Y-414105D3*
X-116706Y-541113D3*
D66*
X259316Y-374930D3*
X215094Y-398265D3*
X170873Y-421600D3*
X328584Y-506202D3*
X284364Y-529535D3*
X240140Y-552870D3*
D20*
X85827Y515748D3*
Y582677D3*
X-85827Y515748D3*
Y582677D3*
D21*
X-63386Y360236D3*
X-130315D3*
X130315D3*
X63386D3*
D22*
X17717Y509843D3*
Y592520D3*
X-17717Y509843D3*
Y592520D3*
D69*
X-202127Y565525D3*
X-160046Y492080D3*
X-343891Y484298D3*
X-301810Y410853D3*
D72*
X343951Y486155D3*
X303362Y411875D3*
X200575Y564503D3*
X159986Y490223D3*
D23*
X342553Y-1728D3*
D24*
X-432250D3*
G04 Bottom Clear*
%LPC*%
D35*
X-376833Y-109175D3*
X237304Y-436793D3*
X264450Y-491470D3*
X196241Y5105D3*
X-162354Y-5085D3*
X260538Y335492D3*
X203539Y336154D3*
X228940Y424814D3*
X568Y367707D3*
X10446Y423184D3*
X-123454Y456072D3*
X152938Y589760D3*
X-160852Y588079D3*
X-187240Y440558D3*
X59495Y-346148D3*
X-160371Y-345543D3*
X291138Y-437732D3*
X286266Y-186710D3*
X-119341Y-494482D3*
X-276787Y-365017D3*
X-303067Y-209196D3*
X-464083Y-124857D3*
X83083Y-567714D3*
X81161Y-472538D3*
X104684Y-146621D3*
X-334739Y-17765D3*
X-293861Y-285835D3*
X-45203Y65382D3*
X-13375Y-337438D3*
X-89286Y-337463D3*
X-89113Y31471D3*
X-162345Y-105454D3*
M02*
